<svg version="1.1" xmlns="http://www.w3.org/2000/svg">
<path d="M367,54 L311,110 L237,170 L287,158 L385,166 L490,221 L676,190 L450,140 L367,158 L345,144 L357,131 L414,110 L471,98 L549,64 L675,141 L700,198 L746,228 L735,254 L705,262 L637,463 L714,446 L723,356 L740,562 L680,503 L505,381 L442,367 L599,465 L676,672 L602,583 L464,679 L221,708 L277,668 L236,660 L499,520 L534,455 L402,550 L311,478 L316,468 L343,462 L441,351 L470,355 L633,262 L652,243 L601,240 L526,275 L519,270 L371,187 L355,250 L309,305 L210,354 L324,358 L324,441 L222,554 L86,547 L108,507 L215,493 L284,412 L166,415 L141,394 L65,474 L80,363 L102,303 L241,136 L207,147z"/>
</svg>