<svg version="1.1" xmlns="http://www.w3.org/2000/svg">
<path d="M291,46 L411,47 L603,63 L727,169 L626,388 L659,216 L620,157 L592,322 L475,347 L342,279 L311,162 L190,323 L250,410 L306,396 L343,514 L313,603 L421,645 L489,535 L512,453 L602,464 L687,508 L732,626 L661,742 L423,754 L270,750 L103,659 L184,573 L182,458 L115,439 L97,366 L80,295 L93,206 L120,102z M481,100 L431,139 L405,124 L404,226 L468,279 L539,269 L543,177 L440,223 L453,155z M252,509 L222,586 L173,651 L246,707 L339,712 L345,677 L315,649 L269,610 L260,535z M544,562 L532,667 L620,680 L655,561 L592,538 L594,628 L555,626z"/>
</svg>