<svg version="1.1" xmlns="http://www.w3.org/2000/svg">
<path d="M84,196 L99,196 L121,202 L143,209 L172,225 L204,241 L239,263 L278,286 L316,307 L350,329 L386,348 L419,364 L450,377 L483,394 L512,403 L542,414 L568,423 L592,426 L618,432 L642,435 L664,435 L684,433 L703,433 L722,427 L737,424 L748,422 L760,423 L754,432 L744,438 L732,444 L716,452 L695,461 L672,472 L646,483 L619,496 L584,512 L547,526 L511,538 L478,548 L443,553 L411,555 L380,555 L350,553 L320,547 L291,537 L264,524 L238,508 L213,490 L188,467 L164,441 L141,412 L120,381 L100,345 L83,315 L71,286 L61,262 L56,243 L53,223 L54,210 L61,202 L71,197z"/>
</svg>