<svg version="1.1" xmlns="http://www.w3.org/2000/svg">
<path d="M268,654 L250,649 L251,621 L254,604 L259,592 L274,568 L291,552 L311,540 L326,535 L327,525 L325,521 L322,514 L317,503 L312,491 L307,496 L298,506 L297,507 L297,508 L286,518 L272,528 L260,533 L251,533 L251,503 L263,498 L287,491 L304,483 L317,470 L324,460 L325,447 L314,440 L315,423 L320,407 L327,405 L338,411 L338,423 L332,438 L336,456 L352,462 L366,462 L372,454 L375,431 L368,408 L350,387 L312,366 L319,353 L333,359 L337,370 L347,354 L330,334 L337,325 L360,352 L388,404 L385,445 L377,460 L367,476 L350,496 L346,511 L346,521 L349,531 L372,534 L405,550 L431,575 L450,610 L443,613 L437,599 L428,598 L420,605 L419,615 L424,615 L426,609 L437,609 L438,618 L438,619 L417,628 L413,612 L404,588 L391,568 L375,550 L357,547 L339,545 L323,548 L306,563 L292,585 L285,608 L285,631 L289,649 L297,669 L256,685 L250,683 L250,677 L262,671 L263,661 L286,662 L280,648z M332,423 L329,413 L320,423 L325,437z M334,478 L339,480 L329,510 L347,480 L338,465 L320,480z"/>
</svg>