<svg version="1.1" xmlns="http://www.w3.org/2000/svg">
<path d="M407,13 L399,101 L509,77 L401,138 L453,234 L460,250 L455,281 L441,333 L420,398 L401,446 L383,492 L369,534 L365,551 L375,566 L384,548 L395,535 L419,483 L449,411 L486,321 L507,312 L520,320 L520,334 L500,378 L455,461 L428,509 L395,576 L380,614 L379,633 L385,640 L401,635 L410,614 L438,563 L467,507 L494,442 L524,407 L539,411 L546,431 L539,453 L532,473 L518,484 L496,527 L476,566 L462,580 L445,621 L418,662 L407,684 L405,704 L410,717 L426,715 L435,680 L448,648 L470,606 L492,564 L509,522 L533,510 L547,515 L550,528 L537,555 L518,593 L495,622 L481,650 L472,695 L461,726 L440,749 L418,768 L399,762 L389,749 L377,759 L371,772 L362,768 L362,737 L364,685 L355,647 L347,638 L337,637 L328,645 L327,664 L327,687 L337,726 L336,753 L324,777 L308,776 L298,761 L314,729 L316,720 L314,707 L299,689 L282,669 L271,623 L274,597 L280,592 L291,596 L299,608 L318,610 L323,595 L319,571 L302,520 L307,463 L306,409 L303,360 L317,312 L334,269 L338,247 L347,234 L356,235 L360,249 L356,346 L343,418 L329,482 L323,527 L336,550 L345,547 L362,472 L377,415 L396,359 L421,275 L440,242 L445,238 L445,232 L374,146 L282,206 L361,126 L265,62 L371,99z"/>
</svg>