<svg version="1.1" xmlns="http://www.w3.org/2000/svg">
<path d="M2,2 L798,2 L798,798 L2,798z M396,59 L335,57 L292,61 L256,66 L228,78 L185,85 L150,91 L138,95 L125,116 L128,142 L138,166 L175,196 L189,201 L216,220 L257,231 L291,235 L339,238 L379,236 L382,214 L393,195 L402,185 L344,161 L295,155 L260,157 L243,158 L225,154 L249,145 L301,127 L296,105 L297,87 L314,67 L322,70 L312,81 L304,98 L309,124 L328,143 L354,158 L379,171 L410,175 L411,189 L394,209 L391,230 L400,259 L422,277 L452,283 L455,291 L441,322 L430,382 L424,440 L449,479 L470,521 L491,571 L504,600 L554,654 L532,591 L526,527 L529,470 L534,400 L536,370 L531,316 L512,312 L484,305 L465,290 L457,258 L487,224 L493,226 L467,258 L468,282 L495,302 L531,306 L527,285 L515,260 L543,283 L559,315 L574,359 L574,404 L570,458 L559,505 L553,574 L552,624 L589,746 L632,747 L634,738 L607,680 L579,637 L592,587 L610,535 L627,477 L626,421 L626,341 L614,288 L609,252 L587,200 L552,164 L503,142 L466,133 L448,122 L441,142 L439,108 L431,92z M429,352 L369,372 L416,426z M412,68 L438,88 L461,122 L529,135 L497,105 L466,83 L435,70z M189,263 L183,279 L180,324 L169,367 L167,411 L169,457 L174,506 L186,548 L173,528 L167,494 L165,471 L152,485 L148,495 L133,513 L128,560 L143,605 L171,644 L182,660 L168,679 L154,683 L133,702 L124,720 L126,736 L152,735 L183,709 L216,686 L196,675 L193,667 L233,689 L281,704 L325,716 L368,724 L428,735 L484,745 L577,745 L570,713 L513,703 L465,694 L448,690 L424,679 L376,667 L304,617 L244,572 L201,552 L195,542 L236,559 L245,428 L252,570 L295,560 L272,504 L256,426 L278,503 L309,568 L357,624 L400,660 L442,683 L489,693 L538,701 L568,705 L559,669 L521,626 L499,605 L475,548 L451,494 L426,451 L380,399 L328,346 L263,285 L225,263 L212,261 L204,255z M619,695 L644,746 L712,745 L712,735 L673,718 L649,696z"/>
</svg>