<svg version="1.1" xmlns="http://www.w3.org/2000/svg">
<path d="M266,77 L325,44 L394,67 L429,113 L401,164 L453,191 L502,158 L503,81 L481,71 L520,35 L588,36 L622,83 L617,136 L654,175 L604,212 L658,236 L652,276 L564,291 L510,308 L495,340 L585,308 L649,332 L676,385 L624,427 L572,469 L620,479 L696,464 L747,486 L760,544 L729,585 L678,562 L621,541 L566,541 L607,557 L660,593 L660,655 L612,692 L602,751 L527,759 L446,757 L412,723 L403,666 L378,690 L372,740 L308,757 L245,767 L190,725 L187,675 L159,633 L211,618 L255,581 L180,595 L97,626 L52,600 L22,557 L46,518 L68,548 L266,508 L227,470 L195,430 L188,380 L217,345 L175,309 L275,282 L229,259 L185,205 L237,212 L297,157 L290,98z M438,205 L377,243 L445,267 L495,238z M342,307 L254,341 L250,374 L302,340 L362,325 L420,350 L456,315 L421,290z M319,385 L276,407 L292,446z M493,387 L522,415 L541,374z M425,414 L369,468 L323,486 L352,504 L418,497 L486,479z M402,540 L345,560 L401,591 L432,572 L489,584 L470,543z M322,634 L269,642 L280,703z M548,626 L495,636 L505,694z"/>
</svg>