<svg version="1.1" xmlns="http://www.w3.org/2000/svg">
<path d="M91,58 L128,84 L158,107 L191,58 L231,37 L269,36 L311,26 L361,44 L371,66 L360,88 L381,115 L369,142 L380,156 L401,145 L393,128 L419,48 L450,126 L470,57 L490,37 L570,46 L619,45 L667,34 L698,44 L730,75 L732,115 L719,115 L672,93 L629,72 L603,94 L678,117 L709,176 L720,274 L730,148 L751,176 L751,246 L741,273 L760,326 L750,405 L732,415 L730,506 L738,545 L699,515 L700,459 L721,403 L711,348 L681,378 L682,437 L680,477 L691,567 L721,594 L730,645 L730,696 L680,737 L632,727 L590,746 L591,718 L551,735 L511,716 L558,689 L569,656 L589,630 L627,675 L669,689 L699,686 L671,657 L680,628 L710,625 L692,599 L650,597 L612,614 L621,587 L650,567 L652,528 L640,509 L658,466 L659,417 L672,359 L690,333 L690,278 L671,234 L669,186 L649,146 L609,135 L582,96 L541,74 L528,83 L488,85 L529,124 L561,118 L609,156 L641,167 L660,326 L639,475 L591,595 L532,654 L479,684 L407,746 L320,755 L307,737 L380,704 L380,677 L331,677 L279,674 L281,641 L301,617 L318,578 L339,559 L349,594 L341,635 L352,646 L381,594 L388,540 L420,515 L420,456 L479,445 L511,458 L529,427 L560,437 L580,474 L569,525 L569,545 L561,566 L528,573 L511,573 L509,557 L520,540 L522,515 L509,518 L492,508 L501,490 L491,475 L478,473 L460,484 L461,506 L460,527 L450,545 L442,558 L430,557 L418,552 L408,564 L412,585 L394,592 L390,615 L398,633 L419,635 L438,616 L451,604 L466,616 L507,625 L519,615 L539,597 L561,585 L580,568 L596,539 L600,514 L589,488 L599,458 L591,417 L598,397 L589,368 L572,328 L550,307 L521,285 L481,225 L479,176 L519,176 L542,246 L569,257 L588,237 L600,335 L622,362 L628,332 L628,275 L611,213 L589,186 L549,186 L542,166 L510,148 L452,146 L419,176 L387,219 L391,315 L420,239 L470,277 L491,316 L509,355 L470,368 L458,356 L461,318 L430,323 L401,338 L388,368 L350,345 L322,347 L298,345 L269,378 L280,398 L309,399 L349,408 L370,438 L371,460 L349,466 L319,458 L281,435 L252,436 L238,453 L220,487 L181,504 L160,566 L133,584 L158,618 L179,626 L202,596 L231,560 L229,524 L240,507 L271,497 L292,507 L311,479 L340,498 L311,516 L302,545 L278,578 L239,593 L229,627 L239,652 L268,699 L289,715 L270,737 L250,749 L210,746 L181,757 L140,768 L130,756 L109,737 L86,731 L88,716 L151,679 L79,648 L40,627 L60,519 L91,479 L137,496 L161,419 L141,370 L108,375 L79,397 L61,426 L40,406 L47,358 L38,319 L46,224 L74,214 L92,217 L129,287 L202,167 L239,247 L151,345 L172,387 L221,388 L238,350 L263,279 L333,315 L321,224 L290,157 L300,116 L310,87 L332,64 L282,76 L230,106 L240,144 L199,132 L162,132 L148,146 L149,165 L139,187 L80,175 L71,136 L48,96z"/>
</svg>