<svg version="1.1" xmlns="http://www.w3.org/2000/svg">
<path d="M131,35 L154,23 L180,21 L206,27 L228,42 L242,58 L273,61 L302,71 L339,76 L370,86 L393,93 L408,104 L441,117 L462,140 L471,156 L488,159 L494,162 L504,154 L522,135 L542,128 L569,126 L588,138 L599,161 L599,180 L589,195 L571,208 L561,215 L544,215 L524,221 L521,234 L534,262 L546,294 L546,323 L536,347 L533,405 L540,429 L540,491 L542,515 L536,547 L528,563 L510,582 L505,579 L508,573 L493,571 L479,614 L467,663 L456,706 L467,732 L488,741 L511,749 L533,754 L541,768 L516,778 L492,778 L441,772 L416,770 L414,757 L420,734 L419,671 L421,634 L416,616 L382,646 L334,674 L322,693 L309,740 L308,764 L302,782 L292,780 L280,779 L279,763 L278,754 L280,735 L278,712 L265,686 L266,676 L273,670 L294,662 L343,614 L353,594 L414,552 L398,533 L377,513 L357,490 L326,462 L304,452 L284,442 L269,414 L267,379 L274,348 L291,309 L310,255 L320,242 L332,221 L368,178 L395,149 L374,139 L331,128 L313,116 L292,112 L256,104 L246,131 L229,147 L205,158 L175,158 L150,148 L131,134 L120,119 L112,94 L112,79 L106,73 L107,63 L107,58 L111,53 L113,47 L117,43 L120,38z M402,344 L398,366 L389,386 L392,395 L435,441 L475,484 L485,496 L498,507 L500,522 L507,514 L516,510 L498,459 L496,428 L497,416 L492,378 L490,351 L494,322 L481,314 L467,320 L452,321 L441,331 L426,335z M499,563 L513,560 L514,538 L505,538 L501,551 L493,559z"/>
</svg>