<svg version="1.1" width="600" height="600" viewBox="-66.95345306396484 -16.705894470214844 926.8065643310547 926.8065643310547" xmlns="http://www.w3.org/2000/svg"><path d="M424,77 L300,149 L382,442 L509,397 L456,232 L406,222 L389,380 L334,164 L464,168 L542,345 L767,458 L538,461 L388,663 L31,509 L247,130z M263,300 L134,429 L237,541z" fill="gainsboro" stroke="black" stroke-width="2" vector-effect="non-scaling-stroke"/><path d="M424,77 L767,458 L388,663 L31,509 L247,130z" fill="none" stroke="red" stroke-width="2" vector-effect="non-scaling-stroke"/><circle cx="396.4498291015625" cy="446.6973876953125" r="370.7226257324219" fill="none" stroke="gray" stroke-width="1" vector-effect="non-scaling-stroke"/><circle cx="337.4031761249145" cy="403.1568023044215" r="12.357420857747396" fill="red" stroke="none"/><rect x="31" y="77" width="736" height="586" fill="none" stroke="gray" stroke-width="1" stroke-dasharray="4 1" vector-effect="non-scaling-stroke"/><rect x="-290.55792236328125" y="-295.8431701660156" width="581.1158447265625" height="591.6863403320312" fill="none" stroke="gray" stroke-width="1" transform="translate(353.1177062988281,432.5344543457031) rotate(-41.9 0 0)" vector-effect="non-scaling-stroke"/></svg>