<svg version="1.1" width="600" height="600" viewBox="-72.34021759033203 -72.01117706298828 983.0814361572266 983.0814361572266" xmlns="http://www.w3.org/2000/svg"><path d="M189,104 L647,99 L779,285 L650,645 L200,746 L27,448z M562,159 L214,214 L195,662 L599,372 L252,562 L275,282 L522,267 L643,385z M297,313 L291,445 L504,408 L504,285z" fill="gainsboro" stroke="black" stroke-width="2" vector-effect="non-scaling-stroke"/><path d="M189,104 L647,99 L779,285 L650,645 L200,746 L27,448z" fill="none" stroke="red" stroke-width="2" vector-effect="non-scaling-stroke"/><circle cx="419.20050048828125" cy="419.529541015625" r="393.2325744628906" fill="none" stroke="gray" stroke-width="1" vector-effect="non-scaling-stroke"/><circle cx="411.8400458972265" cy="414.99033915051064" r="13.107752482096354" fill="red" stroke="none"/><rect x="27" y="99" width="752" height="647" fill="none" stroke="gray" stroke-width="1" stroke-dasharray="4 1" vector-effect="non-scaling-stroke"/><rect x="-384.7210693359375" y="-314.4124450683594" width="769.442138671875" height="628.8248901367188" fill="none" stroke="gray" stroke-width="1" transform="translate(405.5007629394531,377.64202880859375) rotate(-12.6 0 0)" vector-effect="non-scaling-stroke"/></svg>