<svg version="1.1" width="600" height="600" viewBox="-96.95341491699219 -82.45341491699219 1000.9068298339844 1000.9068298339844" xmlns="http://www.w3.org/2000/svg"><path d="M69,198 L231,301 L377,363 L539,303 L506,369 L601,325 L417,492 L653,317 L474,246 L397,196 L734,273 L738,638 L265,640 L654,590 L577,446 L465,561 L379,489z" fill="gainsboro" stroke="black" stroke-width="2" vector-effect="non-scaling-stroke"/><path d="M69,198 L397,196 L734,273 L738,638 L265,640z" fill="none" stroke="red" stroke-width="2" vector-effect="non-scaling-stroke"/><circle cx="403.5" cy="418.0" r="400.36273193359375" fill="none" stroke="gray" stroke-width="1" vector-effect="non-scaling-stroke"/><circle cx="533.9628419430367" cy="426.8920571411636" r="13.345424397786458" fill="red" stroke="none"/><rect x="69" y="196" width="669" height="444" fill="none" stroke="gray" stroke-width="1" stroke-dasharray="4 1" vector-effect="non-scaling-stroke"/><rect x="-333.5667724609375" y="-221.7189483642578" width="667.133544921875" height="443.4378967285156" fill="none" stroke="gray" stroke-width="1" transform="translate(403.4986877441406,417.6934509277344) rotate(-0.2 0 0)" vector-effect="non-scaling-stroke"/></svg>