<svg version="1.1" width="600" height="600" viewBox="-84.11076354980469 -169.2522735595703 1004.4581604003906 1004.4581604003906" xmlns="http://www.w3.org/2000/svg"><path d="M579,51 L712,59 L716,182 L744,300 L748,345 L749,389 L732,470 L716,510 L692,551 L648,618 L585,670 L471,699 L372,729 L282,711 L169,643 L88,562 L50,226 L120,159 L252,183 L244,350 L137,234 L137,350 L323,487 L293,103 L365,78 L508,459 L496,279 L575,276 L665,382 L628,119 L598,228 L474,154z" fill="gainsboro" stroke="black" stroke-width="2" vector-effect="non-scaling-stroke"/><path d="M579,51 L712,59 L744,300 L748,345 L749,389 L732,470 L716,510 L692,551 L648,618 L585,670 L372,729 L282,711 L169,643 L88,562 L50,226 L120,159 L365,78z" fill="none" stroke="red" stroke-width="2" vector-effect="non-scaling-stroke"/><circle cx="418.1183166503906" cy="332.976806640625" r="401.78326416015625" fill="none" stroke="gray" stroke-width="1" vector-effect="non-scaling-stroke"/><circle cx="414.57305236011416" cy="412.5415711982708" r="13.392775472005209" fill="red" stroke="none"/><rect x="50" y="51" width="699" height="678" fill="none" stroke="gray" stroke-width="1" stroke-dasharray="4 1" vector-effect="non-scaling-stroke"/><rect x="-341.81817626953125" y="-323.3778991699219" width="683.6363525390625" height="646.7557983398438" fill="none" stroke="gray" stroke-width="1" transform="translate(411.8404541015625,398.03179931640625) rotate(-7.1 0 0)" vector-effect="non-scaling-stroke"/></svg>