<svg version="1.1" width="600" height="600" viewBox="-42.751869201660156 -43.751869201660156 897.5037384033203 897.5037384033203" xmlns="http://www.w3.org/2000/svg"><path d="M123,231 L264,115 L322,109 L459,80 L526,104 L575,174 L672,206 L668,233 L765,406 L722,545 L725,420 L645,425 L612,344 L633,364 L656,379 L708,409 L720,390 L726,381 L645,264 L641,211 L542,220 L536,133 L518,108 L492,101 L404,101 L413,166 L384,196 L339,266 L320,314 L326,375 L265,455 L328,510 L371,523 L381,515 L385,494 L506,470 L446,496 L440,503 L439,529 L454,610 L480,699 L414,577 L251,470 L264,564 L249,590 L260,605 L320,661 L346,719 L218,565 L235,517 L242,457 L209,422 L134,392 L95,401 L47,404 L160,370 L230,409 L295,394 L307,390 L272,271 L360,210 L404,160 L229,164 L144,228z" fill="gainsboro" stroke="black" stroke-width="2" vector-effect="non-scaling-stroke"/><path d="M123,231 L264,115 L459,80 L526,104 L672,206 L765,406 L722,545 L480,699 L346,719 L47,404z" fill="none" stroke="red" stroke-width="2" vector-effect="non-scaling-stroke"/><circle cx="406.0" cy="405.0" r="359.0014953613281" fill="none" stroke="gray" stroke-width="1" vector-effect="non-scaling-stroke"/><circle cx="419.5886606859797" cy="342.2044686642276" r="11.96671651204427" fill="red" stroke="none"/><rect x="47" y="80" width="718" height="639" fill="none" stroke="gray" stroke-width="1" stroke-dasharray="4 1" vector-effect="non-scaling-stroke"/><rect x="-294.80841064453125" y="-320.0599060058594" width="589.6168212890625" height="640.1198120117188" fill="none" stroke="gray" stroke-width="1" transform="translate(430.8031311035156,380.11865234375) rotate(-43.5 0 0)" vector-effect="non-scaling-stroke"/></svg>