<svg version="1.1" width="600" height="600" viewBox="-53.42687225341797 -49.406578063964844 908.4426116943359 908.4426116943359" xmlns="http://www.w3.org/2000/svg"><path d="M376,44 L421,42 L437,86 L442,127 L417,178 L418,199 L484,218 L576,401 L541,419 L468,280 L441,360 L467,416 L469,462 L462,605 L462,763 L419,763 L421,606 L399,462 L376,607 L378,762 L334,762 L334,606 L328,461 L328,420 L356,359 L329,278 L254,420 L219,404 L312,221 L376,199 L380,177 L355,129 L361,84z" fill="gainsboro" stroke="black" stroke-width="2" vector-effect="non-scaling-stroke"/><path d="M376,44 L421,42 L576,401 L462,763 L419,763 L334,762 L219,404z" fill="none" stroke="red" stroke-width="2" vector-effect="non-scaling-stroke"/><circle cx="400.79443359375" cy="404.8147277832031" r="363.3770446777344" fill="none" stroke="gray" stroke-width="1" vector-effect="non-scaling-stroke"/><circle cx="398.39632867733843" cy="395.24726617853196" r="12.11256815592448" fill="red" stroke="none"/><rect x="219" y="42" width="357" height="721" fill="none" stroke="gray" stroke-width="1" stroke-dasharray="4 1" vector-effect="non-scaling-stroke"/><rect x="-356.44195556640625" y="-169.80653381347656" width="712.8839111328125" height="339.6130676269531" fill="none" stroke="gray" stroke-width="1" transform="translate(395.8387451171875,407.7751770019531) rotate(-72.5 0 0)" vector-effect="non-scaling-stroke"/></svg>