<svg version="1.1" width="600" height="600" viewBox="-58.80525207519531 -69.80958557128906 889.4132995605469 889.4132995605469" xmlns="http://www.w3.org/2000/svg"><path d="M128,240 L232,226 L225,327 L304,290 L379,194 L506,263 L615,277 L630,203 L688,187 L733,372 L673,585 L550,621 L502,579 L577,541 L527,469 L459,504 L350,467 L274,499 L269,576 L203,542 L129,570 L54,503 L90,430 L128,438 L92,358z M152,359 L201,392 L180,444 L223,467 L269,356z M314,356 L424,321 L460,285 L495,319 L497,282 L425,248 L350,284 L350,319z M367,429 L425,466 L447,381 L385,385z M498,403 L555,379 L585,382 L616,313 L528,350z M609,541 L643,507 L651,481 L666,518 L680,422 L623,424z" fill="gainsboro" stroke="black" stroke-width="2" vector-effect="non-scaling-stroke"/><path d="M128,240 L379,194 L688,187 L733,372 L673,585 L550,621 L129,570 L54,503 L92,358z" fill="none" stroke="red" stroke-width="2" vector-effect="non-scaling-stroke"/><circle cx="385.9013977050781" cy="374.8970642089844" r="355.76531982421875" fill="none" stroke="gray" stroke-width="1" vector-effect="non-scaling-stroke"/><circle cx="412.1629224557415" cy="396.88432702764356" r="11.858843994140624" fill="red" stroke="none"/><rect x="54" y="187" width="679" height="434" fill="none" stroke="gray" stroke-width="1" stroke-dasharray="4 1" vector-effect="non-scaling-stroke"/><rect x="-340.89630126953125" y="-215.3816375732422" width="681.7926025390625" height="430.7632751464844" fill="none" stroke="gray" stroke-width="1" transform="translate(392.8570861816406,409.12298583984375) rotate(-1.2 0 0)" vector-effect="non-scaling-stroke"/></svg>