<svg version="1.1" width="600" height="600" viewBox="-40.77130889892578 0.7286911010742188 899.5426177978516 899.5426177978516" xmlns="http://www.w3.org/2000/svg"><path d="M122,241 L188,233 L285,266 L362,300 L423,333 L469,368 L494,400 L505,410 L499,388 L474,354 L430,292 L403,246 L390,210 L395,188 L417,184 L434,177 L450,169 L463,163 L479,152 L498,153 L518,165 L545,184 L572,213 L604,251 L639,298 L680,355 L720,421 L744,465 L747,490 L731,495 L696,479 L667,468 L648,464 L637,465 L636,475 L644,487 L659,511 L684,542 L716,582 L733,607 L717,595 L689,564 L652,551 L610,555 L556,581 L501,623 L455,636 L422,618 L402,564 L393,482 L372,419 L337,374 L285,351 L221,346 L170,367 L141,413 L126,486 L130,586 L125,626 L115,608 L99,527 L78,390 L85,294z" fill="gainsboro" stroke="black" stroke-width="2" vector-effect="non-scaling-stroke"/><path d="M122,241 L479,152 L498,153 L518,165 L545,184 L572,213 L604,251 L639,298 L680,355 L720,421 L744,465 L747,490 L733,607 L455,636 L125,626 L115,608 L99,527 L78,390 L85,294z" fill="none" stroke="red" stroke-width="2" vector-effect="non-scaling-stroke"/><circle cx="409.0" cy="450.5" r="359.8170471191406" fill="none" stroke="gray" stroke-width="1" vector-effect="non-scaling-stroke"/><circle cx="438.29139927268835" cy="387.5169349519582" r="11.993901570638021" fill="red" stroke="none"/><rect x="78" y="152" width="669" height="484" fill="none" stroke="gray" stroke-width="1" stroke-dasharray="4 1" vector-effect="non-scaling-stroke"/><rect x="-327.50701904296875" y="-239.44888305664062" width="655.0140380859375" height="478.89776611328125" fill="none" stroke="gray" stroke-width="1" transform="translate(408.3397521972656,400.1192321777344) rotate(-5.9 0 0)" vector-effect="non-scaling-stroke"/></svg>