<svg version="1.1" width="600" height="600" viewBox="645.712329864502 29.985034942626953 141.0299301147461 141.0299301147461" xmlns="http://www.w3.org/2000/svg"><path d="M661,112 L661,96 L666,96 L666,87 L743,87 L771,87 L771,114 L750,114 L750,113 L742,113 L742,106 L710,106 L710,113 L666,113 L666,112z" fill="gainsboro" stroke="black" stroke-width="2" vector-effect="non-scaling-stroke"/><path d="M661,112 L661,96 L666,87 L771,87 L771,114 L750,114 L666,113z" fill="none" stroke="red" stroke-width="2" vector-effect="non-scaling-stroke"/><circle cx="716.227294921875" cy="100.5" r="56.41197204589844" fill="none" stroke="gray" stroke-width="1" vector-effect="non-scaling-stroke"/><circle cx="716.506137322593" cy="99.41522823168393" r="1.8803990681966145" fill="red" stroke="none"/><rect x="661" y="87" width="110" height="27" fill="none" stroke="gray" stroke-width="1" stroke-dasharray="4 1" vector-effect="non-scaling-stroke"/><rect x="-55.0" y="-13.5" width="110.0" height="27.0" fill="none" stroke="gray" stroke-width="1" transform="translate(716.0,100.5) rotate(0.0 0 0)" vector-effect="non-scaling-stroke"/></svg>