<svg version="1.1" width="600" height="600" viewBox="-218.3644027709961 -84.3644027709961 977.7288055419922 977.7288055419922" xmlns="http://www.w3.org/2000/svg"><path d="M204,36 L215,24 L249,14 L305,30 L356,54 L421,122 L424,137 L441,114 L457,103 L485,98 L507,112 L524,137 L523,159 L508,173 L461,191 L490,206 L530,217 L567,242 L601,287 L616,324 L618,358 L613,391 L600,425 L593,441 L586,436 L577,360 L558,319 L545,299 L509,272 L494,263 L490,289 L483,318 L464,354 L443,398 L431,436 L437,453 L466,482 L479,501 L480,545 L482,596 L469,648 L454,693 L451,718 L444,742 L408,751 L411,729 L406,688 L396,649 L382,613 L369,561 L360,519 L357,480 L348,509 L332,539 L327,577 L328,610 L341,647 L337,688 L329,733 L322,764 L304,790 L292,795 L274,758 L278,723 L262,647 L254,587 L253,520 L261,475 L280,436 L291,421 L307,415 L325,398 L348,354 L352,315 L351,264 L350,216 L348,182 L360,142 L351,110 L334,95 L310,75 L274,52 L247,43z M435,247 L426,256 L428,269 L441,269 L446,258 L444,252z" fill="gainsboro" stroke="black" stroke-width="2" vector-effect="non-scaling-stroke"/><path d="M204,36 L215,24 L249,14 L305,30 L485,98 L507,112 L524,137 L601,287 L616,324 L618,358 L613,391 L600,425 L593,441 L444,742 L292,795 L274,758 L254,587z" fill="none" stroke="red" stroke-width="2" vector-effect="non-scaling-stroke"/><circle cx="270.5" cy="404.5" r="391.0915222167969" fill="none" stroke="gray" stroke-width="1" vector-effect="non-scaling-stroke"/><circle cx="400.039898753928" cy="398.9233085749135" r="13.03638407389323" fill="red" stroke="none"/><rect x="204" y="14" width="414" height="781" fill="none" stroke="gray" stroke-width="1" stroke-dasharray="4 1" vector-effect="non-scaling-stroke"/><rect x="-192.1433868408203" y="-390.8450927734375" width="384.2867736816406" height="781.690185546875" fill="none" stroke="gray" stroke-width="1" transform="translate(429.06634521484375,390.11102294921875) rotate(-5.1 0 0)" vector-effect="non-scaling-stroke"/></svg>