<svg version="1.1" width="600" height="600" viewBox="-117.94737243652344 -111.21247863769531 1044.5695495605469 1044.5695495605469" xmlns="http://www.w3.org/2000/svg"><path d="M247,24 L289,29 L334,53 L347,78 L352,105 L352,131 L365,160 L380,177 L399,182 L410,169 L414,127 L414,82 L421,52 L440,26 L460,16 L482,25 L502,49 L511,86 L499,141 L493,167 L468,209 L447,246 L361,353 L348,385 L348,414 L355,436 L375,449 L396,449 L441,419 L460,402 L480,387 L511,341 L537,297 L546,242 L553,169 L557,143 L569,112 L589,86 L609,73 L636,76 L655,91 L667,111 L670,139 L665,172 L650,205 L629,241 L617,261 L612,281 L626,290 L653,284 L686,272 L706,261 L720,259 L745,274 L751,286 L745,312 L726,345 L693,378 L664,389 L609,406 L559,419 L477,438 L468,454 L468,475 L475,509 L483,530 L499,544 L523,543 L578,532 L620,493 L661,452 L686,428 L713,408 L739,405 L755,422 L761,450 L754,476 L738,494 L661,519 L650,526 L633,549 L637,561 L660,564 L699,572 L733,587 L748,603 L753,629 L745,653 L732,667 L708,673 L681,669 L649,650 L612,625 L578,606 L544,589 L509,578 L477,578 L459,588 L456,611 L461,639 L457,673 L447,700 L414,732 L365,766 L327,777 L267,775 L209,770 L170,757 L156,741 L159,715 L171,693 L191,683 L221,683 L276,688 L326,689 L375,664 L411,642 L412,615 L415,580 L407,570 L391,565 L344,583 L304,599 L269,615 L241,623 L171,626 L102,622 L69,604 L57,584 L57,546 L80,526 L117,503 L145,504 L185,524 L229,551 L278,575 L304,574 L325,544 L325,517 L309,495 L277,468 L239,438 L201,387 L149,294 L114,214 L120,148 L132,135 L159,136 L200,175 L235,236 L238,260 L238,324 L237,368 L248,398 L284,410 L318,386 L327,342 L337,266 L329,238 L302,202 L278,172 L250,140 L236,120 L226,95 L225,71 L231,49z M263,63 L255,108 L296,118 L310,75z M162,213 L149,255 L195,272 L213,228z M460,57 L430,98 L461,122 L495,90z M380,229 L354,256 L385,292 L414,257z M625,132 L577,144 L590,188 L633,179z M325,412 L284,433 L310,476 L350,456z M602,317 L558,329 L565,369 L608,366z M715,297 L671,291 L662,335 L701,340z M411,479 L387,520 L422,544 L450,503z M149,535 L99,549 L118,598 L162,580z M739,446 L704,436 L687,472 L726,479z M595,539 L550,558 L572,594 L614,573z M706,593 L679,620 L710,654 L739,618z M204,693 L170,725 L197,752 L230,719z M374,677 L351,717 L394,741 L415,699z" fill="gainsboro" stroke="black" stroke-width="2" vector-effect="non-scaling-stroke"/><path d="M247,24 L460,16 L636,76 L655,91 L667,111 L751,286 L761,450 L753,629 L745,653 L732,667 L327,777 L267,775 L209,770 L170,757 L156,741 L69,604 L57,584 L57,546 L120,148 L132,135z" fill="none" stroke="red" stroke-width="2" vector-effect="non-scaling-stroke"/><circle cx="404.33740234375" cy="411.0722961425781" r="417.82781982421875" fill="none" stroke="gray" stroke-width="1" vector-effect="non-scaling-stroke"/><circle cx="416.27276370685945" cy="396.01684443133945" r="13.927593994140626" fill="red" stroke="none"/><rect x="57" y="16" width="704" height="761" fill="none" stroke="gray" stroke-width="1" stroke-dasharray="4 1" vector-effect="non-scaling-stroke"/><rect x="-354.2666320800781" y="-377.7359924316406" width="708.5332641601562" height="755.4719848632812" fill="none" stroke="gray" stroke-width="1" transform="translate(404.4587097167969,396.08837890625) rotate(-2.1 0 0)" vector-effect="non-scaling-stroke"/></svg>