<svg version="1.1" width="600" height="600" viewBox="-171.61820220947266 -191.05414581298828 1159.8291778564453 1159.8291778564453" xmlns="http://www.w3.org/2000/svg"><path d="M56,87 L101,94 L128,78 L186,77 L219,79 L269,66 L309,93 L342,90 L397,75 L405,103 L431,103 L462,90 L494,148 L511,165 L549,149 L546,110 L597,94 L681,89 L716,113 L758,84 L775,152 L715,205 L676,141 L635,142 L614,184 L589,199 L623,228 L635,179 L667,182 L749,252 L666,251 L662,297 L756,281 L755,350 L722,373 L730,427 L747,531 L761,684 L724,626 L663,649 L756,696 L620,698 L488,685 L549,654 L460,665 L451,609 L418,653 L381,661 L342,646 L350,607 L331,572 L295,603 L275,669 L199,576 L207,510 L266,511 L311,505 L357,535 L345,513 L364,487 L330,499 L334,457 L300,480 L265,483 L180,502 L162,524 L182,560 L156,607 L196,622 L229,643 L232,678 L180,688 L180,673 L194,661 L174,655 L139,662 L113,654 L95,645 L89,623 L89,591 L77,562 L59,544 L40,525 L27,492 L38,463 L58,446 L186,458 L230,443 L239,414 L238,364 L251,328 L284,303 L328,326 L412,322 L382,412 L415,358 L416,382 L434,409 L439,477 L470,488 L512,468 L516,435 L484,424 L445,404 L431,359 L440,336 L487,380 L498,356 L497,320 L532,296 L546,336 L554,386 L581,348 L617,363 L597,413 L592,471 L631,473 L650,410 L641,349 L557,323 L546,281 L546,260 L576,263 L626,293 L597,250 L558,224 L548,251 L508,274 L493,241 L477,297 L451,323 L429,315 L453,259 L421,297 L367,300 L306,277 L197,357 L188,307 L204,264 L202,206 L214,155 L235,189 L235,157 L320,226 L353,232 L353,217 L429,170 L409,156 L378,185 L363,170 L328,197 L293,168 L266,140 L217,124 L190,136 L185,176 L190,235 L178,315 L168,396 L155,412 L113,410 L90,378 L89,345 L64,345 L47,323 L47,287 L23,252 L32,211 L82,211 L109,241 L106,178 L82,152 L40,128z M123,117 L108,138 L120,174 L137,206 L116,227 L130,237 L133,276 L110,280 L84,258 L73,270 L92,297 L91,331 L123,347 L131,374 L145,349 L160,219 L131,160 L154,132z M216,215 L217,248 L232,284 L249,264 L279,253 L348,275 L348,246 L311,253 L261,241 L243,249 L254,228 L284,229 L316,242 L279,217 L256,202 L241,226z M273,331 L264,352 L276,382 L253,413 L243,453 L273,458 L284,438 L311,437 L352,447 L377,481 L405,484 L404,449 L372,440 L370,420 L351,431 L313,420 L285,422 L290,380 L295,357 L310,376 L340,376 L353,395 L368,362 L340,347 L333,368 L310,335z M316,394 L307,406 L323,405 L338,417 L348,403 L341,391 L333,399z M87,469 L60,484 L62,512 L95,534 L93,580 L110,615 L129,615 L123,584 L143,569 L128,555 L145,538 L140,516 L167,500 L153,490 L130,510 L123,547 L112,538 L108,521 L95,520 L80,510 L93,501 L88,487 L110,490 L134,481 L138,468 L128,459 L112,466 L115,478z M106,500 L103,513 L120,520 L116,507 L126,505 L134,494 L129,492 L121,500z M652,463 L667,471 L665,490 L658,481 L643,497 L652,517 L663,518 L682,481 L671,451z M405,502 L415,558 L367,578 L386,589 L490,571 L531,622 L586,600 L638,621 L683,607 L684,553 L713,525 L723,459 L703,429 L709,390 L687,359 L679,439 L696,481 L680,542 L651,578 L606,587 L572,575 L599,552 L640,552 L650,529 L633,517 L604,512 L618,492 L592,484 L564,485 L564,498 L584,518 L534,533 L530,505 L559,466 L567,430 L514,392 L538,426 L531,477 L500,501 L498,539 L442,538z M316,119 L313,155 L347,140 L388,133 L425,135 L457,164 L469,208 L404,221 L392,267 L419,241 L469,231 L462,290 L480,235 L500,219 L513,247 L525,201 L555,198 L574,176 L601,148 L572,134 L555,180 L509,189 L482,184 L478,149 L454,131 L426,116 L393,122 L363,111z" fill="gainsboro" stroke="black" stroke-width="2" vector-effect="non-scaling-stroke"/><path d="M56,87 L128,78 L269,66 L758,84 L775,152 L761,684 L756,696 L620,698 L180,688 L95,645 L40,525 L27,492 L23,252 L40,128z" fill="none" stroke="red" stroke-width="2" vector-effect="non-scaling-stroke"/><circle cx="408.29638671875" cy="388.8604431152344" r="463.9316711425781" fill="none" stroke="gray" stroke-width="1" vector-effect="non-scaling-stroke"/><circle cx="411.4357162173511" cy="376.97147204033837" r="15.464389038085937" fill="red" stroke="none"/><rect x="23" y="66" width="752" height="632" fill="none" stroke="gray" stroke-width="1" stroke-dasharray="4 1" vector-effect="non-scaling-stroke"/><rect x="-312.0630187988281" y="-374.5545654296875" width="624.1260375976562" height="749.109130859375" fill="none" stroke="gray" stroke-width="1" transform="translate(394.2771911621094,381.4678039550781) rotate(-88.4 0 0)" vector-effect="non-scaling-stroke"/></svg>