<svg version="1.1" width="600" height="600" viewBox="-140.6978988647461 -84.26216888427734 1050.7244110107422 1050.7244110107422" xmlns="http://www.w3.org/2000/svg"><path d="M219,85 L315,91 L406,68 L481,32 L575,111 L445,209 L343,312 L487,279 L487,247 L579,278 L626,364 L539,356 L400,371 L429,451 L507,454 L548,517 L421,555 L418,630 L540,621 L680,637 L706,712 L587,699 L456,693 L339,711 L225,742 L123,770 L62,692 L144,690 L317,644 L327,600 L283,616 L204,589 L201,517 L269,513 L330,480 L309,401 L224,440 L137,399 L150,327 L195,329 L329,204 L288,187z" fill="gainsboro" stroke="black" stroke-width="2" vector-effect="non-scaling-stroke"/><path d="M219,85 L481,32 L575,111 L706,712 L123,770 L62,692 L150,327z" fill="none" stroke="red" stroke-width="2" vector-effect="non-scaling-stroke"/><circle cx="384.664306640625" cy="441.10003662109375" r="420.2897644042969" fill="none" stroke="gray" stroke-width="1" vector-effect="non-scaling-stroke"/><circle cx="376.37772907772654" cy="421.0579308403722" r="14.009658813476562" fill="red" stroke="none"/><rect x="62" y="32" width="644" height="738" fill="none" stroke="gray" stroke-width="1" stroke-dasharray="4 1" vector-effect="non-scaling-stroke"/><rect x="-313.6244812011719" y="-355.5556640625" width="627.2489624023438" height="711.111328125" fill="none" stroke="gray" stroke-width="1" transform="translate(328.10455322265625,425.68682861328125) rotate(-11.4 0 0)" vector-effect="non-scaling-stroke"/></svg>