<svg version="1.1" width="600" height="600" viewBox="-49.00773620605469 -48.75273132324219 902.5431823730469 902.5431823730469" xmlns="http://www.w3.org/2000/svg"><path d="M532,134 L761,362 L711,509 L533,411 L459,514 L582,542 L386,639 L162,599 L57,508 L46,429 L94,439 L190,384 L71,259 L197,106 L353,230z M561,313 L609,380 L654,312z M198,486 L347,536 L332,462 L450,388 L299,362z" fill="gainsboro" stroke="black" stroke-width="2" vector-effect="non-scaling-stroke"/><path d="M532,134 L761,362 L711,509 L386,639 L162,599 L57,508 L46,429 L71,259 L197,106z" fill="none" stroke="red" stroke-width="2" vector-effect="non-scaling-stroke"/><circle cx="402.26385498046875" cy="402.51885986328125" r="361.01727294921875" fill="none" stroke="gray" stroke-width="1" vector-effect="non-scaling-stroke"/><circle cx="379.9305716232196" cy="375.499868245154" r="12.033909098307292" fill="red" stroke="none"/><rect x="46" y="106" width="715" height="533" fill="none" stroke="gray" stroke-width="1" stroke-dasharray="4 1" vector-effect="non-scaling-stroke"/><rect x="-260.4342346191406" y="-348.82183837890625" width="520.8684692382812" height="697.6436767578125" fill="none" stroke="gray" stroke-width="1" transform="translate(405.97039794921875,378.7015380859375) rotate(-81.6 0 0)" vector-effect="non-scaling-stroke"/></svg>