<svg version="1.1" width="600" height="600" viewBox="-76.87142944335938 -95.37142944335938 951.7428588867188 951.7428588867188" xmlns="http://www.w3.org/2000/svg"><path d="M31,283 L86,436 L127,438 L129,286 L275,285 L278,436 L326,436 L327,285 L471,285 L475,436 L522,435 L522,283 L664,282 L669,431 L714,432 L765,279 L767,478 L624,484 L621,337 L574,337 L575,481 L429,482 L426,336 L376,337 L375,483 L229,483 L229,338 L177,340 L180,483 L34,482z" fill="gainsboro" stroke="black" stroke-width="2" vector-effect="non-scaling-stroke"/><path d="M31,283 L765,279 L767,478 L624,484 L180,483 L34,482z" fill="none" stroke="red" stroke-width="2" vector-effect="non-scaling-stroke"/><circle cx="399.0" cy="380.5" r="380.6971435546875" fill="none" stroke="gray" stroke-width="1" vector-effect="non-scaling-stroke"/><circle cx="399.5816262869828" cy="388.78407203276305" r="12.68990478515625" fill="red" stroke="none"/><rect x="31" y="279" width="736" height="205" fill="none" stroke="gray" stroke-width="1" stroke-dasharray="4 1" vector-effect="non-scaling-stroke"/><rect x="-367.4631652832031" y="-102.1142807006836" width="734.9263305664062" height="204.2285614013672" fill="none" stroke="gray" stroke-width="1" transform="translate(399.0141906738281,383.11029052734375) rotate(-0.3 0 0)" vector-effect="non-scaling-stroke"/></svg>