<svg version="1.1" width="600" height="600" viewBox="-121.15764617919922 -133.14229583740234 1056.9091033935547 1056.9091033935547" xmlns="http://www.w3.org/2000/svg"><path d="M245,11 L267,10 L284,23 L311,26 L335,55 L348,75 L344,102 L360,146 L350,211 L332,220 L274,216 L264,213 L213,250 L195,278 L145,311 L140,349 L150,353 L167,337 L263,274 L296,270 L325,288 L324,348 L300,382 L329,385 L333,372 L384,331 L386,302 L378,287 L377,233 L394,202 L394,168 L379,136 L366,100 L366,74 L390,48 L406,48 L422,75 L433,75 L487,49 L541,25 L596,17 L625,45 L625,82 L639,98 L636,123 L617,135 L577,137 L468,210 L420,210 L414,238 L423,259 L424,291 L440,296 L484,264 L552,214 L612,177 L647,177 L655,190 L655,228 L642,249 L570,300 L600,335 L606,358 L592,381 L511,403 L431,426 L410,444 L393,481 L384,550 L386,605 L394,622 L432,617 L455,595 L456,557 L421,558 L406,540 L428,529 L457,491 L518,442 L580,404 L632,400 L682,414 L724,447 L756,499 L753,556 L728,607 L692,672 L645,734 L605,769 L550,768 L521,758 L486,756 L448,768 L408,759 L372,738 L322,653 L315,603 L313,536 L300,531 L292,600 L301,723 L300,763 L291,771 L256,777 L234,765 L220,738 L219,661 L217,620 L208,616 L176,651 L142,682 L110,685 L57,632 L49,593 L55,562 L64,558 L79,558 L119,514 L144,491 L158,485 L158,468 L116,466 L76,442 L58,403 L61,357 L68,337 L112,291 L193,223 L234,197 L217,183 L205,158 L201,116 L202,71 L214,29z M523,269 L444,324 L462,359 L506,297 L535,277z M388,402 L366,422 L351,464 L363,470 L395,432 L419,416z M613,482 L531,504 L543,510 L553,569 L574,580 L596,580 L604,594 L625,587 L640,516z M437,687 L407,675 L400,681 L400,694 L415,707 L416,736 L441,736z M602,612 L554,629 L542,656 L537,706 L556,715 L566,701 L583,692 L594,677 L595,653z" fill="gainsboro" stroke="black" stroke-width="2" vector-effect="non-scaling-stroke"/><path d="M245,11 L267,10 L596,17 L625,45 L756,499 L753,556 L728,607 L692,672 L645,734 L605,769 L256,777 L234,765 L110,685 L57,632 L49,593 L58,403 L61,357 L68,337 L214,29z" fill="none" stroke="red" stroke-width="2" vector-effect="non-scaling-stroke"/><circle cx="407.2969055175781" cy="395.312255859375" r="422.7636413574219" fill="none" stroke="gray" stroke-width="1" vector-effect="non-scaling-stroke"/><circle cx="394.64230201206686" cy="422.600932795872" r="14.09212137858073" fill="red" stroke="none"/><rect x="49" y="10" width="707" height="767" fill="none" stroke="gray" stroke-width="1" stroke-dasharray="4 1" vector-effect="non-scaling-stroke"/><rect x="-383.5302429199219" y="-352.42022705078125" width="767.0604858398438" height="704.8404541015625" fill="none" stroke="gray" stroke-width="1" transform="translate(405.6794128417969,396.56768798828125) rotate(-88.7 0 0)" vector-effect="non-scaling-stroke"/></svg>