<svg version="1.1" width="600" height="600" viewBox="-209.11558532714844 -136.11558532714844 1035.2311706542969 1035.2311706542969" xmlns="http://www.w3.org/2000/svg"><path d="M115,189 L175,282 L247,315 L318,263 L363,186 L428,95 L505,17 L506,155 L594,101 L579,216 L707,287 L616,516 L579,600 L513,540 L430,650 L384,583 L294,490 L285,780 L198,657 L112,746z" fill="gainsboro" stroke="black" stroke-width="2" vector-effect="non-scaling-stroke"/><path d="M115,189 L505,17 L594,101 L707,287 L616,516 L579,600 L285,780 L112,746z" fill="none" stroke="red" stroke-width="2" vector-effect="non-scaling-stroke"/><circle cx="308.5" cy="381.5" r="414.09246826171875" fill="none" stroke="gray" stroke-width="1" vector-effect="non-scaling-stroke"/><circle cx="383.4013303688049" cy="401.75987099898737" r="13.803082275390626" fill="red" stroke="none"/><rect x="112" y="17" width="595" height="763" fill="none" stroke="gray" stroke-width="1" stroke-dasharray="4 1" vector-effect="non-scaling-stroke"/><rect x="-373.4164733886719" y="-296.6802062988281" width="746.8329467773438" height="593.3604125976562" fill="none" stroke="gray" stroke-width="1" transform="translate(338.8216247558594,400.16217041015625) rotate(-31.2 0 0)" vector-effect="non-scaling-stroke"/></svg>