<svg version="1.1" width="600" height="600" viewBox="-136.95460510253906 -128.45460510253906 1089.9092102050781 1089.9092102050781" xmlns="http://www.w3.org/2000/svg"><path d="M684,131 L705,111 L703,134 L720,112 L714,147 L737,171 L749,212 L784,267 L769,297 L741,302 L725,271 L692,249 L678,248 L657,237 L635,298 L635,319 L620,345 L616,410 L608,448 L588,474 L578,513 L566,547 L560,584 L548,616 L545,657 L547,694 L579,718 L579,730 L547,731 L542,725 L542,715 L534,706 L524,606 L513,633 L513,687 L521,705 L533,715 L536,725 L501,727 L498,706 L490,699 L493,626 L500,576 L500,485 L496,478 L360,474 L307,456 L263,434 L234,481 L214,548 L212,619 L228,664 L228,675 L256,701 L261,712 L255,717 L229,715 L223,711 L214,685 L201,677 L195,626 L185,578 L172,559 L171,531 L177,513 L141,545 L111,594 L107,635 L106,678 L126,700 L140,722 L139,728 L120,732 L96,721 L96,699 L79,690 L80,676 L90,641 L90,546 L124,499 L127,460 L111,411 L102,368 L107,335 L120,308 L118,301 L111,301 L97,330 L92,460 L89,514 L79,562 L70,592 L63,601 L62,581 L58,609 L48,605 L44,582 L39,596 L38,562 L34,577 L26,563 L25,542 L24,390 L33,351 L38,329 L39,318 L60,295 L89,280 L126,276 L145,273 L181,264 L271,264 L329,280 L398,282 L482,265 L532,214 L576,167 L624,141 L666,133z" fill="gainsboro" stroke="black" stroke-width="2" vector-effect="non-scaling-stroke"/><path d="M705,111 L720,112 L784,267 L579,730 L547,731 L120,732 L96,721 L79,690 L39,596 L26,563 L25,542 L24,390 L39,318 L60,295 L89,280z" fill="none" stroke="red" stroke-width="2" vector-effect="non-scaling-stroke"/><circle cx="408.0" cy="416.5" r="435.96368408203125" fill="none" stroke="gray" stroke-width="1" vector-effect="non-scaling-stroke"/><circle cx="371.774797754389" cy="390.9468425259792" r="14.532122802734374" fill="red" stroke="none"/><rect x="24" y="111" width="760" height="621" fill="none" stroke="gray" stroke-width="1" stroke-dasharray="4 1" vector-effect="non-scaling-stroke"/><rect x="-404.65142822265625" y="-281.8028869628906" width="809.3028564453125" height="563.6057739257812" fill="none" stroke="gray" stroke-width="1" transform="translate(422.9931945800781,480.584716796875) rotate(-15.3 0 0)" vector-effect="non-scaling-stroke"/></svg>