<svg version="1.1" width="600" height="600" viewBox="-159.5729522705078 -185.5729522705078 1123.1459045410156 1123.1459045410156" xmlns="http://www.w3.org/2000/svg"><path d="M173,89 L243,105 L275,93 L323,93 L338,58 L383,89 L445,42 L485,106 L534,68 L684,41 L730,69 L627,106 L641,116 L718,119 L730,151 L669,162 L716,186 L683,256 L536,275 L501,239 L485,195 L567,164 L610,162 L654,196 L641,225 L597,216 L608,185 L537,212 L550,247 L669,247 L681,195 L578,118 L536,128 L508,168 L476,168 L459,134 L368,192 L366,256 L474,273 L472,312 L412,311 L411,364 L498,375 L516,483 L635,514 L729,386 L595,337 L550,366 L565,428 L607,425 L576,388 L623,379 L650,411 L607,447 L549,448 L500,320 L670,313 L774,390 L683,532 L759,581 L608,759 L483,757 L335,634 L382,566 L429,577 L460,547 L514,570 L593,547 L679,583 L563,708 L498,709 L441,657 L472,621 L517,634 L483,653 L532,685 L575,655 L607,580 L410,607 L409,672 L499,735 L576,733 L715,581 L611,533 L349,502 L367,401 L292,402 L289,479 L218,410 L141,464 L92,605 L244,695 L276,614 L319,545 L184,513 L152,587 L214,617 L183,564 L257,590 L227,649 L126,589 L173,483 L350,532 L292,635 L275,741 L74,683 L33,575 L89,439 L152,388 L245,364 L258,331 L156,350 L168,318 L311,302 L312,288 L246,247 L142,271 L116,248 L141,222 L228,220 L277,182 L172,159 L78,190 L48,158 L80,124z" fill="gainsboro" stroke="black" stroke-width="2" vector-effect="non-scaling-stroke"/><path d="M173,89 L338,58 L445,42 L684,41 L730,69 L774,390 L759,581 L608,759 L483,757 L275,741 L74,683 L33,575 L48,158 L80,124z" fill="none" stroke="red" stroke-width="2" vector-effect="non-scaling-stroke"/><circle cx="402.0" cy="376.0" r="449.25836181640625" fill="none" stroke="gray" stroke-width="1" vector-effect="non-scaling-stroke"/><circle cx="403.50639550347876" cy="388.03432937157896" r="14.975278727213542" fill="red" stroke="none"/><rect x="33" y="41" width="741" height="718" fill="none" stroke="gray" stroke-width="1" stroke-dasharray="4 1" vector-effect="non-scaling-stroke"/><rect x="-361.38140869140625" y="-366.93536376953125" width="722.7628173828125" height="733.8707275390625" fill="none" stroke="gray" stroke-width="1" transform="translate(406.73236083984375,392.6414489746094) rotate(-87.9 0 0)" vector-effect="non-scaling-stroke"/></svg>