
            <svg version="1.1" xmlns="http://www.w3.org/2000/svg" 
                width="600" height="477.7173913043478" viewBox="29 75 740 590"><path d="M424 77 L300 149 L382 442 L509 397 L456 232 L406 222 L389 380 L334 164 L464 168 L542 345 L767 458 L538 461 L388 663 L31 509 L134 429 L237 541 L263 300 L134 429 L31 509 L247 130z" fill="gainsboro" stroke="black" stroke-width="3" 
                      vector-effect="non-scaling-stroke"/><g fill="none" stroke="black" stroke-width="1"><path d="M247 130 L424 77 L300 149 z" 
                              vector-effect="non-scaling-stroke"/><path d="M406 222 L389 380 L334 164 z" 
                              vector-effect="non-scaling-stroke"/><path d="M134 429 L31 509 L247 130 z" 
                              vector-effect="non-scaling-stroke"/><path d="M263 300 L134 429 L247 130 z" 
                              vector-effect="non-scaling-stroke"/><path d="M542 345 L767 458 L538 461 z" 
                              vector-effect="non-scaling-stroke"/><path d="M406 222 L334 164 L464 168 z" 
                              vector-effect="non-scaling-stroke"/><path d="M456 232 L406 222 L464 168 z" 
                              vector-effect="non-scaling-stroke"/><path d="M456 232 L464 168 L542 345 z" 
                              vector-effect="non-scaling-stroke"/><path d="M509 397 L456 232 L542 345 z" 
                              vector-effect="non-scaling-stroke"/><path d="M509 397 L542 345 L538 461 z" 
                              vector-effect="non-scaling-stroke"/><path d="M263 300 L247 130 L300 149 z" 
                              vector-effect="non-scaling-stroke"/><path d="M263 300 L300 149 L382 442 z" 
                              vector-effect="non-scaling-stroke"/><path d="M237 541 L263 300 L382 442 z" 
                              vector-effect="non-scaling-stroke"/><path d="M31 509 L134 429 L237 541 z" 
                              vector-effect="non-scaling-stroke"/><path d="M388 663 L31 509 L237 541 z" 
                              vector-effect="non-scaling-stroke"/><path d="M388 663 L237 541 L382 442 z" 
                              vector-effect="non-scaling-stroke"/><path d="M538 461 L388 663 L382 442 z" 
                              vector-effect="non-scaling-stroke"/><path d="M538 461 L382 442 L509 397 z" 
                              vector-effect="non-scaling-stroke"/></g></svg>