
            <svg version="1.1" xmlns="http://www.w3.org/2000/svg" 
                width="600" height="516.2234042553191" viewBox="25 97 756 651"><path d="M189 104 L647 99 L779 285 L650 645 L200 746 L27 448 L195 662 L599 372 L252 562 L291 445 L504 408 L504 285 L297 313 L291 445 L252 562 L275 282 L522 267 L643 385 L562 159 L214 214 L195 662 L27 448z" fill="gainsboro" stroke="black" stroke-width="3" 
                      vector-effect="non-scaling-stroke"/><g fill="none" stroke="black" stroke-width="1"><path d="M200 746 L27 448 L195 662 z" 
                              vector-effect="non-scaling-stroke"/><path d="M291 445 L252 562 L275 282 z" 
                              vector-effect="non-scaling-stroke"/><path d="M297 313 L291 445 L275 282 z" 
                              vector-effect="non-scaling-stroke"/><path d="M214 214 L195 662 L27 448 z" 
                              vector-effect="non-scaling-stroke"/><path d="M214 214 L27 448 L189 104 z" 
                              vector-effect="non-scaling-stroke"/><path d="M504 285 L297 313 L275 282 z" 
                              vector-effect="non-scaling-stroke"/><path d="M275 282 L522 267 L504 285 z" 
                              vector-effect="non-scaling-stroke"/><path d="M562 159 L214 214 L189 104 z" 
                              vector-effect="non-scaling-stroke"/><path d="M189 104 L647 99 L562 159 z" 
                              vector-effect="non-scaling-stroke"/><path d="M650 645 L200 746 L195 662 z" 
                              vector-effect="non-scaling-stroke"/><path d="M650 645 L195 662 L599 372 z" 
                              vector-effect="non-scaling-stroke"/><path d="M562 159 L647 99 L779 285 z" 
                              vector-effect="non-scaling-stroke"/><path d="M643 385 L562 159 L779 285 z" 
                              vector-effect="non-scaling-stroke"/><path d="M643 385 L779 285 L650 645 z" 
                              vector-effect="non-scaling-stroke"/><path d="M643 385 L650 645 L599 372 z" 
                              vector-effect="non-scaling-stroke"/><path d="M522 267 L643 385 L599 372 z" 
                              vector-effect="non-scaling-stroke"/><path d="M504 285 L522 267 L599 372 z" 
                              vector-effect="non-scaling-stroke"/><path d="M504 408 L504 285 L599 372 z" 
                              vector-effect="non-scaling-stroke"/><path d="M504 408 L599 372 L252 562 z" 
                              vector-effect="non-scaling-stroke"/><path d="M291 445 L504 408 L252 562 z" 
                              vector-effect="non-scaling-stroke"/></g></svg>