
            <svg version="1.1" xmlns="http://www.w3.org/2000/svg" 
                width="600" height="398.2062780269058" viewBox="67 194 673 448"><path d="M69 198 L231 301 L377 363 L539 303 L506 369 L601 325 L417 492 L653 317 L474 246 L397 196 L734 273 L738 638 L265 640 L654 590 L577 446 L465 561 L379 489z" fill="gainsboro" stroke="black" stroke-width="3" 
                      vector-effect="non-scaling-stroke"/><g fill="none" stroke="black" stroke-width="1"><path d="M738 638 L265 640 L654 590 z" 
                              vector-effect="non-scaling-stroke"/><path d="M379 489 L69 198 L231 301 z" 
                              vector-effect="non-scaling-stroke"/><path d="M506 369 L601 325 L417 492 z" 
                              vector-effect="non-scaling-stroke"/><path d="M474 246 L397 196 L734 273 z" 
                              vector-effect="non-scaling-stroke"/><path d="M653 317 L474 246 L734 273 z" 
                              vector-effect="non-scaling-stroke"/><path d="M379 489 L231 301 L377 363 z" 
                              vector-effect="non-scaling-stroke"/><path d="M377 363 L539 303 L506 369 z" 
                              vector-effect="non-scaling-stroke"/><path d="M377 363 L506 369 L417 492 z" 
                              vector-effect="non-scaling-stroke"/><path d="M379 489 L377 363 L417 492 z" 
                              vector-effect="non-scaling-stroke"/><path d="M465 561 L379 489 L417 492 z" 
                              vector-effect="non-scaling-stroke"/><path d="M734 273 L738 638 L654 590 z" 
                              vector-effect="non-scaling-stroke"/><path d="M653 317 L734 273 L654 590 z" 
                              vector-effect="non-scaling-stroke"/><path d="M654 590 L577 446 L653 317 z" 
                              vector-effect="non-scaling-stroke"/><path d="M417 492 L653 317 L577 446 z" 
                              vector-effect="non-scaling-stroke"/><path d="M417 492 L577 446 L465 561 z" 
                              vector-effect="non-scaling-stroke"/></g></svg>