
            <svg version="1.1" xmlns="http://www.w3.org/2000/svg" 
                width="600" height="581.9742489270386" viewBox="48 49 703 682"><path d="M579 51 L712 59 L716 182 L744 300 L748 345 L749 389 L732 470 L716 510 L692 551 L648 618 L585 670 L471 699 L372 729 L282 711 L169 643 L88 562 L50 226 L120 159 L252 183 L244 350 L137 234 L137 350 L323 487 L293 103 L365 78 L508 459 L496 279 L575 276 L665 382 L628 119 L598 228 L474 154z" fill="gainsboro" stroke="black" stroke-width="3" 
                      vector-effect="non-scaling-stroke"/><g fill="none" stroke="black" stroke-width="1"><path d="M252 183 L244 350 L137 234 z" 
                              vector-effect="non-scaling-stroke"/><path d="M120 159 L252 183 L137 234 z" 
                              vector-effect="non-scaling-stroke"/><path d="M50 226 L120 159 L137 234 z" 
                              vector-effect="non-scaling-stroke"/><path d="M628 119 L598 228 L474 154 z" 
                              vector-effect="non-scaling-stroke"/><path d="M628 119 L474 154 L579 51 z" 
                              vector-effect="non-scaling-stroke"/><path d="M628 119 L579 51 L712 59 z" 
                              vector-effect="non-scaling-stroke"/><path d="M628 119 L712 59 L716 182 z" 
                              vector-effect="non-scaling-stroke"/><path d="M665 382 L628 119 L716 182 z" 
                              vector-effect="non-scaling-stroke"/><path d="M665 382 L716 182 L744 300 z" 
                              vector-effect="non-scaling-stroke"/><path d="M665 382 L744 300 L748 345 z" 
                              vector-effect="non-scaling-stroke"/><path d="M665 382 L748 345 L749 389 z" 
                              vector-effect="non-scaling-stroke"/><path d="M137 350 L88 562 L50 226 z" 
                              vector-effect="non-scaling-stroke"/><path d="M50 226 L137 234 L137 350 z" 
                              vector-effect="non-scaling-stroke"/><path d="M88 562 L137 350 L323 487 z" 
                              vector-effect="non-scaling-stroke"/><path d="M169 643 L88 562 L323 487 z" 
                              vector-effect="non-scaling-stroke"/><path d="M282 711 L169 643 L323 487 z" 
                              vector-effect="non-scaling-stroke"/><path d="M665 382 L749 389 L732 470 z" 
                              vector-effect="non-scaling-stroke"/><path d="M508 459 L496 279 L575 276 z" 
                              vector-effect="non-scaling-stroke"/><path d="M508 459 L575 276 L665 382 z" 
                              vector-effect="non-scaling-stroke"/><path d="M372 729 L282 711 L323 487 z" 
                              vector-effect="non-scaling-stroke"/><path d="M471 699 L372 729 L323 487 z" 
                              vector-effect="non-scaling-stroke"/><path d="M293 103 L365 78 L508 459 z" 
                              vector-effect="non-scaling-stroke"/><path d="M323 487 L293 103 L508 459 z" 
                              vector-effect="non-scaling-stroke"/><path d="M471 699 L323 487 L508 459 z" 
                              vector-effect="non-scaling-stroke"/><path d="M585 670 L471 699 L508 459 z" 
                              vector-effect="non-scaling-stroke"/><path d="M648 618 L585 670 L508 459 z" 
                              vector-effect="non-scaling-stroke"/><path d="M692 551 L648 618 L508 459 z" 
                              vector-effect="non-scaling-stroke"/><path d="M716 510 L692 551 L508 459 z" 
                              vector-effect="non-scaling-stroke"/><path d="M508 459 L665 382 L716 510 z" 
                              vector-effect="non-scaling-stroke"/><path d="M665 382 L732 470 L716 510 z" 
                              vector-effect="non-scaling-stroke"/></g></svg>