
            <svg version="1.1" xmlns="http://www.w3.org/2000/svg" 
                width="600" height="383.50515463917526" viewBox="52 185 683 438"><path d="M128 240 L232 226 L225 327 L304 290 L379 194 L506 263 L615 277 L630 203 L688 187 L733 372 L673 585 L550 621 L502 579 L577 541 L609 541 L643 507 L651 481 L666 518 L680 422 L623 424 L609 541 L577 541 L527 469 L459 504 L350 467 L367 429 L425 466 L447 381 L498 403 L555 379 L585 382 L616 313 L528 350 L498 403 L447 381 L385 385 L367 429 L350 467 L274 499 L269 576 L203 542 L129 570 L54 503 L90 430 L128 438 L92 358 L152 359 L201 392 L180 444 L223 467 L269 356 L314 356 L424 321 L460 285 L495 319 L497 282 L425 248 L350 284 L350 319 L314 356 L269 356 L152 359 L92 358z" fill="gainsboro" stroke="black" stroke-width="3" 
                      vector-effect="non-scaling-stroke"/><g fill="none" stroke="black" stroke-width="1"><path d="M643 507 L651 481 L666 518 z" 
                              vector-effect="non-scaling-stroke"/><path d="M128 438 L92 358 L152 359 z" 
                              vector-effect="non-scaling-stroke"/><path d="M274 499 L269 576 L203 542 z" 
                              vector-effect="non-scaling-stroke"/><path d="M550 621 L502 579 L577 541 z" 
                              vector-effect="non-scaling-stroke"/><path d="M609 541 L673 585 L550 621 z" 
                              vector-effect="non-scaling-stroke"/><path d="M550 621 L577 541 L609 541 z" 
                              vector-effect="non-scaling-stroke"/><path d="M128 438 L152 359 L201 392 z" 
                              vector-effect="non-scaling-stroke"/><path d="M128 438 L201 392 L180 444 z" 
                              vector-effect="non-scaling-stroke"/><path d="M152 359 L92 358 L128 240 z" 
                              vector-effect="non-scaling-stroke"/><path d="M128 240 L232 226 L225 327 z" 
                              vector-effect="non-scaling-stroke"/><path d="M152 359 L128 240 L225 327 z" 
                              vector-effect="non-scaling-stroke"/><path d="M269 356 L152 359 L225 327 z" 
                              vector-effect="non-scaling-stroke"/><path d="M269 356 L225 327 L304 290 z" 
                              vector-effect="non-scaling-stroke"/><path d="M314 356 L269 356 L304 290 z" 
                              vector-effect="non-scaling-stroke"/><path d="M350 319 L314 356 L304 290 z" 
                              vector-effect="non-scaling-stroke"/><path d="M350 284 L350 319 L304 290 z" 
                              vector-effect="non-scaling-stroke"/><path d="M350 284 L304 290 L379 194 z" 
                              vector-effect="non-scaling-stroke"/><path d="M425 248 L350 284 L379 194 z" 
                              vector-effect="non-scaling-stroke"/><path d="M425 248 L379 194 L506 263 z" 
                              vector-effect="non-scaling-stroke"/><path d="M497 282 L425 248 L506 263 z" 
                              vector-effect="non-scaling-stroke"/><path d="M666 518 L673 585 L609 541 z" 
                              vector-effect="non-scaling-stroke"/><path d="M609 541 L643 507 L666 518 z" 
                              vector-effect="non-scaling-stroke"/><path d="M733 372 L673 585 L666 518 z" 
                              vector-effect="non-scaling-stroke"/><path d="M733 372 L666 518 L680 422 z" 
                              vector-effect="non-scaling-stroke"/><path d="M425 466 L447 381 L498 403 z" 
                              vector-effect="non-scaling-stroke"/><path d="M350 467 L367 429 L425 466 z" 
                              vector-effect="non-scaling-stroke"/><path d="M459 504 L350 467 L425 466 z" 
                              vector-effect="non-scaling-stroke"/><path d="M615 277 L630 203 L688 187 z" 
                              vector-effect="non-scaling-stroke"/><path d="M688 187 L733 372 L615 277 z" 
                              vector-effect="non-scaling-stroke"/><path d="M616 313 L615 277 L733 372 z" 
                              vector-effect="non-scaling-stroke"/><path d="M733 372 L680 422 L616 313 z" 
                              vector-effect="non-scaling-stroke"/><path d="M527 469 L459 504 L425 466 z" 
                              vector-effect="non-scaling-stroke"/><path d="M425 466 L498 403 L527 469 z" 
                              vector-effect="non-scaling-stroke"/><path d="M527 469 L498 403 L555 379 z" 
                              vector-effect="non-scaling-stroke"/><path d="M424 321 L460 285 L495 319 z" 
                              vector-effect="non-scaling-stroke"/><path d="M495 319 L528 350 L498 403 z" 
                              vector-effect="non-scaling-stroke"/><path d="M623 424 L609 541 L577 541 z" 
                              vector-effect="non-scaling-stroke"/><path d="M623 424 L577 541 L527 469 z" 
                              vector-effect="non-scaling-stroke"/><path d="M585 382 L623 424 L527 469 z" 
                              vector-effect="non-scaling-stroke"/><path d="M527 469 L555 379 L585 382 z" 
                              vector-effect="non-scaling-stroke"/><path d="M54 503 L90 430 L128 438 z" 
                              vector-effect="non-scaling-stroke"/><path d="M129 570 L54 503 L128 438 z" 
                              vector-effect="non-scaling-stroke"/><path d="M203 542 L129 570 L128 438 z" 
                              vector-effect="non-scaling-stroke"/><path d="M203 542 L128 438 L180 444 z" 
                              vector-effect="non-scaling-stroke"/><path d="M203 542 L180 444 L223 467 z" 
                              vector-effect="non-scaling-stroke"/><path d="M274 499 L203 542 L223 467 z" 
                              vector-effect="non-scaling-stroke"/><path d="M274 499 L223 467 L269 356 z" 
                              vector-effect="non-scaling-stroke"/><path d="M350 467 L274 499 L269 356 z" 
                              vector-effect="non-scaling-stroke"/><path d="M350 467 L269 356 L314 356 z" 
                              vector-effect="non-scaling-stroke"/><path d="M367 429 L350 467 L314 356 z" 
                              vector-effect="non-scaling-stroke"/><path d="M385 385 L367 429 L314 356 z" 
                              vector-effect="non-scaling-stroke"/><path d="M385 385 L314 356 L424 321 z" 
                              vector-effect="non-scaling-stroke"/><path d="M447 381 L385 385 L424 321 z" 
                              vector-effect="non-scaling-stroke"/><path d="M447 381 L424 321 L495 319 z" 
                              vector-effect="non-scaling-stroke"/><path d="M498 403 L447 381 L495 319 z" 
                              vector-effect="non-scaling-stroke"/><path d="M528 350 L497 282 L506 263 z" 
                              vector-effect="non-scaling-stroke"/><path d="M528 350 L495 319 L497 282 z" 
                              vector-effect="non-scaling-stroke"/><path d="M506 263 L615 277 L528 350 z" 
                              vector-effect="non-scaling-stroke"/><path d="M616 313 L528 350 L615 277 z" 
                              vector-effect="non-scaling-stroke"/><path d="M680 422 L623 424 L616 313 z" 
                              vector-effect="non-scaling-stroke"/><path d="M585 382 L616 313 L623 424 z" 
                              vector-effect="non-scaling-stroke"/></g></svg>