
            <svg version="1.1" xmlns="http://www.w3.org/2000/svg" 
                width="600" height="304.6676096181047" viewBox="51 194 711 363"><path d="M84 196 L99 196 L121 202 L143 209 L172 225 L204 241 L239 263 L278 286 L316 307 L350 329 L386 348 L419 364 L450 377 L483 394 L512 403 L542 414 L568 423 L592 426 L618 432 L642 435 L664 435 L684 433 L703 433 L722 427 L737 424 L748 422 L760 423 L754 432 L744 438 L732 444 L716 452 L695 461 L672 472 L646 483 L619 496 L584 512 L547 526 L511 538 L478 548 L443 553 L411 555 L380 555 L350 553 L320 547 L291 537 L264 524 L238 508 L213 490 L188 467 L164 441 L141 412 L120 381 L100 345 L83 315 L71 286 L61 262 L56 243 L53 223 L54 210 L61 202 L71 197z" fill="gainsboro" stroke="black" stroke-width="3" 
                      vector-effect="non-scaling-stroke"/><g fill="none" stroke="black" stroke-width="1"><path d="M748 422 L760 423 L754 432 z" 
                              vector-effect="non-scaling-stroke"/><path d="M748 422 L754 432 L744 438 z" 
                              vector-effect="non-scaling-stroke"/><path d="M737 424 L748 422 L744 438 z" 
                              vector-effect="non-scaling-stroke"/><path d="M737 424 L744 438 L732 444 z" 
                              vector-effect="non-scaling-stroke"/><path d="M722 427 L737 424 L732 444 z" 
                              vector-effect="non-scaling-stroke"/><path d="M722 427 L732 444 L716 452 z" 
                              vector-effect="non-scaling-stroke"/><path d="M703 433 L722 427 L716 452 z" 
                              vector-effect="non-scaling-stroke"/><path d="M703 433 L716 452 L695 461 z" 
                              vector-effect="non-scaling-stroke"/><path d="M684 433 L703 433 L695 461 z" 
                              vector-effect="non-scaling-stroke"/><path d="M684 433 L695 461 L672 472 z" 
                              vector-effect="non-scaling-stroke"/><path d="M664 435 L684 433 L672 472 z" 
                              vector-effect="non-scaling-stroke"/><path d="M642 435 L664 435 L672 472 z" 
                              vector-effect="non-scaling-stroke"/><path d="M672 472 L646 483 L642 435 z" 
                              vector-effect="non-scaling-stroke"/><path d="M618 432 L642 435 L646 483 z" 
                              vector-effect="non-scaling-stroke"/><path d="M618 432 L646 483 L619 496 z" 
                              vector-effect="non-scaling-stroke"/><path d="M592 426 L618 432 L619 496 z" 
                              vector-effect="non-scaling-stroke"/><path d="M592 426 L619 496 L584 512 z" 
                              vector-effect="non-scaling-stroke"/><path d="M568 423 L592 426 L584 512 z" 
                              vector-effect="non-scaling-stroke"/><path d="M568 423 L584 512 L547 526 z" 
                              vector-effect="non-scaling-stroke"/><path d="M542 414 L568 423 L547 526 z" 
                              vector-effect="non-scaling-stroke"/><path d="M542 414 L547 526 L511 538 z" 
                              vector-effect="non-scaling-stroke"/><path d="M512 403 L542 414 L511 538 z" 
                              vector-effect="non-scaling-stroke"/><path d="M483 394 L512 403 L511 538 z" 
                              vector-effect="non-scaling-stroke"/><path d="M483 394 L511 538 L478 548 z" 
                              vector-effect="non-scaling-stroke"/><path d="M483 394 L478 548 L443 553 z" 
                              vector-effect="non-scaling-stroke"/><path d="M450 377 L483 394 L443 553 z" 
                              vector-effect="non-scaling-stroke"/><path d="M450 377 L443 553 L411 555 z" 
                              vector-effect="non-scaling-stroke"/><path d="M419 364 L450 377 L411 555 z" 
                              vector-effect="non-scaling-stroke"/><path d="M419 364 L411 555 L380 555 z" 
                              vector-effect="non-scaling-stroke"/><path d="M419 364 L380 555 L350 553 z" 
                              vector-effect="non-scaling-stroke"/><path d="M386 348 L419 364 L350 553 z" 
                              vector-effect="non-scaling-stroke"/><path d="M386 348 L350 553 L320 547 z" 
                              vector-effect="non-scaling-stroke"/><path d="M386 348 L320 547 L291 537 z" 
                              vector-effect="non-scaling-stroke"/><path d="M386 348 L291 537 L264 524 z" 
                              vector-effect="non-scaling-stroke"/><path d="M350 329 L386 348 L264 524 z" 
                              vector-effect="non-scaling-stroke"/><path d="M350 329 L264 524 L238 508 z" 
                              vector-effect="non-scaling-stroke"/><path d="M350 329 L238 508 L213 490 z" 
                              vector-effect="non-scaling-stroke"/><path d="M316 307 L350 329 L213 490 z" 
                              vector-effect="non-scaling-stroke"/><path d="M316 307 L213 490 L188 467 z" 
                              vector-effect="non-scaling-stroke"/><path d="M164 441 L278 286 L316 307 z" 
                              vector-effect="non-scaling-stroke"/><path d="M316 307 L188 467 L164 441 z" 
                              vector-effect="non-scaling-stroke"/><path d="M278 286 L164 441 L141 412 z" 
                              vector-effect="non-scaling-stroke"/><path d="M239 263 L278 286 L141 412 z" 
                              vector-effect="non-scaling-stroke"/><path d="M239 263 L141 412 L120 381 z" 
                              vector-effect="non-scaling-stroke"/><path d="M239 263 L120 381 L100 345 z" 
                              vector-effect="non-scaling-stroke"/><path d="M204 241 L239 263 L100 345 z" 
                              vector-effect="non-scaling-stroke"/><path d="M172 225 L204 241 L100 345 z" 
                              vector-effect="non-scaling-stroke"/><path d="M172 225 L100 345 L83 315 z" 
                              vector-effect="non-scaling-stroke"/><path d="M172 225 L83 315 L71 286 z" 
                              vector-effect="non-scaling-stroke"/><path d="M143 209 L172 225 L71 286 z" 
                              vector-effect="non-scaling-stroke"/><path d="M121 202 L143 209 L71 286 z" 
                              vector-effect="non-scaling-stroke"/><path d="M121 202 L71 286 L61 262 z" 
                              vector-effect="non-scaling-stroke"/><path d="M121 202 L61 262 L56 243 z" 
                              vector-effect="non-scaling-stroke"/><path d="M99 196 L121 202 L56 243 z" 
                              vector-effect="non-scaling-stroke"/><path d="M84 196 L99 196 L56 243 z" 
                              vector-effect="non-scaling-stroke"/><path d="M84 196 L56 243 L53 223 z" 
                              vector-effect="non-scaling-stroke"/><path d="M71 197 L84 196 L53 223 z" 
                              vector-effect="non-scaling-stroke"/><path d="M61 202 L71 197 L53 223 z" 
                              vector-effect="non-scaling-stroke"/><path d="M61 202 L53 223 L54 210 z" 
                              vector-effect="non-scaling-stroke"/></g></svg>