
            <svg version="1.1" xmlns="http://www.w3.org/2000/svg" 
                width="297.0873786407767" height="600" viewBox="217 40 361 725"><path d="M376 44 L421 42 L437 86 L442 127 L417 178 L418 199 L484 218 L576 401 L541 419 L468 280 L441 360 L467 416 L469 462 L462 605 L462 763 L419 763 L421 606 L399 462 L376 607 L378 762 L334 762 L334 606 L328 461 L328 420 L356 359 L329 278 L254 420 L219 404 L312 221 L376 199 L380 177 L355 129 L361 84z" fill="gainsboro" stroke="black" stroke-width="3" 
                      vector-effect="non-scaling-stroke"/><g fill="none" stroke="black" stroke-width="1"><path d="M329 278 L254 420 L219 404 z" 
                              vector-effect="non-scaling-stroke"/><path d="M219 404 L312 221 L329 278 z" 
                              vector-effect="non-scaling-stroke"/><path d="M376 607 L378 762 L334 762 z" 
                              vector-effect="non-scaling-stroke"/><path d="M376 607 L334 762 L334 606 z" 
                              vector-effect="non-scaling-stroke"/><path d="M462 763 L419 763 L421 606 z" 
                              vector-effect="non-scaling-stroke"/><path d="M462 605 L462 763 L421 606 z" 
                              vector-effect="non-scaling-stroke"/><path d="M576 401 L541 419 L468 280 z" 
                              vector-effect="non-scaling-stroke"/><path d="M484 218 L576 401 L468 280 z" 
                              vector-effect="non-scaling-stroke"/><path d="M418 199 L484 218 L468 280 z" 
                              vector-effect="non-scaling-stroke"/><path d="M329 278 L312 221 L376 199 z" 
                              vector-effect="non-scaling-stroke"/><path d="M376 607 L334 606 L328 461 z" 
                              vector-effect="non-scaling-stroke"/><path d="M399 462 L376 607 L328 461 z" 
                              vector-effect="non-scaling-stroke"/><path d="M399 462 L328 461 L328 420 z" 
                              vector-effect="non-scaling-stroke"/><path d="M469 462 L462 605 L421 606 z" 
                              vector-effect="non-scaling-stroke"/><path d="M469 462 L421 606 L399 462 z" 
                              vector-effect="non-scaling-stroke"/><path d="M467 416 L469 462 L399 462 z" 
                              vector-effect="non-scaling-stroke"/><path d="M399 462 L328 420 L356 359 z" 
                              vector-effect="non-scaling-stroke"/><path d="M441 360 L467 416 L399 462 z" 
                              vector-effect="non-scaling-stroke"/><path d="M399 462 L356 359 L441 360 z" 
                              vector-effect="non-scaling-stroke"/><path d="M376 44 L421 42 L437 86 z" 
                              vector-effect="non-scaling-stroke"/><path d="M361 84 L376 44 L437 86 z" 
                              vector-effect="non-scaling-stroke"/><path d="M442 127 L355 129 L361 84 z" 
                              vector-effect="non-scaling-stroke"/><path d="M361 84 L437 86 L442 127 z" 
                              vector-effect="non-scaling-stroke"/><path d="M380 177 L355 129 L442 127 z" 
                              vector-effect="non-scaling-stroke"/><path d="M442 127 L417 178 L380 177 z" 
                              vector-effect="non-scaling-stroke"/><path d="M380 177 L417 178 L418 199 z" 
                              vector-effect="non-scaling-stroke"/><path d="M376 199 L380 177 L418 199 z" 
                              vector-effect="non-scaling-stroke"/><path d="M468 280 L441 360 L356 359 z" 
                              vector-effect="non-scaling-stroke"/><path d="M468 280 L356 359 L329 278 z" 
                              vector-effect="non-scaling-stroke"/><path d="M418 199 L468 280 L329 278 z" 
                              vector-effect="non-scaling-stroke"/><path d="M418 199 L329 278 L376 199 z" 
                              vector-effect="non-scaling-stroke"/></g></svg>