
            <svg version="1.1" xmlns="http://www.w3.org/2000/svg" 
                width="600" height="576.2114537444934" viewBox="63 52 685 658"><path d="M367 54 L311 110 L237 170 L287 158 L385 166 L490 221 L676 190 L450 140 L367 158 L345 144 L357 131 L414 110 L471 98 L549 64 L675 141 L700 198 L746 228 L735 254 L705 262 L637 463 L714 446 L723 356 L740 562 L680 503 L505 381 L442 367 L599 465 L676 672 L602 583 L464 679 L221 708 L277 668 L236 660 L499 520 L534 455 L402 550 L311 478 L316 468 L343 462 L441 351 L470 355 L633 262 L652 243 L601 240 L526 275 L519 270 L371 187 L355 250 L309 305 L210 354 L324 358 L324 441 L222 554 L86 547 L108 507 L215 493 L284 412 L166 415 L141 394 L65 474 L80 363 L102 303 L241 136 L207 147z" fill="gainsboro" stroke="black" stroke-width="3" 
                      vector-effect="non-scaling-stroke"/><g fill="none" stroke="black" stroke-width="1"><path d="M714 446 L723 356 L740 562 z" 
                              vector-effect="non-scaling-stroke"/><path d="M241 136 L207 147 L367 54 z" 
                              vector-effect="non-scaling-stroke"/><path d="M241 136 L367 54 L311 110 z" 
                              vector-effect="non-scaling-stroke"/><path d="M241 136 L311 110 L237 170 z" 
                              vector-effect="non-scaling-stroke"/><path d="M599 465 L676 672 L602 583 z" 
                              vector-effect="non-scaling-stroke"/><path d="M464 679 L221 708 L277 668 z" 
                              vector-effect="non-scaling-stroke"/><path d="M714 446 L740 562 L680 503 z" 
                              vector-effect="non-scaling-stroke"/><path d="M102 303 L241 136 L237 170 z" 
                              vector-effect="non-scaling-stroke"/><path d="M141 394 L65 474 L80 363 z" 
                              vector-effect="non-scaling-stroke"/><path d="M277 668 L236 660 L499 520 z" 
                              vector-effect="non-scaling-stroke"/><path d="M464 679 L277 668 L499 520 z" 
                              vector-effect="non-scaling-stroke"/><path d="M602 583 L464 679 L499 520 z" 
                              vector-effect="non-scaling-stroke"/><path d="M637 463 L714 446 L680 503 z" 
                              vector-effect="non-scaling-stroke"/><path d="M637 463 L680 503 L505 381 z" 
                              vector-effect="non-scaling-stroke"/><path d="M599 465 L602 583 L499 520 z" 
                              vector-effect="non-scaling-stroke"/><path d="M599 465 L499 520 L534 455 z" 
                              vector-effect="non-scaling-stroke"/><path d="M442 367 L599 465 L534 455 z" 
                              vector-effect="non-scaling-stroke"/><path d="M222 554 L86 547 L108 507 z" 
                              vector-effect="non-scaling-stroke"/><path d="M222 554 L108 507 L215 493 z" 
                              vector-effect="non-scaling-stroke"/><path d="M324 441 L222 554 L215 493 z" 
                              vector-effect="non-scaling-stroke"/><path d="M324 441 L215 493 L284 412 z" 
                              vector-effect="non-scaling-stroke"/><path d="M324 358 L324 441 L284 412 z" 
                              vector-effect="non-scaling-stroke"/><path d="M210 354 L324 358 L284 412 z" 
                              vector-effect="non-scaling-stroke"/><path d="M210 354 L284 412 L166 415 z" 
                              vector-effect="non-scaling-stroke"/><path d="M633 262 L705 262 L637 463 z" 
                              vector-effect="non-scaling-stroke"/><path d="M442 367 L534 455 L402 550 z" 
                              vector-effect="non-scaling-stroke"/><path d="M367 158 L345 144 L357 131 z" 
                              vector-effect="non-scaling-stroke"/><path d="M210 354 L166 415 L141 394 z" 
                              vector-effect="non-scaling-stroke"/><path d="M367 158 L357 131 L414 110 z" 
                              vector-effect="non-scaling-stroke"/><path d="M450 140 L367 158 L414 110 z" 
                              vector-effect="non-scaling-stroke"/><path d="M450 140 L414 110 L471 98 z" 
                              vector-effect="non-scaling-stroke"/><path d="M549 64 L676 190 L450 140 z" 
                              vector-effect="non-scaling-stroke"/><path d="M450 140 L471 98 L549 64 z" 
                              vector-effect="non-scaling-stroke"/><path d="M676 190 L549 64 L675 141 z" 
                              vector-effect="non-scaling-stroke"/><path d="M676 190 L675 141 L700 198 z" 
                              vector-effect="non-scaling-stroke"/><path d="M141 394 L80 363 L102 303 z" 
                              vector-effect="non-scaling-stroke"/><path d="M210 354 L141 394 L102 303 z" 
                              vector-effect="non-scaling-stroke"/><path d="M210 354 L102 303 L237 170 z" 
                              vector-effect="non-scaling-stroke"/><path d="M309 305 L210 354 L237 170 z" 
                              vector-effect="non-scaling-stroke"/><path d="M287 158 L355 250 L309 305 z" 
                              vector-effect="non-scaling-stroke"/><path d="M309 305 L237 170 L287 158 z" 
                              vector-effect="non-scaling-stroke"/><path d="M371 187 L355 250 L287 158 z" 
                              vector-effect="non-scaling-stroke"/><path d="M371 187 L287 158 L385 166 z" 
                              vector-effect="non-scaling-stroke"/><path d="M490 221 L519 270 L371 187 z" 
                              vector-effect="non-scaling-stroke"/><path d="M371 187 L385 166 L490 221 z" 
                              vector-effect="non-scaling-stroke"/><path d="M601 240 L526 275 L519 270 z" 
                              vector-effect="non-scaling-stroke"/><path d="M519 270 L490 221 L601 240 z" 
                              vector-effect="non-scaling-stroke"/><path d="M490 221 L676 190 L601 240 z" 
                              vector-effect="non-scaling-stroke"/><path d="M652 243 L601 240 L676 190 z" 
                              vector-effect="non-scaling-stroke"/><path d="M652 243 L676 190 L700 198 z" 
                              vector-effect="non-scaling-stroke"/><path d="M700 198 L746 228 L735 254 z" 
                              vector-effect="non-scaling-stroke"/><path d="M700 198 L735 254 L705 262 z" 
                              vector-effect="non-scaling-stroke"/><path d="M652 243 L700 198 L705 262 z" 
                              vector-effect="non-scaling-stroke"/><path d="M343 462 L402 550 L311 478 z" 
                              vector-effect="non-scaling-stroke"/><path d="M311 478 L316 468 L343 462 z" 
                              vector-effect="non-scaling-stroke"/><path d="M442 367 L402 550 L343 462 z" 
                              vector-effect="non-scaling-stroke"/><path d="M442 367 L343 462 L441 351 z" 
                              vector-effect="non-scaling-stroke"/><path d="M442 367 L441 351 L470 355 z" 
                              vector-effect="non-scaling-stroke"/><path d="M505 381 L442 367 L470 355 z" 
                              vector-effect="non-scaling-stroke"/><path d="M505 381 L470 355 L633 262 z" 
                              vector-effect="non-scaling-stroke"/><path d="M637 463 L505 381 L633 262 z" 
                              vector-effect="non-scaling-stroke"/><path d="M652 243 L705 262 L633 262 z" 
                              vector-effect="non-scaling-stroke"/></g></svg>