
            <svg version="1.1" xmlns="http://www.w3.org/2000/svg" 
                width="600" height="533.983286908078" viewBox="45 78 722 643"><path d="M123 231 L264 115 L322 109 L459 80 L526 104 L575 174 L672 206 L668 233 L765 406 L722 545 L725 420 L645 425 L612 344 L633 364 L656 379 L708 409 L720 390 L726 381 L645 264 L641 211 L542 220 L536 133 L518 108 L492 101 L404 101 L413 166 L384 196 L339 266 L320 314 L326 375 L265 455 L328 510 L371 523 L381 515 L385 494 L506 470 L446 496 L440 503 L439 529 L454 610 L480 699 L414 577 L251 470 L264 564 L249 590 L260 605 L320 661 L346 719 L218 565 L235 517 L242 457 L209 422 L134 392 L95 401 L47 404 L160 370 L230 409 L295 394 L307 390 L272 271 L360 210 L404 160 L229 164 L144 228z" fill="gainsboro" stroke="black" stroke-width="3" 
                      vector-effect="non-scaling-stroke"/><g fill="none" stroke="black" stroke-width="1"><path d="M454 610 L480 699 L414 577 z" 
                              vector-effect="non-scaling-stroke"/><path d="M385 494 L506 470 L446 496 z" 
                              vector-effect="non-scaling-stroke"/><path d="M95 401 L47 404 L160 370 z" 
                              vector-effect="non-scaling-stroke"/><path d="M134 392 L95 401 L160 370 z" 
                              vector-effect="non-scaling-stroke"/><path d="M765 406 L722 545 L725 420 z" 
                              vector-effect="non-scaling-stroke"/><path d="M645 425 L612 344 L633 364 z" 
                              vector-effect="non-scaling-stroke"/><path d="M229 164 L144 228 L123 231 z" 
                              vector-effect="non-scaling-stroke"/><path d="M123 231 L264 115 L229 164 z" 
                              vector-effect="non-scaling-stroke"/><path d="M439 529 L454 610 L414 577 z" 
                              vector-effect="non-scaling-stroke"/><path d="M645 425 L633 364 L656 379 z" 
                              vector-effect="non-scaling-stroke"/><path d="M385 494 L446 496 L440 503 z" 
                              vector-effect="non-scaling-stroke"/><path d="M322 109 L404 160 L229 164 z" 
                              vector-effect="non-scaling-stroke"/><path d="M229 164 L264 115 L322 109 z" 
                              vector-effect="non-scaling-stroke"/><path d="M209 422 L134 392 L160 370 z" 
                              vector-effect="non-scaling-stroke"/><path d="M209 422 L160 370 L230 409 z" 
                              vector-effect="non-scaling-stroke"/><path d="M708 409 L725 420 L645 425 z" 
                              vector-effect="non-scaling-stroke"/><path d="M645 425 L656 379 L708 409 z" 
                              vector-effect="non-scaling-stroke"/><path d="M242 457 L209 422 L230 409 z" 
                              vector-effect="non-scaling-stroke"/><path d="M265 455 L242 457 L230 409 z" 
                              vector-effect="non-scaling-stroke"/><path d="M725 420 L708 409 L720 390 z" 
                              vector-effect="non-scaling-stroke"/><path d="M765 406 L725 420 L720 390 z" 
                              vector-effect="non-scaling-stroke"/><path d="M765 406 L720 390 L726 381 z" 
                              vector-effect="non-scaling-stroke"/><path d="M668 233 L765 406 L726 381 z" 
                              vector-effect="non-scaling-stroke"/><path d="M668 233 L726 381 L645 264 z" 
                              vector-effect="non-scaling-stroke"/><path d="M668 233 L645 264 L641 211 z" 
                              vector-effect="non-scaling-stroke"/><path d="M672 206 L668 233 L641 211 z" 
                              vector-effect="non-scaling-stroke"/><path d="M575 174 L672 206 L641 211 z" 
                              vector-effect="non-scaling-stroke"/><path d="M575 174 L641 211 L542 220 z" 
                              vector-effect="non-scaling-stroke"/><path d="M575 174 L542 220 L536 133 z" 
                              vector-effect="non-scaling-stroke"/><path d="M526 104 L575 174 L536 133 z" 
                              vector-effect="non-scaling-stroke"/><path d="M526 104 L536 133 L518 108 z" 
                              vector-effect="non-scaling-stroke"/><path d="M492 101 L459 80 L526 104 z" 
                              vector-effect="non-scaling-stroke"/><path d="M526 104 L518 108 L492 101 z" 
                              vector-effect="non-scaling-stroke"/><path d="M459 80 L492 101 L404 101 z" 
                              vector-effect="non-scaling-stroke"/><path d="M322 109 L459 80 L404 101 z" 
                              vector-effect="non-scaling-stroke"/><path d="M404 160 L322 109 L404 101 z" 
                              vector-effect="non-scaling-stroke"/><path d="M404 160 L404 101 L413 166 z" 
                              vector-effect="non-scaling-stroke"/><path d="M404 160 L413 166 L384 196 z" 
                              vector-effect="non-scaling-stroke"/><path d="M360 210 L404 160 L384 196 z" 
                              vector-effect="non-scaling-stroke"/><path d="M360 210 L384 196 L339 266 z" 
                              vector-effect="non-scaling-stroke"/><path d="M272 271 L360 210 L339 266 z" 
                              vector-effect="non-scaling-stroke"/><path d="M272 271 L339 266 L320 314 z" 
                              vector-effect="non-scaling-stroke"/><path d="M307 390 L272 271 L320 314 z" 
                              vector-effect="non-scaling-stroke"/><path d="M307 390 L320 314 L326 375 z" 
                              vector-effect="non-scaling-stroke"/><path d="M307 390 L326 375 L265 455 z" 
                              vector-effect="non-scaling-stroke"/><path d="M295 394 L307 390 L265 455 z" 
                              vector-effect="non-scaling-stroke"/><path d="M230 409 L295 394 L265 455 z" 
                              vector-effect="non-scaling-stroke"/><path d="M381 515 L385 494 L440 503 z" 
                              vector-effect="non-scaling-stroke"/><path d="M381 515 L440 503 L439 529 z" 
                              vector-effect="non-scaling-stroke"/><path d="M381 515 L439 529 L414 577 z" 
                              vector-effect="non-scaling-stroke"/><path d="M371 523 L381 515 L414 577 z" 
                              vector-effect="non-scaling-stroke"/><path d="M251 470 L242 457 L265 455 z" 
                              vector-effect="non-scaling-stroke"/><path d="M235 517 L251 470 L264 564 z" 
                              vector-effect="non-scaling-stroke"/><path d="M328 510 L371 523 L414 577 z" 
                              vector-effect="non-scaling-stroke"/><path d="M328 510 L414 577 L251 470 z" 
                              vector-effect="non-scaling-stroke"/><path d="M265 455 L328 510 L251 470 z" 
                              vector-effect="non-scaling-stroke"/><path d="M235 517 L242 457 L251 470 z" 
                              vector-effect="non-scaling-stroke"/><path d="M218 565 L235 517 L264 564 z" 
                              vector-effect="non-scaling-stroke"/><path d="M264 564 L249 590 L218 565 z" 
                              vector-effect="non-scaling-stroke"/><path d="M260 605 L320 661 L346 719 z" 
                              vector-effect="non-scaling-stroke"/><path d="M260 605 L346 719 L218 565 z" 
                              vector-effect="non-scaling-stroke"/><path d="M260 605 L218 565 L249 590 z" 
                              vector-effect="non-scaling-stroke"/></g></svg>