
            <svg version="1.1" xmlns="http://www.w3.org/2000/svg" 
                width="600" height="434.0807174887892" viewBox="76 150 673 488"><path d="M122 241 L188 233 L285 266 L362 300 L423 333 L469 368 L494 400 L505 410 L499 388 L474 354 L430 292 L403 246 L390 210 L395 188 L417 184 L434 177 L450 169 L463 163 L479 152 L498 153 L518 165 L545 184 L572 213 L604 251 L639 298 L680 355 L720 421 L744 465 L747 490 L731 495 L696 479 L667 468 L648 464 L637 465 L636 475 L644 487 L659 511 L684 542 L716 582 L733 607 L717 595 L689 564 L652 551 L610 555 L556 581 L501 623 L455 636 L422 618 L402 564 L393 482 L372 419 L337 374 L285 351 L221 346 L170 367 L141 413 L126 486 L130 586 L125 626 L115 608 L99 527 L78 390 L85 294z" fill="gainsboro" stroke="black" stroke-width="3" 
                      vector-effect="non-scaling-stroke"/><g fill="none" stroke="black" stroke-width="1"><path d="M716 582 L733 607 L717 595 z" 
                              vector-effect="non-scaling-stroke"/><path d="M130 586 L125 626 L115 608 z" 
                              vector-effect="non-scaling-stroke"/><path d="M716 582 L717 595 L689 564 z" 
                              vector-effect="non-scaling-stroke"/><path d="M684 542 L716 582 L689 564 z" 
                              vector-effect="non-scaling-stroke"/><path d="M130 586 L115 608 L99 527 z" 
                              vector-effect="non-scaling-stroke"/><path d="M126 486 L130 586 L99 527 z" 
                              vector-effect="non-scaling-stroke"/><path d="M126 486 L99 527 L78 390 z" 
                              vector-effect="non-scaling-stroke"/><path d="M141 413 L126 486 L78 390 z" 
                              vector-effect="non-scaling-stroke"/><path d="M684 542 L689 564 L652 551 z" 
                              vector-effect="non-scaling-stroke"/><path d="M659 511 L684 542 L652 551 z" 
                              vector-effect="non-scaling-stroke"/><path d="M744 465 L747 490 L731 495 z" 
                              vector-effect="non-scaling-stroke"/><path d="M744 465 L731 495 L696 479 z" 
                              vector-effect="non-scaling-stroke"/><path d="M720 421 L744 465 L696 479 z" 
                              vector-effect="non-scaling-stroke"/><path d="M720 421 L696 479 L667 468 z" 
                              vector-effect="non-scaling-stroke"/><path d="M648 464 L680 355 L720 421 z" 
                              vector-effect="non-scaling-stroke"/><path d="M720 421 L667 468 L648 464 z" 
                              vector-effect="non-scaling-stroke"/><path d="M170 367 L141 413 L78 390 z" 
                              vector-effect="non-scaling-stroke"/><path d="M170 367 L78 390 L85 294 z" 
                              vector-effect="non-scaling-stroke"/><path d="M170 367 L85 294 L122 241 z" 
                              vector-effect="non-scaling-stroke"/><path d="M170 367 L122 241 L188 233 z" 
                              vector-effect="non-scaling-stroke"/><path d="M221 346 L170 367 L188 233 z" 
                              vector-effect="non-scaling-stroke"/><path d="M221 346 L188 233 L285 266 z" 
                              vector-effect="non-scaling-stroke"/><path d="M285 351 L221 346 L285 266 z" 
                              vector-effect="non-scaling-stroke"/><path d="M285 351 L285 266 L362 300 z" 
                              vector-effect="non-scaling-stroke"/><path d="M337 374 L285 351 L362 300 z" 
                              vector-effect="non-scaling-stroke"/><path d="M337 374 L362 300 L423 333 z" 
                              vector-effect="non-scaling-stroke"/><path d="M372 419 L337 374 L423 333 z" 
                              vector-effect="non-scaling-stroke"/><path d="M372 419 L423 333 L469 368 z" 
                              vector-effect="non-scaling-stroke"/><path d="M494 400 L393 482 L372 419 z" 
                              vector-effect="non-scaling-stroke"/><path d="M372 419 L469 368 L494 400 z" 
                              vector-effect="non-scaling-stroke"/><path d="M393 482 L494 400 L505 410 z" 
                              vector-effect="non-scaling-stroke"/><path d="M659 511 L652 551 L610 555 z" 
                              vector-effect="non-scaling-stroke"/><path d="M644 487 L659 511 L610 555 z" 
                              vector-effect="non-scaling-stroke"/><path d="M680 355 L648 464 L637 465 z" 
                              vector-effect="non-scaling-stroke"/><path d="M390 210 L395 188 L417 184 z" 
                              vector-effect="non-scaling-stroke"/><path d="M403 246 L390 210 L417 184 z" 
                              vector-effect="non-scaling-stroke"/><path d="M556 581 L402 564 L393 482 z" 
                              vector-effect="non-scaling-stroke"/><path d="M636 475 L644 487 L610 555 z" 
                              vector-effect="non-scaling-stroke"/><path d="M505 410 L639 298 L680 355 z" 
                              vector-effect="non-scaling-stroke"/><path d="M403 246 L417 184 L434 177 z" 
                              vector-effect="non-scaling-stroke"/><path d="M430 292 L403 246 L434 177 z" 
                              vector-effect="non-scaling-stroke"/><path d="M430 292 L434 177 L450 169 z" 
                              vector-effect="non-scaling-stroke"/><path d="M545 184 L430 292 L450 169 z" 
                              vector-effect="non-scaling-stroke"/><path d="M501 623 L455 636 L422 618 z" 
                              vector-effect="non-scaling-stroke"/><path d="M422 618 L402 564 L501 623 z" 
                              vector-effect="non-scaling-stroke"/><path d="M556 581 L501 623 L402 564 z" 
                              vector-effect="non-scaling-stroke"/><path d="M393 482 L505 410 L556 581 z" 
                              vector-effect="non-scaling-stroke"/><path d="M610 555 L556 581 L505 410 z" 
                              vector-effect="non-scaling-stroke"/><path d="M636 475 L610 555 L505 410 z" 
                              vector-effect="non-scaling-stroke"/><path d="M637 465 L636 475 L505 410 z" 
                              vector-effect="non-scaling-stroke"/><path d="M680 355 L637 465 L505 410 z" 
                              vector-effect="non-scaling-stroke"/><path d="M639 298 L505 410 L499 388 z" 
                              vector-effect="non-scaling-stroke"/><path d="M604 251 L639 298 L499 388 z" 
                              vector-effect="non-scaling-stroke"/><path d="M604 251 L499 388 L474 354 z" 
                              vector-effect="non-scaling-stroke"/><path d="M572 213 L604 251 L474 354 z" 
                              vector-effect="non-scaling-stroke"/><path d="M474 354 L430 292 L572 213 z" 
                              vector-effect="non-scaling-stroke"/><path d="M545 184 L572 213 L430 292 z" 
                              vector-effect="non-scaling-stroke"/><path d="M518 165 L545 184 L450 169 z" 
                              vector-effect="non-scaling-stroke"/><path d="M450 169 L463 163 L518 165 z" 
                              vector-effect="non-scaling-stroke"/><path d="M498 153 L518 165 L463 163 z" 
                              vector-effect="non-scaling-stroke"/><path d="M498 153 L463 163 L479 152 z" 
                              vector-effect="non-scaling-stroke"/></g></svg>