
            <svg version="1.1" xmlns="http://www.w3.org/2000/svg" 
                width="552.542372881356" height="600" viewBox="78 44 656 712"><path d="M291 46 L411 47 L603 63 L727 169 L626 388 L659 216 L620 157 L592 322 L475 347 L342 279 L404 226 L468 279 L539 269 L543 177 L440 223 L453 155 L481 100 L431 139 L405 124 L404 226 L342 279 L311 162 L190 323 L250 410 L306 396 L343 514 L313 603 L421 645 L532 667 L620 680 L655 561 L592 538 L594 628 L555 626 L544 562 L532 667 L421 645 L489 535 L512 453 L602 464 L687 508 L732 626 L661 742 L423 754 L270 750 L103 659 L173 651 L246 707 L339 712 L345 677 L315 649 L269 610 L260 535 L252 509 L222 586 L173 651 L103 659 L184 573 L182 458 L115 439 L97 366 L80 295 L93 206 L120 102z" fill="gainsboro" stroke="black" stroke-width="3" 
                      vector-effect="non-scaling-stroke"/><g fill="none" stroke="black" stroke-width="1"><path d="M727 169 L626 388 L659 216 z" 
                              vector-effect="non-scaling-stroke"/><path d="M246 707 L270 750 L103 659 z" 
                              vector-effect="non-scaling-stroke"/><path d="M103 659 L173 651 L246 707 z" 
                              vector-effect="non-scaling-stroke"/><path d="M173 651 L103 659 L184 573 z" 
                              vector-effect="non-scaling-stroke"/><path d="M222 586 L173 651 L184 573 z" 
                              vector-effect="non-scaling-stroke"/><path d="M543 177 L440 223 L453 155 z" 
                              vector-effect="non-scaling-stroke"/><path d="M270 750 L246 707 L339 712 z" 
                              vector-effect="non-scaling-stroke"/><path d="M423 754 L270 750 L339 712 z" 
                              vector-effect="non-scaling-stroke"/><path d="M404 226 L342 279 L311 162 z" 
                              vector-effect="non-scaling-stroke"/><path d="M405 124 L404 226 L311 162 z" 
                              vector-effect="non-scaling-stroke"/><path d="M468 279 L475 347 L342 279 z" 
                              vector-effect="non-scaling-stroke"/><path d="M342 279 L404 226 L468 279 z" 
                              vector-effect="non-scaling-stroke"/><path d="M532 667 L421 645 L489 535 z" 
                              vector-effect="non-scaling-stroke"/><path d="M544 562 L532 667 L489 535 z" 
                              vector-effect="non-scaling-stroke"/><path d="M620 157 L603 63 L727 169 z" 
                              vector-effect="non-scaling-stroke"/><path d="M727 169 L659 216 L620 157 z" 
                              vector-effect="non-scaling-stroke"/><path d="M543 177 L453 155 L481 100 z" 
                              vector-effect="non-scaling-stroke"/><path d="M539 269 L592 322 L475 347 z" 
                              vector-effect="non-scaling-stroke"/><path d="M475 347 L468 279 L539 269 z" 
                              vector-effect="non-scaling-stroke"/><path d="M620 157 L592 322 L539 269 z" 
                              vector-effect="non-scaling-stroke"/><path d="M620 157 L539 269 L543 177 z" 
                              vector-effect="non-scaling-stroke"/><path d="M544 562 L592 538 L594 628 z" 
                              vector-effect="non-scaling-stroke"/><path d="M594 628 L555 626 L544 562 z" 
                              vector-effect="non-scaling-stroke"/><path d="M252 509 L222 586 L184 573 z" 
                              vector-effect="non-scaling-stroke"/><path d="M252 509 L184 573 L182 458 z" 
                              vector-effect="non-scaling-stroke"/><path d="M252 509 L250 410 L306 396 z" 
                              vector-effect="non-scaling-stroke"/><path d="M603 63 L620 157 L543 177 z" 
                              vector-effect="non-scaling-stroke"/><path d="M603 63 L543 177 L481 100 z" 
                              vector-effect="non-scaling-stroke"/><path d="M411 47 L603 63 L481 100 z" 
                              vector-effect="non-scaling-stroke"/><path d="M405 124 L411 47 L481 100 z" 
                              vector-effect="non-scaling-stroke"/><path d="M481 100 L431 139 L405 124 z" 
                              vector-effect="non-scaling-stroke"/><path d="M291 46 L411 47 L405 124 z" 
                              vector-effect="non-scaling-stroke"/><path d="M291 46 L405 124 L311 162 z" 
                              vector-effect="non-scaling-stroke"/><path d="M120 102 L291 46 L311 162 z" 
                              vector-effect="non-scaling-stroke"/><path d="M93 206 L120 102 L311 162 z" 
                              vector-effect="non-scaling-stroke"/><path d="M311 162 L190 323 L93 206 z" 
                              vector-effect="non-scaling-stroke"/><path d="M80 295 L93 206 L190 323 z" 
                              vector-effect="non-scaling-stroke"/><path d="M97 366 L80 295 L190 323 z" 
                              vector-effect="non-scaling-stroke"/><path d="M544 562 L489 535 L512 453 z" 
                              vector-effect="non-scaling-stroke"/><path d="M592 538 L544 562 L512 453 z" 
                              vector-effect="non-scaling-stroke"/><path d="M512 453 L602 464 L592 538 z" 
                              vector-effect="non-scaling-stroke"/><path d="M592 538 L602 464 L687 508 z" 
                              vector-effect="non-scaling-stroke"/><path d="M655 561 L592 538 L687 508 z" 
                              vector-effect="non-scaling-stroke"/><path d="M655 561 L687 508 L732 626 z" 
                              vector-effect="non-scaling-stroke"/><path d="M620 680 L655 561 L732 626 z" 
                              vector-effect="non-scaling-stroke"/><path d="M620 680 L732 626 L661 742 z" 
                              vector-effect="non-scaling-stroke"/><path d="M532 667 L620 680 L661 742 z" 
                              vector-effect="non-scaling-stroke"/><path d="M661 742 L423 754 L532 667 z" 
                              vector-effect="non-scaling-stroke"/><path d="M421 645 L532 667 L423 754 z" 
                              vector-effect="non-scaling-stroke"/><path d="M345 677 L421 645 L423 754 z" 
                              vector-effect="non-scaling-stroke"/><path d="M423 754 L339 712 L345 677 z" 
                              vector-effect="non-scaling-stroke"/><path d="M313 603 L421 645 L345 677 z" 
                              vector-effect="non-scaling-stroke"/><path d="M313 603 L345 677 L315 649 z" 
                              vector-effect="non-scaling-stroke"/><path d="M313 603 L315 649 L269 610 z" 
                              vector-effect="non-scaling-stroke"/><path d="M313 603 L269 610 L260 535 z" 
                              vector-effect="non-scaling-stroke"/><path d="M343 514 L313 603 L260 535 z" 
                              vector-effect="non-scaling-stroke"/><path d="M306 396 L343 514 L252 509 z" 
                              vector-effect="non-scaling-stroke"/><path d="M343 514 L260 535 L252 509 z" 
                              vector-effect="non-scaling-stroke"/><path d="M250 410 L252 509 L182 458 z" 
                              vector-effect="non-scaling-stroke"/><path d="M190 323 L250 410 L182 458 z" 
                              vector-effect="non-scaling-stroke"/><path d="M115 439 L97 366 L190 323 z" 
                              vector-effect="non-scaling-stroke"/><path d="M190 323 L182 458 L115 439 z" 
                              vector-effect="non-scaling-stroke"/></g></svg>