
            <svg version="1.1" xmlns="http://www.w3.org/2000/svg" 
                width="600" height="147.27272727272728" viewBox="659 85 114 31"><path d="M661 112 L661 96 L666 96 L666 87 L743 87 L771 87 L771 114 L750 114 L750 113 L742 113 L742 106 L710 106 L710 113 L666 113 L666 112z" fill="gainsboro" stroke="black" stroke-width="3" 
                      vector-effect="non-scaling-stroke"/><g fill="none" stroke="black" stroke-width="1"><path d="M666 112 L661 112 L661 96 z" 
                              vector-effect="non-scaling-stroke"/><path d="M666 112 L661 96 L666 96 z" 
                              vector-effect="non-scaling-stroke"/><path d="M710 106 L666 96 L666 87 z" 
                              vector-effect="non-scaling-stroke"/><path d="M750 113 L743 87 L771 87 z" 
                              vector-effect="non-scaling-stroke"/><path d="M771 114 L750 114 L750 113 z" 
                              vector-effect="non-scaling-stroke"/><path d="M771 87 L771 114 L750 113 z" 
                              vector-effect="non-scaling-stroke"/><path d="M742 106 L743 87 L750 113 z" 
                              vector-effect="non-scaling-stroke"/><path d="M750 113 L742 113 L742 106 z" 
                              vector-effect="non-scaling-stroke"/><path d="M666 87 L743 87 L710 106 z" 
                              vector-effect="non-scaling-stroke"/><path d="M743 87 L742 106 L710 106 z" 
                              vector-effect="non-scaling-stroke"/><path d="M666 112 L666 96 L710 106 z" 
                              vector-effect="non-scaling-stroke"/><path d="M666 112 L710 106 L710 113 z" 
                              vector-effect="non-scaling-stroke"/><path d="M666 112 L710 113 L666 113 z" 
                              vector-effect="non-scaling-stroke"/></g></svg>