
            <svg version="1.1" xmlns="http://www.w3.org/2000/svg" 
                width="333.3333333333333" height="600" viewBox="248 323 204 364"><path d="M268 654 L250 649 L251 621 L254 604 L259 592 L274 568 L291 552 L311 540 L326 535 L327 525 L325 521 L322 514 L317 503 L312 491 L307 496 L298 506 L297 507 L297 508 L286 518 L272 528 L260 533 L251 533 L251 503 L263 498 L287 491 L304 483 L317 470 L320 480 L334 478 L339 480 L329 510 L347 480 L338 465 L320 480 L317 470 L324 460 L325 447 L314 440 L315 423 L320 423 L325 437 L332 423 L329 413 L320 423 L315 423 L320 407 L327 405 L338 411 L338 423 L332 438 L336 456 L352 462 L366 462 L372 454 L375 431 L368 408 L350 387 L312 366 L319 353 L333 359 L337 370 L347 354 L330 334 L337 325 L360 352 L388 404 L385 445 L377 460 L367 476 L350 496 L346 511 L346 521 L349 531 L372 534 L405 550 L431 575 L450 610 L443 613 L437 599 L428 598 L420 605 L419 615 L424 615 L426 609 L437 609 L438 618 L438 619 L417 628 L413 612 L404 588 L391 568 L375 550 L357 547 L339 545 L323 548 L306 563 L292 585 L285 608 L285 631 L289 649 L297 669 L256 685 L250 683 L250 677 L262 671 L263 661 L286 662 L280 648z" fill="gainsboro" stroke="black" stroke-width="3" 
                      vector-effect="non-scaling-stroke"/><g fill="none" stroke="black" stroke-width="1"><path d="M304 483 L317 470 L320 480 z" 
                              vector-effect="non-scaling-stroke"/><path d="M338 465 L320 480 L317 470 z" 
                              vector-effect="non-scaling-stroke"/><path d="M338 465 L317 470 L324 460 z" 
                              vector-effect="non-scaling-stroke"/><path d="M320 423 L315 423 L320 407 z" 
                              vector-effect="non-scaling-stroke"/><path d="M329 413 L320 423 L320 407 z" 
                              vector-effect="non-scaling-stroke"/><path d="M329 413 L320 407 L327 405 z" 
                              vector-effect="non-scaling-stroke"/><path d="M329 413 L327 405 L338 411 z" 
                              vector-effect="non-scaling-stroke"/><path d="M332 423 L329 413 L338 411 z" 
                              vector-effect="non-scaling-stroke"/><path d="M338 411 L338 423 L332 423 z" 
                              vector-effect="non-scaling-stroke"/><path d="M332 423 L338 423 L332 438 z" 
                              vector-effect="non-scaling-stroke"/><path d="M325 437 L332 423 L332 438 z" 
                              vector-effect="non-scaling-stroke"/><path d="M347 354 L330 334 L337 325 z" 
                              vector-effect="non-scaling-stroke"/><path d="M337 325 L360 352 L347 354 z" 
                              vector-effect="non-scaling-stroke"/><path d="M437 599 L431 575 L450 610 z" 
                              vector-effect="non-scaling-stroke"/><path d="M450 610 L443 613 L437 599 z" 
                              vector-effect="non-scaling-stroke"/><path d="M431 575 L437 599 L428 598 z" 
                              vector-effect="non-scaling-stroke"/><path d="M260 533 L251 533 L251 503 z" 
                              vector-effect="non-scaling-stroke"/><path d="M272 528 L260 533 L251 503 z" 
                              vector-effect="non-scaling-stroke"/><path d="M272 528 L251 503 L263 498 z" 
                              vector-effect="non-scaling-stroke"/><path d="M286 518 L272 528 L263 498 z" 
                              vector-effect="non-scaling-stroke"/><path d="M286 518 L263 498 L287 491 z" 
                              vector-effect="non-scaling-stroke"/><path d="M297 507 L297 508 L286 518 z" 
                              vector-effect="non-scaling-stroke"/><path d="M286 518 L287 491 L297 507 z" 
                              vector-effect="non-scaling-stroke"/><path d="M298 506 L297 507 L287 491 z" 
                              vector-effect="non-scaling-stroke"/><path d="M307 496 L298 506 L287 491 z" 
                              vector-effect="non-scaling-stroke"/><path d="M307 496 L287 491 L304 483 z" 
                              vector-effect="non-scaling-stroke"/><path d="M312 491 L307 496 L304 483 z" 
                              vector-effect="non-scaling-stroke"/><path d="M312 491 L304 483 L320 480 z" 
                              vector-effect="non-scaling-stroke"/><path d="M337 370 L350 387 L312 366 z" 
                              vector-effect="non-scaling-stroke"/><path d="M262 671 L263 661 L286 662 z" 
                              vector-effect="non-scaling-stroke"/><path d="M334 478 L339 480 L329 510 z" 
                              vector-effect="non-scaling-stroke"/><path d="M317 503 L320 480 L334 478 z" 
                              vector-effect="non-scaling-stroke"/><path d="M317 503 L312 491 L320 480 z" 
                              vector-effect="non-scaling-stroke"/><path d="M334 478 L329 510 L317 503 z" 
                              vector-effect="non-scaling-stroke"/><path d="M322 514 L317 503 L329 510 z" 
                              vector-effect="non-scaling-stroke"/><path d="M314 440 L315 423 L320 423 z" 
                              vector-effect="non-scaling-stroke"/><path d="M314 440 L320 423 L325 437 z" 
                              vector-effect="non-scaling-stroke"/><path d="M325 447 L314 440 L325 437 z" 
                              vector-effect="non-scaling-stroke"/><path d="M325 447 L325 437 L332 438 z" 
                              vector-effect="non-scaling-stroke"/><path d="M325 447 L332 438 L336 456 z" 
                              vector-effect="non-scaling-stroke"/><path d="M324 460 L325 447 L336 456 z" 
                              vector-effect="non-scaling-stroke"/><path d="M338 465 L324 460 L336 456 z" 
                              vector-effect="non-scaling-stroke"/><path d="M338 465 L336 456 L352 462 z" 
                              vector-effect="non-scaling-stroke"/><path d="M347 480 L338 465 L352 462 z" 
                              vector-effect="non-scaling-stroke"/><path d="M426 609 L437 609 L438 618 z" 
                              vector-effect="non-scaling-stroke"/><path d="M424 615 L426 609 L438 618 z" 
                              vector-effect="non-scaling-stroke"/><path d="M325 521 L322 514 L329 510 z" 
                              vector-effect="non-scaling-stroke"/><path d="M424 615 L438 618 L438 619 z" 
                              vector-effect="non-scaling-stroke"/><path d="M424 615 L438 619 L417 628 z" 
                              vector-effect="non-scaling-stroke"/><path d="M419 615 L424 615 L417 628 z" 
                              vector-effect="non-scaling-stroke"/><path d="M419 615 L417 628 L413 612 z" 
                              vector-effect="non-scaling-stroke"/><path d="M420 605 L419 615 L413 612 z" 
                              vector-effect="non-scaling-stroke"/><path d="M420 605 L413 612 L404 588 z" 
                              vector-effect="non-scaling-stroke"/><path d="M428 598 L420 605 L404 588 z" 
                              vector-effect="non-scaling-stroke"/><path d="M431 575 L428 598 L404 588 z" 
                              vector-effect="non-scaling-stroke"/><path d="M405 550 L431 575 L404 588 z" 
                              vector-effect="non-scaling-stroke"/><path d="M405 550 L404 588 L391 568 z" 
                              vector-effect="non-scaling-stroke"/><path d="M375 550 L372 534 L405 550 z" 
                              vector-effect="non-scaling-stroke"/><path d="M405 550 L391 568 L375 550 z" 
                              vector-effect="non-scaling-stroke"/><path d="M372 534 L375 550 L357 547 z" 
                              vector-effect="non-scaling-stroke"/><path d="M349 531 L372 534 L357 547 z" 
                              vector-effect="non-scaling-stroke"/><path d="M349 531 L357 547 L339 545 z" 
                              vector-effect="non-scaling-stroke"/><path d="M268 654 L250 649 L251 621 z" 
                              vector-effect="non-scaling-stroke"/><path d="M285 631 L280 648 L268 654 z" 
                              vector-effect="non-scaling-stroke"/><path d="M367 476 L347 480 L352 462 z" 
                              vector-effect="non-scaling-stroke"/><path d="M256 685 L250 683 L250 677 z" 
                              vector-effect="non-scaling-stroke"/><path d="M256 685 L250 677 L262 671 z" 
                              vector-effect="non-scaling-stroke"/><path d="M297 669 L256 685 L262 671 z" 
                              vector-effect="non-scaling-stroke"/><path d="M297 669 L262 671 L286 662 z" 
                              vector-effect="non-scaling-stroke"/><path d="M289 649 L297 669 L286 662 z" 
                              vector-effect="non-scaling-stroke"/><path d="M289 649 L286 662 L280 648 z" 
                              vector-effect="non-scaling-stroke"/><path d="M285 631 L289 649 L280 648 z" 
                              vector-effect="non-scaling-stroke"/><path d="M268 654 L251 621 L285 631 z" 
                              vector-effect="non-scaling-stroke"/><path d="M285 608 L285 631 L251 621 z" 
                              vector-effect="non-scaling-stroke"/><path d="M285 608 L251 621 L254 604 z" 
                              vector-effect="non-scaling-stroke"/><path d="M285 608 L254 604 L259 592 z" 
                              vector-effect="non-scaling-stroke"/><path d="M292 585 L285 608 L259 592 z" 
                              vector-effect="non-scaling-stroke"/><path d="M292 585 L259 592 L274 568 z" 
                              vector-effect="non-scaling-stroke"/><path d="M306 563 L292 585 L274 568 z" 
                              vector-effect="non-scaling-stroke"/><path d="M306 563 L274 568 L291 552 z" 
                              vector-effect="non-scaling-stroke"/><path d="M306 563 L291 552 L311 540 z" 
                              vector-effect="non-scaling-stroke"/><path d="M323 548 L306 563 L311 540 z" 
                              vector-effect="non-scaling-stroke"/><path d="M323 548 L311 540 L326 535 z" 
                              vector-effect="non-scaling-stroke"/><path d="M339 545 L323 548 L326 535 z" 
                              vector-effect="non-scaling-stroke"/><path d="M349 531 L339 545 L326 535 z" 
                              vector-effect="non-scaling-stroke"/><path d="M349 531 L326 535 L327 525 z" 
                              vector-effect="non-scaling-stroke"/><path d="M346 521 L349 531 L327 525 z" 
                              vector-effect="non-scaling-stroke"/><path d="M329 510 L346 511 L346 521 z" 
                              vector-effect="non-scaling-stroke"/><path d="M329 510 L346 521 L327 525 z" 
                              vector-effect="non-scaling-stroke"/><path d="M327 525 L325 521 L329 510 z" 
                              vector-effect="non-scaling-stroke"/><path d="M350 496 L346 511 L329 510 z" 
                              vector-effect="non-scaling-stroke"/><path d="M329 510 L347 480 L350 496 z" 
                              vector-effect="non-scaling-stroke"/><path d="M367 476 L350 496 L347 480 z" 
                              vector-effect="non-scaling-stroke"/><path d="M352 462 L366 462 L367 476 z" 
                              vector-effect="non-scaling-stroke"/><path d="M377 460 L367 476 L366 462 z" 
                              vector-effect="non-scaling-stroke"/><path d="M377 460 L366 462 L372 454 z" 
                              vector-effect="non-scaling-stroke"/><path d="M385 445 L377 460 L372 454 z" 
                              vector-effect="non-scaling-stroke"/><path d="M385 445 L372 454 L375 431 z" 
                              vector-effect="non-scaling-stroke"/><path d="M388 404 L385 445 L375 431 z" 
                              vector-effect="non-scaling-stroke"/><path d="M388 404 L375 431 L368 408 z" 
                              vector-effect="non-scaling-stroke"/><path d="M350 387 L360 352 L388 404 z" 
                              vector-effect="non-scaling-stroke"/><path d="M388 404 L368 408 L350 387 z" 
                              vector-effect="non-scaling-stroke"/><path d="M347 354 L360 352 L350 387 z" 
                              vector-effect="non-scaling-stroke"/><path d="M337 370 L347 354 L350 387 z" 
                              vector-effect="non-scaling-stroke"/><path d="M333 359 L337 370 L312 366 z" 
                              vector-effect="non-scaling-stroke"/><path d="M312 366 L319 353 L333 359 z" 
                              vector-effect="non-scaling-stroke"/></g></svg>