
            <svg version="1.1" xmlns="http://www.w3.org/2000/svg" 
                width="223.82198952879583" height="600" viewBox="263 11 289 768"><path d="M407 13 L399 101 L509 77 L401 138 L453 234 L460 250 L455 281 L441 333 L420 398 L401 446 L383 492 L369 534 L365 551 L375 566 L384 548 L395 535 L419 483 L449 411 L486 321 L507 312 L520 320 L520 334 L500 378 L455 461 L428 509 L395 576 L380 614 L379 633 L385 640 L401 635 L410 614 L438 563 L467 507 L494 442 L524 407 L539 411 L546 431 L539 453 L532 473 L518 484 L496 527 L476 566 L462 580 L445 621 L418 662 L407 684 L405 704 L410 717 L426 715 L435 680 L448 648 L470 606 L492 564 L509 522 L533 510 L547 515 L550 528 L537 555 L518 593 L495 622 L481 650 L472 695 L461 726 L440 749 L418 768 L399 762 L389 749 L377 759 L371 772 L362 768 L362 737 L364 685 L355 647 L347 638 L337 637 L328 645 L327 664 L327 687 L337 726 L336 753 L324 777 L308 776 L298 761 L314 729 L316 720 L314 707 L299 689 L282 669 L271 623 L274 597 L280 592 L291 596 L299 608 L318 610 L323 595 L319 571 L302 520 L307 463 L306 409 L303 360 L317 312 L334 269 L338 247 L347 234 L356 235 L360 249 L356 346 L343 418 L329 482 L323 527 L336 550 L345 547 L362 472 L377 415 L396 359 L421 275 L440 242 L445 238 L445 232 L374 146 L282 206 L361 126 L265 62 L371 99z" fill="gainsboro" stroke="black" stroke-width="3" 
                      vector-effect="non-scaling-stroke"/><g fill="none" stroke="black" stroke-width="1"><path d="M374 146 L282 206 L361 126 z" 
                              vector-effect="non-scaling-stroke"/><path d="M361 126 L265 62 L371 99 z" 
                              vector-effect="non-scaling-stroke"/><path d="M399 101 L509 77 L401 138 z" 
                              vector-effect="non-scaling-stroke"/><path d="M371 99 L407 13 L399 101 z" 
                              vector-effect="non-scaling-stroke"/><path d="M377 759 L371 772 L362 768 z" 
                              vector-effect="non-scaling-stroke"/><path d="M377 759 L362 768 L362 737 z" 
                              vector-effect="non-scaling-stroke"/><path d="M389 749 L377 759 L362 737 z" 
                              vector-effect="non-scaling-stroke"/><path d="M361 126 L371 99 L399 101 z" 
                              vector-effect="non-scaling-stroke"/><path d="M399 101 L401 138 L361 126 z" 
                              vector-effect="non-scaling-stroke"/><path d="M374 146 L361 126 L401 138 z" 
                              vector-effect="non-scaling-stroke"/><path d="M445 232 L374 146 L401 138 z" 
                              vector-effect="non-scaling-stroke"/><path d="M445 232 L401 138 L453 234 z" 
                              vector-effect="non-scaling-stroke"/><path d="M445 238 L445 232 L453 234 z" 
                              vector-effect="non-scaling-stroke"/><path d="M445 238 L453 234 L460 250 z" 
                              vector-effect="non-scaling-stroke"/><path d="M440 242 L445 238 L460 250 z" 
                              vector-effect="non-scaling-stroke"/><path d="M455 281 L421 275 L440 242 z" 
                              vector-effect="non-scaling-stroke"/><path d="M440 242 L460 250 L455 281 z" 
                              vector-effect="non-scaling-stroke"/><path d="M421 275 L455 281 L441 333 z" 
                              vector-effect="non-scaling-stroke"/><path d="M396 359 L421 275 L441 333 z" 
                              vector-effect="non-scaling-stroke"/><path d="M396 359 L441 333 L420 398 z" 
                              vector-effect="non-scaling-stroke"/><path d="M377 415 L396 359 L420 398 z" 
                              vector-effect="non-scaling-stroke"/><path d="M377 415 L420 398 L401 446 z" 
                              vector-effect="non-scaling-stroke"/><path d="M362 472 L377 415 L401 446 z" 
                              vector-effect="non-scaling-stroke"/><path d="M362 472 L401 446 L383 492 z" 
                              vector-effect="non-scaling-stroke"/><path d="M369 534 L345 547 L362 472 z" 
                              vector-effect="non-scaling-stroke"/><path d="M362 472 L383 492 L369 534 z" 
                              vector-effect="non-scaling-stroke"/><path d="M345 547 L369 534 L365 551 z" 
                              vector-effect="non-scaling-stroke"/><path d="M410 717 L389 749 L362 737 z" 
                              vector-effect="non-scaling-stroke"/><path d="M347 234 L356 235 L360 249 z" 
                              vector-effect="non-scaling-stroke"/><path d="M338 247 L347 234 L360 249 z" 
                              vector-effect="non-scaling-stroke"/><path d="M334 269 L338 247 L360 249 z" 
                              vector-effect="non-scaling-stroke"/><path d="M360 249 L356 346 L334 269 z" 
                              vector-effect="non-scaling-stroke"/><path d="M317 312 L334 269 L356 346 z" 
                              vector-effect="non-scaling-stroke"/><path d="M303 360 L317 312 L356 346 z" 
                              vector-effect="non-scaling-stroke"/><path d="M303 360 L356 346 L343 418 z" 
                              vector-effect="non-scaling-stroke"/><path d="M306 409 L303 360 L343 418 z" 
                              vector-effect="non-scaling-stroke"/><path d="M307 463 L306 409 L343 418 z" 
                              vector-effect="non-scaling-stroke"/><path d="M307 463 L343 418 L329 482 z" 
                              vector-effect="non-scaling-stroke"/><path d="M302 520 L307 463 L329 482 z" 
                              vector-effect="non-scaling-stroke"/><path d="M302 520 L329 482 L323 527 z" 
                              vector-effect="non-scaling-stroke"/><path d="M319 571 L302 520 L323 527 z" 
                              vector-effect="non-scaling-stroke"/><path d="M319 571 L323 527 L336 550 z" 
                              vector-effect="non-scaling-stroke"/><path d="M298 761 L336 753 L324 777 z" 
                              vector-effect="non-scaling-stroke"/><path d="M324 777 L308 776 L298 761 z" 
                              vector-effect="non-scaling-stroke"/><path d="M336 753 L298 761 L314 729 z" 
                              vector-effect="non-scaling-stroke"/><path d="M337 726 L336 753 L314 729 z" 
                              vector-effect="non-scaling-stroke"/><path d="M337 726 L314 729 L316 720 z" 
                              vector-effect="non-scaling-stroke"/><path d="M314 707 L327 687 L337 726 z" 
                              vector-effect="non-scaling-stroke"/><path d="M337 726 L316 720 L314 707 z" 
                              vector-effect="non-scaling-stroke"/><path d="M327 687 L314 707 L299 689 z" 
                              vector-effect="non-scaling-stroke"/><path d="M327 664 L327 687 L299 689 z" 
                              vector-effect="non-scaling-stroke"/><path d="M327 664 L299 689 L282 669 z" 
                              vector-effect="non-scaling-stroke"/><path d="M328 645 L327 664 L282 669 z" 
                              vector-effect="non-scaling-stroke"/><path d="M282 669 L271 623 L328 645 z" 
                              vector-effect="non-scaling-stroke"/><path d="M299 608 L328 645 L271 623 z" 
                              vector-effect="non-scaling-stroke"/><path d="M299 608 L271 623 L274 597 z" 
                              vector-effect="non-scaling-stroke"/><path d="M546 431 L494 442 L524 407 z" 
                              vector-effect="non-scaling-stroke"/><path d="M524 407 L539 411 L546 431 z" 
                              vector-effect="non-scaling-stroke"/><path d="M494 442 L546 431 L539 453 z" 
                              vector-effect="non-scaling-stroke"/><path d="M494 442 L539 453 L532 473 z" 
                              vector-effect="non-scaling-stroke"/><path d="M518 484 L467 507 L494 442 z" 
                              vector-effect="non-scaling-stroke"/><path d="M494 442 L532 473 L518 484 z" 
                              vector-effect="non-scaling-stroke"/><path d="M467 507 L518 484 L496 527 z" 
                              vector-effect="non-scaling-stroke"/><path d="M476 566 L438 563 L467 507 z" 
                              vector-effect="non-scaling-stroke"/><path d="M467 507 L496 527 L476 566 z" 
                              vector-effect="non-scaling-stroke"/><path d="M438 563 L476 566 L462 580 z" 
                              vector-effect="non-scaling-stroke"/><path d="M445 621 L410 614 L438 563 z" 
                              vector-effect="non-scaling-stroke"/><path d="M438 563 L462 580 L445 621 z" 
                              vector-effect="non-scaling-stroke"/><path d="M401 635 L410 614 L445 621 z" 
                              vector-effect="non-scaling-stroke"/><path d="M445 621 L418 662 L401 635 z" 
                              vector-effect="non-scaling-stroke"/><path d="M385 640 L401 635 L418 662 z" 
                              vector-effect="non-scaling-stroke"/><path d="M385 640 L418 662 L407 684 z" 
                              vector-effect="non-scaling-stroke"/><path d="M507 312 L520 320 L520 334 z" 
                              vector-effect="non-scaling-stroke"/><path d="M486 321 L507 312 L520 334 z" 
                              vector-effect="non-scaling-stroke"/><path d="M486 321 L520 334 L500 378 z" 
                              vector-effect="non-scaling-stroke"/><path d="M449 411 L486 321 L500 378 z" 
                              vector-effect="non-scaling-stroke"/><path d="M449 411 L500 378 L455 461 z" 
                              vector-effect="non-scaling-stroke"/><path d="M419 483 L449 411 L455 461 z" 
                              vector-effect="non-scaling-stroke"/><path d="M419 483 L455 461 L428 509 z" 
                              vector-effect="non-scaling-stroke"/><path d="M395 535 L419 483 L428 509 z" 
                              vector-effect="non-scaling-stroke"/><path d="M395 535 L428 509 L395 576 z" 
                              vector-effect="non-scaling-stroke"/><path d="M384 548 L395 535 L395 576 z" 
                              vector-effect="non-scaling-stroke"/><path d="M375 566 L384 548 L395 576 z" 
                              vector-effect="non-scaling-stroke"/><path d="M375 566 L395 576 L380 614 z" 
                              vector-effect="non-scaling-stroke"/><path d="M440 749 L418 768 L399 762 z" 
                              vector-effect="non-scaling-stroke"/><path d="M410 717 L440 749 L399 762 z" 
                              vector-effect="non-scaling-stroke"/><path d="M399 762 L389 749 L410 717 z" 
                              vector-effect="non-scaling-stroke"/><path d="M533 510 L547 515 L550 528 z" 
                              vector-effect="non-scaling-stroke"/><path d="M509 522 L533 510 L550 528 z" 
                              vector-effect="non-scaling-stroke"/><path d="M509 522 L550 528 L537 555 z" 
                              vector-effect="non-scaling-stroke"/><path d="M492 564 L509 522 L537 555 z" 
                              vector-effect="non-scaling-stroke"/><path d="M492 564 L537 555 L518 593 z" 
                              vector-effect="non-scaling-stroke"/><path d="M470 606 L492 564 L518 593 z" 
                              vector-effect="non-scaling-stroke"/><path d="M470 606 L518 593 L495 622 z" 
                              vector-effect="non-scaling-stroke"/><path d="M481 650 L448 648 L470 606 z" 
                              vector-effect="non-scaling-stroke"/><path d="M470 606 L495 622 L481 650 z" 
                              vector-effect="non-scaling-stroke"/><path d="M448 648 L481 650 L472 695 z" 
                              vector-effect="non-scaling-stroke"/><path d="M435 680 L448 648 L472 695 z" 
                              vector-effect="non-scaling-stroke"/><path d="M426 715 L435 680 L472 695 z" 
                              vector-effect="non-scaling-stroke"/><path d="M426 715 L472 695 L461 726 z" 
                              vector-effect="non-scaling-stroke"/><path d="M426 715 L461 726 L440 749 z" 
                              vector-effect="non-scaling-stroke"/><path d="M410 717 L426 715 L440 749 z" 
                              vector-effect="non-scaling-stroke"/><path d="M405 704 L410 717 L362 737 z" 
                              vector-effect="non-scaling-stroke"/><path d="M362 737 L364 685 L405 704 z" 
                              vector-effect="non-scaling-stroke"/><path d="M407 684 L405 704 L364 685 z" 
                              vector-effect="non-scaling-stroke"/><path d="M385 640 L407 684 L364 685 z" 
                              vector-effect="non-scaling-stroke"/><path d="M385 640 L364 685 L355 647 z" 
                              vector-effect="non-scaling-stroke"/><path d="M379 633 L385 640 L355 647 z" 
                              vector-effect="non-scaling-stroke"/><path d="M379 633 L355 647 L347 638 z" 
                              vector-effect="non-scaling-stroke"/><path d="M380 614 L379 633 L347 638 z" 
                              vector-effect="non-scaling-stroke"/><path d="M323 595 L319 571 L375 566 z" 
                              vector-effect="non-scaling-stroke"/><path d="M323 595 L380 614 L347 638 z" 
                              vector-effect="non-scaling-stroke"/><path d="M345 547 L365 551 L375 566 z" 
                              vector-effect="non-scaling-stroke"/><path d="M336 550 L345 547 L375 566 z" 
                              vector-effect="non-scaling-stroke"/><path d="M319 571 L336 550 L375 566 z" 
                              vector-effect="non-scaling-stroke"/><path d="M375 566 L380 614 L323 595 z" 
                              vector-effect="non-scaling-stroke"/><path d="M318 610 L323 595 L347 638 z" 
                              vector-effect="non-scaling-stroke"/><path d="M347 638 L337 637 L318 610 z" 
                              vector-effect="non-scaling-stroke"/><path d="M318 610 L337 637 L328 645 z" 
                              vector-effect="non-scaling-stroke"/><path d="M299 608 L318 610 L328 645 z" 
                              vector-effect="non-scaling-stroke"/><path d="M291 596 L299 608 L274 597 z" 
                              vector-effect="non-scaling-stroke"/><path d="M274 597 L280 592 L291 596 z" 
                              vector-effect="non-scaling-stroke"/></g></svg>