
            <svg version="1.1" xmlns="http://www.w3.org/2000/svg" 
                width="555.0591327201051" height="600" viewBox="55 14 708 765"><path d="M247 24 L289 29 L334 53 L347 78 L352 105 L352 131 L365 160 L380 177 L399 182 L410 169 L414 127 L414 82 L430 98 L461 122 L495 90 L460 57 L430 98 L414 82 L421 52 L440 26 L460 16 L482 25 L502 49 L511 86 L499 141 L493 167 L468 209 L447 246 L361 353 L348 385 L348 414 L355 436 L375 449 L396 449 L441 419 L460 402 L480 387 L511 341 L537 297 L558 329 L565 369 L608 366 L602 317 L558 329 L537 297 L546 242 L553 169 L557 143 L577 144 L590 188 L633 179 L625 132 L577 144 L557 143 L569 112 L589 86 L609 73 L636 76 L655 91 L667 111 L670 139 L665 172 L650 205 L629 241 L617 261 L612 281 L626 290 L653 284 L662 335 L701 340 L715 297 L671 291 L662 335 L653 284 L686 272 L706 261 L720 259 L745 274 L751 286 L745 312 L726 345 L693 378 L664 389 L609 406 L559 419 L477 438 L468 454 L468 475 L475 509 L483 530 L499 544 L523 543 L550 558 L572 594 L614 573 L595 539 L550 558 L523 543 L578 532 L620 493 L661 452 L687 472 L726 479 L739 446 L704 436 L687 472 L661 452 L686 428 L713 408 L739 405 L755 422 L761 450 L754 476 L738 494 L661 519 L650 526 L633 549 L637 561 L660 564 L699 572 L733 587 L748 603 L753 629 L745 653 L732 667 L708 673 L681 669 L649 650 L679 620 L710 654 L739 618 L706 593 L679 620 L649 650 L612 625 L578 606 L544 589 L509 578 L477 578 L459 588 L456 611 L461 639 L457 673 L447 700 L414 732 L365 766 L327 777 L267 775 L209 770 L170 757 L156 741 L159 715 L170 725 L197 752 L230 719 L204 693 L170 725 L159 715 L171 693 L191 683 L221 683 L276 688 L326 689 L351 717 L394 741 L415 699 L374 677 L351 717 L326 689 L375 664 L411 642 L412 615 L415 580 L407 570 L391 565 L344 583 L304 599 L269 615 L241 623 L171 626 L102 622 L69 604 L57 584 L57 546 L80 526 L99 549 L118 598 L162 580 L149 535 L99 549 L80 526 L117 503 L145 504 L185 524 L229 551 L278 575 L304 574 L325 544 L325 517 L387 520 L422 544 L450 503 L411 479 L387 520 L325 517 L309 495 L277 468 L239 438 L201 387 L149 294 L149 255 L195 272 L213 228 L162 213 L149 255 L149 294 L114 214 L120 148 L132 135 L159 136 L200 175 L235 236 L238 260 L238 324 L237 368 L248 398 L284 410 L284 433 L310 476 L350 456 L325 412 L284 433 L284 410 L318 386 L327 342 L337 266 L354 256 L385 292 L414 257 L380 229 L354 256 L337 266 L329 238 L302 202 L278 172 L250 140 L236 120 L255 108 L296 118 L310 75 L263 63 L255 108 L236 120 L226 95 L225 71 L231 49z" fill="gainsboro" stroke="black" stroke-width="3" 
                      vector-effect="non-scaling-stroke"/><g fill="none" stroke="black" stroke-width="1"><path d="M671 291 L662 335 L653 284 z" 
                              vector-effect="non-scaling-stroke"/><path d="M149 255 L149 294 L114 214 z" 
                              vector-effect="non-scaling-stroke"/><path d="M550 558 L523 543 L578 532 z" 
                              vector-effect="non-scaling-stroke"/><path d="M595 539 L550 558 L578 532 z" 
                              vector-effect="non-scaling-stroke"/><path d="M671 291 L653 284 L686 272 z" 
                              vector-effect="non-scaling-stroke"/><path d="M414 127 L414 82 L430 98 z" 
                              vector-effect="non-scaling-stroke"/><path d="M156 741 L159 715 L170 725 z" 
                              vector-effect="non-scaling-stroke"/><path d="M162 213 L149 255 L114 214 z" 
                              vector-effect="non-scaling-stroke"/><path d="M715 297 L671 291 L686 272 z" 
                              vector-effect="non-scaling-stroke"/><path d="M325 412 L284 433 L284 410 z" 
                              vector-effect="non-scaling-stroke"/><path d="M325 412 L284 410 L318 386 z" 
                              vector-effect="non-scaling-stroke"/><path d="M511 341 L537 297 L558 329 z" 
                              vector-effect="non-scaling-stroke"/><path d="M595 539 L578 532 L620 493 z" 
                              vector-effect="non-scaling-stroke"/><path d="M715 297 L686 272 L706 261 z" 
                              vector-effect="non-scaling-stroke"/><path d="M149 294 L149 255 L195 272 z" 
                              vector-effect="non-scaling-stroke"/><path d="M374 677 L351 717 L326 689 z" 
                              vector-effect="non-scaling-stroke"/><path d="M374 677 L326 689 L375 664 z" 
                              vector-effect="non-scaling-stroke"/><path d="M577 144 L557 143 L569 112 z" 
                              vector-effect="non-scaling-stroke"/><path d="M354 256 L337 266 L329 238 z" 
                              vector-effect="non-scaling-stroke"/><path d="M681 669 L649 650 L679 620 z" 
                              vector-effect="non-scaling-stroke"/><path d="M681 669 L679 620 L710 654 z" 
                              vector-effect="non-scaling-stroke"/><path d="M708 673 L681 669 L710 654 z" 
                              vector-effect="non-scaling-stroke"/><path d="M732 667 L708 673 L710 654 z" 
                              vector-effect="non-scaling-stroke"/><path d="M686 428 L704 436 L687 472 z" 
                              vector-effect="non-scaling-stroke"/><path d="M687 472 L661 452 L686 428 z" 
                              vector-effect="non-scaling-stroke"/><path d="M704 436 L686 428 L713 408 z" 
                              vector-effect="non-scaling-stroke"/><path d="M255 108 L236 120 L226 95 z" 
                              vector-effect="non-scaling-stroke"/><path d="M263 63 L255 108 L226 95 z" 
                              vector-effect="non-scaling-stroke"/><path d="M263 63 L226 95 L225 71 z" 
                              vector-effect="non-scaling-stroke"/><path d="M263 63 L225 71 L231 49 z" 
                              vector-effect="non-scaling-stroke"/><path d="M263 63 L231 49 L247 24 z" 
                              vector-effect="non-scaling-stroke"/><path d="M263 63 L247 24 L289 29 z" 
                              vector-effect="non-scaling-stroke"/><path d="M310 75 L263 63 L289 29 z" 
                              vector-effect="non-scaling-stroke"/><path d="M310 75 L289 29 L334 53 z" 
                              vector-effect="non-scaling-stroke"/><path d="M310 75 L334 53 L347 78 z" 
                              vector-effect="non-scaling-stroke"/><path d="M414 127 L430 98 L461 122 z" 
                              vector-effect="non-scaling-stroke"/><path d="M460 57 L430 98 L414 82 z" 
                              vector-effect="non-scaling-stroke"/><path d="M460 57 L414 82 L421 52 z" 
                              vector-effect="non-scaling-stroke"/><path d="M460 57 L421 52 L440 26 z" 
                              vector-effect="non-scaling-stroke"/><path d="M745 653 L732 667 L710 654 z" 
                              vector-effect="non-scaling-stroke"/><path d="M710 654 L739 618 L745 653 z" 
                              vector-effect="non-scaling-stroke"/><path d="M753 629 L745 653 L739 618 z" 
                              vector-effect="non-scaling-stroke"/><path d="M748 603 L753 629 L739 618 z" 
                              vector-effect="non-scaling-stroke"/><path d="M99 549 L80 526 L117 503 z" 
                              vector-effect="non-scaling-stroke"/><path d="M149 535 L99 549 L117 503 z" 
                              vector-effect="non-scaling-stroke"/><path d="M149 535 L117 503 L145 504 z" 
                              vector-effect="non-scaling-stroke"/><path d="M149 535 L145 504 L185 524 z" 
                              vector-effect="non-scaling-stroke"/><path d="M162 213 L114 214 L120 148 z" 
                              vector-effect="non-scaling-stroke"/><path d="M460 57 L440 26 L460 16 z" 
                              vector-effect="non-scaling-stroke"/><path d="M460 57 L460 16 L482 25 z" 
                              vector-effect="non-scaling-stroke"/><path d="M460 57 L482 25 L502 49 z" 
                              vector-effect="non-scaling-stroke"/><path d="M495 90 L460 57 L502 49 z" 
                              vector-effect="non-scaling-stroke"/><path d="M495 90 L502 49 L511 86 z" 
                              vector-effect="non-scaling-stroke"/><path d="M495 90 L511 86 L499 141 z" 
                              vector-effect="non-scaling-stroke"/><path d="M461 122 L495 90 L499 141 z" 
                              vector-effect="non-scaling-stroke"/><path d="M733 587 L748 603 L739 618 z" 
                              vector-effect="non-scaling-stroke"/><path d="M739 618 L706 593 L733 587 z" 
                              vector-effect="non-scaling-stroke"/><path d="M699 572 L733 587 L706 593 z" 
                              vector-effect="non-scaling-stroke"/><path d="M715 297 L706 261 L720 259 z" 
                              vector-effect="non-scaling-stroke"/><path d="M715 297 L720 259 L745 274 z" 
                              vector-effect="non-scaling-stroke"/><path d="M715 297 L745 274 L751 286 z" 
                              vector-effect="non-scaling-stroke"/><path d="M715 297 L751 286 L745 312 z" 
                              vector-effect="non-scaling-stroke"/><path d="M726 345 L701 340 L715 297 z" 
                              vector-effect="non-scaling-stroke"/><path d="M715 297 L745 312 L726 345 z" 
                              vector-effect="non-scaling-stroke"/><path d="M701 340 L726 345 L693 378 z" 
                              vector-effect="non-scaling-stroke"/><path d="M662 335 L701 340 L693 378 z" 
                              vector-effect="non-scaling-stroke"/><path d="M662 335 L693 378 L664 389 z" 
                              vector-effect="non-scaling-stroke"/><path d="M511 341 L558 329 L565 369 z" 
                              vector-effect="non-scaling-stroke"/><path d="M170 757 L156 741 L170 725 z" 
                              vector-effect="non-scaling-stroke"/><path d="M170 725 L197 752 L170 757 z" 
                              vector-effect="non-scaling-stroke"/><path d="M209 770 L170 757 L197 752 z" 
                              vector-effect="non-scaling-stroke"/><path d="M238 324 L201 387 L149 294 z" 
                              vector-effect="non-scaling-stroke"/><path d="M325 544 L325 517 L387 520 z" 
                              vector-effect="non-scaling-stroke"/><path d="M250 140 L236 120 L255 108 z" 
                              vector-effect="non-scaling-stroke"/><path d="M250 140 L255 108 L296 118 z" 
                              vector-effect="non-scaling-stroke"/><path d="M278 172 L250 140 L296 118 z" 
                              vector-effect="non-scaling-stroke"/><path d="M626 290 L653 284 L662 335 z" 
                              vector-effect="non-scaling-stroke"/><path d="M739 446 L704 436 L713 408 z" 
                              vector-effect="non-scaling-stroke"/><path d="M739 446 L713 408 L739 405 z" 
                              vector-effect="non-scaling-stroke"/><path d="M739 446 L739 405 L755 422 z" 
                              vector-effect="non-scaling-stroke"/><path d="M739 446 L755 422 L761 450 z" 
                              vector-effect="non-scaling-stroke"/><path d="M739 446 L761 450 L754 476 z" 
                              vector-effect="non-scaling-stroke"/><path d="M726 479 L739 446 L754 476 z" 
                              vector-effect="non-scaling-stroke"/><path d="M726 479 L754 476 L738 494 z" 
                              vector-effect="non-scaling-stroke"/><path d="M726 479 L738 494 L661 519 z" 
                              vector-effect="non-scaling-stroke"/><path d="M687 472 L726 479 L661 519 z" 
                              vector-effect="non-scaling-stroke"/><path d="M57 546 L80 526 L99 549 z" 
                              vector-effect="non-scaling-stroke"/><path d="M57 584 L57 546 L99 549 z" 
                              vector-effect="non-scaling-stroke"/><path d="M69 604 L57 584 L99 549 z" 
                              vector-effect="non-scaling-stroke"/><path d="M99 549 L118 598 L69 604 z" 
                              vector-effect="non-scaling-stroke"/><path d="M102 622 L69 604 L118 598 z" 
                              vector-effect="non-scaling-stroke"/><path d="M171 626 L102 622 L118 598 z" 
                              vector-effect="non-scaling-stroke"/><path d="M171 626 L118 598 L162 580 z" 
                              vector-effect="non-scaling-stroke"/><path d="M625 132 L577 144 L569 112 z" 
                              vector-effect="non-scaling-stroke"/><path d="M625 132 L569 112 L589 86 z" 
                              vector-effect="non-scaling-stroke"/><path d="M625 132 L589 86 L609 73 z" 
                              vector-effect="non-scaling-stroke"/><path d="M625 132 L609 73 L636 76 z" 
                              vector-effect="non-scaling-stroke"/><path d="M625 132 L636 76 L655 91 z" 
                              vector-effect="non-scaling-stroke"/><path d="M625 132 L655 91 L667 111 z" 
                              vector-effect="non-scaling-stroke"/><path d="M625 132 L667 111 L670 139 z" 
                              vector-effect="non-scaling-stroke"/><path d="M665 172 L633 179 L625 132 z" 
                              vector-effect="non-scaling-stroke"/><path d="M625 132 L670 139 L665 172 z" 
                              vector-effect="non-scaling-stroke"/><path d="M633 179 L665 172 L650 205 z" 
                              vector-effect="non-scaling-stroke"/><path d="M162 580 L149 535 L185 524 z" 
                              vector-effect="non-scaling-stroke"/><path d="M162 580 L185 524 L229 551 z" 
                              vector-effect="non-scaling-stroke"/><path d="M171 693 L204 693 L170 725 z" 
                              vector-effect="non-scaling-stroke"/><path d="M170 725 L159 715 L171 693 z" 
                              vector-effect="non-scaling-stroke"/><path d="M204 693 L171 693 L191 683 z" 
                              vector-effect="non-scaling-stroke"/><path d="M204 693 L191 683 L221 683 z" 
                              vector-effect="non-scaling-stroke"/><path d="M230 719 L204 693 L221 683 z" 
                              vector-effect="non-scaling-stroke"/><path d="M230 719 L221 683 L276 688 z" 
                              vector-effect="non-scaling-stroke"/><path d="M553 169 L557 143 L577 144 z" 
                              vector-effect="non-scaling-stroke"/><path d="M553 169 L577 144 L590 188 z" 
                              vector-effect="non-scaling-stroke"/><path d="M546 242 L553 169 L590 188 z" 
                              vector-effect="non-scaling-stroke"/><path d="M480 387 L511 341 L565 369 z" 
                              vector-effect="non-scaling-stroke"/><path d="M661 519 L620 493 L661 452 z" 
                              vector-effect="non-scaling-stroke"/><path d="M661 452 L687 472 L661 519 z" 
                              vector-effect="non-scaling-stroke"/><path d="M620 493 L661 519 L650 526 z" 
                              vector-effect="non-scaling-stroke"/><path d="M633 549 L595 539 L620 493 z" 
                              vector-effect="non-scaling-stroke"/><path d="M620 493 L650 526 L633 549 z" 
                              vector-effect="non-scaling-stroke"/><path d="M614 573 L595 539 L633 549 z" 
                              vector-effect="non-scaling-stroke"/><path d="M614 573 L633 549 L637 561 z" 
                              vector-effect="non-scaling-stroke"/><path d="M380 229 L354 256 L329 238 z" 
                              vector-effect="non-scaling-stroke"/><path d="M241 623 L171 626 L162 580 z" 
                              vector-effect="non-scaling-stroke"/><path d="M241 623 L162 580 L229 551 z" 
                              vector-effect="non-scaling-stroke"/><path d="M241 623 L229 551 L278 575 z" 
                              vector-effect="non-scaling-stroke"/><path d="M269 615 L241 623 L278 575 z" 
                              vector-effect="non-scaling-stroke"/><path d="M304 599 L269 615 L278 575 z" 
                              vector-effect="non-scaling-stroke"/><path d="M304 599 L278 575 L304 574 z" 
                              vector-effect="non-scaling-stroke"/><path d="M344 583 L304 599 L304 574 z" 
                              vector-effect="non-scaling-stroke"/><path d="M344 583 L304 574 L325 544 z" 
                              vector-effect="non-scaling-stroke"/><path d="M391 565 L344 583 L325 544 z" 
                              vector-effect="non-scaling-stroke"/><path d="M325 544 L387 520 L391 565 z" 
                              vector-effect="non-scaling-stroke"/><path d="M391 565 L387 520 L422 544 z" 
                              vector-effect="non-scaling-stroke"/><path d="M407 570 L391 565 L422 544 z" 
                              vector-effect="non-scaling-stroke"/><path d="M337 266 L354 256 L385 292 z" 
                              vector-effect="non-scaling-stroke"/><path d="M327 342 L337 266 L385 292 z" 
                              vector-effect="non-scaling-stroke"/><path d="M679 620 L649 650 L612 625 z" 
                              vector-effect="non-scaling-stroke"/><path d="M209 770 L197 752 L230 719 z" 
                              vector-effect="non-scaling-stroke"/><path d="M267 775 L209 770 L230 719 z" 
                              vector-effect="non-scaling-stroke"/><path d="M267 775 L230 719 L276 688 z" 
                              vector-effect="non-scaling-stroke"/><path d="M327 777 L267 775 L276 688 z" 
                              vector-effect="non-scaling-stroke"/><path d="M327 777 L276 688 L326 689 z" 
                              vector-effect="non-scaling-stroke"/><path d="M327 777 L326 689 L351 717 z" 
                              vector-effect="non-scaling-stroke"/><path d="M365 766 L327 777 L351 717 z" 
                              vector-effect="non-scaling-stroke"/><path d="M365 766 L351 717 L394 741 z" 
                              vector-effect="non-scaling-stroke"/><path d="M414 732 L365 766 L394 741 z" 
                              vector-effect="non-scaling-stroke"/><path d="M414 732 L394 741 L415 699 z" 
                              vector-effect="non-scaling-stroke"/><path d="M447 700 L414 732 L415 699 z" 
                              vector-effect="non-scaling-stroke"/><path d="M410 169 L414 127 L461 122 z" 
                              vector-effect="non-scaling-stroke"/><path d="M352 105 L296 118 L310 75 z" 
                              vector-effect="non-scaling-stroke"/><path d="M310 75 L347 78 L352 105 z" 
                              vector-effect="non-scaling-stroke"/><path d="M296 118 L352 105 L352 131 z" 
                              vector-effect="non-scaling-stroke"/><path d="M278 172 L296 118 L352 131 z" 
                              vector-effect="non-scaling-stroke"/><path d="M302 202 L278 172 L352 131 z" 
                              vector-effect="non-scaling-stroke"/><path d="M302 202 L352 131 L365 160 z" 
                              vector-effect="non-scaling-stroke"/><path d="M380 177 L329 238 L302 202 z" 
                              vector-effect="non-scaling-stroke"/><path d="M380 177 L380 229 L329 238 z" 
                              vector-effect="non-scaling-stroke"/><path d="M302 202 L365 160 L380 177 z" 
                              vector-effect="non-scaling-stroke"/><path d="M380 229 L380 177 L399 182 z" 
                              vector-effect="non-scaling-stroke"/><path d="M461 122 L499 141 L493 167 z" 
                              vector-effect="non-scaling-stroke"/><path d="M410 169 L461 122 L493 167 z" 
                              vector-effect="non-scaling-stroke"/><path d="M410 169 L493 167 L468 209 z" 
                              vector-effect="non-scaling-stroke"/><path d="M399 182 L410 169 L468 209 z" 
                              vector-effect="non-scaling-stroke"/><path d="M468 209 L447 246 L399 182 z" 
                              vector-effect="non-scaling-stroke"/><path d="M414 257 L380 229 L399 182 z" 
                              vector-effect="non-scaling-stroke"/><path d="M399 182 L447 246 L414 257 z" 
                              vector-effect="non-scaling-stroke"/><path d="M385 292 L414 257 L447 246 z" 
                              vector-effect="non-scaling-stroke"/><path d="M447 246 L361 353 L385 292 z" 
                              vector-effect="non-scaling-stroke"/><path d="M327 342 L385 292 L361 353 z" 
                              vector-effect="non-scaling-stroke"/><path d="M348 385 L318 386 L327 342 z" 
                              vector-effect="non-scaling-stroke"/><path d="M327 342 L361 353 L348 385 z" 
                              vector-effect="non-scaling-stroke"/><path d="M325 412 L318 386 L348 385 z" 
                              vector-effect="non-scaling-stroke"/><path d="M325 412 L348 385 L348 414 z" 
                              vector-effect="non-scaling-stroke"/><path d="M355 436 L350 456 L325 412 z" 
                              vector-effect="non-scaling-stroke"/><path d="M325 412 L348 414 L355 436 z" 
                              vector-effect="non-scaling-stroke"/><path d="M350 456 L355 436 L375 449 z" 
                              vector-effect="non-scaling-stroke"/><path d="M159 136 L162 213 L120 148 z" 
                              vector-effect="non-scaling-stroke"/><path d="M120 148 L132 135 L159 136 z" 
                              vector-effect="non-scaling-stroke"/><path d="M162 213 L159 136 L200 175 z" 
                              vector-effect="non-scaling-stroke"/><path d="M213 228 L162 213 L200 175 z" 
                              vector-effect="non-scaling-stroke"/><path d="M213 228 L200 175 L235 236 z" 
                              vector-effect="non-scaling-stroke"/><path d="M238 260 L195 272 L213 228 z" 
                              vector-effect="non-scaling-stroke"/><path d="M213 228 L235 236 L238 260 z" 
                              vector-effect="non-scaling-stroke"/><path d="M195 272 L238 260 L238 324 z" 
                              vector-effect="non-scaling-stroke"/><path d="M149 294 L195 272 L238 324 z" 
                              vector-effect="non-scaling-stroke"/><path d="M201 387 L238 324 L237 368 z" 
                              vector-effect="non-scaling-stroke"/><path d="M248 398 L239 438 L201 387 z" 
                              vector-effect="non-scaling-stroke"/><path d="M201 387 L237 368 L248 398 z" 
                              vector-effect="non-scaling-stroke"/><path d="M284 433 L239 438 L248 398 z" 
                              vector-effect="non-scaling-stroke"/><path d="M248 398 L284 410 L284 433 z" 
                              vector-effect="non-scaling-stroke"/><path d="M277 468 L239 438 L284 433 z" 
                              vector-effect="non-scaling-stroke"/><path d="M277 468 L284 433 L310 476 z" 
                              vector-effect="non-scaling-stroke"/><path d="M309 495 L277 468 L310 476 z" 
                              vector-effect="non-scaling-stroke"/><path d="M608 366 L662 335 L664 389 z" 
                              vector-effect="non-scaling-stroke"/><path d="M602 317 L626 290 L662 335 z" 
                              vector-effect="non-scaling-stroke"/><path d="M602 317 L558 329 L537 297 z" 
                              vector-effect="non-scaling-stroke"/><path d="M612 281 L602 317 L537 297 z" 
                              vector-effect="non-scaling-stroke"/><path d="M537 297 L546 242 L612 281 z" 
                              vector-effect="non-scaling-stroke"/><path d="M617 261 L612 281 L546 242 z" 
                              vector-effect="non-scaling-stroke"/><path d="M457 673 L447 700 L415 699 z" 
                              vector-effect="non-scaling-stroke"/><path d="M415 580 L407 570 L422 544 z" 
                              vector-effect="non-scaling-stroke"/><path d="M415 699 L374 677 L375 664 z" 
                              vector-effect="non-scaling-stroke"/><path d="M415 699 L375 664 L411 642 z" 
                              vector-effect="non-scaling-stroke"/><path d="M457 673 L415 699 L411 642 z" 
                              vector-effect="non-scaling-stroke"/><path d="M461 639 L457 673 L411 642 z" 
                              vector-effect="non-scaling-stroke"/><path d="M412 615 L456 611 L461 639 z" 
                              vector-effect="non-scaling-stroke"/><path d="M461 639 L411 642 L412 615 z" 
                              vector-effect="non-scaling-stroke"/><path d="M456 611 L412 615 L415 580 z" 
                              vector-effect="non-scaling-stroke"/><path d="M459 588 L456 611 L415 580 z" 
                              vector-effect="non-scaling-stroke"/><path d="M459 588 L415 580 L422 544 z" 
                              vector-effect="non-scaling-stroke"/><path d="M477 578 L459 588 L422 544 z" 
                              vector-effect="non-scaling-stroke"/><path d="M483 530 L499 544 L477 578 z" 
                              vector-effect="non-scaling-stroke"/><path d="M499 544 L509 578 L477 578 z" 
                              vector-effect="non-scaling-stroke"/><path d="M602 317 L612 281 L626 290 z" 
                              vector-effect="non-scaling-stroke"/><path d="M590 188 L633 179 L650 205 z" 
                              vector-effect="non-scaling-stroke"/><path d="M699 572 L706 593 L679 620 z" 
                              vector-effect="non-scaling-stroke"/><path d="M660 564 L699 572 L679 620 z" 
                              vector-effect="non-scaling-stroke"/><path d="M660 564 L679 620 L612 625 z" 
                              vector-effect="non-scaling-stroke"/><path d="M637 561 L660 564 L612 625 z" 
                              vector-effect="non-scaling-stroke"/><path d="M614 573 L637 561 L612 625 z" 
                              vector-effect="non-scaling-stroke"/><path d="M578 606 L572 594 L614 573 z" 
                              vector-effect="non-scaling-stroke"/><path d="M614 573 L612 625 L578 606 z" 
                              vector-effect="non-scaling-stroke"/><path d="M572 594 L578 606 L544 589 z" 
                              vector-effect="non-scaling-stroke"/><path d="M550 558 L572 594 L544 589 z" 
                              vector-effect="non-scaling-stroke"/><path d="M550 558 L544 589 L509 578 z" 
                              vector-effect="non-scaling-stroke"/><path d="M523 543 L550 558 L509 578 z" 
                              vector-effect="non-scaling-stroke"/><path d="M499 544 L523 543 L509 578 z" 
                              vector-effect="non-scaling-stroke"/><path d="M477 578 L422 544 L483 530 z" 
                              vector-effect="non-scaling-stroke"/><path d="M422 544 L450 503 L483 530 z" 
                              vector-effect="non-scaling-stroke"/><path d="M475 509 L483 530 L450 503 z" 
                              vector-effect="non-scaling-stroke"/><path d="M468 475 L475 509 L450 503 z" 
                              vector-effect="non-scaling-stroke"/><path d="M468 475 L450 503 L411 479 z" 
                              vector-effect="non-scaling-stroke"/><path d="M468 454 L468 475 L411 479 z" 
                              vector-effect="non-scaling-stroke"/><path d="M375 449 L411 479 L387 520 z" 
                              vector-effect="non-scaling-stroke"/><path d="M350 456 L387 520 L325 517 z" 
                              vector-effect="non-scaling-stroke"/><path d="M350 456 L325 517 L309 495 z" 
                              vector-effect="non-scaling-stroke"/><path d="M309 495 L310 476 L350 456 z" 
                              vector-effect="non-scaling-stroke"/><path d="M387 520 L350 456 L375 449 z" 
                              vector-effect="non-scaling-stroke"/><path d="M411 479 L375 449 L396 449 z" 
                              vector-effect="non-scaling-stroke"/><path d="M441 419 L468 454 L411 479 z" 
                              vector-effect="non-scaling-stroke"/><path d="M411 479 L396 449 L441 419 z" 
                              vector-effect="non-scaling-stroke"/><path d="M477 438 L468 454 L441 419 z" 
                              vector-effect="non-scaling-stroke"/><path d="M477 438 L441 419 L460 402 z" 
                              vector-effect="non-scaling-stroke"/><path d="M477 438 L460 402 L480 387 z" 
                              vector-effect="non-scaling-stroke"/><path d="M559 419 L477 438 L480 387 z" 
                              vector-effect="non-scaling-stroke"/><path d="M559 419 L480 387 L565 369 z" 
                              vector-effect="non-scaling-stroke"/><path d="M609 406 L559 419 L565 369 z" 
                              vector-effect="non-scaling-stroke"/><path d="M609 406 L565 369 L608 366 z" 
                              vector-effect="non-scaling-stroke"/><path d="M664 389 L609 406 L608 366 z" 
                              vector-effect="non-scaling-stroke"/><path d="M662 335 L608 366 L602 317 z" 
                              vector-effect="non-scaling-stroke"/><path d="M546 242 L590 188 L617 261 z" 
                              vector-effect="non-scaling-stroke"/><path d="M629 241 L617 261 L590 188 z" 
                              vector-effect="non-scaling-stroke"/><path d="M650 205 L629 241 L590 188 z" 
                              vector-effect="non-scaling-stroke"/></g></svg>