
            <svg version="1.1" xmlns="http://www.w3.org/2000/svg" 
                width="600" height="600" viewBox="-2 -2 804 804"><path d="M0 0 L125 116 L128 142 L138 166 L175 196 L189 201 L216 220 L257 231 L291 235 L339 238 L379 236 L382 214 L393 195 L402 185 L344 161 L295 155 L260 157 L243 158 L225 154 L249 145 L301 127 L296 105 L297 87 L314 67 L322 70 L312 81 L304 98 L309 124 L328 143 L354 158 L379 171 L410 175 L411 189 L394 209 L391 230 L400 259 L422 277 L452 283 L455 291 L441 322 L430 382 L424 440 L449 479 L470 521 L491 571 L504 600 L554 654 L532 591 L526 527 L529 470 L534 400 L536 370 L531 316 L512 312 L484 305 L465 290 L457 258 L487 224 L493 226 L467 258 L468 282 L495 302 L531 306 L527 285 L515 260 L543 283 L559 315 L574 359 L574 404 L570 458 L559 505 L553 574 L552 624 L589 746 L632 747 L634 738 L607 680 L619 695 L644 746 L712 745 L712 735 L673 718 L649 696 L619 695 L607 680 L579 637 L592 587 L610 535 L627 477 L626 421 L626 341 L614 288 L609 252 L587 200 L552 164 L503 142 L466 133 L448 122 L441 142 L439 108 L431 92 L396 59 L412 68 L438 88 L461 122 L529 135 L497 105 L466 83 L435 70 L412 68 L396 59 L335 57 L292 61 L256 66 L228 78 L185 85 L150 91 L138 95 L125 116 L0 0 L800 0 L800 800 L0 800 L124 720 L126 736 L152 735 L183 709 L216 686 L196 675 L193 667 L233 689 L281 704 L325 716 L368 724 L428 735 L484 745 L577 745 L570 713 L513 703 L465 694 L448 690 L424 679 L376 667 L304 617 L244 572 L201 552 L195 542 L236 559 L245 428 L252 570 L295 560 L272 504 L256 426 L278 503 L309 568 L357 624 L400 660 L442 683 L489 693 L538 701 L568 705 L559 669 L521 626 L499 605 L475 548 L451 494 L426 451 L380 399 L328 346 L369 372 L416 426 L429 352 L369 372 L328 346 L263 285 L225 263 L212 261 L204 255 L189 263 L183 279 L180 324 L169 367 L167 411 L169 457 L174 506 L186 548 L173 528 L167 494 L165 471 L152 485 L148 495 L133 513 L128 560 L143 605 L171 644 L182 660 L168 679 L154 683 L133 702 L124 720 L0 800z" fill="gainsboro" stroke="black" stroke-width="3" 
                      vector-effect="non-scaling-stroke"/><g fill="none" stroke="black" stroke-width="1"><path d="M272 504 L256 426 L278 503 z" 
                              vector-effect="non-scaling-stroke"/><path d="M236 559 L245 428 L252 570 z" 
                              vector-effect="non-scaling-stroke"/><path d="M380 399 L328 346 L369 372 z" 
                              vector-effect="non-scaling-stroke"/><path d="M634 738 L607 680 L619 695 z" 
                              vector-effect="non-scaling-stroke"/><path d="M634 738 L619 695 L644 746 z" 
                              vector-effect="non-scaling-stroke"/><path d="M431 92 L396 59 L412 68 z" 
                              vector-effect="non-scaling-stroke"/><path d="M431 92 L412 68 L438 88 z" 
                              vector-effect="non-scaling-stroke"/><path d="M174 506 L186 548 L173 528 z" 
                              vector-effect="non-scaling-stroke"/><path d="M174 506 L173 528 L167 494 z" 
                              vector-effect="non-scaling-stroke"/><path d="M380 399 L369 372 L416 426 z" 
                              vector-effect="non-scaling-stroke"/><path d="M426 451 L380 399 L416 426 z" 
                              vector-effect="non-scaling-stroke"/><path d="M448 122 L441 142 L439 108 z" 
                              vector-effect="non-scaling-stroke"/><path d="M165 471 L169 457 L174 506 z" 
                              vector-effect="non-scaling-stroke"/><path d="M174 506 L167 494 L165 471 z" 
                              vector-effect="non-scaling-stroke"/><path d="M527 285 L515 260 L543 283 z" 
                              vector-effect="non-scaling-stroke"/><path d="M243 158 L225 154 L249 145 z" 
                              vector-effect="non-scaling-stroke"/><path d="M201 552 L195 542 L236 559 z" 
                              vector-effect="non-scaling-stroke"/><path d="M244 572 L201 552 L236 559 z" 
                              vector-effect="non-scaling-stroke"/><path d="M244 572 L236 559 L252 570 z" 
                              vector-effect="non-scaling-stroke"/><path d="M216 686 L196 675 L193 667 z" 
                              vector-effect="non-scaling-stroke"/><path d="M193 667 L233 689 L216 686 z" 
                              vector-effect="non-scaling-stroke"/><path d="M133 513 L0 800 L0 0 z" 
                              vector-effect="non-scaling-stroke"/><path d="M0 0 L125 116 L128 142 z" 
                              vector-effect="non-scaling-stroke"/><path d="M0 0 L128 142 L138 166 z" 
                              vector-effect="non-scaling-stroke"/><path d="M304 617 L244 572 L252 570 z" 
                              vector-effect="non-scaling-stroke"/><path d="M304 617 L252 570 L295 560 z" 
                              vector-effect="non-scaling-stroke"/><path d="M260 157 L243 158 L249 145 z" 
                              vector-effect="non-scaling-stroke"/><path d="M169 367 L133 513 L0 0 z" 
                              vector-effect="non-scaling-stroke"/><path d="M632 747 L634 738 L644 746 z" 
                              vector-effect="non-scaling-stroke"/><path d="M0 800 L124 720 L126 736 z" 
                              vector-effect="non-scaling-stroke"/><path d="M484 745 L800 800 L0 800 z" 
                              vector-effect="non-scaling-stroke"/><path d="M0 800 L126 736 L152 735 z" 
                              vector-effect="non-scaling-stroke"/><path d="M428 735 L484 745 L0 800 z" 
                              vector-effect="non-scaling-stroke"/><path d="M260 157 L249 145 L301 127 z" 
                              vector-effect="non-scaling-stroke"/><path d="M295 155 L260 157 L301 127 z" 
                              vector-effect="non-scaling-stroke"/><path d="M314 67 L322 70 L312 81 z" 
                              vector-effect="non-scaling-stroke"/><path d="M297 87 L314 67 L312 81 z" 
                              vector-effect="non-scaling-stroke"/><path d="M297 87 L312 81 L304 98 z" 
                              vector-effect="non-scaling-stroke"/><path d="M296 105 L297 87 L304 98 z" 
                              vector-effect="non-scaling-stroke"/><path d="M296 105 L304 98 L309 124 z" 
                              vector-effect="non-scaling-stroke"/><path d="M301 127 L296 105 L309 124 z" 
                              vector-effect="non-scaling-stroke"/><path d="M487 224 L493 226 L467 258 z" 
                              vector-effect="non-scaling-stroke"/><path d="M457 258 L487 224 L467 258 z" 
                              vector-effect="non-scaling-stroke"/><path d="M468 282 L465 290 L457 258 z" 
                              vector-effect="non-scaling-stroke"/><path d="M457 258 L467 258 L468 282 z" 
                              vector-effect="non-scaling-stroke"/><path d="M484 305 L465 290 L468 282 z" 
                              vector-effect="non-scaling-stroke"/><path d="M468 282 L495 302 L484 305 z" 
                              vector-effect="non-scaling-stroke"/><path d="M512 312 L484 305 L495 302 z" 
                              vector-effect="non-scaling-stroke"/><path d="M512 312 L495 302 L531 306 z" 
                              vector-effect="non-scaling-stroke"/><path d="M531 316 L512 312 L531 306 z" 
                              vector-effect="non-scaling-stroke"/><path d="M295 560 L272 504 L278 503 z" 
                              vector-effect="non-scaling-stroke"/><path d="M295 560 L278 503 L309 568 z" 
                              vector-effect="non-scaling-stroke"/><path d="M304 617 L295 560 L309 568 z" 
                              vector-effect="non-scaling-stroke"/><path d="M304 617 L309 568 L357 624 z" 
                              vector-effect="non-scaling-stroke"/><path d="M376 667 L304 617 L357 624 z" 
                              vector-effect="non-scaling-stroke"/><path d="M376 667 L357 624 L400 660 z" 
                              vector-effect="non-scaling-stroke"/><path d="M424 679 L376 667 L400 660 z" 
                              vector-effect="non-scaling-stroke"/><path d="M424 679 L400 660 L442 683 z" 
                              vector-effect="non-scaling-stroke"/><path d="M448 690 L424 679 L442 683 z" 
                              vector-effect="non-scaling-stroke"/><path d="M465 694 L448 690 L442 683 z" 
                              vector-effect="non-scaling-stroke"/><path d="M442 683 L489 693 L465 694 z" 
                              vector-effect="non-scaling-stroke"/><path d="M513 703 L465 694 L489 693 z" 
                              vector-effect="non-scaling-stroke"/><path d="M513 703 L489 693 L538 701 z" 
                              vector-effect="non-scaling-stroke"/><path d="M570 713 L513 703 L538 701 z" 
                              vector-effect="non-scaling-stroke"/><path d="M570 713 L538 701 L568 705 z" 
                              vector-effect="non-scaling-stroke"/><path d="M138 95 L125 116 L0 0 z" 
                              vector-effect="non-scaling-stroke"/><path d="M328 143 L344 161 L295 155 z" 
                              vector-effect="non-scaling-stroke"/><path d="M328 143 L295 155 L301 127 z" 
                              vector-effect="non-scaling-stroke"/><path d="M301 127 L309 124 L328 143 z" 
                              vector-effect="non-scaling-stroke"/><path d="M344 161 L328 143 L354 158 z" 
                              vector-effect="non-scaling-stroke"/><path d="M379 171 L402 185 L344 161 z" 
                              vector-effect="non-scaling-stroke"/><path d="M344 161 L354 158 L379 171 z" 
                              vector-effect="non-scaling-stroke"/><path d="M402 185 L379 171 L410 175 z" 
                              vector-effect="non-scaling-stroke"/><path d="M402 185 L410 175 L411 189 z" 
                              vector-effect="non-scaling-stroke"/><path d="M393 195 L402 185 L411 189 z" 
                              vector-effect="non-scaling-stroke"/><path d="M411 189 L394 209 L393 195 z" 
                              vector-effect="non-scaling-stroke"/><path d="M382 214 L393 195 L394 209 z" 
                              vector-effect="non-scaling-stroke"/><path d="M382 214 L394 209 L391 230 z" 
                              vector-effect="non-scaling-stroke"/><path d="M379 236 L382 214 L391 230 z" 
                              vector-effect="non-scaling-stroke"/><path d="M379 236 L391 230 L400 259 z" 
                              vector-effect="non-scaling-stroke"/><path d="M531 306 L527 285 L543 283 z" 
                              vector-effect="non-scaling-stroke"/><path d="M531 306 L543 283 L559 315 z" 
                              vector-effect="non-scaling-stroke"/><path d="M531 316 L531 306 L559 315 z" 
                              vector-effect="non-scaling-stroke"/><path d="M152 485 L148 495 L133 513 z" 
                              vector-effect="non-scaling-stroke"/><path d="M536 370 L531 316 L559 315 z" 
                              vector-effect="non-scaling-stroke"/><path d="M536 370 L559 315 L574 359 z" 
                              vector-effect="non-scaling-stroke"/><path d="M536 370 L574 359 L574 404 z" 
                              vector-effect="non-scaling-stroke"/><path d="M534 400 L536 370 L574 404 z" 
                              vector-effect="non-scaling-stroke"/><path d="M570 458 L529 470 L534 400 z" 
                              vector-effect="non-scaling-stroke"/><path d="M534 400 L574 404 L570 458 z" 
                              vector-effect="non-scaling-stroke"/><path d="M529 470 L570 458 L559 505 z" 
                              vector-effect="non-scaling-stroke"/><path d="M526 527 L529 470 L559 505 z" 
                              vector-effect="non-scaling-stroke"/><path d="M526 527 L559 505 L553 574 z" 
                              vector-effect="non-scaling-stroke"/><path d="M532 591 L526 527 L553 574 z" 
                              vector-effect="non-scaling-stroke"/><path d="M532 591 L553 574 L552 624 z" 
                              vector-effect="non-scaling-stroke"/><path d="M554 654 L532 591 L552 624 z" 
                              vector-effect="non-scaling-stroke"/><path d="M559 669 L554 654 L552 624 z" 
                              vector-effect="non-scaling-stroke"/><path d="M439 108 L431 92 L438 88 z" 
                              vector-effect="non-scaling-stroke"/><path d="M439 108 L438 88 L461 122 z" 
                              vector-effect="non-scaling-stroke"/><path d="M448 122 L439 108 L461 122 z" 
                              vector-effect="non-scaling-stroke"/><path d="M466 133 L448 122 L461 122 z" 
                              vector-effect="non-scaling-stroke"/><path d="M503 142 L466 133 L461 122 z" 
                              vector-effect="non-scaling-stroke"/><path d="M461 122 L529 135 L503 142 z" 
                              vector-effect="non-scaling-stroke"/><path d="M552 164 L503 142 L529 135 z" 
                              vector-effect="non-scaling-stroke"/><path d="M171 644 L182 660 L168 679 z" 
                              vector-effect="non-scaling-stroke"/><path d="M171 644 L168 679 L154 683 z" 
                              vector-effect="non-scaling-stroke"/><path d="M143 605 L171 644 L154 683 z" 
                              vector-effect="non-scaling-stroke"/><path d="M422 277 L452 283 L455 291 z" 
                              vector-effect="non-scaling-stroke"/><path d="M422 277 L455 291 L441 322 z" 
                              vector-effect="non-scaling-stroke"/><path d="M143 605 L154 683 L133 702 z" 
                              vector-effect="non-scaling-stroke"/><path d="M150 91 L138 95 L0 0 z" 
                              vector-effect="non-scaling-stroke"/><path d="M422 277 L441 322 L429 352 z" 
                              vector-effect="non-scaling-stroke"/><path d="M339 238 L379 236 L400 259 z" 
                              vector-effect="non-scaling-stroke"/><path d="M649 696 L619 695 L607 680 z" 
                              vector-effect="non-scaling-stroke"/><path d="M607 680 L579 637 L592 587 z" 
                              vector-effect="non-scaling-stroke"/><path d="M649 696 L607 680 L592 587 z" 
                              vector-effect="non-scaling-stroke"/><path d="M649 696 L592 587 L610 535 z" 
                              vector-effect="non-scaling-stroke"/><path d="M183 709 L216 686 L233 689 z" 
                              vector-effect="non-scaling-stroke"/><path d="M185 85 L150 91 L0 0 z" 
                              vector-effect="non-scaling-stroke"/><path d="M429 352 L369 372 L422 277 z" 
                              vector-effect="non-scaling-stroke"/><path d="M183 709 L233 689 L281 704 z" 
                              vector-effect="non-scaling-stroke"/><path d="M256 66 L228 78 L185 85 z" 
                              vector-effect="non-scaling-stroke"/><path d="M185 85 L0 0 L256 66 z" 
                              vector-effect="non-scaling-stroke"/><path d="M712 735 L673 718 L649 696 z" 
                              vector-effect="non-scaling-stroke"/><path d="M649 696 L610 535 L712 735 z" 
                              vector-effect="non-scaling-stroke"/><path d="M712 735 L610 535 L627 477 z" 
                              vector-effect="non-scaling-stroke"/><path d="M133 702 L124 720 L0 800 z" 
                              vector-effect="non-scaling-stroke"/><path d="M143 605 L133 702 L0 800 z" 
                              vector-effect="non-scaling-stroke"/><path d="M128 560 L143 605 L0 800 z" 
                              vector-effect="non-scaling-stroke"/><path d="M216 220 L225 263 L212 261 z" 
                              vector-effect="non-scaling-stroke"/><path d="M328 346 L400 259 L422 277 z" 
                              vector-effect="non-scaling-stroke"/><path d="M328 346 L263 285 L339 238 z" 
                              vector-effect="non-scaling-stroke"/><path d="M257 231 L291 235 L263 285 z" 
                              vector-effect="non-scaling-stroke"/><path d="M169 457 L165 471 L152 485 z" 
                              vector-effect="non-scaling-stroke"/><path d="M167 411 L169 457 L152 485 z" 
                              vector-effect="non-scaling-stroke"/><path d="M435 70 L412 68 L396 59 z" 
                              vector-effect="non-scaling-stroke"/><path d="M216 220 L257 231 L225 263 z" 
                              vector-effect="non-scaling-stroke"/><path d="M292 61 L256 66 L0 0 z" 
                              vector-effect="non-scaling-stroke"/><path d="M335 57 L292 61 L0 0 z" 
                              vector-effect="non-scaling-stroke"/><path d="M0 0 L800 0 L335 57 z" 
                              vector-effect="non-scaling-stroke"/><path d="M396 59 L335 57 L800 0 z" 
                              vector-effect="non-scaling-stroke"/><path d="M435 70 L396 59 L800 0 z" 
                              vector-effect="non-scaling-stroke"/><path d="M466 83 L435 70 L800 0 z" 
                              vector-effect="non-scaling-stroke"/><path d="M497 105 L466 83 L800 0 z" 
                              vector-effect="non-scaling-stroke"/><path d="M529 135 L497 105 L800 0 z" 
                              vector-effect="non-scaling-stroke"/><path d="M552 164 L529 135 L800 0 z" 
                              vector-effect="non-scaling-stroke"/><path d="M587 200 L552 164 L800 0 z" 
                              vector-effect="non-scaling-stroke"/><path d="M609 252 L587 200 L800 0 z" 
                              vector-effect="non-scaling-stroke"/><path d="M614 288 L609 252 L800 0 z" 
                              vector-effect="non-scaling-stroke"/><path d="M626 341 L614 288 L800 0 z" 
                              vector-effect="non-scaling-stroke"/><path d="M626 421 L626 341 L800 0 z" 
                              vector-effect="non-scaling-stroke"/><path d="M800 0 L800 800 L626 421 z" 
                              vector-effect="non-scaling-stroke"/><path d="M627 477 L626 421 L800 800 z" 
                              vector-effect="non-scaling-stroke"/><path d="M712 735 L627 477 L800 800 z" 
                              vector-effect="non-scaling-stroke"/><path d="M712 745 L712 735 L800 800 z" 
                              vector-effect="non-scaling-stroke"/><path d="M644 746 L712 745 L800 800 z" 
                              vector-effect="non-scaling-stroke"/><path d="M632 747 L644 746 L800 800 z" 
                              vector-effect="non-scaling-stroke"/><path d="M133 513 L128 560 L0 800 z" 
                              vector-effect="non-scaling-stroke"/><path d="M167 411 L152 485 L133 513 z" 
                              vector-effect="non-scaling-stroke"/><path d="M0 0 L138 166 L169 367 z" 
                              vector-effect="non-scaling-stroke"/><path d="M180 324 L169 367 L138 166 z" 
                              vector-effect="non-scaling-stroke"/><path d="M152 735 L183 709 L281 704 z" 
                              vector-effect="non-scaling-stroke"/><path d="M589 746 L632 747 L800 800 z" 
                              vector-effect="non-scaling-stroke"/><path d="M212 261 L204 255 L216 220 z" 
                              vector-effect="non-scaling-stroke"/><path d="M138 166 L183 279 L180 324 z" 
                              vector-effect="non-scaling-stroke"/><path d="M133 513 L169 367 L167 411 z" 
                              vector-effect="non-scaling-stroke"/><path d="M138 166 L175 196 L183 279 z" 
                              vector-effect="non-scaling-stroke"/><path d="M189 263 L183 279 L175 196 z" 
                              vector-effect="non-scaling-stroke"/><path d="M175 196 L189 201 L189 263 z" 
                              vector-effect="non-scaling-stroke"/><path d="M204 255 L189 263 L189 201 z" 
                              vector-effect="non-scaling-stroke"/><path d="M189 201 L216 220 L204 255 z" 
                              vector-effect="non-scaling-stroke"/><path d="M263 285 L225 263 L257 231 z" 
                              vector-effect="non-scaling-stroke"/><path d="M291 235 L339 238 L263 285 z" 
                              vector-effect="non-scaling-stroke"/><path d="M339 238 L400 259 L328 346 z" 
                              vector-effect="non-scaling-stroke"/><path d="M422 277 L369 372 L328 346 z" 
                              vector-effect="non-scaling-stroke"/><path d="M429 352 L441 322 L430 382 z" 
                              vector-effect="non-scaling-stroke"/><path d="M416 426 L429 352 L430 382 z" 
                              vector-effect="non-scaling-stroke"/><path d="M416 426 L430 382 L424 440 z" 
                              vector-effect="non-scaling-stroke"/><path d="M426 451 L416 426 L424 440 z" 
                              vector-effect="non-scaling-stroke"/><path d="M426 451 L424 440 L449 479 z" 
                              vector-effect="non-scaling-stroke"/><path d="M451 494 L426 451 L449 479 z" 
                              vector-effect="non-scaling-stroke"/><path d="M451 494 L449 479 L470 521 z" 
                              vector-effect="non-scaling-stroke"/><path d="M475 548 L451 494 L470 521 z" 
                              vector-effect="non-scaling-stroke"/><path d="M475 548 L470 521 L491 571 z" 
                              vector-effect="non-scaling-stroke"/><path d="M499 605 L475 548 L491 571 z" 
                              vector-effect="non-scaling-stroke"/><path d="M499 605 L491 571 L504 600 z" 
                              vector-effect="non-scaling-stroke"/><path d="M521 626 L499 605 L504 600 z" 
                              vector-effect="non-scaling-stroke"/><path d="M504 600 L554 654 L521 626 z" 
                              vector-effect="non-scaling-stroke"/><path d="M559 669 L521 626 L554 654 z" 
                              vector-effect="non-scaling-stroke"/><path d="M552 624 L589 746 L559 669 z" 
                              vector-effect="non-scaling-stroke"/><path d="M568 705 L559 669 L589 746 z" 
                              vector-effect="non-scaling-stroke"/><path d="M570 713 L568 705 L589 746 z" 
                              vector-effect="non-scaling-stroke"/><path d="M577 745 L570 713 L589 746 z" 
                              vector-effect="non-scaling-stroke"/><path d="M484 745 L577 745 L589 746 z" 
                              vector-effect="non-scaling-stroke"/><path d="M589 746 L800 800 L484 745 z" 
                              vector-effect="non-scaling-stroke"/><path d="M368 724 L428 735 L0 800 z" 
                              vector-effect="non-scaling-stroke"/><path d="M0 800 L152 735 L368 724 z" 
                              vector-effect="non-scaling-stroke"/><path d="M325 716 L368 724 L152 735 z" 
                              vector-effect="non-scaling-stroke"/><path d="M281 704 L325 716 L152 735 z" 
                              vector-effect="non-scaling-stroke"/></g></svg>