
            <svg version="1.1" xmlns="http://www.w3.org/2000/svg" 
                width="318.0537772087068" height="600" viewBox="202 12 418 785"><path d="M204 36 L215 24 L249 14 L305 30 L356 54 L421 122 L424 137 L441 114 L457 103 L485 98 L507 112 L524 137 L523 159 L508 173 L461 191 L490 206 L530 217 L567 242 L601 287 L616 324 L618 358 L613 391 L600 425 L593 441 L586 436 L577 360 L558 319 L545 299 L509 272 L494 263 L490 289 L483 318 L464 354 L443 398 L431 436 L437 453 L466 482 L479 501 L480 545 L482 596 L469 648 L454 693 L451 718 L444 742 L408 751 L411 729 L406 688 L396 649 L382 613 L369 561 L360 519 L357 480 L348 509 L332 539 L327 577 L328 610 L341 647 L337 688 L329 733 L322 764 L304 790 L292 795 L274 758 L278 723 L262 647 L254 587 L253 520 L261 475 L280 436 L291 421 L307 415 L325 398 L348 354 L352 315 L351 264 L426 256 L428 269 L441 269 L446 258 L444 252 L435 247 L426 256 L351 264 L350 216 L348 182 L360 142 L351 110 L334 95 L310 75 L274 52 L247 43z" fill="gainsboro" stroke="black" stroke-width="3" 
                      vector-effect="non-scaling-stroke"/><g fill="none" stroke="black" stroke-width="1"><path d="M247 43 L204 36 L215 24 z" 
                              vector-effect="non-scaling-stroke"/><path d="M247 43 L215 24 L249 14 z" 
                              vector-effect="non-scaling-stroke"/><path d="M444 742 L408 751 L411 729 z" 
                              vector-effect="non-scaling-stroke"/><path d="M274 52 L247 43 L249 14 z" 
                              vector-effect="non-scaling-stroke"/><path d="M249 14 L305 30 L274 52 z" 
                              vector-effect="non-scaling-stroke"/><path d="M310 75 L274 52 L305 30 z" 
                              vector-effect="non-scaling-stroke"/><path d="M310 75 L305 30 L356 54 z" 
                              vector-effect="non-scaling-stroke"/><path d="M334 95 L310 75 L356 54 z" 
                              vector-effect="non-scaling-stroke"/><path d="M351 110 L334 95 L356 54 z" 
                              vector-effect="non-scaling-stroke"/><path d="M356 54 L421 122 L351 110 z" 
                              vector-effect="non-scaling-stroke"/><path d="M360 142 L351 110 L421 122 z" 
                              vector-effect="non-scaling-stroke"/><path d="M600 425 L593 441 L586 436 z" 
                              vector-effect="non-scaling-stroke"/><path d="M600 425 L586 436 L577 360 z" 
                              vector-effect="non-scaling-stroke"/><path d="M613 391 L600 425 L577 360 z" 
                              vector-effect="non-scaling-stroke"/><path d="M618 358 L613 391 L577 360 z" 
                              vector-effect="non-scaling-stroke"/><path d="M360 142 L421 122 L424 137 z" 
                              vector-effect="non-scaling-stroke"/><path d="M451 718 L444 742 L411 729 z" 
                              vector-effect="non-scaling-stroke"/><path d="M451 718 L411 729 L406 688 z" 
                              vector-effect="non-scaling-stroke"/><path d="M454 693 L451 718 L406 688 z" 
                              vector-effect="non-scaling-stroke"/><path d="M426 256 L351 264 L350 216 z" 
                              vector-effect="non-scaling-stroke"/><path d="M616 324 L618 358 L577 360 z" 
                              vector-effect="non-scaling-stroke"/><path d="M616 324 L577 360 L558 319 z" 
                              vector-effect="non-scaling-stroke"/><path d="M601 287 L616 324 L558 319 z" 
                              vector-effect="non-scaling-stroke"/><path d="M601 287 L558 319 L545 299 z" 
                              vector-effect="non-scaling-stroke"/><path d="M567 242 L601 287 L545 299 z" 
                              vector-effect="non-scaling-stroke"/><path d="M567 242 L545 299 L509 272 z" 
                              vector-effect="non-scaling-stroke"/><path d="M530 217 L567 242 L509 272 z" 
                              vector-effect="non-scaling-stroke"/><path d="M530 217 L509 272 L494 263 z" 
                              vector-effect="non-scaling-stroke"/><path d="M490 206 L530 217 L494 263 z" 
                              vector-effect="non-scaling-stroke"/><path d="M351 264 L426 256 L428 269 z" 
                              vector-effect="non-scaling-stroke"/><path d="M352 315 L351 264 L428 269 z" 
                              vector-effect="non-scaling-stroke"/><path d="M304 790 L292 795 L274 758 z" 
                              vector-effect="non-scaling-stroke"/><path d="M322 764 L304 790 L274 758 z" 
                              vector-effect="non-scaling-stroke"/><path d="M322 764 L274 758 L278 723 z" 
                              vector-effect="non-scaling-stroke"/><path d="M329 733 L322 764 L278 723 z" 
                              vector-effect="non-scaling-stroke"/><path d="M337 688 L329 733 L278 723 z" 
                              vector-effect="non-scaling-stroke"/><path d="M337 688 L278 723 L262 647 z" 
                              vector-effect="non-scaling-stroke"/><path d="M341 647 L337 688 L262 647 z" 
                              vector-effect="non-scaling-stroke"/><path d="M328 610 L341 647 L262 647 z" 
                              vector-effect="non-scaling-stroke"/><path d="M328 610 L262 647 L254 587 z" 
                              vector-effect="non-scaling-stroke"/><path d="M327 577 L328 610 L254 587 z" 
                              vector-effect="non-scaling-stroke"/><path d="M327 577 L254 587 L253 520 z" 
                              vector-effect="non-scaling-stroke"/><path d="M332 539 L327 577 L253 520 z" 
                              vector-effect="non-scaling-stroke"/><path d="M332 539 L253 520 L261 475 z" 
                              vector-effect="non-scaling-stroke"/><path d="M348 509 L332 539 L261 475 z" 
                              vector-effect="non-scaling-stroke"/><path d="M357 480 L348 509 L261 475 z" 
                              vector-effect="non-scaling-stroke"/><path d="M261 475 L280 436 L357 480 z" 
                              vector-effect="non-scaling-stroke"/><path d="M307 415 L357 480 L280 436 z" 
                              vector-effect="non-scaling-stroke"/><path d="M280 436 L291 421 L307 415 z" 
                              vector-effect="non-scaling-stroke"/><path d="M357 480 L307 415 L325 398 z" 
                              vector-effect="non-scaling-stroke"/><path d="M469 648 L454 693 L406 688 z" 
                              vector-effect="non-scaling-stroke"/><path d="M469 648 L406 688 L396 649 z" 
                              vector-effect="non-scaling-stroke"/><path d="M382 613 L482 596 L469 648 z" 
                              vector-effect="non-scaling-stroke"/><path d="M469 648 L396 649 L382 613 z" 
                              vector-effect="non-scaling-stroke"/><path d="M482 596 L382 613 L369 561 z" 
                              vector-effect="non-scaling-stroke"/><path d="M480 545 L482 596 L369 561 z" 
                              vector-effect="non-scaling-stroke"/><path d="M480 545 L369 561 L360 519 z" 
                              vector-effect="non-scaling-stroke"/><path d="M466 482 L479 501 L480 545 z" 
                              vector-effect="non-scaling-stroke"/><path d="M480 545 L360 519 L466 482 z" 
                              vector-effect="non-scaling-stroke"/><path d="M437 453 L466 482 L360 519 z" 
                              vector-effect="non-scaling-stroke"/><path d="M437 453 L360 519 L357 480 z" 
                              vector-effect="non-scaling-stroke"/><path d="M431 436 L437 453 L357 480 z" 
                              vector-effect="non-scaling-stroke"/><path d="M431 436 L357 480 L325 398 z" 
                              vector-effect="non-scaling-stroke"/><path d="M431 436 L325 398 L348 354 z" 
                              vector-effect="non-scaling-stroke"/><path d="M443 398 L431 436 L348 354 z" 
                              vector-effect="non-scaling-stroke"/><path d="M464 354 L443 398 L348 354 z" 
                              vector-effect="non-scaling-stroke"/><path d="M464 354 L348 354 L352 315 z" 
                              vector-effect="non-scaling-stroke"/><path d="M464 354 L352 315 L428 269 z" 
                              vector-effect="non-scaling-stroke"/><path d="M441 269 L483 318 L464 354 z" 
                              vector-effect="non-scaling-stroke"/><path d="M464 354 L428 269 L441 269 z" 
                              vector-effect="non-scaling-stroke"/><path d="M490 289 L483 318 L441 269 z" 
                              vector-effect="non-scaling-stroke"/><path d="M446 258 L494 263 L490 289 z" 
                              vector-effect="non-scaling-stroke"/><path d="M490 289 L441 269 L446 258 z" 
                              vector-effect="non-scaling-stroke"/><path d="M444 252 L490 206 L494 263 z" 
                              vector-effect="non-scaling-stroke"/><path d="M494 263 L446 258 L444 252 z" 
                              vector-effect="non-scaling-stroke"/><path d="M461 191 L490 206 L444 252 z" 
                              vector-effect="non-scaling-stroke"/><path d="M461 191 L444 252 L435 247 z" 
                              vector-effect="non-scaling-stroke"/><path d="M435 247 L426 256 L350 216 z" 
                              vector-effect="non-scaling-stroke"/><path d="M461 191 L435 247 L350 216 z" 
                              vector-effect="non-scaling-stroke"/><path d="M461 191 L350 216 L348 182 z" 
                              vector-effect="non-scaling-stroke"/><path d="M424 137 L461 191 L348 182 z" 
                              vector-effect="non-scaling-stroke"/><path d="M348 182 L360 142 L424 137 z" 
                              vector-effect="non-scaling-stroke"/><path d="M441 114 L508 173 L461 191 z" 
                              vector-effect="non-scaling-stroke"/><path d="M461 191 L424 137 L441 114 z" 
                              vector-effect="non-scaling-stroke"/><path d="M508 173 L441 114 L457 103 z" 
                              vector-effect="non-scaling-stroke"/><path d="M507 112 L508 173 L457 103 z" 
                              vector-effect="non-scaling-stroke"/><path d="M457 103 L485 98 L507 112 z" 
                              vector-effect="non-scaling-stroke"/><path d="M508 173 L507 112 L524 137 z" 
                              vector-effect="non-scaling-stroke"/><path d="M508 173 L524 137 L523 159 z" 
                              vector-effect="non-scaling-stroke"/></g></svg>