
            <svg version="1.1" xmlns="http://www.w3.org/2000/svg" 
                width="600" height="595.1219512195122" viewBox="20 33 742 736"><path d="M266 77 L325 44 L394 67 L429 113 L401 164 L453 191 L502 158 L503 81 L481 71 L520 35 L588 36 L622 83 L617 136 L654 175 L604 212 L658 236 L652 276 L564 291 L510 308 L495 340 L585 308 L649 332 L676 385 L624 427 L572 469 L620 479 L696 464 L747 486 L760 544 L729 585 L678 562 L621 541 L566 541 L607 557 L660 593 L660 655 L612 692 L602 751 L527 759 L446 757 L412 723 L403 666 L378 690 L372 740 L308 757 L245 767 L190 725 L187 675 L159 633 L211 618 L255 581 L269 642 L280 703 L322 634 L345 560 L401 591 L432 572 L489 584 L495 636 L505 694 L548 626 L495 636 L489 584 L470 543 L402 540 L345 560 L322 634 L269 642 L255 581 L180 595 L97 626 L52 600 L22 557 L46 518 L68 548 L266 508 L227 470 L276 407 L292 446 L323 486 L352 504 L418 497 L486 479 L425 414 L493 387 L522 415 L541 374 L493 387 L425 414 L369 468 L323 486 L292 446 L319 385 L276 407 L227 470 L195 430 L188 380 L217 345 L250 374 L302 340 L362 325 L420 350 L456 315 L421 290 L342 307 L377 243 L445 267 L495 238 L438 205 L377 243 L342 307 L254 341 L250 374 L217 345 L175 309 L275 282 L229 259 L185 205 L237 212 L297 157 L290 98z" fill="gainsboro" stroke="black" stroke-width="3" 
                      vector-effect="non-scaling-stroke"/><g fill="none" stroke="black" stroke-width="1"><path d="M229 259 L185 205 L237 212 z" 
                              vector-effect="non-scaling-stroke"/><path d="M421 290 L342 307 L377 243 z" 
                              vector-effect="non-scaling-stroke"/><path d="M421 290 L377 243 L445 267 z" 
                              vector-effect="non-scaling-stroke"/><path d="M254 341 L250 374 L217 345 z" 
                              vector-effect="non-scaling-stroke"/><path d="M217 345 L175 309 L275 282 z" 
                              vector-effect="non-scaling-stroke"/><path d="M254 341 L217 345 L275 282 z" 
                              vector-effect="non-scaling-stroke"/><path d="M342 307 L254 341 L275 282 z" 
                              vector-effect="non-scaling-stroke"/><path d="M227 470 L276 407 L292 446 z" 
                              vector-effect="non-scaling-stroke"/><path d="M211 618 L255 581 L269 642 z" 
                              vector-effect="non-scaling-stroke"/><path d="M266 508 L227 470 L292 446 z" 
                              vector-effect="non-scaling-stroke"/><path d="M266 508 L292 446 L323 486 z" 
                              vector-effect="non-scaling-stroke"/><path d="M503 81 L481 71 L520 35 z" 
                              vector-effect="non-scaling-stroke"/><path d="M22 557 L46 518 L68 548 z" 
                              vector-effect="non-scaling-stroke"/><path d="M52 600 L22 557 L68 548 z" 
                              vector-effect="non-scaling-stroke"/><path d="M486 479 L425 414 L493 387 z" 
                              vector-effect="non-scaling-stroke"/><path d="M486 479 L493 387 L522 415 z" 
                              vector-effect="non-scaling-stroke"/><path d="M290 98 L266 77 L325 44 z" 
                              vector-effect="non-scaling-stroke"/><path d="M187 675 L159 633 L211 618 z" 
                              vector-effect="non-scaling-stroke"/><path d="M276 407 L227 470 L195 430 z" 
                              vector-effect="non-scaling-stroke"/><path d="M322 634 L345 560 L401 591 z" 
                              vector-effect="non-scaling-stroke"/><path d="M456 315 L421 290 L445 267 z" 
                              vector-effect="non-scaling-stroke"/><path d="M250 374 L276 407 L195 430 z" 
                              vector-effect="non-scaling-stroke"/><path d="M195 430 L188 380 L250 374 z" 
                              vector-effect="non-scaling-stroke"/><path d="M188 380 L217 345 L250 374 z" 
                              vector-effect="non-scaling-stroke"/><path d="M617 136 L654 175 L604 212 z" 
                              vector-effect="non-scaling-stroke"/><path d="M319 385 L276 407 L250 374 z" 
                              vector-effect="non-scaling-stroke"/><path d="M250 374 L302 340 L319 385 z" 
                              vector-effect="non-scaling-stroke"/><path d="M319 385 L302 340 L362 325 z" 
                              vector-effect="non-scaling-stroke"/><path d="M548 626 L495 636 L489 584 z" 
                              vector-effect="non-scaling-stroke"/><path d="M187 675 L211 618 L269 642 z" 
                              vector-effect="non-scaling-stroke"/><path d="M187 675 L269 642 L280 703 z" 
                              vector-effect="non-scaling-stroke"/><path d="M190 725 L187 675 L280 703 z" 
                              vector-effect="non-scaling-stroke"/><path d="M245 767 L190 725 L280 703 z" 
                              vector-effect="non-scaling-stroke"/><path d="M308 757 L245 767 L280 703 z" 
                              vector-effect="non-scaling-stroke"/><path d="M322 634 L269 642 L255 581 z" 
                              vector-effect="non-scaling-stroke"/><path d="M345 560 L322 634 L255 581 z" 
                              vector-effect="non-scaling-stroke"/><path d="M377 243 L342 307 L275 282 z" 
                              vector-effect="non-scaling-stroke"/><path d="M649 332 L676 385 L624 427 z" 
                              vector-effect="non-scaling-stroke"/><path d="M541 374 L585 308 L649 332 z" 
                              vector-effect="non-scaling-stroke"/><path d="M541 374 L495 340 L585 308 z" 
                              vector-effect="non-scaling-stroke"/><path d="M319 385 L362 325 L420 350 z" 
                              vector-effect="non-scaling-stroke"/><path d="M372 740 L308 757 L280 703 z" 
                              vector-effect="non-scaling-stroke"/><path d="M378 690 L372 740 L280 703 z" 
                              vector-effect="non-scaling-stroke"/><path d="M378 690 L280 703 L322 634 z" 
                              vector-effect="non-scaling-stroke"/><path d="M403 666 L378 690 L322 634 z" 
                              vector-effect="non-scaling-stroke"/><path d="M322 634 L401 591 L403 666 z" 
                              vector-effect="non-scaling-stroke"/><path d="M760 544 L729 585 L678 562 z" 
                              vector-effect="non-scaling-stroke"/><path d="M747 486 L760 544 L678 562 z" 
                              vector-effect="non-scaling-stroke"/><path d="M696 464 L747 486 L678 562 z" 
                              vector-effect="non-scaling-stroke"/><path d="M620 479 L696 464 L678 562 z" 
                              vector-effect="non-scaling-stroke"/><path d="M620 479 L678 562 L621 541 z" 
                              vector-effect="non-scaling-stroke"/><path d="M620 479 L621 541 L566 541 z" 
                              vector-effect="non-scaling-stroke"/><path d="M572 469 L620 479 L566 541 z" 
                              vector-effect="non-scaling-stroke"/><path d="M97 626 L52 600 L68 548 z" 
                              vector-effect="non-scaling-stroke"/><path d="M180 595 L97 626 L68 548 z" 
                              vector-effect="non-scaling-stroke"/><path d="M68 548 L266 508 L180 595 z" 
                              vector-effect="non-scaling-stroke"/><path d="M255 581 L180 595 L266 508 z" 
                              vector-effect="non-scaling-stroke"/><path d="M345 560 L255 581 L266 508 z" 
                              vector-effect="non-scaling-stroke"/><path d="M345 560 L266 508 L323 486 z" 
                              vector-effect="non-scaling-stroke"/><path d="M345 560 L323 486 L352 504 z" 
                              vector-effect="non-scaling-stroke"/><path d="M402 540 L345 560 L352 504 z" 
                              vector-effect="non-scaling-stroke"/><path d="M402 540 L352 504 L418 497 z" 
                              vector-effect="non-scaling-stroke"/><path d="M470 543 L402 540 L418 497 z" 
                              vector-effect="non-scaling-stroke"/><path d="M470 543 L418 497 L486 479 z" 
                              vector-effect="non-scaling-stroke"/><path d="M290 98 L325 44 L394 67 z" 
                              vector-effect="non-scaling-stroke"/><path d="M401 164 L297 157 L290 98 z" 
                              vector-effect="non-scaling-stroke"/><path d="M290 98 L394 67 L401 164 z" 
                              vector-effect="non-scaling-stroke"/><path d="M394 67 L429 113 L401 164 z" 
                              vector-effect="non-scaling-stroke"/><path d="M604 212 L658 236 L652 276 z" 
                              vector-effect="non-scaling-stroke"/><path d="M604 212 L652 276 L564 291 z" 
                              vector-effect="non-scaling-stroke"/><path d="M612 692 L602 751 L527 759 z" 
                              vector-effect="non-scaling-stroke"/><path d="M369 468 L323 486 L292 446 z" 
                              vector-effect="non-scaling-stroke"/><path d="M369 468 L292 446 L319 385 z" 
                              vector-effect="non-scaling-stroke"/><path d="M425 414 L369 468 L319 385 z" 
                              vector-effect="non-scaling-stroke"/><path d="M425 414 L319 385 L420 350 z" 
                              vector-effect="non-scaling-stroke"/><path d="M493 387 L425 414 L420 350 z" 
                              vector-effect="non-scaling-stroke"/><path d="M495 340 L493 387 L420 350 z" 
                              vector-effect="non-scaling-stroke"/><path d="M495 340 L541 374 L493 387 z" 
                              vector-effect="non-scaling-stroke"/><path d="M275 282 L229 259 L237 212 z" 
                              vector-effect="non-scaling-stroke"/><path d="M297 157 L377 243 L275 282 z" 
                              vector-effect="non-scaling-stroke"/><path d="M275 282 L237 212 L297 157 z" 
                              vector-effect="non-scaling-stroke"/><path d="M377 243 L297 157 L401 164 z" 
                              vector-effect="non-scaling-stroke"/><path d="M438 205 L377 243 L401 164 z" 
                              vector-effect="non-scaling-stroke"/><path d="M438 205 L401 164 L453 191 z" 
                              vector-effect="non-scaling-stroke"/><path d="M495 238 L438 205 L453 191 z" 
                              vector-effect="non-scaling-stroke"/><path d="M495 238 L453 191 L502 158 z" 
                              vector-effect="non-scaling-stroke"/><path d="M510 308 L456 315 L445 267 z" 
                              vector-effect="non-scaling-stroke"/><path d="M432 572 L489 584 L495 636 z" 
                              vector-effect="non-scaling-stroke"/><path d="M401 591 L432 572 L495 636 z" 
                              vector-effect="non-scaling-stroke"/><path d="M403 666 L401 591 L495 636 z" 
                              vector-effect="non-scaling-stroke"/><path d="M403 666 L495 636 L505 694 z" 
                              vector-effect="non-scaling-stroke"/><path d="M412 723 L403 666 L505 694 z" 
                              vector-effect="non-scaling-stroke"/><path d="M446 757 L412 723 L505 694 z" 
                              vector-effect="non-scaling-stroke"/><path d="M527 759 L446 757 L505 694 z" 
                              vector-effect="non-scaling-stroke"/><path d="M612 692 L527 759 L505 694 z" 
                              vector-effect="non-scaling-stroke"/><path d="M612 692 L505 694 L548 626 z" 
                              vector-effect="non-scaling-stroke"/><path d="M660 655 L612 692 L548 626 z" 
                              vector-effect="non-scaling-stroke"/><path d="M660 593 L660 655 L548 626 z" 
                              vector-effect="non-scaling-stroke"/><path d="M607 557 L660 593 L548 626 z" 
                              vector-effect="non-scaling-stroke"/><path d="M566 541 L607 557 L548 626 z" 
                              vector-effect="non-scaling-stroke"/><path d="M566 541 L548 626 L489 584 z" 
                              vector-effect="non-scaling-stroke"/><path d="M566 541 L489 584 L470 543 z" 
                              vector-effect="non-scaling-stroke"/><path d="M566 541 L470 543 L486 479 z" 
                              vector-effect="non-scaling-stroke"/><path d="M572 469 L566 541 L486 479 z" 
                              vector-effect="non-scaling-stroke"/><path d="M572 469 L486 479 L522 415 z" 
                              vector-effect="non-scaling-stroke"/><path d="M624 427 L572 469 L522 415 z" 
                              vector-effect="non-scaling-stroke"/><path d="M624 427 L522 415 L541 374 z" 
                              vector-effect="non-scaling-stroke"/><path d="M649 332 L624 427 L541 374 z" 
                              vector-effect="non-scaling-stroke"/><path d="M420 350 L456 315 L495 340 z" 
                              vector-effect="non-scaling-stroke"/><path d="M510 308 L495 340 L456 315 z" 
                              vector-effect="non-scaling-stroke"/><path d="M445 267 L495 238 L510 308 z" 
                              vector-effect="non-scaling-stroke"/><path d="M564 291 L510 308 L495 238 z" 
                              vector-effect="non-scaling-stroke"/><path d="M604 212 L564 291 L495 238 z" 
                              vector-effect="non-scaling-stroke"/><path d="M604 212 L495 238 L502 158 z" 
                              vector-effect="non-scaling-stroke"/><path d="M617 136 L604 212 L502 158 z" 
                              vector-effect="non-scaling-stroke"/><path d="M617 136 L502 158 L503 81 z" 
                              vector-effect="non-scaling-stroke"/><path d="M622 83 L617 136 L503 81 z" 
                              vector-effect="non-scaling-stroke"/><path d="M588 36 L622 83 L503 81 z" 
                              vector-effect="non-scaling-stroke"/><path d="M520 35 L588 36 L503 81 z" 
                              vector-effect="non-scaling-stroke"/></g></svg>