
            <svg version="1.1" xmlns="http://www.w3.org/2000/svg" 
                width="600" height="447.27272727272725" viewBox="44 104 719 537"><path d="M532 134 L761 362 L711 509 L533 411 L561 313 L609 380 L654 312 L561 313 L533 411 L459 514 L582 542 L386 639 L162 599 L57 508 L46 429 L94 439 L190 384 L198 486 L347 536 L332 462 L450 388 L299 362 L198 486 L190 384 L71 259 L197 106 L353 230z" fill="gainsboro" stroke="black" stroke-width="3" 
                      vector-effect="non-scaling-stroke"/><g fill="none" stroke="black" stroke-width="1"><path d="M459 514 L582 542 L386 639 z" 
                              vector-effect="non-scaling-stroke"/><path d="M299 362 L198 486 L190 384 z" 
                              vector-effect="non-scaling-stroke"/><path d="M533 411 L561 313 L609 380 z" 
                              vector-effect="non-scaling-stroke"/><path d="M711 509 L533 411 L609 380 z" 
                              vector-effect="non-scaling-stroke"/><path d="M761 362 L711 509 L609 380 z" 
                              vector-effect="non-scaling-stroke"/><path d="M761 362 L609 380 L654 312 z" 
                              vector-effect="non-scaling-stroke"/><path d="M532 134 L761 362 L654 312 z" 
                              vector-effect="non-scaling-stroke"/><path d="M532 134 L654 312 L561 313 z" 
                              vector-effect="non-scaling-stroke"/><path d="M94 439 L190 384 L198 486 z" 
                              vector-effect="non-scaling-stroke"/><path d="M57 508 L46 429 L94 439 z" 
                              vector-effect="non-scaling-stroke"/><path d="M353 230 L532 134 L561 313 z" 
                              vector-effect="non-scaling-stroke"/><path d="M190 384 L71 259 L197 106 z" 
                              vector-effect="non-scaling-stroke"/><path d="M197 106 L353 230 L190 384 z" 
                              vector-effect="non-scaling-stroke"/><path d="M299 362 L190 384 L353 230 z" 
                              vector-effect="non-scaling-stroke"/><path d="M450 388 L299 362 L353 230 z" 
                              vector-effect="non-scaling-stroke"/><path d="M450 388 L353 230 L561 313 z" 
                              vector-effect="non-scaling-stroke"/><path d="M450 388 L561 313 L533 411 z" 
                              vector-effect="non-scaling-stroke"/><path d="M450 388 L533 411 L459 514 z" 
                              vector-effect="non-scaling-stroke"/><path d="M332 462 L450 388 L459 514 z" 
                              vector-effect="non-scaling-stroke"/><path d="M347 536 L332 462 L459 514 z" 
                              vector-effect="non-scaling-stroke"/><path d="M347 536 L459 514 L386 639 z" 
                              vector-effect="non-scaling-stroke"/><path d="M347 536 L386 639 L162 599 z" 
                              vector-effect="non-scaling-stroke"/><path d="M198 486 L347 536 L162 599 z" 
                              vector-effect="non-scaling-stroke"/><path d="M198 486 L162 599 L57 508 z" 
                              vector-effect="non-scaling-stroke"/><path d="M94 439 L198 486 L57 508 z" 
                              vector-effect="non-scaling-stroke"/></g></svg>