
            <svg version="1.1" xmlns="http://www.w3.org/2000/svg" 
                width="600" height="504.25531914893617" viewBox="21 64 756 636"><path d="M56 87 L101 94 L128 78 L186 77 L219 79 L269 66 L309 93 L342 90 L397 75 L405 103 L431 103 L462 90 L494 148 L511 165 L549 149 L546 110 L597 94 L681 89 L716 113 L758 84 L775 152 L715 205 L676 141 L635 142 L614 184 L589 199 L623 228 L635 179 L667 182 L749 252 L666 251 L662 297 L756 281 L755 350 L722 373 L730 427 L747 531 L761 684 L724 626 L663 649 L756 696 L620 698 L488 685 L549 654 L460 665 L451 609 L418 653 L381 661 L342 646 L350 607 L367 578 L386 589 L490 571 L531 622 L586 600 L638 621 L683 607 L684 553 L713 525 L723 459 L703 429 L709 390 L687 359 L679 439 L696 481 L680 542 L651 578 L606 587 L572 575 L599 552 L640 552 L650 529 L633 517 L643 497 L652 517 L663 518 L682 481 L671 451 L652 463 L667 471 L665 490 L658 481 L643 497 L633 517 L604 512 L618 492 L592 484 L564 485 L564 498 L584 518 L534 533 L530 505 L559 466 L567 430 L514 392 L538 426 L531 477 L500 501 L498 539 L442 538 L405 502 L415 558 L367 578 L350 607 L331 572 L295 603 L275 669 L199 576 L207 510 L266 511 L311 505 L357 535 L345 513 L364 487 L330 499 L334 457 L300 480 L265 483 L180 502 L162 524 L182 560 L156 607 L196 622 L229 643 L232 678 L180 688 L180 673 L194 661 L174 655 L139 662 L113 654 L95 645 L89 623 L89 591 L77 562 L59 544 L40 525 L27 492 L38 463 L60 484 L62 512 L95 534 L93 580 L110 615 L129 615 L123 584 L143 569 L128 555 L145 538 L140 516 L167 500 L153 490 L130 510 L123 547 L112 538 L108 521 L95 520 L103 513 L120 520 L116 507 L126 505 L134 494 L129 492 L121 500 L106 500 L103 513 L95 520 L80 510 L93 501 L88 487 L110 490 L134 481 L138 468 L128 459 L112 466 L115 478 L87 469 L60 484 L38 463 L58 446 L186 458 L230 443 L243 453 L273 458 L284 438 L311 437 L352 447 L377 481 L405 484 L404 449 L372 440 L370 420 L351 431 L313 420 L285 422 L307 406 L323 405 L338 417 L348 403 L341 391 L333 399 L316 394 L307 406 L285 422 L290 380 L295 357 L310 376 L340 376 L353 395 L368 362 L340 347 L333 368 L310 335 L273 331 L264 352 L276 382 L253 413 L243 453 L230 443 L239 414 L238 364 L251 328 L284 303 L328 326 L412 322 L382 412 L415 358 L416 382 L434 409 L439 477 L470 488 L512 468 L516 435 L484 424 L445 404 L431 359 L440 336 L487 380 L498 356 L497 320 L532 296 L546 336 L554 386 L581 348 L617 363 L597 413 L592 471 L631 473 L650 410 L641 349 L557 323 L546 281 L546 260 L576 263 L626 293 L597 250 L558 224 L548 251 L508 274 L493 241 L477 297 L451 323 L429 315 L453 259 L421 297 L367 300 L306 277 L197 357 L188 307 L204 264 L202 206 L216 215 L217 248 L232 284 L249 264 L279 253 L348 275 L348 246 L311 253 L261 241 L243 249 L254 228 L284 229 L316 242 L279 217 L256 202 L241 226 L216 215 L202 206 L214 155 L235 189 L235 157 L320 226 L353 232 L353 217 L429 170 L409 156 L378 185 L363 170 L328 197 L293 168 L313 155 L347 140 L388 133 L425 135 L457 164 L469 208 L404 221 L392 267 L419 241 L469 231 L462 290 L480 235 L500 219 L513 247 L525 201 L555 198 L574 176 L601 148 L572 134 L555 180 L509 189 L482 184 L478 149 L454 131 L426 116 L393 122 L363 111 L316 119 L313 155 L293 168 L266 140 L217 124 L190 136 L185 176 L190 235 L178 315 L168 396 L155 412 L113 410 L90 378 L89 345 L64 345 L47 323 L47 287 L73 270 L92 297 L91 331 L123 347 L131 374 L145 349 L160 219 L131 160 L154 132 L123 117 L108 138 L120 174 L137 206 L116 227 L130 237 L133 276 L110 280 L84 258 L73 270 L47 287 L23 252 L32 211 L82 211 L109 241 L106 178 L82 152 L40 128z" fill="gainsboro" stroke="black" stroke-width="3" 
                      vector-effect="non-scaling-stroke"/><g fill="none" stroke="black" stroke-width="1"><path d="M747 531 L761 684 L724 626 z" 
                              vector-effect="non-scaling-stroke"/><path d="M663 649 L756 696 L620 698 z" 
                              vector-effect="non-scaling-stroke"/><path d="M313 420 L285 422 L307 406 z" 
                              vector-effect="non-scaling-stroke"/><path d="M620 698 L488 685 L549 654 z" 
                              vector-effect="non-scaling-stroke"/><path d="M382 412 L415 358 L416 382 z" 
                              vector-effect="non-scaling-stroke"/><path d="M261 241 L243 249 L254 228 z" 
                              vector-effect="non-scaling-stroke"/><path d="M667 182 L749 252 L666 251 z" 
                              vector-effect="non-scaling-stroke"/><path d="M667 471 L665 490 L658 481 z" 
                              vector-effect="non-scaling-stroke"/><path d="M202 206 L214 155 L235 189 z" 
                              vector-effect="non-scaling-stroke"/><path d="M108 521 L95 520 L103 513 z" 
                              vector-effect="non-scaling-stroke"/><path d="M108 521 L103 513 L120 520 z" 
                              vector-effect="non-scaling-stroke"/><path d="M307 406 L285 422 L290 380 z" 
                              vector-effect="non-scaling-stroke"/><path d="M290 380 L295 357 L310 376 z" 
                              vector-effect="non-scaling-stroke"/><path d="M633 517 L643 497 L652 517 z" 
                              vector-effect="non-scaling-stroke"/><path d="M650 529 L633 517 L652 517 z" 
                              vector-effect="non-scaling-stroke"/><path d="M256 202 L235 189 L235 157 z" 
                              vector-effect="non-scaling-stroke"/><path d="M340 347 L333 368 L310 335 z" 
                              vector-effect="non-scaling-stroke"/><path d="M217 248 L204 264 L202 206 z" 
                              vector-effect="non-scaling-stroke"/><path d="M202 206 L216 215 L217 248 z" 
                              vector-effect="non-scaling-stroke"/><path d="M295 603 L275 669 L199 576 z" 
                              vector-effect="non-scaling-stroke"/><path d="M112 466 L115 478 L87 469 z" 
                              vector-effect="non-scaling-stroke"/><path d="M367 578 L350 607 L331 572 z" 
                              vector-effect="non-scaling-stroke"/><path d="M261 241 L254 228 L284 229 z" 
                              vector-effect="non-scaling-stroke"/><path d="M311 253 L261 241 L284 229 z" 
                              vector-effect="non-scaling-stroke"/><path d="M311 253 L284 229 L316 242 z" 
                              vector-effect="non-scaling-stroke"/><path d="M348 246 L311 253 L316 242 z" 
                              vector-effect="non-scaling-stroke"/><path d="M606 587 L572 575 L599 552 z" 
                              vector-effect="non-scaling-stroke"/><path d="M216 215 L202 206 L235 189 z" 
                              vector-effect="non-scaling-stroke"/><path d="M120 520 L130 510 L123 547 z" 
                              vector-effect="non-scaling-stroke"/><path d="M564 498 L584 518 L534 533 z" 
                              vector-effect="non-scaling-stroke"/><path d="M564 498 L534 533 L530 505 z" 
                              vector-effect="non-scaling-stroke"/><path d="M564 485 L564 498 L530 505 z" 
                              vector-effect="non-scaling-stroke"/><path d="M530 505 L559 466 L564 485 z" 
                              vector-effect="non-scaling-stroke"/><path d="M204 264 L217 248 L232 284 z" 
                              vector-effect="non-scaling-stroke"/><path d="M93 501 L88 487 L110 490 z" 
                              vector-effect="non-scaling-stroke"/><path d="M232 284 L306 277 L197 357 z" 
                              vector-effect="non-scaling-stroke"/><path d="M633 517 L604 512 L618 492 z" 
                              vector-effect="non-scaling-stroke"/><path d="M643 497 L633 517 L618 492 z" 
                              vector-effect="non-scaling-stroke"/><path d="M364 487 L330 499 L334 457 z" 
                              vector-effect="non-scaling-stroke"/><path d="M253 413 L243 453 L230 443 z" 
                              vector-effect="non-scaling-stroke"/><path d="M253 413 L230 443 L239 414 z" 
                              vector-effect="non-scaling-stroke"/><path d="M27 492 L38 463 L60 484 z" 
                              vector-effect="non-scaling-stroke"/><path d="M316 394 L307 406 L290 380 z" 
                              vector-effect="non-scaling-stroke"/><path d="M290 380 L310 376 L316 394 z" 
                              vector-effect="non-scaling-stroke"/><path d="M431 359 L440 336 L487 380 z" 
                              vector-effect="non-scaling-stroke"/><path d="M445 404 L431 359 L487 380 z" 
                              vector-effect="non-scaling-stroke"/><path d="M484 424 L445 404 L487 380 z" 
                              vector-effect="non-scaling-stroke"/><path d="M95 520 L80 510 L93 501 z" 
                              vector-effect="non-scaling-stroke"/><path d="M103 513 L95 520 L93 501 z" 
                              vector-effect="non-scaling-stroke"/><path d="M106 500 L103 513 L93 501 z" 
                              vector-effect="non-scaling-stroke"/><path d="M106 500 L93 501 L110 490 z" 
                              vector-effect="non-scaling-stroke"/><path d="M121 500 L106 500 L110 490 z" 
                              vector-effect="non-scaling-stroke"/><path d="M129 492 L121 500 L110 490 z" 
                              vector-effect="non-scaling-stroke"/><path d="M110 490 L134 481 L129 492 z" 
                              vector-effect="non-scaling-stroke"/><path d="M716 113 L758 84 L775 152 z" 
                              vector-effect="non-scaling-stroke"/><path d="M313 420 L307 406 L323 405 z" 
                              vector-effect="non-scaling-stroke"/><path d="M316 394 L310 376 L340 376 z" 
                              vector-effect="non-scaling-stroke"/><path d="M341 391 L333 399 L316 394 z" 
                              vector-effect="non-scaling-stroke"/><path d="M316 394 L340 376 L341 391 z" 
                              vector-effect="non-scaling-stroke"/><path d="M341 391 L340 376 L353 395 z" 
                              vector-effect="non-scaling-stroke"/><path d="M348 403 L341 391 L353 395 z" 
                              vector-effect="non-scaling-stroke"/><path d="M338 417 L351 431 L313 420 z" 
                              vector-effect="non-scaling-stroke"/><path d="M313 420 L323 405 L338 417 z" 
                              vector-effect="non-scaling-stroke"/><path d="M328 197 L293 168 L313 155 z" 
                              vector-effect="non-scaling-stroke"/><path d="M363 170 L328 197 L313 155 z" 
                              vector-effect="non-scaling-stroke"/><path d="M363 170 L313 155 L347 140 z" 
                              vector-effect="non-scaling-stroke"/><path d="M363 170 L347 140 L388 133 z" 
                              vector-effect="non-scaling-stroke"/><path d="M497 320 L532 296 L546 336 z" 
                              vector-effect="non-scaling-stroke"/><path d="M498 356 L497 320 L546 336 z" 
                              vector-effect="non-scaling-stroke"/><path d="M188 307 L204 264 L232 284 z" 
                              vector-effect="non-scaling-stroke"/><path d="M197 357 L188 307 L232 284 z" 
                              vector-effect="non-scaling-stroke"/><path d="M306 277 L232 284 L249 264 z" 
                              vector-effect="non-scaling-stroke"/><path d="M306 277 L249 264 L279 253 z" 
                              vector-effect="non-scaling-stroke"/><path d="M306 277 L279 253 L348 275 z" 
                              vector-effect="non-scaling-stroke"/><path d="M367 300 L306 277 L348 275 z" 
                              vector-effect="non-scaling-stroke"/><path d="M716 113 L775 152 L715 205 z" 
                              vector-effect="non-scaling-stroke"/><path d="M716 113 L715 205 L676 141 z" 
                              vector-effect="non-scaling-stroke"/><path d="M681 89 L716 113 L676 141 z" 
                              vector-effect="non-scaling-stroke"/><path d="M652 463 L667 471 L658 481 z" 
                              vector-effect="non-scaling-stroke"/><path d="M493 241 L480 235 L500 219 z" 
                              vector-effect="non-scaling-stroke"/><path d="M514 392 L498 356 L546 336 z" 
                              vector-effect="non-scaling-stroke"/><path d="M241 226 L216 215 L235 189 z" 
                              vector-effect="non-scaling-stroke"/><path d="M256 202 L241 226 L235 189 z" 
                              vector-effect="non-scaling-stroke"/><path d="M279 217 L256 202 L235 157 z" 
                              vector-effect="non-scaling-stroke"/><path d="M235 157 L320 226 L279 217 z" 
                              vector-effect="non-scaling-stroke"/><path d="M316 242 L279 217 L320 226 z" 
                              vector-effect="non-scaling-stroke"/><path d="M606 587 L599 552 L640 552 z" 
                              vector-effect="non-scaling-stroke"/><path d="M651 578 L606 587 L640 552 z" 
                              vector-effect="non-scaling-stroke"/><path d="M680 542 L651 578 L640 552 z" 
                              vector-effect="non-scaling-stroke"/><path d="M680 542 L640 552 L650 529 z" 
                              vector-effect="non-scaling-stroke"/><path d="M194 661 L232 678 L180 688 z" 
                              vector-effect="non-scaling-stroke"/><path d="M180 688 L180 673 L194 661 z" 
                              vector-effect="non-scaling-stroke"/><path d="M229 643 L232 678 L194 661 z" 
                              vector-effect="non-scaling-stroke"/><path d="M196 622 L229 643 L194 661 z" 
                              vector-effect="non-scaling-stroke"/><path d="M196 622 L194 661 L174 655 z" 
                              vector-effect="non-scaling-stroke"/><path d="M156 607 L196 622 L174 655 z" 
                              vector-effect="non-scaling-stroke"/><path d="M687 359 L662 297 L756 281 z" 
                              vector-effect="non-scaling-stroke"/><path d="M756 281 L755 350 L687 359 z" 
                              vector-effect="non-scaling-stroke"/><path d="M27 492 L60 484 L62 512 z" 
                              vector-effect="non-scaling-stroke"/><path d="M40 525 L27 492 L62 512 z" 
                              vector-effect="non-scaling-stroke"/><path d="M59 544 L40 525 L62 512 z" 
                              vector-effect="non-scaling-stroke"/><path d="M59 544 L62 512 L95 534 z" 
                              vector-effect="non-scaling-stroke"/><path d="M77 562 L59 544 L95 534 z" 
                              vector-effect="non-scaling-stroke"/><path d="M77 562 L95 534 L93 580 z" 
                              vector-effect="non-scaling-stroke"/><path d="M89 591 L77 562 L93 580 z" 
                              vector-effect="non-scaling-stroke"/><path d="M89 591 L93 580 L110 615 z" 
                              vector-effect="non-scaling-stroke"/><path d="M89 623 L89 591 L110 615 z" 
                              vector-effect="non-scaling-stroke"/><path d="M156 607 L174 655 L139 662 z" 
                              vector-effect="non-scaling-stroke"/><path d="M635 142 L597 94 L681 89 z" 
                              vector-effect="non-scaling-stroke"/><path d="M681 89 L676 141 L635 142 z" 
                              vector-effect="non-scaling-stroke"/><path d="M112 538 L108 521 L120 520 z" 
                              vector-effect="non-scaling-stroke"/><path d="M123 547 L112 538 L120 520 z" 
                              vector-effect="non-scaling-stroke"/><path d="M130 510 L120 520 L116 507 z" 
                              vector-effect="non-scaling-stroke"/><path d="M130 510 L116 507 L126 505 z" 
                              vector-effect="non-scaling-stroke"/><path d="M382 412 L416 382 L434 409 z" 
                              vector-effect="non-scaling-stroke"/><path d="M348 246 L316 242 L320 226 z" 
                              vector-effect="non-scaling-stroke"/><path d="M348 246 L320 226 L353 232 z" 
                              vector-effect="non-scaling-stroke"/><path d="M60 484 L38 463 L58 446 z" 
                              vector-effect="non-scaling-stroke"/><path d="M87 469 L60 484 L58 446 z" 
                              vector-effect="non-scaling-stroke"/><path d="M546 281 L546 260 L576 263 z" 
                              vector-effect="non-scaling-stroke"/><path d="M429 170 L457 164 L469 208 z" 
                              vector-effect="non-scaling-stroke"/><path d="M514 392 L487 380 L498 356 z" 
                              vector-effect="non-scaling-stroke"/><path d="M462 290 L451 323 L429 315 z" 
                              vector-effect="non-scaling-stroke"/><path d="M253 413 L239 414 L238 364 z" 
                              vector-effect="non-scaling-stroke"/><path d="M276 382 L253 413 L238 364 z" 
                              vector-effect="non-scaling-stroke"/><path d="M264 352 L276 382 L238 364 z" 
                              vector-effect="non-scaling-stroke"/><path d="M264 352 L238 364 L251 328 z" 
                              vector-effect="non-scaling-stroke"/><path d="M273 331 L264 352 L251 328 z" 
                              vector-effect="non-scaling-stroke"/><path d="M273 331 L251 328 L284 303 z" 
                              vector-effect="non-scaling-stroke"/><path d="M310 335 L273 331 L284 303 z" 
                              vector-effect="non-scaling-stroke"/><path d="M310 335 L284 303 L328 326 z" 
                              vector-effect="non-scaling-stroke"/><path d="M340 347 L310 335 L328 326 z" 
                              vector-effect="non-scaling-stroke"/><path d="M340 347 L328 326 L412 322 z" 
                              vector-effect="non-scaling-stroke"/><path d="M368 362 L340 347 L412 322 z" 
                              vector-effect="non-scaling-stroke"/><path d="M368 362 L412 322 L382 412 z" 
                              vector-effect="non-scaling-stroke"/><path d="M353 395 L368 362 L382 412 z" 
                              vector-effect="non-scaling-stroke"/><path d="M134 494 L129 492 L134 481 z" 
                              vector-effect="non-scaling-stroke"/><path d="M134 494 L153 490 L130 510 z" 
                              vector-effect="non-scaling-stroke"/><path d="M130 510 L126 505 L134 494 z" 
                              vector-effect="non-scaling-stroke"/><path d="M153 490 L134 494 L134 481 z" 
                              vector-effect="non-scaling-stroke"/><path d="M143 569 L128 555 L145 538 z" 
                              vector-effect="non-scaling-stroke"/><path d="M129 615 L156 607 L139 662 z" 
                              vector-effect="non-scaling-stroke"/><path d="M350 607 L367 578 L386 589 z" 
                              vector-effect="non-scaling-stroke"/><path d="M363 111 L342 90 L397 75 z" 
                              vector-effect="non-scaling-stroke"/><path d="M581 348 L617 363 L597 413 z" 
                              vector-effect="non-scaling-stroke"/><path d="M554 386 L581 348 L597 413 z" 
                              vector-effect="non-scaling-stroke"/><path d="M404 449 L382 412 L434 409 z" 
                              vector-effect="non-scaling-stroke"/><path d="M73 270 L47 287 L23 252 z" 
                              vector-effect="non-scaling-stroke"/><path d="M370 420 L348 403 L353 395 z" 
                              vector-effect="non-scaling-stroke"/><path d="M409 156 L378 185 L363 170 z" 
                              vector-effect="non-scaling-stroke"/><path d="M409 156 L363 170 L388 133 z" 
                              vector-effect="non-scaling-stroke"/><path d="M409 156 L388 133 L425 135 z" 
                              vector-effect="non-scaling-stroke"/><path d="M429 170 L409 156 L425 135 z" 
                              vector-effect="non-scaling-stroke"/><path d="M425 135 L457 164 L429 170 z" 
                              vector-effect="non-scaling-stroke"/><path d="M469 208 L404 221 L429 170 z" 
                              vector-effect="non-scaling-stroke"/><path d="M353 217 L429 170 L404 221 z" 
                              vector-effect="non-scaling-stroke"/><path d="M353 232 L353 217 L404 221 z" 
                              vector-effect="non-scaling-stroke"/><path d="M404 221 L392 267 L353 232 z" 
                              vector-effect="non-scaling-stroke"/><path d="M348 246 L353 232 L392 267 z" 
                              vector-effect="non-scaling-stroke"/><path d="M348 275 L348 246 L392 267 z" 
                              vector-effect="non-scaling-stroke"/><path d="M367 300 L348 275 L392 267 z" 
                              vector-effect="non-scaling-stroke"/><path d="M421 297 L367 300 L392 267 z" 
                              vector-effect="non-scaling-stroke"/><path d="M419 241 L453 259 L421 297 z" 
                              vector-effect="non-scaling-stroke"/><path d="M421 297 L392 267 L419 241 z" 
                              vector-effect="non-scaling-stroke"/><path d="M453 259 L419 241 L469 231 z" 
                              vector-effect="non-scaling-stroke"/><path d="M453 259 L469 231 L462 290 z" 
                              vector-effect="non-scaling-stroke"/><path d="M429 315 L453 259 L462 290 z" 
                              vector-effect="non-scaling-stroke"/><path d="M477 297 L451 323 L462 290 z" 
                              vector-effect="non-scaling-stroke"/><path d="M493 241 L477 297 L462 290 z" 
                              vector-effect="non-scaling-stroke"/><path d="M493 241 L462 290 L480 235 z" 
                              vector-effect="non-scaling-stroke"/><path d="M500 219 L513 247 L493 241 z" 
                              vector-effect="non-scaling-stroke"/><path d="M508 274 L493 241 L513 247 z" 
                              vector-effect="non-scaling-stroke"/><path d="M548 251 L508 274 L513 247 z" 
                              vector-effect="non-scaling-stroke"/><path d="M558 224 L548 251 L513 247 z" 
                              vector-effect="non-scaling-stroke"/><path d="M513 247 L525 201 L558 224 z" 
                              vector-effect="non-scaling-stroke"/><path d="M558 224 L525 201 L555 198 z" 
                              vector-effect="non-scaling-stroke"/><path d="M47 287 L73 270 L92 297 z" 
                              vector-effect="non-scaling-stroke"/><path d="M47 323 L47 287 L92 297 z" 
                              vector-effect="non-scaling-stroke"/><path d="M47 323 L92 297 L91 331 z" 
                              vector-effect="non-scaling-stroke"/><path d="M64 345 L47 323 L91 331 z" 
                              vector-effect="non-scaling-stroke"/><path d="M89 345 L64 345 L91 331 z" 
                              vector-effect="non-scaling-stroke"/><path d="M89 345 L91 331 L123 347 z" 
                              vector-effect="non-scaling-stroke"/><path d="M90 378 L89 345 L123 347 z" 
                              vector-effect="non-scaling-stroke"/><path d="M90 378 L123 347 L131 374 z" 
                              vector-effect="non-scaling-stroke"/><path d="M113 410 L90 378 L131 374 z" 
                              vector-effect="non-scaling-stroke"/><path d="M155 412 L113 410 L131 374 z" 
                              vector-effect="non-scaling-stroke"/><path d="M168 396 L155 412 L131 374 z" 
                              vector-effect="non-scaling-stroke"/><path d="M145 349 L178 315 L168 396 z" 
                              vector-effect="non-scaling-stroke"/><path d="M168 396 L131 374 L145 349 z" 
                              vector-effect="non-scaling-stroke"/><path d="M178 315 L145 349 L160 219 z" 
                              vector-effect="non-scaling-stroke"/><path d="M190 235 L178 315 L160 219 z" 
                              vector-effect="non-scaling-stroke"/><path d="M185 176 L190 235 L160 219 z" 
                              vector-effect="non-scaling-stroke"/><path d="M185 176 L160 219 L131 160 z" 
                              vector-effect="non-scaling-stroke"/><path d="M185 176 L131 160 L154 132 z" 
                              vector-effect="non-scaling-stroke"/><path d="M190 136 L185 176 L154 132 z" 
                              vector-effect="non-scaling-stroke"/><path d="M470 488 L500 501 L498 539 z" 
                              vector-effect="non-scaling-stroke"/><path d="M531 622 L549 654 L460 665 z" 
                              vector-effect="non-scaling-stroke"/><path d="M650 529 L652 517 L663 518 z" 
                              vector-effect="non-scaling-stroke"/><path d="M680 542 L650 529 L663 518 z" 
                              vector-effect="non-scaling-stroke"/><path d="M696 481 L680 542 L663 518 z" 
                              vector-effect="non-scaling-stroke"/><path d="M696 481 L663 518 L682 481 z" 
                              vector-effect="non-scaling-stroke"/><path d="M671 451 L679 439 L696 481 z" 
                              vector-effect="non-scaling-stroke"/><path d="M696 481 L682 481 L671 451 z" 
                              vector-effect="non-scaling-stroke"/><path d="M623 228 L635 179 L667 182 z" 
                              vector-effect="non-scaling-stroke"/><path d="M667 182 L666 251 L623 228 z" 
                              vector-effect="non-scaling-stroke"/><path d="M109 241 L130 237 L133 276 z" 
                              vector-effect="non-scaling-stroke"/><path d="M133 276 L110 280 L109 241 z" 
                              vector-effect="non-scaling-stroke"/><path d="M95 645 L89 623 L110 615 z" 
                              vector-effect="non-scaling-stroke"/><path d="M113 654 L95 645 L110 615 z" 
                              vector-effect="non-scaling-stroke"/><path d="M113 654 L110 615 L129 615 z" 
                              vector-effect="non-scaling-stroke"/><path d="M139 662 L113 654 L129 615 z" 
                              vector-effect="non-scaling-stroke"/><path d="M156 607 L129 615 L123 584 z" 
                              vector-effect="non-scaling-stroke"/><path d="M156 607 L123 584 L143 569 z" 
                              vector-effect="non-scaling-stroke"/><path d="M182 560 L156 607 L143 569 z" 
                              vector-effect="non-scaling-stroke"/><path d="M182 560 L143 569 L145 538 z" 
                              vector-effect="non-scaling-stroke"/><path d="M162 524 L182 560 L145 538 z" 
                              vector-effect="non-scaling-stroke"/><path d="M162 524 L145 538 L140 516 z" 
                              vector-effect="non-scaling-stroke"/><path d="M162 524 L140 516 L167 500 z" 
                              vector-effect="non-scaling-stroke"/><path d="M180 502 L162 524 L167 500 z" 
                              vector-effect="non-scaling-stroke"/><path d="M199 576 L207 510 L266 511 z" 
                              vector-effect="non-scaling-stroke"/><path d="M295 603 L199 576 L266 511 z" 
                              vector-effect="non-scaling-stroke"/><path d="M331 572 L295 603 L266 511 z" 
                              vector-effect="non-scaling-stroke"/><path d="M331 572 L266 511 L311 505 z" 
                              vector-effect="non-scaling-stroke"/><path d="M331 572 L311 505 L357 535 z" 
                              vector-effect="non-scaling-stroke"/><path d="M367 578 L331 572 L357 535 z" 
                              vector-effect="non-scaling-stroke"/><path d="M415 558 L367 578 L357 535 z" 
                              vector-effect="non-scaling-stroke"/><path d="M405 502 L415 558 L357 535 z" 
                              vector-effect="non-scaling-stroke"/><path d="M364 487 L405 502 L357 535 z" 
                              vector-effect="non-scaling-stroke"/><path d="M357 535 L345 513 L364 487 z" 
                              vector-effect="non-scaling-stroke"/><path d="M454 131 L426 116 L431 103 z" 
                              vector-effect="non-scaling-stroke"/><path d="M84 258 L73 270 L23 252 z" 
                              vector-effect="non-scaling-stroke"/><path d="M23 252 L32 211 L84 258 z" 
                              vector-effect="non-scaling-stroke"/><path d="M32 211 L82 211 L84 258 z" 
                              vector-effect="non-scaling-stroke"/><path d="M84 258 L82 211 L109 241 z" 
                              vector-effect="non-scaling-stroke"/><path d="M110 280 L84 258 L109 241 z" 
                              vector-effect="non-scaling-stroke"/><path d="M116 227 L130 237 L109 241 z" 
                              vector-effect="non-scaling-stroke"/><path d="M116 227 L109 241 L106 178 z" 
                              vector-effect="non-scaling-stroke"/><path d="M137 206 L116 227 L106 178 z" 
                              vector-effect="non-scaling-stroke"/><path d="M120 174 L137 206 L106 178 z" 
                              vector-effect="non-scaling-stroke"/><path d="M108 138 L120 174 L106 178 z" 
                              vector-effect="non-scaling-stroke"/><path d="M108 138 L106 178 L82 152 z" 
                              vector-effect="non-scaling-stroke"/><path d="M153 490 L134 481 L138 468 z" 
                              vector-effect="non-scaling-stroke"/><path d="M82 152 L40 128 L56 87 z" 
                              vector-effect="non-scaling-stroke"/><path d="M82 152 L56 87 L101 94 z" 
                              vector-effect="non-scaling-stroke"/><path d="M108 138 L82 152 L101 94 z" 
                              vector-effect="non-scaling-stroke"/><path d="M123 117 L108 138 L101 94 z" 
                              vector-effect="non-scaling-stroke"/><path d="M123 117 L101 94 L128 78 z" 
                              vector-effect="non-scaling-stroke"/><path d="M154 132 L123 117 L128 78 z" 
                              vector-effect="non-scaling-stroke"/><path d="M128 78 L186 77 L154 132 z" 
                              vector-effect="non-scaling-stroke"/><path d="M190 136 L154 132 L186 77 z" 
                              vector-effect="non-scaling-stroke"/><path d="M217 124 L190 136 L186 77 z" 
                              vector-effect="non-scaling-stroke"/><path d="M217 124 L186 77 L219 79 z" 
                              vector-effect="non-scaling-stroke"/><path d="M381 661 L342 646 L350 607 z" 
                              vector-effect="non-scaling-stroke"/><path d="M381 661 L350 607 L386 589 z" 
                              vector-effect="non-scaling-stroke"/><path d="M418 653 L381 661 L386 589 z" 
                              vector-effect="non-scaling-stroke"/><path d="M451 609 L418 653 L386 589 z" 
                              vector-effect="non-scaling-stroke"/><path d="M451 609 L386 589 L490 571 z" 
                              vector-effect="non-scaling-stroke"/><path d="M460 665 L451 609 L531 622 z" 
                              vector-effect="non-scaling-stroke"/><path d="M451 609 L490 571 L531 622 z" 
                              vector-effect="non-scaling-stroke"/><path d="M549 654 L531 622 L586 600 z" 
                              vector-effect="non-scaling-stroke"/><path d="M638 621 L620 698 L549 654 z" 
                              vector-effect="non-scaling-stroke"/><path d="M549 654 L586 600 L638 621 z" 
                              vector-effect="non-scaling-stroke"/><path d="M663 649 L620 698 L638 621 z" 
                              vector-effect="non-scaling-stroke"/><path d="M663 649 L638 621 L683 607 z" 
                              vector-effect="non-scaling-stroke"/><path d="M724 626 L663 649 L683 607 z" 
                              vector-effect="non-scaling-stroke"/><path d="M684 553 L747 531 L724 626 z" 
                              vector-effect="non-scaling-stroke"/><path d="M724 626 L683 607 L684 553 z" 
                              vector-effect="non-scaling-stroke"/><path d="M747 531 L684 553 L713 525 z" 
                              vector-effect="non-scaling-stroke"/><path d="M723 459 L730 427 L747 531 z" 
                              vector-effect="non-scaling-stroke"/><path d="M747 531 L713 525 L723 459 z" 
                              vector-effect="non-scaling-stroke"/><path d="M730 427 L723 459 L703 429 z" 
                              vector-effect="non-scaling-stroke"/><path d="M730 427 L703 429 L709 390 z" 
                              vector-effect="non-scaling-stroke"/><path d="M722 373 L730 427 L709 390 z" 
                              vector-effect="non-scaling-stroke"/><path d="M722 373 L709 390 L687 359 z" 
                              vector-effect="non-scaling-stroke"/><path d="M755 350 L722 373 L687 359 z" 
                              vector-effect="non-scaling-stroke"/><path d="M313 155 L293 168 L266 140 z" 
                              vector-effect="non-scaling-stroke"/><path d="M316 119 L313 155 L266 140 z" 
                              vector-effect="non-scaling-stroke"/><path d="M351 431 L338 417 L348 403 z" 
                              vector-effect="non-scaling-stroke"/><path d="M370 420 L351 431 L348 403 z" 
                              vector-effect="non-scaling-stroke"/><path d="M353 395 L382 412 L370 420 z" 
                              vector-effect="non-scaling-stroke"/><path d="M372 440 L370 420 L382 412 z" 
                              vector-effect="non-scaling-stroke"/><path d="M592 471 L592 484 L564 485 z" 
                              vector-effect="non-scaling-stroke"/><path d="M572 134 L549 149 L546 110 z" 
                              vector-effect="non-scaling-stroke"/><path d="M498 539 L442 538 L470 488 z" 
                              vector-effect="non-scaling-stroke"/><path d="M514 392 L516 435 L484 424 z" 
                              vector-effect="non-scaling-stroke"/><path d="M266 140 L217 124 L219 79 z" 
                              vector-effect="non-scaling-stroke"/><path d="M266 140 L219 79 L269 66 z" 
                              vector-effect="non-scaling-stroke"/><path d="M266 140 L269 66 L309 93 z" 
                              vector-effect="non-scaling-stroke"/><path d="M316 119 L266 140 L309 93 z" 
                              vector-effect="non-scaling-stroke"/><path d="M316 119 L309 93 L342 90 z" 
                              vector-effect="non-scaling-stroke"/><path d="M363 111 L316 119 L342 90 z" 
                              vector-effect="non-scaling-stroke"/><path d="M397 75 L405 103 L363 111 z" 
                              vector-effect="non-scaling-stroke"/><path d="M393 122 L363 111 L405 103 z" 
                              vector-effect="non-scaling-stroke"/><path d="M426 116 L393 122 L405 103 z" 
                              vector-effect="non-scaling-stroke"/><path d="M426 116 L405 103 L431 103 z" 
                              vector-effect="non-scaling-stroke"/><path d="M431 103 L462 90 L454 131 z" 
                              vector-effect="non-scaling-stroke"/><path d="M462 90 L494 148 L454 131 z" 
                              vector-effect="non-scaling-stroke"/><path d="M478 149 L454 131 L494 148 z" 
                              vector-effect="non-scaling-stroke"/><path d="M482 184 L478 149 L494 148 z" 
                              vector-effect="non-scaling-stroke"/><path d="M482 184 L494 148 L511 165 z" 
                              vector-effect="non-scaling-stroke"/><path d="M509 189 L482 184 L511 165 z" 
                              vector-effect="non-scaling-stroke"/><path d="M555 180 L509 189 L511 165 z" 
                              vector-effect="non-scaling-stroke"/><path d="M555 180 L511 165 L549 149 z" 
                              vector-effect="non-scaling-stroke"/><path d="M572 134 L555 180 L549 149 z" 
                              vector-effect="non-scaling-stroke"/><path d="M546 110 L597 94 L572 134 z" 
                              vector-effect="non-scaling-stroke"/><path d="M601 148 L572 134 L597 94 z" 
                              vector-effect="non-scaling-stroke"/><path d="M597 94 L635 142 L601 148 z" 
                              vector-effect="non-scaling-stroke"/><path d="M601 148 L635 142 L614 184 z" 
                              vector-effect="non-scaling-stroke"/><path d="M574 176 L601 148 L614 184 z" 
                              vector-effect="non-scaling-stroke"/><path d="M574 176 L614 184 L589 199 z" 
                              vector-effect="non-scaling-stroke"/><path d="M555 198 L574 176 L589 199 z" 
                              vector-effect="non-scaling-stroke"/><path d="M558 224 L555 198 L589 199 z" 
                              vector-effect="non-scaling-stroke"/><path d="M597 250 L558 224 L589 199 z" 
                              vector-effect="non-scaling-stroke"/><path d="M597 250 L589 199 L623 228 z" 
                              vector-effect="non-scaling-stroke"/><path d="M626 293 L597 250 L623 228 z" 
                              vector-effect="non-scaling-stroke"/><path d="M626 293 L623 228 L666 251 z" 
                              vector-effect="non-scaling-stroke"/><path d="M626 293 L666 251 L662 297 z" 
                              vector-effect="non-scaling-stroke"/><path d="M564 485 L559 466 L592 471 z" 
                              vector-effect="non-scaling-stroke"/><path d="M557 323 L546 281 L576 263 z" 
                              vector-effect="non-scaling-stroke"/><path d="M557 323 L576 263 L626 293 z" 
                              vector-effect="non-scaling-stroke"/><path d="M641 349 L557 323 L626 293 z" 
                              vector-effect="non-scaling-stroke"/><path d="M641 349 L626 293 L662 297 z" 
                              vector-effect="non-scaling-stroke"/><path d="M641 349 L662 297 L687 359 z" 
                              vector-effect="non-scaling-stroke"/><path d="M650 410 L641 349 L687 359 z" 
                              vector-effect="non-scaling-stroke"/><path d="M650 410 L687 359 L679 439 z" 
                              vector-effect="non-scaling-stroke"/><path d="M652 463 L631 473 L650 410 z" 
                              vector-effect="non-scaling-stroke"/><path d="M650 410 L679 439 L671 451 z" 
                              vector-effect="non-scaling-stroke"/><path d="M650 410 L671 451 L652 463 z" 
                              vector-effect="non-scaling-stroke"/><path d="M631 473 L652 463 L658 481 z" 
                              vector-effect="non-scaling-stroke"/><path d="M631 473 L658 481 L643 497 z" 
                              vector-effect="non-scaling-stroke"/><path d="M631 473 L643 497 L618 492 z" 
                              vector-effect="non-scaling-stroke"/><path d="M592 471 L631 473 L618 492 z" 
                              vector-effect="non-scaling-stroke"/><path d="M592 471 L618 492 L592 484 z" 
                              vector-effect="non-scaling-stroke"/><path d="M559 466 L567 430 L592 471 z" 
                              vector-effect="non-scaling-stroke"/><path d="M597 413 L592 471 L567 430 z" 
                              vector-effect="non-scaling-stroke"/><path d="M554 386 L597 413 L567 430 z" 
                              vector-effect="non-scaling-stroke"/><path d="M554 386 L567 430 L514 392 z" 
                              vector-effect="non-scaling-stroke"/><path d="M546 336 L554 386 L514 392 z" 
                              vector-effect="non-scaling-stroke"/><path d="M484 424 L487 380 L514 392 z" 
                              vector-effect="non-scaling-stroke"/><path d="M516 435 L514 392 L538 426 z" 
                              vector-effect="non-scaling-stroke"/><path d="M516 435 L538 426 L531 477 z" 
                              vector-effect="non-scaling-stroke"/><path d="M512 468 L516 435 L531 477 z" 
                              vector-effect="non-scaling-stroke"/><path d="M512 468 L531 477 L500 501 z" 
                              vector-effect="non-scaling-stroke"/><path d="M470 488 L512 468 L500 501 z" 
                              vector-effect="non-scaling-stroke"/><path d="M439 477 L470 488 L442 538 z" 
                              vector-effect="non-scaling-stroke"/><path d="M442 538 L405 502 L439 477 z" 
                              vector-effect="non-scaling-stroke"/><path d="M382 412 L404 449 L372 440 z" 
                              vector-effect="non-scaling-stroke"/><path d="M434 409 L439 477 L404 449 z" 
                              vector-effect="non-scaling-stroke"/><path d="M405 484 L404 449 L439 477 z" 
                              vector-effect="non-scaling-stroke"/><path d="M405 484 L439 477 L405 502 z" 
                              vector-effect="non-scaling-stroke"/><path d="M377 481 L405 484 L405 502 z" 
                              vector-effect="non-scaling-stroke"/><path d="M405 502 L364 487 L377 481 z" 
                              vector-effect="non-scaling-stroke"/><path d="M352 447 L377 481 L364 487 z" 
                              vector-effect="non-scaling-stroke"/><path d="M352 447 L364 487 L334 457 z" 
                              vector-effect="non-scaling-stroke"/><path d="M311 437 L352 447 L334 457 z" 
                              vector-effect="non-scaling-stroke"/><path d="M311 437 L334 457 L300 480 z" 
                              vector-effect="non-scaling-stroke"/><path d="M284 438 L311 437 L300 480 z" 
                              vector-effect="non-scaling-stroke"/><path d="M273 458 L284 438 L300 480 z" 
                              vector-effect="non-scaling-stroke"/><path d="M273 458 L300 480 L265 483 z" 
                              vector-effect="non-scaling-stroke"/><path d="M243 453 L273 458 L265 483 z" 
                              vector-effect="non-scaling-stroke"/><path d="M243 453 L265 483 L180 502 z" 
                              vector-effect="non-scaling-stroke"/><path d="M186 458 L230 443 L243 453 z" 
                              vector-effect="non-scaling-stroke"/><path d="M243 453 L180 502 L186 458 z" 
                              vector-effect="non-scaling-stroke"/><path d="M186 458 L180 502 L167 500 z" 
                              vector-effect="non-scaling-stroke"/><path d="M186 458 L167 500 L153 490 z" 
                              vector-effect="non-scaling-stroke"/><path d="M186 458 L153 490 L138 468 z" 
                              vector-effect="non-scaling-stroke"/><path d="M186 458 L138 468 L128 459 z" 
                              vector-effect="non-scaling-stroke"/><path d="M58 446 L186 458 L128 459 z" 
                              vector-effect="non-scaling-stroke"/><path d="M112 466 L87 469 L58 446 z" 
                              vector-effect="non-scaling-stroke"/><path d="M58 446 L128 459 L112 466 z" 
                              vector-effect="non-scaling-stroke"/></g></svg>