
            <svg version="1.1" xmlns="http://www.w3.org/2000/svg" 
                width="583.8274932614555" height="600" viewBox="36 24 726 746"><path d="M91 58 L128 84 L158 107 L191 58 L231 37 L269 36 L311 26 L361 44 L371 66 L360 88 L381 115 L369 142 L380 156 L401 145 L393 128 L419 48 L450 126 L470 57 L490 37 L570 46 L619 45 L667 34 L698 44 L730 75 L732 115 L719 115 L672 93 L629 72 L603 94 L678 117 L709 176 L720 274 L730 148 L751 176 L751 246 L741 273 L760 326 L750 405 L732 415 L730 506 L738 545 L699 515 L700 459 L721 403 L711 348 L681 378 L682 437 L680 477 L691 567 L721 594 L730 645 L730 696 L680 737 L632 727 L590 746 L591 718 L551 735 L511 716 L558 689 L569 656 L589 630 L627 675 L669 689 L699 686 L671 657 L680 628 L710 625 L692 599 L650 597 L612 614 L621 587 L650 567 L652 528 L640 509 L658 466 L659 417 L672 359 L690 333 L690 278 L671 234 L669 186 L649 146 L609 135 L582 96 L541 74 L528 83 L488 85 L529 124 L561 118 L609 156 L641 167 L660 326 L639 475 L591 595 L532 654 L479 684 L407 746 L320 755 L307 737 L380 704 L380 677 L331 677 L279 674 L281 641 L301 617 L318 578 L339 559 L349 594 L341 635 L352 646 L381 594 L388 540 L420 515 L420 456 L479 445 L511 458 L529 427 L560 437 L580 474 L569 525 L569 545 L561 566 L528 573 L511 573 L509 557 L520 540 L522 515 L509 518 L492 508 L501 490 L491 475 L478 473 L460 484 L461 506 L460 527 L450 545 L442 558 L430 557 L418 552 L408 564 L412 585 L394 592 L390 615 L398 633 L419 635 L438 616 L451 604 L466 616 L507 625 L519 615 L539 597 L561 585 L580 568 L596 539 L600 514 L589 488 L599 458 L591 417 L598 397 L589 368 L572 328 L550 307 L521 285 L481 225 L479 176 L519 176 L542 246 L569 257 L588 237 L600 335 L622 362 L628 332 L628 275 L611 213 L589 186 L549 186 L542 166 L510 148 L452 146 L419 176 L387 219 L391 315 L420 239 L470 277 L491 316 L509 355 L470 368 L458 356 L461 318 L430 323 L401 338 L388 368 L350 345 L322 347 L298 345 L269 378 L280 398 L309 399 L349 408 L370 438 L371 460 L349 466 L319 458 L281 435 L252 436 L238 453 L220 487 L181 504 L160 566 L133 584 L158 618 L179 626 L202 596 L231 560 L229 524 L240 507 L271 497 L292 507 L311 479 L340 498 L311 516 L302 545 L278 578 L239 593 L229 627 L239 652 L268 699 L289 715 L270 737 L250 749 L210 746 L181 757 L140 768 L130 756 L109 737 L86 731 L88 716 L151 679 L79 648 L40 627 L60 519 L91 479 L137 496 L161 419 L141 370 L108 375 L79 397 L61 426 L40 406 L47 358 L38 319 L46 224 L74 214 L92 217 L129 287 L202 167 L239 247 L151 345 L172 387 L221 388 L238 350 L263 279 L333 315 L321 224 L290 157 L300 116 L310 87 L332 64 L282 76 L230 106 L240 144 L199 132 L162 132 L148 146 L149 165 L139 187 L80 175 L71 136 L48 96z" fill="gainsboro" stroke="black" stroke-width="3" 
                      vector-effect="non-scaling-stroke"/><g fill="none" stroke="black" stroke-width="1"><path d="M393 128 L419 48 L450 126 z" 
                              vector-effect="non-scaling-stroke"/><path d="M730 506 L738 545 L699 515 z" 
                              vector-effect="non-scaling-stroke"/><path d="M720 274 L730 148 L751 176 z" 
                              vector-effect="non-scaling-stroke"/><path d="M720 274 L751 176 L751 246 z" 
                              vector-effect="non-scaling-stroke"/><path d="M720 274 L751 246 L741 273 z" 
                              vector-effect="non-scaling-stroke"/><path d="M650 597 L612 614 L621 587 z" 
                              vector-effect="non-scaling-stroke"/><path d="M569 257 L588 237 L600 335 z" 
                              vector-effect="non-scaling-stroke"/><path d="M650 597 L621 587 L650 567 z" 
                              vector-effect="non-scaling-stroke"/><path d="M551 735 L511 716 L558 689 z" 
                              vector-effect="non-scaling-stroke"/><path d="M129 287 L202 167 L239 247 z" 
                              vector-effect="non-scaling-stroke"/><path d="M129 287 L239 247 L151 345 z" 
                              vector-effect="non-scaling-stroke"/><path d="M591 718 L551 735 L558 689 z" 
                              vector-effect="non-scaling-stroke"/><path d="M230 106 L240 144 L199 132 z" 
                              vector-effect="non-scaling-stroke"/><path d="M632 727 L590 746 L591 718 z" 
                              vector-effect="non-scaling-stroke"/><path d="M318 578 L339 559 L349 594 z" 
                              vector-effect="non-scaling-stroke"/><path d="M311 479 L340 498 L311 516 z" 
                              vector-effect="non-scaling-stroke"/><path d="M292 507 L311 479 L311 516 z" 
                              vector-effect="non-scaling-stroke"/><path d="M401 145 L393 128 L450 126 z" 
                              vector-effect="non-scaling-stroke"/><path d="M730 506 L699 515 L700 459 z" 
                              vector-effect="non-scaling-stroke"/><path d="M732 415 L730 506 L700 459 z" 
                              vector-effect="non-scaling-stroke"/><path d="M732 415 L700 459 L721 403 z" 
                              vector-effect="non-scaling-stroke"/><path d="M430 323 L391 315 L420 239 z" 
                              vector-effect="non-scaling-stroke"/><path d="M569 656 L589 630 L627 675 z" 
                              vector-effect="non-scaling-stroke"/><path d="M79 397 L61 426 L40 406 z" 
                              vector-effect="non-scaling-stroke"/><path d="M79 397 L40 406 L47 358 z" 
                              vector-effect="non-scaling-stroke"/><path d="M320 755 L307 737 L380 704 z" 
                              vector-effect="non-scaling-stroke"/><path d="M407 746 L320 755 L380 704 z" 
                              vector-effect="non-scaling-stroke"/><path d="M479 684 L407 746 L380 704 z" 
                              vector-effect="non-scaling-stroke"/><path d="M479 684 L380 704 L380 677 z" 
                              vector-effect="non-scaling-stroke"/><path d="M298 345 L238 350 L263 279 z" 
                              vector-effect="non-scaling-stroke"/><path d="M401 338 L388 368 L350 345 z" 
                              vector-effect="non-scaling-stroke"/><path d="M491 316 L509 355 L470 368 z" 
                              vector-effect="non-scaling-stroke"/><path d="M491 316 L470 368 L458 356 z" 
                              vector-effect="non-scaling-stroke"/><path d="M491 316 L458 356 L461 318 z" 
                              vector-effect="non-scaling-stroke"/><path d="M470 277 L491 316 L461 318 z" 
                              vector-effect="non-scaling-stroke"/><path d="M420 239 L470 277 L430 323 z" 
                              vector-effect="non-scaling-stroke"/><path d="M470 277 L461 318 L430 323 z" 
                              vector-effect="non-scaling-stroke"/><path d="M391 315 L430 323 L401 338 z" 
                              vector-effect="non-scaling-stroke"/><path d="M391 315 L401 338 L350 345 z" 
                              vector-effect="non-scaling-stroke"/><path d="M301 617 L318 578 L349 594 z" 
                              vector-effect="non-scaling-stroke"/><path d="M301 617 L349 594 L341 635 z" 
                              vector-effect="non-scaling-stroke"/><path d="M268 699 L289 715 L270 737 z" 
                              vector-effect="non-scaling-stroke"/><path d="M730 75 L732 115 L719 115 z" 
                              vector-effect="non-scaling-stroke"/><path d="M730 75 L719 115 L672 93 z" 
                              vector-effect="non-scaling-stroke"/><path d="M698 44 L730 75 L672 93 z" 
                              vector-effect="non-scaling-stroke"/><path d="M667 34 L698 44 L672 93 z" 
                              vector-effect="non-scaling-stroke"/><path d="M667 34 L672 93 L629 72 z" 
                              vector-effect="non-scaling-stroke"/><path d="M619 45 L667 34 L629 72 z" 
                              vector-effect="non-scaling-stroke"/><path d="M481 225 L479 176 L519 176 z" 
                              vector-effect="non-scaling-stroke"/><path d="M481 225 L519 176 L542 246 z" 
                              vector-effect="non-scaling-stroke"/><path d="M521 285 L481 225 L542 246 z" 
                              vector-effect="non-scaling-stroke"/><path d="M331 677 L279 674 L281 641 z" 
                              vector-effect="non-scaling-stroke"/><path d="M341 635 L331 677 L281 641 z" 
                              vector-effect="non-scaling-stroke"/><path d="M281 641 L301 617 L341 635 z" 
                              vector-effect="non-scaling-stroke"/><path d="M331 677 L341 635 L352 646 z" 
                              vector-effect="non-scaling-stroke"/><path d="M380 677 L331 677 L352 646 z" 
                              vector-effect="non-scaling-stroke"/><path d="M558 689 L569 656 L627 675 z" 
                              vector-effect="non-scaling-stroke"/><path d="M591 718 L558 689 L627 675 z" 
                              vector-effect="non-scaling-stroke"/><path d="M632 727 L591 718 L627 675 z" 
                              vector-effect="non-scaling-stroke"/><path d="M632 727 L627 675 L669 689 z" 
                              vector-effect="non-scaling-stroke"/><path d="M680 737 L632 727 L669 689 z" 
                              vector-effect="non-scaling-stroke"/><path d="M699 686 L730 696 L680 737 z" 
                              vector-effect="non-scaling-stroke"/><path d="M680 737 L669 689 L699 686 z" 
                              vector-effect="non-scaling-stroke"/><path d="M730 645 L730 696 L699 686 z" 
                              vector-effect="non-scaling-stroke"/><path d="M730 645 L699 686 L671 657 z" 
                              vector-effect="non-scaling-stroke"/><path d="M710 625 L730 645 L671 657 z" 
                              vector-effect="non-scaling-stroke"/><path d="M671 657 L680 628 L710 625 z" 
                              vector-effect="non-scaling-stroke"/><path d="M721 594 L730 645 L710 625 z" 
                              vector-effect="non-scaling-stroke"/><path d="M721 594 L710 625 L692 599 z" 
                              vector-effect="non-scaling-stroke"/><path d="M691 567 L721 594 L692 599 z" 
                              vector-effect="non-scaling-stroke"/><path d="M691 567 L692 599 L650 597 z" 
                              vector-effect="non-scaling-stroke"/><path d="M691 567 L650 597 L650 567 z" 
                              vector-effect="non-scaling-stroke"/><path d="M652 528 L680 477 L691 567 z" 
                              vector-effect="non-scaling-stroke"/><path d="M691 567 L650 567 L652 528 z" 
                              vector-effect="non-scaling-stroke"/><path d="M680 477 L652 528 L640 509 z" 
                              vector-effect="non-scaling-stroke"/><path d="M680 477 L640 509 L658 466 z" 
                              vector-effect="non-scaling-stroke"/><path d="M682 437 L680 477 L658 466 z" 
                              vector-effect="non-scaling-stroke"/><path d="M682 437 L658 466 L659 417 z" 
                              vector-effect="non-scaling-stroke"/><path d="M681 378 L682 437 L659 417 z" 
                              vector-effect="non-scaling-stroke"/><path d="M681 378 L659 417 L672 359 z" 
                              vector-effect="non-scaling-stroke"/><path d="M711 348 L681 378 L672 359 z" 
                              vector-effect="non-scaling-stroke"/><path d="M711 348 L672 359 L690 333 z" 
                              vector-effect="non-scaling-stroke"/><path d="M108 375 L79 397 L47 358 z" 
                              vector-effect="non-scaling-stroke"/><path d="M509 518 L492 508 L501 490 z" 
                              vector-effect="non-scaling-stroke"/><path d="M522 515 L509 518 L501 490 z" 
                              vector-effect="non-scaling-stroke"/><path d="M521 285 L542 246 L569 257 z" 
                              vector-effect="non-scaling-stroke"/><path d="M550 307 L521 285 L569 257 z" 
                              vector-effect="non-scaling-stroke"/><path d="M572 328 L550 307 L569 257 z" 
                              vector-effect="non-scaling-stroke"/><path d="M569 257 L600 335 L572 328 z" 
                              vector-effect="non-scaling-stroke"/><path d="M589 368 L572 328 L600 335 z" 
                              vector-effect="non-scaling-stroke"/><path d="M589 368 L600 335 L622 362 z" 
                              vector-effect="non-scaling-stroke"/><path d="M598 397 L589 368 L622 362 z" 
                              vector-effect="non-scaling-stroke"/><path d="M109 737 L86 731 L88 716 z" 
                              vector-effect="non-scaling-stroke"/><path d="M109 737 L88 716 L151 679 z" 
                              vector-effect="non-scaling-stroke"/><path d="M130 756 L109 737 L151 679 z" 
                              vector-effect="non-scaling-stroke"/><path d="M528 573 L511 573 L509 557 z" 
                              vector-effect="non-scaling-stroke"/><path d="M528 573 L509 557 L520 540 z" 
                              vector-effect="non-scaling-stroke"/><path d="M561 566 L528 573 L520 540 z" 
                              vector-effect="non-scaling-stroke"/><path d="M569 545 L561 566 L520 540 z" 
                              vector-effect="non-scaling-stroke"/><path d="M569 525 L569 545 L520 540 z" 
                              vector-effect="non-scaling-stroke"/><path d="M569 525 L520 540 L522 515 z" 
                              vector-effect="non-scaling-stroke"/><path d="M580 474 L569 525 L522 515 z" 
                              vector-effect="non-scaling-stroke"/><path d="M511 458 L580 474 L522 515 z" 
                              vector-effect="non-scaling-stroke"/><path d="M511 458 L560 437 L580 474 z" 
                              vector-effect="non-scaling-stroke"/><path d="M511 458 L529 427 L560 437 z" 
                              vector-effect="non-scaling-stroke"/><path d="M522 515 L501 490 L511 458 z" 
                              vector-effect="non-scaling-stroke"/><path d="M511 458 L501 490 L491 475 z" 
                              vector-effect="non-scaling-stroke"/><path d="M479 445 L511 458 L491 475 z" 
                              vector-effect="non-scaling-stroke"/><path d="M479 445 L491 475 L478 473 z" 
                              vector-effect="non-scaling-stroke"/><path d="M460 484 L420 456 L479 445 z" 
                              vector-effect="non-scaling-stroke"/><path d="M479 445 L478 473 L460 484 z" 
                              vector-effect="non-scaling-stroke"/><path d="M420 515 L420 456 L460 484 z" 
                              vector-effect="non-scaling-stroke"/><path d="M420 515 L460 484 L461 506 z" 
                              vector-effect="non-scaling-stroke"/><path d="M420 515 L461 506 L460 527 z" 
                              vector-effect="non-scaling-stroke"/><path d="M420 515 L460 527 L450 545 z" 
                              vector-effect="non-scaling-stroke"/><path d="M418 552 L388 540 L420 515 z" 
                              vector-effect="non-scaling-stroke"/><path d="M418 552 L420 515 L450 545 z" 
                              vector-effect="non-scaling-stroke"/><path d="M292 507 L311 516 L302 545 z" 
                              vector-effect="non-scaling-stroke"/><path d="M438 616 L451 604 L466 616 z" 
                              vector-effect="non-scaling-stroke"/><path d="M408 564 L412 585 L394 592 z" 
                              vector-effect="non-scaling-stroke"/><path d="M71 136 L48 96 L91 58 z" 
                              vector-effect="non-scaling-stroke"/><path d="M71 136 L91 58 L128 84 z" 
                              vector-effect="non-scaling-stroke"/><path d="M148 146 L71 136 L128 84 z" 
                              vector-effect="non-scaling-stroke"/><path d="M148 146 L80 175 L71 136 z" 
                              vector-effect="non-scaling-stroke"/><path d="M370 438 L371 460 L349 466 z" 
                              vector-effect="non-scaling-stroke"/><path d="M149 165 L139 187 L80 175 z" 
                              vector-effect="non-scaling-stroke"/><path d="M148 146 L149 165 L80 175 z" 
                              vector-effect="non-scaling-stroke"/><path d="M128 84 L158 107 L148 146 z" 
                              vector-effect="non-scaling-stroke"/><path d="M162 132 L148 146 L158 107 z" 
                              vector-effect="non-scaling-stroke"/><path d="M199 132 L162 132 L158 107 z" 
                              vector-effect="non-scaling-stroke"/><path d="M199 132 L158 107 L191 58 z" 
                              vector-effect="non-scaling-stroke"/><path d="M230 106 L199 132 L191 58 z" 
                              vector-effect="non-scaling-stroke"/><path d="M230 106 L191 58 L231 37 z" 
                              vector-effect="non-scaling-stroke"/><path d="M282 76 L230 106 L231 37 z" 
                              vector-effect="non-scaling-stroke"/><path d="M282 76 L231 37 L269 36 z" 
                              vector-effect="non-scaling-stroke"/><path d="M282 76 L269 36 L311 26 z" 
                              vector-effect="non-scaling-stroke"/><path d="M332 64 L282 76 L311 26 z" 
                              vector-effect="non-scaling-stroke"/><path d="M332 64 L311 26 L361 44 z" 
                              vector-effect="non-scaling-stroke"/><path d="M332 64 L361 44 L371 66 z" 
                              vector-effect="non-scaling-stroke"/><path d="M332 64 L371 66 L360 88 z" 
                              vector-effect="non-scaling-stroke"/><path d="M310 87 L332 64 L360 88 z" 
                              vector-effect="non-scaling-stroke"/><path d="M750 405 L732 415 L721 403 z" 
                              vector-effect="non-scaling-stroke"/><path d="M711 348 L760 326 L750 405 z" 
                              vector-effect="non-scaling-stroke"/><path d="M750 405 L721 403 L711 348 z" 
                              vector-effect="non-scaling-stroke"/><path d="M720 274 L741 273 L760 326 z" 
                              vector-effect="non-scaling-stroke"/><path d="M760 326 L711 348 L720 274 z" 
                              vector-effect="non-scaling-stroke"/><path d="M720 274 L711 348 L690 333 z" 
                              vector-effect="non-scaling-stroke"/><path d="M720 274 L690 333 L690 278 z" 
                              vector-effect="non-scaling-stroke"/><path d="M671 234 L709 176 L720 274 z" 
                              vector-effect="non-scaling-stroke"/><path d="M720 274 L690 278 L671 234 z" 
                              vector-effect="non-scaling-stroke"/><path d="M709 176 L671 234 L669 186 z" 
                              vector-effect="non-scaling-stroke"/><path d="M649 146 L678 117 L709 176 z" 
                              vector-effect="non-scaling-stroke"/><path d="M709 176 L669 186 L649 146 z" 
                              vector-effect="non-scaling-stroke"/><path d="M603 94 L678 117 L649 146 z" 
                              vector-effect="non-scaling-stroke"/><path d="M603 94 L649 146 L609 135 z" 
                              vector-effect="non-scaling-stroke"/><path d="M603 94 L609 135 L582 96 z" 
                              vector-effect="non-scaling-stroke"/><path d="M60 519 L91 479 L137 496 z" 
                              vector-effect="non-scaling-stroke"/><path d="M133 584 L79 648 L40 627 z" 
                              vector-effect="non-scaling-stroke"/><path d="M40 627 L60 519 L133 584 z" 
                              vector-effect="non-scaling-stroke"/><path d="M300 116 L310 87 L360 88 z" 
                              vector-effect="non-scaling-stroke"/><path d="M369 142 L300 116 L360 88 z" 
                              vector-effect="non-scaling-stroke"/><path d="M360 88 L381 115 L369 142 z" 
                              vector-effect="non-scaling-stroke"/><path d="M290 157 L300 116 L369 142 z" 
                              vector-effect="non-scaling-stroke"/><path d="M321 224 L290 157 L369 142 z" 
                              vector-effect="non-scaling-stroke"/><path d="M321 224 L369 142 L380 156 z" 
                              vector-effect="non-scaling-stroke"/><path d="M319 458 L349 408 L370 438 z" 
                              vector-effect="non-scaling-stroke"/><path d="M370 438 L349 466 L319 458 z" 
                              vector-effect="non-scaling-stroke"/><path d="M309 399 L349 408 L319 458 z" 
                              vector-effect="non-scaling-stroke"/><path d="M309 399 L319 458 L281 435 z" 
                              vector-effect="non-scaling-stroke"/><path d="M280 398 L309 399 L281 435 z" 
                              vector-effect="non-scaling-stroke"/><path d="M280 398 L281 435 L252 436 z" 
                              vector-effect="non-scaling-stroke"/><path d="M398 633 L380 677 L352 646 z" 
                              vector-effect="non-scaling-stroke"/><path d="M603 94 L570 46 L619 45 z" 
                              vector-effect="non-scaling-stroke"/><path d="M619 45 L629 72 L603 94 z" 
                              vector-effect="non-scaling-stroke"/><path d="M570 46 L603 94 L582 96 z" 
                              vector-effect="non-scaling-stroke"/><path d="M570 46 L582 96 L541 74 z" 
                              vector-effect="non-scaling-stroke"/><path d="M490 37 L570 46 L541 74 z" 
                              vector-effect="non-scaling-stroke"/><path d="M490 37 L541 74 L528 83 z" 
                              vector-effect="non-scaling-stroke"/><path d="M490 37 L528 83 L488 85 z" 
                              vector-effect="non-scaling-stroke"/><path d="M470 57 L490 37 L488 85 z" 
                              vector-effect="non-scaling-stroke"/><path d="M450 126 L470 57 L488 85 z" 
                              vector-effect="non-scaling-stroke"/><path d="M510 148 L450 126 L488 85 z" 
                              vector-effect="non-scaling-stroke"/><path d="M589 186 L549 186 L542 166 z" 
                              vector-effect="non-scaling-stroke"/><path d="M129 287 L38 319 L46 224 z" 
                              vector-effect="non-scaling-stroke"/><path d="M46 224 L74 214 L92 217 z" 
                              vector-effect="non-scaling-stroke"/><path d="M46 224 L92 217 L129 287 z" 
                              vector-effect="non-scaling-stroke"/><path d="M108 375 L47 358 L38 319 z" 
                              vector-effect="non-scaling-stroke"/><path d="M38 319 L129 287 L108 375 z" 
                              vector-effect="non-scaling-stroke"/><path d="M129 287 L151 345 L108 375 z" 
                              vector-effect="non-scaling-stroke"/><path d="M141 370 L108 375 L151 345 z" 
                              vector-effect="non-scaling-stroke"/><path d="M141 370 L151 345 L172 387 z" 
                              vector-effect="non-scaling-stroke"/><path d="M161 419 L141 370 L172 387 z" 
                              vector-effect="non-scaling-stroke"/><path d="M161 419 L172 387 L221 388 z" 
                              vector-effect="non-scaling-stroke"/><path d="M181 757 L140 768 L130 756 z" 
                              vector-effect="non-scaling-stroke"/><path d="M181 757 L130 756 L151 679 z" 
                              vector-effect="non-scaling-stroke"/><path d="M210 746 L181 757 L151 679 z" 
                              vector-effect="non-scaling-stroke"/><path d="M221 388 L269 378 L280 398 z" 
                              vector-effect="non-scaling-stroke"/><path d="M589 186 L609 156 L641 167 z" 
                              vector-effect="non-scaling-stroke"/><path d="M268 699 L270 737 L250 749 z" 
                              vector-effect="non-scaling-stroke"/><path d="M268 699 L250 749 L210 746 z" 
                              vector-effect="non-scaling-stroke"/><path d="M239 652 L268 699 L210 746 z" 
                              vector-effect="non-scaling-stroke"/><path d="M210 746 L151 679 L239 652 z" 
                              vector-effect="non-scaling-stroke"/><path d="M179 626 L229 627 L239 652 z" 
                              vector-effect="non-scaling-stroke"/><path d="M239 652 L151 679 L179 626 z" 
                              vector-effect="non-scaling-stroke"/><path d="M333 315 L387 219 L391 315 z" 
                              vector-effect="non-scaling-stroke"/><path d="M333 315 L391 315 L350 345 z" 
                              vector-effect="non-scaling-stroke"/><path d="M271 497 L292 507 L302 545 z" 
                              vector-effect="non-scaling-stroke"/><path d="M240 507 L271 497 L302 545 z" 
                              vector-effect="non-scaling-stroke"/><path d="M229 524 L240 507 L302 545 z" 
                              vector-effect="non-scaling-stroke"/><path d="M231 560 L229 524 L302 545 z" 
                              vector-effect="non-scaling-stroke"/><path d="M302 545 L278 578 L231 560 z" 
                              vector-effect="non-scaling-stroke"/><path d="M231 560 L278 578 L239 593 z" 
                              vector-effect="non-scaling-stroke"/><path d="M202 596 L231 560 L239 593 z" 
                              vector-effect="non-scaling-stroke"/><path d="M202 596 L239 593 L229 627 z" 
                              vector-effect="non-scaling-stroke"/><path d="M179 626 L202 596 L229 627 z" 
                              vector-effect="non-scaling-stroke"/><path d="M158 618 L179 626 L151 679 z" 
                              vector-effect="non-scaling-stroke"/><path d="M151 679 L79 648 L158 618 z" 
                              vector-effect="non-scaling-stroke"/><path d="M133 584 L158 618 L79 648 z" 
                              vector-effect="non-scaling-stroke"/><path d="M60 519 L137 496 L133 584 z" 
                              vector-effect="non-scaling-stroke"/><path d="M160 566 L133 584 L137 496 z" 
                              vector-effect="non-scaling-stroke"/><path d="M181 504 L160 566 L137 496 z" 
                              vector-effect="non-scaling-stroke"/><path d="M181 504 L137 496 L161 419 z" 
                              vector-effect="non-scaling-stroke"/><path d="M220 487 L181 504 L161 419 z" 
                              vector-effect="non-scaling-stroke"/><path d="M238 453 L220 487 L161 419 z" 
                              vector-effect="non-scaling-stroke"/><path d="M238 453 L161 419 L221 388 z" 
                              vector-effect="non-scaling-stroke"/><path d="M252 436 L238 453 L221 388 z" 
                              vector-effect="non-scaling-stroke"/><path d="M280 398 L252 436 L221 388 z" 
                              vector-effect="non-scaling-stroke"/><path d="M269 378 L221 388 L238 350 z" 
                              vector-effect="non-scaling-stroke"/><path d="M298 345 L269 378 L238 350 z" 
                              vector-effect="non-scaling-stroke"/><path d="M263 279 L333 315 L298 345 z" 
                              vector-effect="non-scaling-stroke"/><path d="M322 347 L298 345 L333 315 z" 
                              vector-effect="non-scaling-stroke"/><path d="M350 345 L322 347 L333 315 z" 
                              vector-effect="non-scaling-stroke"/><path d="M387 219 L333 315 L321 224 z" 
                              vector-effect="non-scaling-stroke"/><path d="M387 219 L321 224 L380 156 z" 
                              vector-effect="non-scaling-stroke"/><path d="M419 176 L387 219 L380 156 z" 
                              vector-effect="non-scaling-stroke"/><path d="M419 176 L380 156 L401 145 z" 
                              vector-effect="non-scaling-stroke"/><path d="M452 146 L419 176 L401 145 z" 
                              vector-effect="non-scaling-stroke"/><path d="M452 146 L401 145 L450 126 z" 
                              vector-effect="non-scaling-stroke"/><path d="M510 148 L452 146 L450 126 z" 
                              vector-effect="non-scaling-stroke"/><path d="M488 85 L529 124 L510 148 z" 
                              vector-effect="non-scaling-stroke"/><path d="M542 166 L510 148 L529 124 z" 
                              vector-effect="non-scaling-stroke"/><path d="M542 166 L529 124 L561 118 z" 
                              vector-effect="non-scaling-stroke"/><path d="M542 166 L561 118 L609 156 z" 
                              vector-effect="non-scaling-stroke"/><path d="M589 186 L542 166 L609 156 z" 
                              vector-effect="non-scaling-stroke"/><path d="M641 167 L611 213 L589 186 z" 
                              vector-effect="non-scaling-stroke"/><path d="M628 275 L611 213 L641 167 z" 
                              vector-effect="non-scaling-stroke"/><path d="M641 167 L660 326 L628 275 z" 
                              vector-effect="non-scaling-stroke"/><path d="M628 332 L628 275 L660 326 z" 
                              vector-effect="non-scaling-stroke"/><path d="M622 362 L628 332 L660 326 z" 
                              vector-effect="non-scaling-stroke"/><path d="M660 326 L639 475 L622 362 z" 
                              vector-effect="non-scaling-stroke"/><path d="M598 397 L622 362 L639 475 z" 
                              vector-effect="non-scaling-stroke"/><path d="M591 417 L598 397 L639 475 z" 
                              vector-effect="non-scaling-stroke"/><path d="M599 458 L591 417 L639 475 z" 
                              vector-effect="non-scaling-stroke"/><path d="M589 488 L599 458 L639 475 z" 
                              vector-effect="non-scaling-stroke"/><path d="M600 514 L589 488 L639 475 z" 
                              vector-effect="non-scaling-stroke"/><path d="M596 539 L600 514 L639 475 z" 
                              vector-effect="non-scaling-stroke"/><path d="M639 475 L591 595 L596 539 z" 
                              vector-effect="non-scaling-stroke"/><path d="M580 568 L596 539 L591 595 z" 
                              vector-effect="non-scaling-stroke"/><path d="M561 585 L580 568 L591 595 z" 
                              vector-effect="non-scaling-stroke"/><path d="M539 597 L561 585 L591 595 z" 
                              vector-effect="non-scaling-stroke"/><path d="M591 595 L532 654 L539 597 z" 
                              vector-effect="non-scaling-stroke"/><path d="M519 615 L539 597 L532 654 z" 
                              vector-effect="non-scaling-stroke"/><path d="M507 625 L519 615 L532 654 z" 
                              vector-effect="non-scaling-stroke"/><path d="M507 625 L532 654 L479 684 z" 
                              vector-effect="non-scaling-stroke"/><path d="M466 616 L507 625 L479 684 z" 
                              vector-effect="non-scaling-stroke"/><path d="M419 635 L438 616 L466 616 z" 
                              vector-effect="non-scaling-stroke"/><path d="M466 616 L479 684 L419 635 z" 
                              vector-effect="non-scaling-stroke"/><path d="M479 684 L380 677 L419 635 z" 
                              vector-effect="non-scaling-stroke"/><path d="M398 633 L419 635 L380 677 z" 
                              vector-effect="non-scaling-stroke"/><path d="M352 646 L390 615 L398 633 z" 
                              vector-effect="non-scaling-stroke"/><path d="M352 646 L381 594 L390 615 z" 
                              vector-effect="non-scaling-stroke"/><path d="M394 592 L390 615 L381 594 z" 
                              vector-effect="non-scaling-stroke"/><path d="M408 564 L394 592 L381 594 z" 
                              vector-effect="non-scaling-stroke"/><path d="M381 594 L388 540 L408 564 z" 
                              vector-effect="non-scaling-stroke"/><path d="M418 552 L408 564 L388 540 z" 
                              vector-effect="non-scaling-stroke"/><path d="M430 557 L418 552 L450 545 z" 
                              vector-effect="non-scaling-stroke"/><path d="M450 545 L442 558 L430 557 z" 
                              vector-effect="non-scaling-stroke"/></g></svg>