
            <svg version="1.1" xmlns="http://www.w3.org/2000/svg" 
                width="523.5772357723578" height="600" viewBox="60 30 648 742"><path d="M219 85 L315 91 L406 68 L481 32 L575 111 L445 209 L343 312 L487 279 L487 247 L579 278 L626 364 L539 356 L400 371 L429 451 L507 454 L548 517 L421 555 L418 630 L540 621 L680 637 L706 712 L587 699 L456 693 L339 711 L225 742 L123 770 L62 692 L144 690 L317 644 L327 600 L283 616 L204 589 L201 517 L269 513 L330 480 L309 401 L224 440 L137 399 L150 327 L195 329 L329 204 L288 187z" fill="gainsboro" stroke="black" stroke-width="3" 
                      vector-effect="non-scaling-stroke"/><g fill="none" stroke="black" stroke-width="1"><path d="M288 187 L219 85 L315 91 z" 
                              vector-effect="non-scaling-stroke"/><path d="M123 770 L62 692 L144 690 z" 
                              vector-effect="non-scaling-stroke"/><path d="M579 278 L626 364 L539 356 z" 
                              vector-effect="non-scaling-stroke"/><path d="M225 742 L123 770 L144 690 z" 
                              vector-effect="non-scaling-stroke"/><path d="M225 742 L144 690 L317 644 z" 
                              vector-effect="non-scaling-stroke"/><path d="M339 711 L225 742 L317 644 z" 
                              vector-effect="non-scaling-stroke"/><path d="M680 637 L706 712 L587 699 z" 
                              vector-effect="non-scaling-stroke"/><path d="M540 621 L680 637 L587 699 z" 
                              vector-effect="non-scaling-stroke"/><path d="M540 621 L587 699 L456 693 z" 
                              vector-effect="non-scaling-stroke"/><path d="M418 630 L540 621 L456 693 z" 
                              vector-effect="non-scaling-stroke"/><path d="M418 630 L456 693 L339 711 z" 
                              vector-effect="non-scaling-stroke"/><path d="M418 630 L339 711 L317 644 z" 
                              vector-effect="non-scaling-stroke"/><path d="M418 630 L317 644 L327 600 z" 
                              vector-effect="non-scaling-stroke"/><path d="M487 279 L487 247 L579 278 z" 
                              vector-effect="non-scaling-stroke"/><path d="M487 279 L579 278 L539 356 z" 
                              vector-effect="non-scaling-stroke"/><path d="M487 279 L539 356 L400 371 z" 
                              vector-effect="non-scaling-stroke"/><path d="M343 312 L487 279 L400 371 z" 
                              vector-effect="non-scaling-stroke"/><path d="M507 454 L548 517 L421 555 z" 
                              vector-effect="non-scaling-stroke"/><path d="M429 451 L507 454 L421 555 z" 
                              vector-effect="non-scaling-stroke"/><path d="M421 555 L418 630 L327 600 z" 
                              vector-effect="non-scaling-stroke"/><path d="M481 32 L575 111 L445 209 z" 
                              vector-effect="non-scaling-stroke"/><path d="M406 68 L481 32 L445 209 z" 
                              vector-effect="non-scaling-stroke"/><path d="M204 589 L201 517 L269 513 z" 
                              vector-effect="non-scaling-stroke"/><path d="M283 616 L204 589 L269 513 z" 
                              vector-effect="non-scaling-stroke"/><path d="M327 600 L283 616 L269 513 z" 
                              vector-effect="non-scaling-stroke"/><path d="M327 600 L269 513 L330 480 z" 
                              vector-effect="non-scaling-stroke"/><path d="M421 555 L327 600 L330 480 z" 
                              vector-effect="non-scaling-stroke"/><path d="M429 451 L421 555 L330 480 z" 
                              vector-effect="non-scaling-stroke"/><path d="M400 371 L429 451 L330 480 z" 
                              vector-effect="non-scaling-stroke"/><path d="M400 371 L330 480 L309 401 z" 
                              vector-effect="non-scaling-stroke"/><path d="M343 312 L400 371 L309 401 z" 
                              vector-effect="non-scaling-stroke"/><path d="M329 204 L315 91 L406 68 z" 
                              vector-effect="non-scaling-stroke"/><path d="M329 204 L288 187 L315 91 z" 
                              vector-effect="non-scaling-stroke"/><path d="M406 68 L445 209 L329 204 z" 
                              vector-effect="non-scaling-stroke"/><path d="M329 204 L445 209 L343 312 z" 
                              vector-effect="non-scaling-stroke"/><path d="M195 329 L329 204 L343 312 z" 
                              vector-effect="non-scaling-stroke"/><path d="M195 329 L343 312 L309 401 z" 
                              vector-effect="non-scaling-stroke"/><path d="M195 329 L309 401 L224 440 z" 
                              vector-effect="non-scaling-stroke"/><path d="M195 329 L224 440 L137 399 z" 
                              vector-effect="non-scaling-stroke"/><path d="M195 329 L137 399 L150 327 z" 
                              vector-effect="non-scaling-stroke"/></g></svg>