
            <svg version="1.1" xmlns="http://www.w3.org/2000/svg" 
                width="600" height="167.1195652173913" viewBox="29 277 740 209"><path d="M31 283 L86 436 L127 438 L129 286 L275 285 L278 436 L326 436 L327 285 L471 285 L475 436 L522 435 L522 283 L664 282 L669 431 L714 432 L765 279 L767 478 L624 484 L621 337 L574 337 L575 481 L429 482 L426 336 L376 337 L375 483 L229 483 L229 338 L177 340 L180 483 L34 482z" fill="gainsboro" stroke="black" stroke-width="3" 
                      vector-effect="non-scaling-stroke"/><g fill="none" stroke="black" stroke-width="1"><path d="M34 482 L31 283 L86 436 z" 
                              vector-effect="non-scaling-stroke"/><path d="M714 432 L765 279 L767 478 z" 
                              vector-effect="non-scaling-stroke"/><path d="M127 438 L180 483 L34 482 z" 
                              vector-effect="non-scaling-stroke"/><path d="M34 482 L86 436 L127 438 z" 
                              vector-effect="non-scaling-stroke"/><path d="M714 432 L767 478 L624 484 z" 
                              vector-effect="non-scaling-stroke"/><path d="M669 431 L714 432 L624 484 z" 
                              vector-effect="non-scaling-stroke"/><path d="M669 431 L624 484 L621 337 z" 
                              vector-effect="non-scaling-stroke"/><path d="M664 282 L669 431 L621 337 z" 
                              vector-effect="non-scaling-stroke"/><path d="M177 340 L180 483 L127 438 z" 
                              vector-effect="non-scaling-stroke"/><path d="M177 340 L127 438 L129 286 z" 
                              vector-effect="non-scaling-stroke"/><path d="M229 338 L177 340 L129 286 z" 
                              vector-effect="non-scaling-stroke"/><path d="M129 286 L275 285 L229 338 z" 
                              vector-effect="non-scaling-stroke"/><path d="M229 338 L275 285 L278 436 z" 
                              vector-effect="non-scaling-stroke"/><path d="M229 483 L229 338 L278 436 z" 
                              vector-effect="non-scaling-stroke"/><path d="M375 483 L229 483 L278 436 z" 
                              vector-effect="non-scaling-stroke"/><path d="M375 483 L278 436 L326 436 z" 
                              vector-effect="non-scaling-stroke"/><path d="M376 337 L375 483 L326 436 z" 
                              vector-effect="non-scaling-stroke"/><path d="M376 337 L326 436 L327 285 z" 
                              vector-effect="non-scaling-stroke"/><path d="M376 337 L327 285 L471 285 z" 
                              vector-effect="non-scaling-stroke"/><path d="M426 336 L376 337 L471 285 z" 
                              vector-effect="non-scaling-stroke"/><path d="M426 336 L471 285 L475 436 z" 
                              vector-effect="non-scaling-stroke"/><path d="M429 482 L426 336 L475 436 z" 
                              vector-effect="non-scaling-stroke"/><path d="M522 435 L575 481 L429 482 z" 
                              vector-effect="non-scaling-stroke"/><path d="M429 482 L475 436 L522 435 z" 
                              vector-effect="non-scaling-stroke"/><path d="M574 337 L575 481 L522 435 z" 
                              vector-effect="non-scaling-stroke"/><path d="M574 337 L522 435 L522 283 z" 
                              vector-effect="non-scaling-stroke"/><path d="M574 337 L522 283 L664 282 z" 
                              vector-effect="non-scaling-stroke"/><path d="M574 337 L664 282 L621 337 z" 
                              vector-effect="non-scaling-stroke"/></g></svg>