
            <svg version="1.1" xmlns="http://www.w3.org/2000/svg" 
                width="388.69908015768726" height="600" viewBox="104 19 497 765"><path d="M131 35 L154 23 L180 21 L206 27 L228 42 L242 58 L273 61 L302 71 L339 76 L370 86 L393 93 L408 104 L441 117 L462 140 L471 156 L488 159 L494 162 L504 154 L522 135 L542 128 L569 126 L588 138 L599 161 L599 180 L589 195 L571 208 L561 215 L544 215 L524 221 L521 234 L534 262 L546 294 L546 323 L536 347 L533 405 L540 429 L540 491 L542 515 L536 547 L528 563 L510 582 L505 579 L508 573 L493 571 L493 559 L499 563 L513 560 L514 538 L505 538 L501 551 L493 559 L493 571 L479 614 L467 663 L456 706 L467 732 L488 741 L511 749 L533 754 L541 768 L516 778 L492 778 L441 772 L416 770 L414 757 L420 734 L419 671 L421 634 L416 616 L382 646 L334 674 L322 693 L309 740 L308 764 L302 782 L292 780 L280 779 L279 763 L278 754 L280 735 L278 712 L265 686 L266 676 L273 670 L294 662 L343 614 L353 594 L414 552 L398 533 L377 513 L357 490 L326 462 L389 386 L392 395 L435 441 L475 484 L485 496 L498 507 L500 522 L507 514 L516 510 L498 459 L496 428 L497 416 L492 378 L490 351 L494 322 L481 314 L467 320 L452 321 L441 331 L426 335 L402 344 L398 366 L389 386 L326 462 L304 452 L284 442 L269 414 L267 379 L274 348 L291 309 L310 255 L320 242 L332 221 L368 178 L395 149 L374 139 L331 128 L313 116 L292 112 L256 104 L246 131 L229 147 L205 158 L175 158 L150 148 L131 134 L120 119 L112 94 L112 79 L106 73 L107 63 L107 58 L111 53 L113 47 L117 43 L120 38z" fill="gainsboro" stroke="black" stroke-width="3" 
                      vector-effect="non-scaling-stroke"/><g fill="none" stroke="black" stroke-width="1"><path d="M493 571 L493 559 L499 563 z" 
                              vector-effect="non-scaling-stroke"/><path d="M326 462 L389 386 L392 395 z" 
                              vector-effect="non-scaling-stroke"/><path d="M508 573 L493 571 L499 563 z" 
                              vector-effect="non-scaling-stroke"/><path d="M508 573 L499 563 L513 560 z" 
                              vector-effect="non-scaling-stroke"/><path d="M533 754 L541 768 L516 778 z" 
                              vector-effect="non-scaling-stroke"/><path d="M511 749 L533 754 L516 778 z" 
                              vector-effect="non-scaling-stroke"/><path d="M511 749 L516 778 L492 778 z" 
                              vector-effect="non-scaling-stroke"/><path d="M488 741 L511 749 L492 778 z" 
                              vector-effect="non-scaling-stroke"/><path d="M488 741 L492 778 L441 772 z" 
                              vector-effect="non-scaling-stroke"/><path d="M467 732 L488 741 L441 772 z" 
                              vector-effect="non-scaling-stroke"/><path d="M357 490 L326 462 L392 395 z" 
                              vector-effect="non-scaling-stroke"/><path d="M357 490 L392 395 L435 441 z" 
                              vector-effect="non-scaling-stroke"/><path d="M377 513 L357 490 L435 441 z" 
                              vector-effect="non-scaling-stroke"/><path d="M398 533 L377 513 L435 441 z" 
                              vector-effect="non-scaling-stroke"/><path d="M435 441 L475 484 L398 533 z" 
                              vector-effect="non-scaling-stroke"/><path d="M414 552 L398 533 L475 484 z" 
                              vector-effect="non-scaling-stroke"/><path d="M414 552 L475 484 L485 496 z" 
                              vector-effect="non-scaling-stroke"/><path d="M510 582 L505 579 L508 573 z" 
                              vector-effect="non-scaling-stroke"/><path d="M528 563 L510 582 L508 573 z" 
                              vector-effect="non-scaling-stroke"/><path d="M528 563 L508 573 L513 560 z" 
                              vector-effect="non-scaling-stroke"/><path d="M308 764 L302 782 L292 780 z" 
                              vector-effect="non-scaling-stroke"/><path d="M292 780 L280 779 L279 763 z" 
                              vector-effect="non-scaling-stroke"/><path d="M308 764 L292 780 L279 763 z" 
                              vector-effect="non-scaling-stroke"/><path d="M278 754 L309 740 L308 764 z" 
                              vector-effect="non-scaling-stroke"/><path d="M308 764 L279 763 L278 754 z" 
                              vector-effect="non-scaling-stroke"/><path d="M309 740 L278 754 L280 735 z" 
                              vector-effect="non-scaling-stroke"/><path d="M278 712 L322 693 L309 740 z" 
                              vector-effect="non-scaling-stroke"/><path d="M309 740 L280 735 L278 712 z" 
                              vector-effect="non-scaling-stroke"/><path d="M294 662 L322 693 L278 712 z" 
                              vector-effect="non-scaling-stroke"/><path d="M278 712 L265 686 L273 670 z" 
                              vector-effect="non-scaling-stroke"/><path d="M265 686 L266 676 L273 670 z" 
                              vector-effect="non-scaling-stroke"/><path d="M278 712 L273 670 L294 662 z" 
                              vector-effect="non-scaling-stroke"/><path d="M334 674 L322 693 L294 662 z" 
                              vector-effect="non-scaling-stroke"/><path d="M334 674 L294 662 L343 614 z" 
                              vector-effect="non-scaling-stroke"/><path d="M382 646 L334 674 L343 614 z" 
                              vector-effect="non-scaling-stroke"/><path d="M536 547 L528 563 L513 560 z" 
                              vector-effect="non-scaling-stroke"/><path d="M513 560 L514 538 L536 547 z" 
                              vector-effect="non-scaling-stroke"/><path d="M542 515 L536 547 L514 538 z" 
                              vector-effect="non-scaling-stroke"/><path d="M353 594 L416 616 L382 646 z" 
                              vector-effect="non-scaling-stroke"/><path d="M382 646 L343 614 L353 594 z" 
                              vector-effect="non-scaling-stroke"/><path d="M416 616 L353 594 L414 552 z" 
                              vector-effect="non-scaling-stroke"/><path d="M500 522 L414 552 L485 496 z" 
                              vector-effect="non-scaling-stroke"/><path d="M485 496 L498 507 L500 522 z" 
                              vector-effect="non-scaling-stroke"/><path d="M441 772 L416 770 L414 757 z" 
                              vector-effect="non-scaling-stroke"/><path d="M420 734 L467 732 L441 772 z" 
                              vector-effect="non-scaling-stroke"/><path d="M441 772 L414 757 L420 734 z" 
                              vector-effect="non-scaling-stroke"/><path d="M456 706 L467 732 L420 734 z" 
                              vector-effect="non-scaling-stroke"/><path d="M456 706 L420 734 L419 671 z" 
                              vector-effect="non-scaling-stroke"/><path d="M467 663 L456 706 L419 671 z" 
                              vector-effect="non-scaling-stroke"/><path d="M467 663 L419 671 L421 634 z" 
                              vector-effect="non-scaling-stroke"/><path d="M479 614 L467 663 L421 634 z" 
                              vector-effect="non-scaling-stroke"/><path d="M479 614 L421 634 L416 616 z" 
                              vector-effect="non-scaling-stroke"/><path d="M479 614 L416 616 L414 552 z" 
                              vector-effect="non-scaling-stroke"/><path d="M493 571 L479 614 L414 552 z" 
                              vector-effect="non-scaling-stroke"/><path d="M389 386 L326 462 L304 452 z" 
                              vector-effect="non-scaling-stroke"/><path d="M269 414 L389 386 L304 452 z" 
                              vector-effect="non-scaling-stroke"/><path d="M304 452 L284 442 L269 414 z" 
                              vector-effect="non-scaling-stroke"/><path d="M389 386 L269 414 L267 379 z" 
                              vector-effect="non-scaling-stroke"/><path d="M389 386 L267 379 L274 348 z" 
                              vector-effect="non-scaling-stroke"/><path d="M389 386 L274 348 L291 309 z" 
                              vector-effect="non-scaling-stroke"/><path d="M398 366 L389 386 L291 309 z" 
                              vector-effect="non-scaling-stroke"/><path d="M402 344 L398 366 L291 309 z" 
                              vector-effect="non-scaling-stroke"/><path d="M402 344 L291 309 L310 255 z" 
                              vector-effect="non-scaling-stroke"/><path d="M402 344 L310 255 L320 242 z" 
                              vector-effect="non-scaling-stroke"/><path d="M426 335 L402 344 L320 242 z" 
                              vector-effect="non-scaling-stroke"/><path d="M426 335 L320 242 L332 221 z" 
                              vector-effect="non-scaling-stroke"/><path d="M452 321 L426 335 L332 221 z" 
                              vector-effect="non-scaling-stroke"/><path d="M452 321 L441 331 L426 335 z" 
                              vector-effect="non-scaling-stroke"/><path d="M332 221 L368 178 L452 321 z" 
                              vector-effect="non-scaling-stroke"/><path d="M521 234 L481 314 L452 321 z" 
                              vector-effect="non-scaling-stroke"/><path d="M481 314 L467 320 L452 321 z" 
                              vector-effect="non-scaling-stroke"/><path d="M521 234 L452 321 L368 178 z" 
                              vector-effect="non-scaling-stroke"/><path d="M516 510 L540 491 L542 515 z" 
                              vector-effect="non-scaling-stroke"/><path d="M542 515 L514 538 L516 510 z" 
                              vector-effect="non-scaling-stroke"/><path d="M112 79 L106 73 L107 63 z" 
                              vector-effect="non-scaling-stroke"/><path d="M117 43 L120 38 L131 35 z" 
                              vector-effect="non-scaling-stroke"/><path d="M107 63 L107 58 L111 53 z" 
                              vector-effect="non-scaling-stroke"/><path d="M112 79 L107 63 L111 53 z" 
                              vector-effect="non-scaling-stroke"/><path d="M542 128 L569 126 L588 138 z" 
                              vector-effect="non-scaling-stroke"/><path d="M542 128 L588 138 L599 161 z" 
                              vector-effect="non-scaling-stroke"/><path d="M589 195 L542 128 L599 161 z" 
                              vector-effect="non-scaling-stroke"/><path d="M599 161 L599 180 L589 195 z" 
                              vector-effect="non-scaling-stroke"/><path d="M542 128 L589 195 L571 208 z" 
                              vector-effect="non-scaling-stroke"/><path d="M544 215 L522 135 L542 128 z" 
                              vector-effect="non-scaling-stroke"/><path d="M544 215 L504 154 L522 135 z" 
                              vector-effect="non-scaling-stroke"/><path d="M542 128 L571 208 L544 215 z" 
                              vector-effect="non-scaling-stroke"/><path d="M571 208 L561 215 L544 215 z" 
                              vector-effect="non-scaling-stroke"/><path d="M504 154 L544 215 L524 221 z" 
                              vector-effect="non-scaling-stroke"/><path d="M494 162 L504 154 L524 221 z" 
                              vector-effect="non-scaling-stroke"/><path d="M471 156 L494 162 L524 221 z" 
                              vector-effect="non-scaling-stroke"/><path d="M471 156 L488 159 L494 162 z" 
                              vector-effect="non-scaling-stroke"/><path d="M524 221 L521 234 L471 156 z" 
                              vector-effect="non-scaling-stroke"/><path d="M534 262 L494 322 L481 314 z" 
                              vector-effect="non-scaling-stroke"/><path d="M500 522 L505 538 L501 551 z" 
                              vector-effect="non-scaling-stroke"/><path d="M111 53 L113 47 L117 43 z" 
                              vector-effect="non-scaling-stroke"/><path d="M131 35 L112 79 L111 53 z" 
                              vector-effect="non-scaling-stroke"/><path d="M111 53 L117 43 L131 35 z" 
                              vector-effect="non-scaling-stroke"/><path d="M112 79 L131 35 L154 23 z" 
                              vector-effect="non-scaling-stroke"/><path d="M112 79 L154 23 L180 21 z" 
                              vector-effect="non-scaling-stroke"/><path d="M112 94 L112 79 L180 21 z" 
                              vector-effect="non-scaling-stroke"/><path d="M120 119 L112 94 L180 21 z" 
                              vector-effect="non-scaling-stroke"/><path d="M180 21 L206 27 L120 119 z" 
                              vector-effect="non-scaling-stroke"/><path d="M131 134 L120 119 L206 27 z" 
                              vector-effect="non-scaling-stroke"/><path d="M150 148 L131 134 L206 27 z" 
                              vector-effect="non-scaling-stroke"/><path d="M206 27 L228 42 L150 148 z" 
                              vector-effect="non-scaling-stroke"/><path d="M242 58 L175 158 L150 148 z" 
                              vector-effect="non-scaling-stroke"/><path d="M242 58 L205 158 L175 158 z" 
                              vector-effect="non-scaling-stroke"/><path d="M150 148 L228 42 L242 58 z" 
                              vector-effect="non-scaling-stroke"/><path d="M229 147 L205 158 L242 58 z" 
                              vector-effect="non-scaling-stroke"/><path d="M256 104 L246 131 L229 147 z" 
                              vector-effect="non-scaling-stroke"/><path d="M229 147 L242 58 L256 104 z" 
                              vector-effect="non-scaling-stroke"/><path d="M256 104 L242 58 L273 61 z" 
                              vector-effect="non-scaling-stroke"/><path d="M292 112 L256 104 L273 61 z" 
                              vector-effect="non-scaling-stroke"/><path d="M292 112 L273 61 L302 71 z" 
                              vector-effect="non-scaling-stroke"/><path d="M313 116 L292 112 L302 71 z" 
                              vector-effect="non-scaling-stroke"/><path d="M313 116 L302 71 L339 76 z" 
                              vector-effect="non-scaling-stroke"/><path d="M331 128 L313 116 L339 76 z" 
                              vector-effect="non-scaling-stroke"/><path d="M331 128 L339 76 L370 86 z" 
                              vector-effect="non-scaling-stroke"/><path d="M374 139 L331 128 L370 86 z" 
                              vector-effect="non-scaling-stroke"/><path d="M374 139 L370 86 L393 93 z" 
                              vector-effect="non-scaling-stroke"/><path d="M374 139 L393 93 L408 104 z" 
                              vector-effect="non-scaling-stroke"/><path d="M395 149 L374 139 L408 104 z" 
                              vector-effect="non-scaling-stroke"/><path d="M395 149 L408 104 L441 117 z" 
                              vector-effect="non-scaling-stroke"/><path d="M471 156 L368 178 L395 149 z" 
                              vector-effect="non-scaling-stroke"/><path d="M395 149 L441 117 L462 140 z" 
                              vector-effect="non-scaling-stroke"/><path d="M395 149 L462 140 L471 156 z" 
                              vector-effect="non-scaling-stroke"/><path d="M368 178 L471 156 L521 234 z" 
                              vector-effect="non-scaling-stroke"/><path d="M481 314 L521 234 L534 262 z" 
                              vector-effect="non-scaling-stroke"/><path d="M494 322 L534 262 L546 294 z" 
                              vector-effect="non-scaling-stroke"/><path d="M494 322 L546 294 L546 323 z" 
                              vector-effect="non-scaling-stroke"/><path d="M494 322 L546 323 L536 347 z" 
                              vector-effect="non-scaling-stroke"/><path d="M490 351 L494 322 L536 347 z" 
                              vector-effect="non-scaling-stroke"/><path d="M492 378 L490 351 L536 347 z" 
                              vector-effect="non-scaling-stroke"/><path d="M536 347 L533 405 L492 378 z" 
                              vector-effect="non-scaling-stroke"/><path d="M497 416 L492 378 L533 405 z" 
                              vector-effect="non-scaling-stroke"/><path d="M497 416 L533 405 L540 429 z" 
                              vector-effect="non-scaling-stroke"/><path d="M496 428 L497 416 L540 429 z" 
                              vector-effect="non-scaling-stroke"/><path d="M498 459 L496 428 L540 429 z" 
                              vector-effect="non-scaling-stroke"/><path d="M498 459 L540 429 L540 491 z" 
                              vector-effect="non-scaling-stroke"/><path d="M516 510 L498 459 L540 491 z" 
                              vector-effect="non-scaling-stroke"/><path d="M507 514 L516 510 L514 538 z" 
                              vector-effect="non-scaling-stroke"/><path d="M500 522 L507 514 L514 538 z" 
                              vector-effect="non-scaling-stroke"/><path d="M514 538 L505 538 L500 522 z" 
                              vector-effect="non-scaling-stroke"/><path d="M501 551 L493 559 L500 522 z" 
                              vector-effect="non-scaling-stroke"/><path d="M414 552 L500 522 L493 559 z" 
                              vector-effect="non-scaling-stroke"/><path d="M414 552 L493 559 L493 571 z" 
                              vector-effect="non-scaling-stroke"/></g></svg>