
            <svg version="1.1" xmlns="http://www.w3.org/2000/svg" 
                width="553.063885267275" height="600" viewBox="47 8 711 771"><path d="M245 11 L267 10 L284 23 L311 26 L335 55 L348 75 L344 102 L360 146 L350 211 L332 220 L274 216 L264 213 L213 250 L195 278 L145 311 L140 349 L150 353 L167 337 L263 274 L296 270 L325 288 L324 348 L300 382 L329 385 L333 372 L384 331 L386 302 L378 287 L377 233 L394 202 L394 168 L379 136 L366 100 L366 74 L390 48 L406 48 L422 75 L433 75 L487 49 L541 25 L596 17 L625 45 L625 82 L639 98 L636 123 L617 135 L577 137 L468 210 L420 210 L414 238 L423 259 L424 291 L440 296 L444 324 L462 359 L506 297 L535 277 L523 269 L444 324 L440 296 L484 264 L552 214 L612 177 L647 177 L655 190 L655 228 L642 249 L570 300 L600 335 L606 358 L592 381 L511 403 L431 426 L410 444 L393 481 L384 550 L386 605 L394 622 L400 681 L400 694 L415 707 L416 736 L441 736 L437 687 L407 675 L400 681 L394 622 L432 617 L455 595 L456 557 L421 558 L406 540 L428 529 L457 491 L518 442 L531 504 L543 510 L553 569 L574 580 L596 580 L604 594 L625 587 L640 516 L613 482 L531 504 L518 442 L580 404 L632 400 L682 414 L724 447 L756 499 L753 556 L728 607 L692 672 L645 734 L605 769 L550 768 L521 758 L537 706 L556 715 L566 701 L583 692 L594 677 L595 653 L602 612 L554 629 L542 656 L537 706 L521 758 L486 756 L448 768 L408 759 L372 738 L322 653 L315 603 L313 536 L351 464 L363 470 L395 432 L419 416 L388 402 L366 422 L351 464 L313 536 L300 531 L292 600 L301 723 L300 763 L291 771 L256 777 L234 765 L220 738 L219 661 L217 620 L208 616 L176 651 L142 682 L110 685 L57 632 L49 593 L55 562 L64 558 L79 558 L119 514 L144 491 L158 485 L158 468 L116 466 L76 442 L58 403 L61 357 L68 337 L112 291 L193 223 L234 197 L217 183 L205 158 L201 116 L202 71 L214 29z" fill="gainsboro" stroke="black" stroke-width="3" 
                      vector-effect="non-scaling-stroke"/><g fill="none" stroke="black" stroke-width="1"><path d="M407 675 L400 681 L394 622 z" 
                              vector-effect="non-scaling-stroke"/><path d="M457 491 L518 442 L531 504 z" 
                              vector-effect="non-scaling-stroke"/><path d="M484 264 L523 269 L444 324 z" 
                              vector-effect="non-scaling-stroke"/><path d="M444 324 L440 296 L484 264 z" 
                              vector-effect="non-scaling-stroke"/><path d="M523 269 L484 264 L552 214 z" 
                              vector-effect="non-scaling-stroke"/><path d="M421 558 L406 540 L428 529 z" 
                              vector-effect="non-scaling-stroke"/><path d="M456 557 L421 558 L428 529 z" 
                              vector-effect="non-scaling-stroke"/><path d="M521 758 L537 706 L556 715 z" 
                              vector-effect="non-scaling-stroke"/><path d="M550 768 L521 758 L556 715 z" 
                              vector-effect="non-scaling-stroke"/><path d="M407 675 L394 622 L432 617 z" 
                              vector-effect="non-scaling-stroke"/><path d="M605 769 L550 768 L556 715 z" 
                              vector-effect="non-scaling-stroke"/><path d="M613 482 L531 504 L518 442 z" 
                              vector-effect="non-scaling-stroke"/><path d="M613 482 L518 442 L580 404 z" 
                              vector-effect="non-scaling-stroke"/><path d="M613 482 L580 404 L632 400 z" 
                              vector-effect="non-scaling-stroke"/><path d="M613 482 L632 400 L682 414 z" 
                              vector-effect="non-scaling-stroke"/><path d="M437 687 L407 675 L432 617 z" 
                              vector-effect="non-scaling-stroke"/><path d="M583 692 L645 734 L605 769 z" 
                              vector-effect="non-scaling-stroke"/><path d="M583 692 L605 769 L556 715 z" 
                              vector-effect="non-scaling-stroke"/><path d="M556 715 L566 701 L583 692 z" 
                              vector-effect="non-scaling-stroke"/><path d="M645 734 L583 692 L594 677 z" 
                              vector-effect="non-scaling-stroke"/><path d="M692 672 L645 734 L594 677 z" 
                              vector-effect="non-scaling-stroke"/><path d="M692 672 L594 677 L595 653 z" 
                              vector-effect="non-scaling-stroke"/><path d="M313 536 L351 464 L363 470 z" 
                              vector-effect="non-scaling-stroke"/><path d="M692 672 L595 653 L602 612 z" 
                              vector-effect="non-scaling-stroke"/><path d="M625 587 L728 607 L692 672 z" 
                              vector-effect="non-scaling-stroke"/><path d="M535 277 L523 269 L552 214 z" 
                              vector-effect="non-scaling-stroke"/><path d="M640 516 L613 482 L682 414 z" 
                              vector-effect="non-scaling-stroke"/><path d="M640 516 L682 414 L724 447 z" 
                              vector-effect="non-scaling-stroke"/><path d="M640 516 L724 447 L756 499 z" 
                              vector-effect="non-scaling-stroke"/><path d="M640 516 L756 499 L753 556 z" 
                              vector-effect="non-scaling-stroke"/><path d="M728 607 L625 587 L640 516 z" 
                              vector-effect="non-scaling-stroke"/><path d="M640 516 L753 556 L728 607 z" 
                              vector-effect="non-scaling-stroke"/><path d="M692 672 L602 612 L625 587 z" 
                              vector-effect="non-scaling-stroke"/><path d="M604 594 L625 587 L602 612 z" 
                              vector-effect="non-scaling-stroke"/><path d="M351 464 L313 536 L300 531 z" 
                              vector-effect="non-scaling-stroke"/><path d="M456 557 L428 529 L457 491 z" 
                              vector-effect="non-scaling-stroke"/><path d="M456 557 L457 491 L531 504 z" 
                              vector-effect="non-scaling-stroke"/><path d="M537 706 L521 758 L486 756 z" 
                              vector-effect="non-scaling-stroke"/><path d="M424 291 L440 296 L444 324 z" 
                              vector-effect="non-scaling-stroke"/><path d="M574 580 L596 580 L604 594 z" 
                              vector-effect="non-scaling-stroke"/><path d="M604 594 L602 612 L574 580 z" 
                              vector-effect="non-scaling-stroke"/><path d="M602 612 L554 629 L574 580 z" 
                              vector-effect="non-scaling-stroke"/><path d="M553 569 L574 580 L554 629 z" 
                              vector-effect="non-scaling-stroke"/><path d="M553 569 L456 557 L531 504 z" 
                              vector-effect="non-scaling-stroke"/><path d="M531 504 L543 510 L553 569 z" 
                              vector-effect="non-scaling-stroke"/><path d="M455 595 L456 557 L553 569 z" 
                              vector-effect="non-scaling-stroke"/><path d="M455 595 L553 569 L554 629 z" 
                              vector-effect="non-scaling-stroke"/><path d="M455 595 L554 629 L542 656 z" 
                              vector-effect="non-scaling-stroke"/><path d="M432 617 L455 595 L542 656 z" 
                              vector-effect="non-scaling-stroke"/><path d="M437 687 L432 617 L542 656 z" 
                              vector-effect="non-scaling-stroke"/><path d="M437 687 L542 656 L537 706 z" 
                              vector-effect="non-scaling-stroke"/><path d="M437 687 L537 706 L486 756 z" 
                              vector-effect="non-scaling-stroke"/><path d="M441 736 L437 687 L486 756 z" 
                              vector-effect="non-scaling-stroke"/><path d="M441 736 L486 756 L448 768 z" 
                              vector-effect="non-scaling-stroke"/><path d="M441 736 L448 768 L408 759 z" 
                              vector-effect="non-scaling-stroke"/><path d="M416 736 L441 736 L408 759 z" 
                              vector-effect="non-scaling-stroke"/><path d="M416 736 L408 759 L372 738 z" 
                              vector-effect="non-scaling-stroke"/><path d="M415 707 L416 736 L372 738 z" 
                              vector-effect="non-scaling-stroke"/><path d="M400 694 L415 707 L372 738 z" 
                              vector-effect="non-scaling-stroke"/><path d="M400 694 L372 738 L322 653 z" 
                              vector-effect="non-scaling-stroke"/><path d="M400 681 L400 694 L322 653 z" 
                              vector-effect="non-scaling-stroke"/><path d="M394 622 L400 681 L322 653 z" 
                              vector-effect="non-scaling-stroke"/><path d="M386 605 L394 622 L322 653 z" 
                              vector-effect="non-scaling-stroke"/><path d="M322 653 L315 603 L386 605 z" 
                              vector-effect="non-scaling-stroke"/><path d="M384 550 L386 605 L315 603 z" 
                              vector-effect="non-scaling-stroke"/><path d="M384 550 L315 603 L313 536 z" 
                              vector-effect="non-scaling-stroke"/><path d="M384 550 L313 536 L363 470 z" 
                              vector-effect="non-scaling-stroke"/><path d="M393 481 L384 550 L363 470 z" 
                              vector-effect="non-scaling-stroke"/><path d="M393 481 L363 470 L395 432 z" 
                              vector-effect="non-scaling-stroke"/><path d="M410 444 L393 481 L395 432 z" 
                              vector-effect="non-scaling-stroke"/><path d="M410 444 L395 432 L419 416 z" 
                              vector-effect="non-scaling-stroke"/><path d="M431 426 L410 444 L419 416 z" 
                              vector-effect="non-scaling-stroke"/><path d="M390 48 L406 48 L422 75 z" 
                              vector-effect="non-scaling-stroke"/><path d="M366 74 L390 48 L422 75 z" 
                              vector-effect="non-scaling-stroke"/><path d="M366 100 L366 74 L422 75 z" 
                              vector-effect="non-scaling-stroke"/><path d="M379 136 L366 100 L422 75 z" 
                              vector-effect="non-scaling-stroke"/><path d="M433 75 L394 168 L379 136 z" 
                              vector-effect="non-scaling-stroke"/><path d="M379 136 L422 75 L433 75 z" 
                              vector-effect="non-scaling-stroke"/><path d="M296 270 L325 288 L324 348 z" 
                              vector-effect="non-scaling-stroke"/><path d="M263 274 L296 270 L324 348 z" 
                              vector-effect="non-scaling-stroke"/><path d="M300 382 L167 337 L263 274 z" 
                              vector-effect="non-scaling-stroke"/><path d="M263 274 L324 348 L300 382 z" 
                              vector-effect="non-scaling-stroke"/><path d="M158 468 L150 353 L167 337 z" 
                              vector-effect="non-scaling-stroke"/><path d="M612 177 L647 177 L655 190 z" 
                              vector-effect="non-scaling-stroke"/><path d="M612 177 L655 190 L655 228 z" 
                              vector-effect="non-scaling-stroke"/><path d="M642 249 L552 214 L612 177 z" 
                              vector-effect="non-scaling-stroke"/><path d="M612 177 L655 228 L642 249 z" 
                              vector-effect="non-scaling-stroke"/><path d="M552 214 L642 249 L570 300 z" 
                              vector-effect="non-scaling-stroke"/><path d="M535 277 L552 214 L570 300 z" 
                              vector-effect="non-scaling-stroke"/><path d="M506 297 L535 277 L570 300 z" 
                              vector-effect="non-scaling-stroke"/><path d="M511 403 L462 359 L506 297 z" 
                              vector-effect="non-scaling-stroke"/><path d="M511 403 L506 297 L570 300 z" 
                              vector-effect="non-scaling-stroke"/><path d="M570 300 L600 335 L592 381 z" 
                              vector-effect="non-scaling-stroke"/><path d="M600 335 L606 358 L592 381 z" 
                              vector-effect="non-scaling-stroke"/><path d="M570 300 L592 381 L511 403 z" 
                              vector-effect="non-scaling-stroke"/><path d="M462 359 L511 403 L431 426 z" 
                              vector-effect="non-scaling-stroke"/><path d="M462 359 L431 426 L419 416 z" 
                              vector-effect="non-scaling-stroke"/><path d="M462 359 L419 416 L388 402 z" 
                              vector-effect="non-scaling-stroke"/><path d="M384 331 L444 324 L462 359 z" 
                              vector-effect="non-scaling-stroke"/><path d="M384 331 L386 302 L424 291 z" 
                              vector-effect="non-scaling-stroke"/><path d="M49 593 L55 562 L64 558 z" 
                              vector-effect="non-scaling-stroke"/><path d="M49 593 L64 558 L79 558 z" 
                              vector-effect="non-scaling-stroke"/><path d="M360 146 L350 211 L332 220 z" 
                              vector-effect="non-scaling-stroke"/><path d="M360 146 L332 220 L274 216 z" 
                              vector-effect="non-scaling-stroke"/><path d="M264 213 L344 102 L360 146 z" 
                              vector-effect="non-scaling-stroke"/><path d="M360 146 L274 216 L264 213 z" 
                              vector-effect="non-scaling-stroke"/><path d="M625 82 L541 25 L596 17 z" 
                              vector-effect="non-scaling-stroke"/><path d="M596 17 L625 45 L625 82 z" 
                              vector-effect="non-scaling-stroke"/><path d="M577 137 L487 49 L541 25 z" 
                              vector-effect="non-scaling-stroke"/><path d="M57 632 L49 593 L79 558 z" 
                              vector-effect="non-scaling-stroke"/><path d="M176 651 L142 682 L110 685 z" 
                              vector-effect="non-scaling-stroke"/><path d="M110 685 L57 632 L176 651 z" 
                              vector-effect="non-scaling-stroke"/><path d="M57 632 L79 558 L176 651 z" 
                              vector-effect="non-scaling-stroke"/><path d="M208 616 L176 651 L79 558 z" 
                              vector-effect="non-scaling-stroke"/><path d="M208 616 L79 558 L119 514 z" 
                              vector-effect="non-scaling-stroke"/><path d="M208 616 L119 514 L144 491 z" 
                              vector-effect="non-scaling-stroke"/><path d="M208 616 L144 491 L158 485 z" 
                              vector-effect="non-scaling-stroke"/><path d="M639 98 L636 123 L617 135 z" 
                              vector-effect="non-scaling-stroke"/><path d="M625 82 L639 98 L617 135 z" 
                              vector-effect="non-scaling-stroke"/><path d="M577 137 L541 25 L625 82 z" 
                              vector-effect="non-scaling-stroke"/><path d="M625 82 L617 135 L577 137 z" 
                              vector-effect="non-scaling-stroke"/><path d="M487 49 L577 137 L468 210 z" 
                              vector-effect="non-scaling-stroke"/><path d="M433 75 L487 49 L468 210 z" 
                              vector-effect="non-scaling-stroke"/><path d="M394 168 L433 75 L468 210 z" 
                              vector-effect="non-scaling-stroke"/><path d="M394 168 L468 210 L420 210 z" 
                              vector-effect="non-scaling-stroke"/><path d="M394 202 L394 168 L420 210 z" 
                              vector-effect="non-scaling-stroke"/><path d="M394 202 L420 210 L414 238 z" 
                              vector-effect="non-scaling-stroke"/><path d="M377 233 L394 202 L414 238 z" 
                              vector-effect="non-scaling-stroke"/><path d="M378 287 L377 233 L414 238 z" 
                              vector-effect="non-scaling-stroke"/><path d="M378 287 L414 238 L423 259 z" 
                              vector-effect="non-scaling-stroke"/><path d="M378 287 L423 259 L424 291 z" 
                              vector-effect="non-scaling-stroke"/><path d="M386 302 L378 287 L424 291 z" 
                              vector-effect="non-scaling-stroke"/><path d="M424 291 L444 324 L384 331 z" 
                              vector-effect="non-scaling-stroke"/><path d="M462 359 L388 402 L384 331 z" 
                              vector-effect="non-scaling-stroke"/><path d="M333 372 L384 331 L388 402 z" 
                              vector-effect="non-scaling-stroke"/><path d="M329 385 L333 372 L388 402 z" 
                              vector-effect="non-scaling-stroke"/><path d="M388 402 L366 422 L329 385 z" 
                              vector-effect="non-scaling-stroke"/><path d="M329 385 L366 422 L351 464 z" 
                              vector-effect="non-scaling-stroke"/><path d="M300 382 L329 385 L351 464 z" 
                              vector-effect="non-scaling-stroke"/><path d="M300 382 L351 464 L300 531 z" 
                              vector-effect="non-scaling-stroke"/><path d="M167 337 L300 382 L158 468 z" 
                              vector-effect="non-scaling-stroke"/><path d="M301 723 L300 763 L291 771 z" 
                              vector-effect="non-scaling-stroke"/><path d="M301 723 L291 771 L256 777 z" 
                              vector-effect="non-scaling-stroke"/><path d="M301 723 L256 777 L234 765 z" 
                              vector-effect="non-scaling-stroke"/><path d="M301 723 L234 765 L220 738 z" 
                              vector-effect="non-scaling-stroke"/><path d="M301 723 L220 738 L219 661 z" 
                              vector-effect="non-scaling-stroke"/><path d="M292 600 L301 723 L219 661 z" 
                              vector-effect="non-scaling-stroke"/><path d="M292 600 L219 661 L217 620 z" 
                              vector-effect="non-scaling-stroke"/><path d="M300 531 L292 600 L217 620 z" 
                              vector-effect="non-scaling-stroke"/><path d="M300 382 L300 531 L158 468 z" 
                              vector-effect="non-scaling-stroke"/><path d="M300 531 L217 620 L208 616 z" 
                              vector-effect="non-scaling-stroke"/><path d="M76 442 L140 349 L150 353 z" 
                              vector-effect="non-scaling-stroke"/><path d="M284 23 L311 26 L335 55 z" 
                              vector-effect="non-scaling-stroke"/><path d="M284 23 L202 71 L214 29 z" 
                              vector-effect="non-scaling-stroke"/><path d="M214 29 L245 11 L284 23 z" 
                              vector-effect="non-scaling-stroke"/><path d="M245 11 L267 10 L284 23 z" 
                              vector-effect="non-scaling-stroke"/><path d="M201 116 L202 71 L284 23 z" 
                              vector-effect="non-scaling-stroke"/><path d="M344 102 L201 116 L284 23 z" 
                              vector-effect="non-scaling-stroke"/><path d="M284 23 L335 55 L344 102 z" 
                              vector-effect="non-scaling-stroke"/><path d="M335 55 L348 75 L344 102 z" 
                              vector-effect="non-scaling-stroke"/><path d="M205 158 L201 116 L344 102 z" 
                              vector-effect="non-scaling-stroke"/><path d="M234 197 L217 183 L205 158 z" 
                              vector-effect="non-scaling-stroke"/><path d="M205 158 L344 102 L234 197 z" 
                              vector-effect="non-scaling-stroke"/><path d="M344 102 L264 213 L234 197 z" 
                              vector-effect="non-scaling-stroke"/><path d="M234 197 L264 213 L213 250 z" 
                              vector-effect="non-scaling-stroke"/><path d="M193 223 L234 197 L213 250 z" 
                              vector-effect="non-scaling-stroke"/><path d="M195 278 L112 291 L193 223 z" 
                              vector-effect="non-scaling-stroke"/><path d="M193 223 L213 250 L195 278 z" 
                              vector-effect="non-scaling-stroke"/><path d="M112 291 L195 278 L145 311 z" 
                              vector-effect="non-scaling-stroke"/><path d="M140 349 L68 337 L112 291 z" 
                              vector-effect="non-scaling-stroke"/><path d="M112 291 L145 311 L140 349 z" 
                              vector-effect="non-scaling-stroke"/><path d="M61 357 L68 337 L140 349 z" 
                              vector-effect="non-scaling-stroke"/><path d="M58 403 L61 357 L140 349 z" 
                              vector-effect="non-scaling-stroke"/><path d="M76 442 L58 403 L140 349 z" 
                              vector-effect="non-scaling-stroke"/><path d="M150 353 L116 466 L76 442 z" 
                              vector-effect="non-scaling-stroke"/><path d="M150 353 L158 468 L116 466 z" 
                              vector-effect="non-scaling-stroke"/><path d="M158 485 L158 468 L300 531 z" 
                              vector-effect="non-scaling-stroke"/><path d="M300 531 L208 616 L158 485 z" 
                              vector-effect="non-scaling-stroke"/></g></svg>