
            <svg version="1.1" xmlns="http://www.w3.org/2000/svg" 
                width="467.88990825688074" height="600" viewBox="110 15 599 767"><path d="M115 189 L175 282 L247 315 L318 263 L363 186 L428 95 L505 17 L506 155 L594 101 L579 216 L707 287 L616 516 L579 600 L513 540 L430 650 L384 583 L294 490 L285 780 L198 657 L112 746z" fill="gainsboro" stroke="black" stroke-width="3" 
                      vector-effect="non-scaling-stroke"/><g fill="none" stroke="black" stroke-width="1"><path d="M112 746 L115 189 L175 282 z" 
                              vector-effect="non-scaling-stroke"/><path d="M198 657 L112 746 L175 282 z" 
                              vector-effect="non-scaling-stroke"/><path d="M294 490 L285 780 L198 657 z" 
                              vector-effect="non-scaling-stroke"/><path d="M294 490 L198 657 L175 282 z" 
                              vector-effect="non-scaling-stroke"/><path d="M294 490 L175 282 L247 315 z" 
                              vector-effect="non-scaling-stroke"/><path d="M428 95 L505 17 L506 155 z" 
                              vector-effect="non-scaling-stroke"/><path d="M506 155 L594 101 L579 216 z" 
                              vector-effect="non-scaling-stroke"/><path d="M616 516 L579 600 L513 540 z" 
                              vector-effect="non-scaling-stroke"/><path d="M513 540 L430 650 L384 583 z" 
                              vector-effect="non-scaling-stroke"/><path d="M363 186 L428 95 L506 155 z" 
                              vector-effect="non-scaling-stroke"/><path d="M579 216 L707 287 L616 516 z" 
                              vector-effect="non-scaling-stroke"/><path d="M579 216 L616 516 L513 540 z" 
                              vector-effect="non-scaling-stroke"/><path d="M294 490 L247 315 L318 263 z" 
                              vector-effect="non-scaling-stroke"/><path d="M513 540 L384 583 L294 490 z" 
                              vector-effect="non-scaling-stroke"/><path d="M318 263 L579 216 L513 540 z" 
                              vector-effect="non-scaling-stroke"/><path d="M513 540 L294 490 L318 263 z" 
                              vector-effect="non-scaling-stroke"/><path d="M579 216 L318 263 L363 186 z" 
                              vector-effect="non-scaling-stroke"/><path d="M579 216 L363 186 L506 155 z" 
                              vector-effect="non-scaling-stroke"/></g></svg>