
            <svg version="1.1" xmlns="http://www.w3.org/2000/svg" 
                width="600" height="490.2631578947368" viewBox="22 109 764 625"><path d="M684 131 L705 111 L703 134 L720 112 L714 147 L737 171 L749 212 L784 267 L769 297 L741 302 L725 271 L692 249 L678 248 L657 237 L635 298 L635 319 L620 345 L616 410 L608 448 L588 474 L578 513 L566 547 L560 584 L548 616 L545 657 L547 694 L579 718 L579 730 L547 731 L542 725 L542 715 L534 706 L524 606 L513 633 L513 687 L521 705 L533 715 L536 725 L501 727 L498 706 L490 699 L493 626 L500 576 L500 485 L496 478 L360 474 L307 456 L263 434 L234 481 L214 548 L212 619 L228 664 L228 675 L256 701 L261 712 L255 717 L229 715 L223 711 L214 685 L201 677 L195 626 L185 578 L172 559 L171 531 L177 513 L141 545 L111 594 L107 635 L106 678 L126 700 L140 722 L139 728 L120 732 L96 721 L96 699 L79 690 L80 676 L90 641 L90 546 L124 499 L127 460 L111 411 L102 368 L107 335 L120 308 L118 301 L111 301 L97 330 L92 460 L89 514 L79 562 L70 592 L63 601 L62 581 L58 609 L48 605 L44 582 L39 596 L38 562 L34 577 L26 563 L25 542 L24 390 L33 351 L38 329 L39 318 L60 295 L89 280 L126 276 L145 273 L181 264 L271 264 L329 280 L398 282 L482 265 L532 214 L576 167 L624 141 L666 133z" fill="gainsboro" stroke="black" stroke-width="3" 
                      vector-effect="non-scaling-stroke"/><g fill="none" stroke="black" stroke-width="1"><path d="M44 582 L39 596 L38 562 z" 
                              vector-effect="non-scaling-stroke"/><path d="M703 134 L720 112 L714 147 z" 
                              vector-effect="non-scaling-stroke"/><path d="M70 592 L63 601 L62 581 z" 
                              vector-effect="non-scaling-stroke"/><path d="M684 131 L705 111 L703 134 z" 
                              vector-effect="non-scaling-stroke"/><path d="M38 562 L34 577 L26 563 z" 
                              vector-effect="non-scaling-stroke"/><path d="M79 562 L70 592 L62 581 z" 
                              vector-effect="non-scaling-stroke"/><path d="M62 581 L58 609 L48 605 z" 
                              vector-effect="non-scaling-stroke"/><path d="M62 581 L48 605 L44 582 z" 
                              vector-effect="non-scaling-stroke"/><path d="M533 715 L536 725 L501 727 z" 
                              vector-effect="non-scaling-stroke"/><path d="M521 705 L533 715 L501 727 z" 
                              vector-effect="non-scaling-stroke"/><path d="M521 705 L501 727 L498 706 z" 
                              vector-effect="non-scaling-stroke"/><path d="M513 687 L521 705 L498 706 z" 
                              vector-effect="non-scaling-stroke"/><path d="M513 687 L498 706 L490 699 z" 
                              vector-effect="non-scaling-stroke"/><path d="M513 687 L490 699 L493 626 z" 
                              vector-effect="non-scaling-stroke"/><path d="M513 633 L513 687 L493 626 z" 
                              vector-effect="non-scaling-stroke"/><path d="M38 562 L26 563 L25 542 z" 
                              vector-effect="non-scaling-stroke"/><path d="M579 718 L579 730 L547 731 z" 
                              vector-effect="non-scaling-stroke"/><path d="M542 715 L547 694 L579 718 z" 
                              vector-effect="non-scaling-stroke"/><path d="M542 715 L579 718 L547 731 z" 
                              vector-effect="non-scaling-stroke"/><path d="M547 731 L542 725 L542 715 z" 
                              vector-effect="non-scaling-stroke"/><path d="M547 694 L542 715 L534 706 z" 
                              vector-effect="non-scaling-stroke"/><path d="M545 657 L547 694 L534 706 z" 
                              vector-effect="non-scaling-stroke"/><path d="M534 706 L524 606 L545 657 z" 
                              vector-effect="non-scaling-stroke"/><path d="M548 616 L545 657 L524 606 z" 
                              vector-effect="non-scaling-stroke"/><path d="M560 584 L548 616 L524 606 z" 
                              vector-effect="non-scaling-stroke"/><path d="M524 606 L513 633 L493 626 z" 
                              vector-effect="non-scaling-stroke"/><path d="M524 606 L493 626 L500 576 z" 
                              vector-effect="non-scaling-stroke"/><path d="M560 584 L524 606 L500 576 z" 
                              vector-effect="non-scaling-stroke"/><path d="M566 547 L560 584 L500 576 z" 
                              vector-effect="non-scaling-stroke"/><path d="M566 547 L500 576 L500 485 z" 
                              vector-effect="non-scaling-stroke"/><path d="M578 513 L566 547 L500 485 z" 
                              vector-effect="non-scaling-stroke"/><path d="M588 474 L578 513 L500 485 z" 
                              vector-effect="non-scaling-stroke"/><path d="M62 581 L44 582 L38 562 z" 
                              vector-effect="non-scaling-stroke"/><path d="M79 562 L62 581 L38 562 z" 
                              vector-effect="non-scaling-stroke"/><path d="M25 542 L89 514 L79 562 z" 
                              vector-effect="non-scaling-stroke"/><path d="M79 562 L38 562 L25 542 z" 
                              vector-effect="non-scaling-stroke"/><path d="M92 460 L89 514 L25 542 z" 
                              vector-effect="non-scaling-stroke"/><path d="M25 542 L24 390 L92 460 z" 
                              vector-effect="non-scaling-stroke"/><path d="M97 330 L92 460 L24 390 z" 
                              vector-effect="non-scaling-stroke"/><path d="M97 330 L24 390 L33 351 z" 
                              vector-effect="non-scaling-stroke"/><path d="M97 330 L33 351 L38 329 z" 
                              vector-effect="non-scaling-stroke"/><path d="M97 330 L38 329 L39 318 z" 
                              vector-effect="non-scaling-stroke"/><path d="M97 330 L39 318 L60 295 z" 
                              vector-effect="non-scaling-stroke"/><path d="M97 330 L60 295 L89 280 z" 
                              vector-effect="non-scaling-stroke"/><path d="M111 301 L97 330 L89 280 z" 
                              vector-effect="non-scaling-stroke"/><path d="M111 301 L89 280 L126 276 z" 
                              vector-effect="non-scaling-stroke"/><path d="M118 301 L111 301 L126 276 z" 
                              vector-effect="non-scaling-stroke"/><path d="M256 701 L261 712 L255 717 z" 
                              vector-effect="non-scaling-stroke"/><path d="M256 701 L255 717 L229 715 z" 
                              vector-effect="non-scaling-stroke"/><path d="M223 711 L228 675 L256 701 z" 
                              vector-effect="non-scaling-stroke"/><path d="M256 701 L229 715 L223 711 z" 
                              vector-effect="non-scaling-stroke"/><path d="M228 675 L223 711 L214 685 z" 
                              vector-effect="non-scaling-stroke"/><path d="M769 297 L741 302 L725 271 z" 
                              vector-effect="non-scaling-stroke"/><path d="M784 267 L769 297 L725 271 z" 
                              vector-effect="non-scaling-stroke"/><path d="M749 212 L784 267 L725 271 z" 
                              vector-effect="non-scaling-stroke"/><path d="M749 212 L725 271 L692 249 z" 
                              vector-effect="non-scaling-stroke"/><path d="M737 171 L749 212 L692 249 z" 
                              vector-effect="non-scaling-stroke"/><path d="M657 237 L714 147 L737 171 z" 
                              vector-effect="non-scaling-stroke"/><path d="M657 237 L737 171 L692 249 z" 
                              vector-effect="non-scaling-stroke"/><path d="M692 249 L678 248 L657 237 z" 
                              vector-effect="non-scaling-stroke"/><path d="M684 131 L703 134 L714 147 z" 
                              vector-effect="non-scaling-stroke"/><path d="M666 133 L684 131 L714 147 z" 
                              vector-effect="non-scaling-stroke"/><path d="M714 147 L657 237 L666 133 z" 
                              vector-effect="non-scaling-stroke"/><path d="M624 141 L666 133 L657 237 z" 
                              vector-effect="non-scaling-stroke"/><path d="M576 167 L624 141 L657 237 z" 
                              vector-effect="non-scaling-stroke"/><path d="M532 214 L576 167 L657 237 z" 
                              vector-effect="non-scaling-stroke"/><path d="M532 214 L657 237 L635 298 z" 
                              vector-effect="non-scaling-stroke"/><path d="M482 265 L532 214 L635 298 z" 
                              vector-effect="non-scaling-stroke"/><path d="M620 345 L482 265 L635 298 z" 
                              vector-effect="non-scaling-stroke"/><path d="M635 298 L635 319 L620 345 z" 
                              vector-effect="non-scaling-stroke"/><path d="M140 722 L139 728 L120 732 z" 
                              vector-effect="non-scaling-stroke"/><path d="M126 700 L140 722 L120 732 z" 
                              vector-effect="non-scaling-stroke"/><path d="M126 700 L120 732 L96 721 z" 
                              vector-effect="non-scaling-stroke"/><path d="M126 700 L96 721 L96 699 z" 
                              vector-effect="non-scaling-stroke"/><path d="M106 678 L126 700 L96 699 z" 
                              vector-effect="non-scaling-stroke"/><path d="M106 678 L96 699 L79 690 z" 
                              vector-effect="non-scaling-stroke"/><path d="M106 678 L79 690 L80 676 z" 
                              vector-effect="non-scaling-stroke"/><path d="M106 678 L80 676 L90 641 z" 
                              vector-effect="non-scaling-stroke"/><path d="M107 635 L106 678 L90 641 z" 
                              vector-effect="non-scaling-stroke"/><path d="M111 594 L107 635 L90 641 z" 
                              vector-effect="non-scaling-stroke"/><path d="M90 641 L90 546 L111 594 z" 
                              vector-effect="non-scaling-stroke"/><path d="M141 545 L111 594 L90 546 z" 
                              vector-effect="non-scaling-stroke"/><path d="M141 545 L90 546 L124 499 z" 
                              vector-effect="non-scaling-stroke"/><path d="M177 513 L141 545 L124 499 z" 
                              vector-effect="non-scaling-stroke"/><path d="M177 513 L124 499 L127 460 z" 
                              vector-effect="non-scaling-stroke"/><path d="M588 474 L500 485 L496 478 z" 
                              vector-effect="non-scaling-stroke"/><path d="M228 675 L214 685 L201 677 z" 
                              vector-effect="non-scaling-stroke"/><path d="M228 664 L228 675 L201 677 z" 
                              vector-effect="non-scaling-stroke"/><path d="M201 677 L195 626 L228 664 z" 
                              vector-effect="non-scaling-stroke"/><path d="M212 619 L228 664 L195 626 z" 
                              vector-effect="non-scaling-stroke"/><path d="M212 619 L195 626 L185 578 z" 
                              vector-effect="non-scaling-stroke"/><path d="M214 548 L212 619 L185 578 z" 
                              vector-effect="non-scaling-stroke"/><path d="M214 548 L185 578 L172 559 z" 
                              vector-effect="non-scaling-stroke"/><path d="M214 548 L172 559 L171 531 z" 
                              vector-effect="non-scaling-stroke"/><path d="M177 513 L234 481 L214 548 z" 
                              vector-effect="non-scaling-stroke"/><path d="M214 548 L171 531 L177 513 z" 
                              vector-effect="non-scaling-stroke"/><path d="M234 481 L177 513 L127 460 z" 
                              vector-effect="non-scaling-stroke"/><path d="M263 434 L234 481 L127 460 z" 
                              vector-effect="non-scaling-stroke"/><path d="M263 434 L127 460 L111 411 z" 
                              vector-effect="non-scaling-stroke"/><path d="M263 434 L111 411 L102 368 z" 
                              vector-effect="non-scaling-stroke"/><path d="M263 434 L102 368 L107 335 z" 
                              vector-effect="non-scaling-stroke"/><path d="M263 434 L107 335 L120 308 z" 
                              vector-effect="non-scaling-stroke"/><path d="M496 478 L482 265 L620 345 z" 
                              vector-effect="non-scaling-stroke"/><path d="M118 301 L126 276 L145 273 z" 
                              vector-effect="non-scaling-stroke"/><path d="M120 308 L118 301 L145 273 z" 
                              vector-effect="non-scaling-stroke"/><path d="M181 264 L263 434 L120 308 z" 
                              vector-effect="non-scaling-stroke"/><path d="M120 308 L145 273 L181 264 z" 
                              vector-effect="non-scaling-stroke"/><path d="M263 434 L181 264 L271 264 z" 
                              vector-effect="non-scaling-stroke"/><path d="M263 434 L271 264 L329 280 z" 
                              vector-effect="non-scaling-stroke"/><path d="M307 456 L263 434 L329 280 z" 
                              vector-effect="non-scaling-stroke"/><path d="M307 456 L329 280 L398 282 z" 
                              vector-effect="non-scaling-stroke"/><path d="M360 474 L307 456 L398 282 z" 
                              vector-effect="non-scaling-stroke"/><path d="M496 478 L360 474 L398 282 z" 
                              vector-effect="non-scaling-stroke"/><path d="M496 478 L398 282 L482 265 z" 
                              vector-effect="non-scaling-stroke"/><path d="M620 345 L616 410 L496 478 z" 
                              vector-effect="non-scaling-stroke"/><path d="M608 448 L588 474 L496 478 z" 
                              vector-effect="non-scaling-stroke"/><path d="M496 478 L616 410 L608 448 z" 
                              vector-effect="non-scaling-stroke"/></g></svg>