
            <svg version="1.1" xmlns="http://www.w3.org/2000/svg" 
                width="600" height="581.3765182186235" viewBox="31 39 745 722"><path d="M173 89 L243 105 L275 93 L323 93 L338 58 L383 89 L445 42 L485 106 L534 68 L684 41 L730 69 L627 106 L641 116 L718 119 L730 151 L669 162 L716 186 L683 256 L536 275 L501 239 L485 195 L567 164 L610 162 L654 196 L641 225 L597 216 L608 185 L537 212 L550 247 L669 247 L681 195 L578 118 L536 128 L508 168 L476 168 L459 134 L368 192 L366 256 L474 273 L472 312 L412 311 L411 364 L498 375 L516 483 L635 514 L729 386 L595 337 L550 366 L565 428 L607 425 L576 388 L623 379 L650 411 L607 447 L549 448 L500 320 L670 313 L774 390 L683 532 L759 581 L608 759 L483 757 L335 634 L382 566 L429 577 L460 547 L514 570 L593 547 L679 583 L563 708 L498 709 L441 657 L472 621 L517 634 L483 653 L532 685 L575 655 L607 580 L410 607 L409 672 L499 735 L576 733 L715 581 L611 533 L349 502 L367 401 L292 402 L289 479 L218 410 L141 464 L92 605 L244 695 L276 614 L319 545 L184 513 L152 587 L214 617 L183 564 L257 590 L227 649 L126 589 L173 483 L350 532 L292 635 L275 741 L74 683 L33 575 L89 439 L152 388 L245 364 L258 331 L156 350 L168 318 L311 302 L312 288 L246 247 L142 271 L116 248 L141 222 L228 220 L277 182 L172 159 L78 190 L48 158 L80 124z" fill="gainsboro" stroke="black" stroke-width="3" 
                      vector-effect="non-scaling-stroke"/><g fill="none" stroke="black" stroke-width="1"><path d="M214 617 L183 564 L257 590 z" 
                              vector-effect="non-scaling-stroke"/><path d="M214 617 L257 590 L227 649 z" 
                              vector-effect="non-scaling-stroke"/><path d="M152 587 L214 617 L227 649 z" 
                              vector-effect="non-scaling-stroke"/><path d="M227 649 L126 589 L152 587 z" 
                              vector-effect="non-scaling-stroke"/><path d="M472 621 L517 634 L483 653 z" 
                              vector-effect="non-scaling-stroke"/><path d="M292 402 L289 479 L218 410 z" 
                              vector-effect="non-scaling-stroke"/><path d="M684 41 L730 69 L627 106 z" 
                              vector-effect="non-scaling-stroke"/><path d="M534 68 L684 41 L627 106 z" 
                              vector-effect="non-scaling-stroke"/><path d="M258 331 L156 350 L168 318 z" 
                              vector-effect="non-scaling-stroke"/><path d="M258 331 L168 318 L311 302 z" 
                              vector-effect="non-scaling-stroke"/><path d="M441 657 L472 621 L483 653 z" 
                              vector-effect="non-scaling-stroke"/><path d="M498 709 L441 657 L483 653 z" 
                              vector-effect="non-scaling-stroke"/><path d="M498 709 L483 653 L532 685 z" 
                              vector-effect="non-scaling-stroke"/><path d="M563 708 L498 709 L532 685 z" 
                              vector-effect="non-scaling-stroke"/><path d="M607 425 L576 388 L623 379 z" 
                              vector-effect="non-scaling-stroke"/><path d="M607 425 L623 379 L650 411 z" 
                              vector-effect="non-scaling-stroke"/><path d="M607 425 L650 411 L607 447 z" 
                              vector-effect="non-scaling-stroke"/><path d="M184 513 L152 587 L126 589 z" 
                              vector-effect="non-scaling-stroke"/><path d="M126 589 L173 483 L184 513 z" 
                              vector-effect="non-scaling-stroke"/><path d="M319 545 L184 513 L173 483 z" 
                              vector-effect="non-scaling-stroke"/><path d="M173 483 L350 532 L319 545 z" 
                              vector-effect="non-scaling-stroke"/><path d="M319 545 L350 532 L292 635 z" 
                              vector-effect="non-scaling-stroke"/><path d="M276 614 L319 545 L292 635 z" 
                              vector-effect="non-scaling-stroke"/><path d="M244 695 L276 614 L292 635 z" 
                              vector-effect="non-scaling-stroke"/><path d="M244 695 L292 635 L275 741 z" 
                              vector-effect="non-scaling-stroke"/><path d="M244 695 L275 741 L74 683 z" 
                              vector-effect="non-scaling-stroke"/><path d="M92 605 L244 695 L74 683 z" 
                              vector-effect="non-scaling-stroke"/><path d="M92 605 L74 683 L33 575 z" 
                              vector-effect="non-scaling-stroke"/><path d="M563 708 L532 685 L575 655 z" 
                              vector-effect="non-scaling-stroke"/><path d="M679 583 L563 708 L575 655 z" 
                              vector-effect="non-scaling-stroke"/><path d="M679 583 L575 655 L607 580 z" 
                              vector-effect="non-scaling-stroke"/><path d="M593 547 L679 583 L607 580 z" 
                              vector-effect="non-scaling-stroke"/><path d="M514 570 L593 547 L607 580 z" 
                              vector-effect="non-scaling-stroke"/><path d="M607 580 L410 607 L514 570 z" 
                              vector-effect="non-scaling-stroke"/><path d="M429 577 L460 547 L514 570 z" 
                              vector-effect="non-scaling-stroke"/><path d="M514 570 L410 607 L429 577 z" 
                              vector-effect="non-scaling-stroke"/><path d="M382 566 L429 577 L410 607 z" 
                              vector-effect="non-scaling-stroke"/><path d="M335 634 L382 566 L410 607 z" 
                              vector-effect="non-scaling-stroke"/><path d="M335 634 L410 607 L409 672 z" 
                              vector-effect="non-scaling-stroke"/><path d="M483 757 L335 634 L409 672 z" 
                              vector-effect="non-scaling-stroke"/><path d="M483 757 L409 672 L499 735 z" 
                              vector-effect="non-scaling-stroke"/><path d="M576 733 L608 759 L483 757 z" 
                              vector-effect="non-scaling-stroke"/><path d="M483 757 L499 735 L576 733 z" 
                              vector-effect="non-scaling-stroke"/><path d="M323 93 L338 58 L383 89 z" 
                              vector-effect="non-scaling-stroke"/><path d="M718 119 L730 151 L669 162 z" 
                              vector-effect="non-scaling-stroke"/><path d="M641 116 L718 119 L669 162 z" 
                              vector-effect="non-scaling-stroke"/><path d="M641 225 L597 216 L608 185 z" 
                              vector-effect="non-scaling-stroke"/><path d="M654 196 L641 225 L608 185 z" 
                              vector-effect="non-scaling-stroke"/><path d="M610 162 L654 196 L608 185 z" 
                              vector-effect="non-scaling-stroke"/><path d="M141 464 L92 605 L33 575 z" 
                              vector-effect="non-scaling-stroke"/><path d="M141 464 L33 575 L89 439 z" 
                              vector-effect="non-scaling-stroke"/><path d="M141 464 L89 439 L152 388 z" 
                              vector-effect="non-scaling-stroke"/><path d="M218 410 L141 464 L152 388 z" 
                              vector-effect="non-scaling-stroke"/><path d="M218 410 L152 388 L245 364 z" 
                              vector-effect="non-scaling-stroke"/><path d="M292 402 L218 410 L245 364 z" 
                              vector-effect="non-scaling-stroke"/><path d="M567 164 L610 162 L608 185 z" 
                              vector-effect="non-scaling-stroke"/><path d="M567 164 L608 185 L537 212 z" 
                              vector-effect="non-scaling-stroke"/><path d="M485 195 L567 164 L537 212 z" 
                              vector-effect="non-scaling-stroke"/><path d="M501 239 L485 195 L537 212 z" 
                              vector-effect="non-scaling-stroke"/><path d="M501 239 L537 212 L550 247 z" 
                              vector-effect="non-scaling-stroke"/><path d="M536 275 L501 239 L550 247 z" 
                              vector-effect="non-scaling-stroke"/><path d="M669 247 L683 256 L536 275 z" 
                              vector-effect="non-scaling-stroke"/><path d="M536 275 L550 247 L669 247 z" 
                              vector-effect="non-scaling-stroke"/><path d="M681 195 L716 186 L683 256 z" 
                              vector-effect="non-scaling-stroke"/><path d="M683 256 L669 247 L681 195 z" 
                              vector-effect="non-scaling-stroke"/><path d="M669 162 L716 186 L681 195 z" 
                              vector-effect="non-scaling-stroke"/><path d="M669 162 L681 195 L578 118 z" 
                              vector-effect="non-scaling-stroke"/><path d="M641 116 L669 162 L578 118 z" 
                              vector-effect="non-scaling-stroke"/><path d="M627 106 L641 116 L578 118 z" 
                              vector-effect="non-scaling-stroke"/><path d="M534 68 L627 106 L578 118 z" 
                              vector-effect="non-scaling-stroke"/><path d="M534 68 L578 118 L536 128 z" 
                              vector-effect="non-scaling-stroke"/><path d="M485 106 L534 68 L536 128 z" 
                              vector-effect="non-scaling-stroke"/><path d="M485 106 L536 128 L508 168 z" 
                              vector-effect="non-scaling-stroke"/><path d="M459 134 L485 106 L508 168 z" 
                              vector-effect="non-scaling-stroke"/><path d="M508 168 L476 168 L459 134 z" 
                              vector-effect="non-scaling-stroke"/><path d="M459 134 L383 89 L445 42 z" 
                              vector-effect="non-scaling-stroke"/><path d="M445 42 L485 106 L459 134 z" 
                              vector-effect="non-scaling-stroke"/><path d="M383 89 L459 134 L368 192 z" 
                              vector-effect="non-scaling-stroke"/><path d="M323 93 L383 89 L368 192 z" 
                              vector-effect="non-scaling-stroke"/><path d="M565 428 L607 425 L607 447 z" 
                              vector-effect="non-scaling-stroke"/><path d="M565 428 L607 447 L549 448 z" 
                              vector-effect="non-scaling-stroke"/><path d="M550 366 L565 428 L549 448 z" 
                              vector-effect="non-scaling-stroke"/><path d="M549 448 L500 320 L550 366 z" 
                              vector-effect="non-scaling-stroke"/><path d="M608 759 L576 733 L715 581 z" 
                              vector-effect="non-scaling-stroke"/><path d="M759 581 L608 759 L715 581 z" 
                              vector-effect="non-scaling-stroke"/><path d="M683 532 L759 581 L715 581 z" 
                              vector-effect="non-scaling-stroke"/><path d="M683 532 L715 581 L611 533 z" 
                              vector-effect="non-scaling-stroke"/><path d="M142 271 L116 248 L141 222 z" 
                              vector-effect="non-scaling-stroke"/><path d="M228 220 L246 247 L142 271 z" 
                              vector-effect="non-scaling-stroke"/><path d="M142 271 L141 222 L228 220 z" 
                              vector-effect="non-scaling-stroke"/><path d="M474 273 L472 312 L412 311 z" 
                              vector-effect="non-scaling-stroke"/><path d="M366 256 L474 273 L412 311 z" 
                              vector-effect="non-scaling-stroke"/><path d="M78 190 L48 158 L80 124 z" 
                              vector-effect="non-scaling-stroke"/><path d="M172 159 L78 190 L80 124 z" 
                              vector-effect="non-scaling-stroke"/><path d="M172 159 L80 124 L173 89 z" 
                              vector-effect="non-scaling-stroke"/><path d="M172 159 L173 89 L243 105 z" 
                              vector-effect="non-scaling-stroke"/><path d="M277 182 L172 159 L243 105 z" 
                              vector-effect="non-scaling-stroke"/><path d="M277 182 L243 105 L275 93 z" 
                              vector-effect="non-scaling-stroke"/><path d="M277 182 L275 93 L323 93 z" 
                              vector-effect="non-scaling-stroke"/><path d="M277 182 L323 93 L368 192 z" 
                              vector-effect="non-scaling-stroke"/><path d="M246 247 L228 220 L277 182 z" 
                              vector-effect="non-scaling-stroke"/><path d="M277 182 L368 192 L366 256 z" 
                              vector-effect="non-scaling-stroke"/><path d="M312 288 L246 247 L277 182 z" 
                              vector-effect="non-scaling-stroke"/><path d="M277 182 L366 256 L312 288 z" 
                              vector-effect="non-scaling-stroke"/><path d="M311 302 L312 288 L366 256 z" 
                              vector-effect="non-scaling-stroke"/><path d="M366 256 L412 311 L311 302 z" 
                              vector-effect="non-scaling-stroke"/><path d="M311 302 L412 311 L411 364 z" 
                              vector-effect="non-scaling-stroke"/><path d="M595 337 L550 366 L500 320 z" 
                              vector-effect="non-scaling-stroke"/><path d="M595 337 L500 320 L670 313 z" 
                              vector-effect="non-scaling-stroke"/><path d="M729 386 L595 337 L670 313 z" 
                              vector-effect="non-scaling-stroke"/><path d="M729 386 L670 313 L774 390 z" 
                              vector-effect="non-scaling-stroke"/><path d="M729 386 L774 390 L683 532 z" 
                              vector-effect="non-scaling-stroke"/><path d="M635 514 L729 386 L683 532 z" 
                              vector-effect="non-scaling-stroke"/><path d="M635 514 L683 532 L611 533 z" 
                              vector-effect="non-scaling-stroke"/><path d="M516 483 L635 514 L611 533 z" 
                              vector-effect="non-scaling-stroke"/><path d="M516 483 L611 533 L349 502 z" 
                              vector-effect="non-scaling-stroke"/><path d="M516 483 L349 502 L367 401 z" 
                              vector-effect="non-scaling-stroke"/><path d="M411 364 L498 375 L516 483 z" 
                              vector-effect="non-scaling-stroke"/><path d="M516 483 L367 401 L411 364 z" 
                              vector-effect="non-scaling-stroke"/><path d="M311 302 L411 364 L367 401 z" 
                              vector-effect="non-scaling-stroke"/><path d="M311 302 L367 401 L292 402 z" 
                              vector-effect="non-scaling-stroke"/><path d="M258 331 L311 302 L292 402 z" 
                              vector-effect="non-scaling-stroke"/><path d="M258 331 L292 402 L245 364 z" 
                              vector-effect="non-scaling-stroke"/></g></svg>