ply
format ascii 1.0
element vertex 32
property float x
property float y
property float z
element edge 32
property int vertex1
property int vertex2
end_header
579 51 0
712 59 0
716 182 0
744 300 0
748 345 0
749 389 0
732 470 0
716 510 0
692 551 0
648 618 0
585 670 0
471 699 0
372 729 0
282 711 0
169 643 0
88 562 0
50 226 0
120 159 0
252 183 0
244 350 0
137 234 0
137 350 0
323 487 0
293 103 0
365 78 0
508 459 0
496 279 0
575 276 0
665 382 0
628 119 0
598 228 0
474 154 0

0 1
1 2
2 3
3 4
4 5
5 6
6 7
7 8
8 9
9 10
10 11
11 12
12 13
13 14
14 15
15 16
16 17
17 18
18 19
19 20
20 21
21 22
22 23
23 24
24 25
25 26
26 27
27 28
28 29
29 30
30 31
31 0
