ply
format ascii 1.0
element vertex 64
property float x
property float y
property float z
element edge 64
property int vertex1
property int vertex2
end_header
367 54 0
311 110 0
237 170 0
287 158 0
385 166 0
490 221 0
676 190 0
450 140 0
367 158 0
345 144 0
357 131 0
414 110 0
471 98 0
549 64 0
675 141 0
700 198 0
746 228 0
735 254 0
705 262 0
637 463 0
714 446 0
723 356 0
740 562 0
680 503 0
505 381 0
442 367 0
599 465 0
676 672 0
602 583 0
464 679 0
221 708 0
277 668 0
236 660 0
499 520 0
534 455 0
402 550 0
311 478 0
316 468 0
343 462 0
441 351 0
470 355 0
633 262 0
652 243 0
601 240 0
526 275 0
519 270 0
371 187 0
355 250 0
309 305 0
210 354 0
324 358 0
324 441 0
222 554 0
86 547 0
108 507 0
215 493 0
284 412 0
166 415 0
141 394 0
65 474 0
80 363 0
102 303 0
241 136 0
207 147 0

0 1
1 2
2 3
3 4
4 5
5 6
6 7
7 8
8 9
9 10
10 11
11 12
12 13
13 14
14 15
15 16
16 17
17 18
18 19
19 20
20 21
21 22
22 23
23 24
24 25
25 26
26 27
27 28
28 29
29 30
30 31
31 32
32 33
33 34
34 35
35 36
36 37
37 38
38 39
39 40
40 41
41 42
42 43
43 44
44 45
45 46
46 47
47 48
48 49
49 50
50 51
51 52
52 53
53 54
54 55
55 56
56 57
57 58
58 59
59 60
60 61
61 62
62 63
63 0
