ply
format ascii 1.0
element vertex 33
property float x
property float y
property float z
element edge 33
property int vertex1
property int vertex2
end_header
376 44 0
421 42 0
437 86 0
442 127 0
417 178 0
418 199 0
484 218 0
576 401 0
541 419 0
468 280 0
441 360 0
467 416 0
469 462 0
462 605 0
462 763 0
419 763 0
421 606 0
399 462 0
376 607 0
378 762 0
334 762 0
334 606 0
328 461 0
328 420 0
356 359 0
329 278 0
254 420 0
219 404 0
312 221 0
376 199 0
380 177 0
355 129 0
361 84 0

0 1
1 2
2 3
3 4
4 5
5 6
6 7
7 8
8 9
9 10
10 11
11 12
12 13
13 14
14 15
15 16
16 17
17 18
18 19
19 20
20 21
21 22
22 23
23 24
24 25
25 26
26 27
27 28
28 29
29 30
30 31
31 32
32 0
