ply
format ascii 1.0
element vertex 53
property float x
property float y
property float z
element edge 53
property int vertex1
property int vertex2
end_header
128 240 0
232 226 0
225 327 0
304 290 0
379 194 0
506 263 0
615 277 0
630 203 0
688 187 0
733 372 0
673 585 0
550 621 0
502 579 0
577 541 0
527 469 0
459 504 0
350 467 0
274 499 0
269 576 0
203 542 0
129 570 0
54 503 0
90 430 0
128 438 0
92 358 0
152 359 0
201 392 0
180 444 0
223 467 0
269 356 0
314 356 0
424 321 0
460 285 0
495 319 0
497 282 0
425 248 0
350 284 0
350 319 0
367 429 0
425 466 0
447 381 0
385 385 0
498 403 0
555 379 0
585 382 0
616 313 0
528 350 0
609 541 0
643 507 0
651 481 0
666 518 0
680 422 0
623 424 0

0 1
1 2
2 3
3 4
4 5
5 6
6 7
7 8
8 9
9 10
10 11
11 12
12 13
13 14
14 15
15 16
16 17
17 18
18 19
19 20
20 21
21 22
22 23
23 24
24 0
25 26
26 27
27 28
28 29
29 25
30 31
31 32
32 33
33 34
34 35
35 36
36 37
37 30
38 39
39 40
40 41
41 38
42 43
43 44
44 45
45 46
46 42
47 48
48 49
49 50
50 51
51 52
52 47
