ply
format ascii 1.0
element vertex 61
property float x
property float y
property float z
element edge 61
property int vertex1
property int vertex2
end_header
84 196 0
99 196 0
121 202 0
143 209 0
172 225 0
204 241 0
239 263 0
278 286 0
316 307 0
350 329 0
386 348 0
419 364 0
450 377 0
483 394 0
512 403 0
542 414 0
568 423 0
592 426 0
618 432 0
642 435 0
664 435 0
684 433 0
703 433 0
722 427 0
737 424 0
748 422 0
760 423 0
754 432 0
744 438 0
732 444 0
716 452 0
695 461 0
672 472 0
646 483 0
619 496 0
584 512 0
547 526 0
511 538 0
478 548 0
443 553 0
411 555 0
380 555 0
350 553 0
320 547 0
291 537 0
264 524 0
238 508 0
213 490 0
188 467 0
164 441 0
141 412 0
120 381 0
100 345 0
83 315 0
71 286 0
61 262 0
56 243 0
53 223 0
54 210 0
61 202 0
71 197 0

0 1
1 2
2 3
3 4
4 5
5 6
6 7
7 8
8 9
9 10
10 11
11 12
12 13
13 14
14 15
15 16
16 17
17 18
18 19
19 20
20 21
21 22
22 23
23 24
24 25
25 26
26 27
27 28
28 29
29 30
30 31
31 32
32 33
33 34
34 35
35 36
36 37
37 38
38 39
39 40
40 41
41 42
42 43
43 44
44 45
45 46
46 47
47 48
48 49
49 50
50 51
51 52
52 53
53 54
54 55
55 56
56 57
57 58
58 59
59 60
60 0
