ply
format ascii 1.0
element vertex 58
property float x
property float y
property float z
element edge 58
property int vertex1
property int vertex2
end_header
291 46 0
411 47 0
603 63 0
727 169 0
626 388 0
659 216 0
620 157 0
592 322 0
475 347 0
342 279 0
311 162 0
190 323 0
250 410 0
306 396 0
343 514 0
313 603 0
421 645 0
489 535 0
512 453 0
602 464 0
687 508 0
732 626 0
661 742 0
423 754 0
270 750 0
103 659 0
184 573 0
182 458 0
115 439 0
97 366 0
80 295 0
93 206 0
120 102 0
481 100 0
431 139 0
405 124 0
404 226 0
468 279 0
539 269 0
543 177 0
440 223 0
453 155 0
252 509 0
222 586 0
173 651 0
246 707 0
339 712 0
345 677 0
315 649 0
269 610 0
260 535 0
544 562 0
532 667 0
620 680 0
655 561 0
592 538 0
594 628 0
555 626 0

0 1
1 2
2 3
3 4
4 5
5 6
6 7
7 8
8 9
9 10
10 11
11 12
12 13
13 14
14 15
15 16
16 17
17 18
18 19
19 20
20 21
21 22
22 23
23 24
24 25
25 26
26 27
27 28
28 29
29 30
30 31
31 32
32 0
33 34
34 35
35 36
36 37
37 38
38 39
39 40
40 41
41 33
42 43
43 44
44 45
45 46
46 47
47 48
48 49
49 50
50 42
51 52
52 53
53 54
54 55
55 56
56 57
57 51
