ply
format ascii 1.0
element vertex 63
property float x
property float y
property float z
element edge 63
property int vertex1
property int vertex2
end_header
122 241 0
188 233 0
285 266 0
362 300 0
423 333 0
469 368 0
494 400 0
505 410 0
499 388 0
474 354 0
430 292 0
403 246 0
390 210 0
395 188 0
417 184 0
434 177 0
450 169 0
463 163 0
479 152 0
498 153 0
518 165 0
545 184 0
572 213 0
604 251 0
639 298 0
680 355 0
720 421 0
744 465 0
747 490 0
731 495 0
696 479 0
667 468 0
648 464 0
637 465 0
636 475 0
644 487 0
659 511 0
684 542 0
716 582 0
733 607 0
717 595 0
689 564 0
652 551 0
610 555 0
556 581 0
501 623 0
455 636 0
422 618 0
402 564 0
393 482 0
372 419 0
337 374 0
285 351 0
221 346 0
170 367 0
141 413 0
126 486 0
130 586 0
125 626 0
115 608 0
99 527 0
78 390 0
85 294 0

0 1
1 2
2 3
3 4
4 5
5 6
6 7
7 8
8 9
9 10
10 11
11 12
12 13
13 14
14 15
15 16
16 17
17 18
18 19
19 20
20 21
21 22
22 23
23 24
24 25
25 26
26 27
27 28
28 29
29 30
30 31
31 32
32 33
33 34
34 35
35 36
36 37
37 38
38 39
39 40
40 41
41 42
42 43
43 44
44 45
45 46
46 47
47 48
48 49
49 50
50 51
51 52
52 53
53 54
54 55
55 56
56 57
57 58
58 59
59 60
60 61
61 62
62 0
