ply
format ascii 1.0
element vertex 64
property float x
property float y
property float z
element edge 64
property int vertex1
property int vertex2
end_header
123 231 0
264 115 0
322 109 0
459 80 0
526 104 0
575 174 0
672 206 0
668 233 0
765 406 0
722 545 0
725 420 0
645 425 0
612 344 0
633 364 0
656 379 0
708 409 0
720 390 0
726 381 0
645 264 0
641 211 0
542 220 0
536 133 0
518 108 0
492 101 0
404 101 0
413 166 0
384 196 0
339 266 0
320 314 0
326 375 0
265 455 0
328 510 0
371 523 0
381 515 0
385 494 0
506 470 0
446 496 0
440 503 0
439 529 0
454 610 0
480 699 0
414 577 0
251 470 0
264 564 0
249 590 0
260 605 0
320 661 0
346 719 0
218 565 0
235 517 0
242 457 0
209 422 0
134 392 0
95 401 0
47 404 0
160 370 0
230 409 0
295 394 0
307 390 0
272 271 0
360 210 0
404 160 0
229 164 0
144 228 0

0 1
1 2
2 3
3 4
4 5
5 6
6 7
7 8
8 9
9 10
10 11
11 12
12 13
13 14
14 15
15 16
16 17
17 18
18 19
19 20
20 21
21 22
22 23
23 24
24 25
25 26
26 27
27 28
28 29
29 30
30 31
31 32
32 33
33 34
34 35
35 36
36 37
37 38
38 39
39 40
40 41
41 42
42 43
43 44
44 45
45 46
46 47
47 48
48 49
49 50
50 51
51 52
52 53
53 54
54 55
55 56
56 57
57 58
58 59
59 60
60 61
61 62
62 63
63 0
