ply
format ascii 1.0
element vertex 104
property float x
property float y
property float z
element edge 104
property int vertex1
property int vertex2
end_header
268 654 0
250 649 0
251 621 0
254 604 0
259 592 0
274 568 0
291 552 0
311 540 0
326 535 0
327 525 0
325 521 0
322 514 0
317 503 0
312 491 0
307 496 0
298 506 0
297 507 0
297 508 0
286 518 0
272 528 0
260 533 0
251 533 0
251 503 0
263 498 0
287 491 0
304 483 0
317 470 0
324 460 0
325 447 0
314 440 0
315 423 0
320 407 0
327 405 0
338 411 0
338 423 0
332 438 0
336 456 0
352 462 0
366 462 0
372 454 0
375 431 0
368 408 0
350 387 0
312 366 0
319 353 0
333 359 0
337 370 0
347 354 0
330 334 0
337 325 0
360 352 0
388 404 0
385 445 0
377 460 0
367 476 0
350 496 0
346 511 0
346 521 0
349 531 0
372 534 0
405 550 0
431 575 0
450 610 0
443 613 0
437 599 0
428 598 0
420 605 0
419 615 0
424 615 0
426 609 0
437 609 0
438 618 0
438 619 0
417 628 0
413 612 0
404 588 0
391 568 0
375 550 0
357 547 0
339 545 0
323 548 0
306 563 0
292 585 0
285 608 0
285 631 0
289 649 0
297 669 0
256 685 0
250 683 0
250 677 0
262 671 0
263 661 0
286 662 0
280 648 0
332 423 0
329 413 0
320 423 0
325 437 0
334 478 0
339 480 0
329 510 0
347 480 0
338 465 0
320 480 0

0 1
1 2
2 3
3 4
4 5
5 6
6 7
7 8
8 9
9 10
10 11
11 12
12 13
13 14
14 15
15 16
16 17
17 18
18 19
19 20
20 21
21 22
22 23
23 24
24 25
25 26
26 27
27 28
28 29
29 30
30 31
31 32
32 33
33 34
34 35
35 36
36 37
37 38
38 39
39 40
40 41
41 42
42 43
43 44
44 45
45 46
46 47
47 48
48 49
49 50
50 51
51 52
52 53
53 54
54 55
55 56
56 57
57 58
58 59
59 60
60 61
61 62
62 63
63 64
64 65
65 66
66 67
67 68
68 69
69 70
70 71
71 72
72 73
73 74
74 75
75 76
76 77
77 78
78 79
79 80
80 81
81 82
82 83
83 84
84 85
85 86
86 87
87 88
88 89
89 90
90 91
91 92
92 93
93 0
94 95
95 96
96 97
97 94
98 99
99 100
100 101
101 102
102 103
103 98
