ply
format ascii 1.0
element vertex 226
property float x
property float y
property float z
element edge 226
property int vertex1
property int vertex2
end_header
247 24 0
289 29 0
334 53 0
347 78 0
352 105 0
352 131 0
365 160 0
380 177 0
399 182 0
410 169 0
414 127 0
414 82 0
421 52 0
440 26 0
460 16 0
482 25 0
502 49 0
511 86 0
499 141 0
493 167 0
468 209 0
447 246 0
361 353 0
348 385 0
348 414 0
355 436 0
375 449 0
396 449 0
441 419 0
460 402 0
480 387 0
511 341 0
537 297 0
546 242 0
553 169 0
557 143 0
569 112 0
589 86 0
609 73 0
636 76 0
655 91 0
667 111 0
670 139 0
665 172 0
650 205 0
629 241 0
617 261 0
612 281 0
626 290 0
653 284 0
686 272 0
706 261 0
720 259 0
745 274 0
751 286 0
745 312 0
726 345 0
693 378 0
664 389 0
609 406 0
559 419 0
477 438 0
468 454 0
468 475 0
475 509 0
483 530 0
499 544 0
523 543 0
578 532 0
620 493 0
661 452 0
686 428 0
713 408 0
739 405 0
755 422 0
761 450 0
754 476 0
738 494 0
661 519 0
650 526 0
633 549 0
637 561 0
660 564 0
699 572 0
733 587 0
748 603 0
753 629 0
745 653 0
732 667 0
708 673 0
681 669 0
649 650 0
612 625 0
578 606 0
544 589 0
509 578 0
477 578 0
459 588 0
456 611 0
461 639 0
457 673 0
447 700 0
414 732 0
365 766 0
327 777 0
267 775 0
209 770 0
170 757 0
156 741 0
159 715 0
171 693 0
191 683 0
221 683 0
276 688 0
326 689 0
375 664 0
411 642 0
412 615 0
415 580 0
407 570 0
391 565 0
344 583 0
304 599 0
269 615 0
241 623 0
171 626 0
102 622 0
69 604 0
57 584 0
57 546 0
80 526 0
117 503 0
145 504 0
185 524 0
229 551 0
278 575 0
304 574 0
325 544 0
325 517 0
309 495 0
277 468 0
239 438 0
201 387 0
149 294 0
114 214 0
120 148 0
132 135 0
159 136 0
200 175 0
235 236 0
238 260 0
238 324 0
237 368 0
248 398 0
284 410 0
318 386 0
327 342 0
337 266 0
329 238 0
302 202 0
278 172 0
250 140 0
236 120 0
226 95 0
225 71 0
231 49 0
263 63 0
255 108 0
296 118 0
310 75 0
162 213 0
149 255 0
195 272 0
213 228 0
460 57 0
430 98 0
461 122 0
495 90 0
380 229 0
354 256 0
385 292 0
414 257 0
625 132 0
577 144 0
590 188 0
633 179 0
325 412 0
284 433 0
310 476 0
350 456 0
602 317 0
558 329 0
565 369 0
608 366 0
715 297 0
671 291 0
662 335 0
701 340 0
411 479 0
387 520 0
422 544 0
450 503 0
149 535 0
99 549 0
118 598 0
162 580 0
739 446 0
704 436 0
687 472 0
726 479 0
595 539 0
550 558 0
572 594 0
614 573 0
706 593 0
679 620 0
710 654 0
739 618 0
204 693 0
170 725 0
197 752 0
230 719 0
374 677 0
351 717 0
394 741 0
415 699 0

0 1
1 2
2 3
3 4
4 5
5 6
6 7
7 8
8 9
9 10
10 11
11 12
12 13
13 14
14 15
15 16
16 17
17 18
18 19
19 20
20 21
21 22
22 23
23 24
24 25
25 26
26 27
27 28
28 29
29 30
30 31
31 32
32 33
33 34
34 35
35 36
36 37
37 38
38 39
39 40
40 41
41 42
42 43
43 44
44 45
45 46
46 47
47 48
48 49
49 50
50 51
51 52
52 53
53 54
54 55
55 56
56 57
57 58
58 59
59 60
60 61
61 62
62 63
63 64
64 65
65 66
66 67
67 68
68 69
69 70
70 71
71 72
72 73
73 74
74 75
75 76
76 77
77 78
78 79
79 80
80 81
81 82
82 83
83 84
84 85
85 86
86 87
87 88
88 89
89 90
90 91
91 92
92 93
93 94
94 95
95 96
96 97
97 98
98 99
99 100
100 101
101 102
102 103
103 104
104 105
105 106
106 107
107 108
108 109
109 110
110 111
111 112
112 113
113 114
114 115
115 116
116 117
117 118
118 119
119 120
120 121
121 122
122 123
123 124
124 125
125 126
126 127
127 128
128 129
129 130
130 131
131 132
132 133
133 134
134 135
135 136
136 137
137 138
138 139
139 140
140 141
141 142
142 143
143 144
144 145
145 146
146 147
147 148
148 149
149 150
150 151
151 152
152 153
153 154
154 155
155 156
156 157
157 158
158 159
159 160
160 161
161 162
162 163
163 164
164 165
165 0
166 167
167 168
168 169
169 166
170 171
171 172
172 173
173 170
174 175
175 176
176 177
177 174
178 179
179 180
180 181
181 178
182 183
183 184
184 185
185 182
186 187
187 188
188 189
189 186
190 191
191 192
192 193
193 190
194 195
195 196
196 197
197 194
198 199
199 200
200 201
201 198
202 203
203 204
204 205
205 202
206 207
207 208
208 209
209 206
210 211
211 212
212 213
213 210
214 215
215 216
216 217
217 214
218 219
219 220
220 221
221 218
222 223
223 224
224 225
225 222
