ply
format ascii 1.0
element vertex 124
property float x
property float y
property float z
element edge 124
property int vertex1
property int vertex2
end_header
407 13 0
399 101 0
509 77 0
401 138 0
453 234 0
460 250 0
455 281 0
441 333 0
420 398 0
401 446 0
383 492 0
369 534 0
365 551 0
375 566 0
384 548 0
395 535 0
419 483 0
449 411 0
486 321 0
507 312 0
520 320 0
520 334 0
500 378 0
455 461 0
428 509 0
395 576 0
380 614 0
379 633 0
385 640 0
401 635 0
410 614 0
438 563 0
467 507 0
494 442 0
524 407 0
539 411 0
546 431 0
539 453 0
532 473 0
518 484 0
496 527 0
476 566 0
462 580 0
445 621 0
418 662 0
407 684 0
405 704 0
410 717 0
426 715 0
435 680 0
448 648 0
470 606 0
492 564 0
509 522 0
533 510 0
547 515 0
550 528 0
537 555 0
518 593 0
495 622 0
481 650 0
472 695 0
461 726 0
440 749 0
418 768 0
399 762 0
389 749 0
377 759 0
371 772 0
362 768 0
362 737 0
364 685 0
355 647 0
347 638 0
337 637 0
328 645 0
327 664 0
327 687 0
337 726 0
336 753 0
324 777 0
308 776 0
298 761 0
314 729 0
316 720 0
314 707 0
299 689 0
282 669 0
271 623 0
274 597 0
280 592 0
291 596 0
299 608 0
318 610 0
323 595 0
319 571 0
302 520 0
307 463 0
306 409 0
303 360 0
317 312 0
334 269 0
338 247 0
347 234 0
356 235 0
360 249 0
356 346 0
343 418 0
329 482 0
323 527 0
336 550 0
345 547 0
362 472 0
377 415 0
396 359 0
421 275 0
440 242 0
445 238 0
445 232 0
374 146 0
282 206 0
361 126 0
265 62 0
371 99 0

0 1
1 2
2 3
3 4
4 5
5 6
6 7
7 8
8 9
9 10
10 11
11 12
12 13
13 14
14 15
15 16
16 17
17 18
18 19
19 20
20 21
21 22
22 23
23 24
24 25
25 26
26 27
27 28
28 29
29 30
30 31
31 32
32 33
33 34
34 35
35 36
36 37
37 38
38 39
39 40
40 41
41 42
42 43
43 44
44 45
45 46
46 47
47 48
48 49
49 50
50 51
51 52
52 53
53 54
54 55
55 56
56 57
57 58
58 59
59 60
60 61
61 62
62 63
63 64
64 65
65 66
66 67
67 68
68 69
69 70
70 71
71 72
72 73
73 74
74 75
75 76
76 77
77 78
78 79
79 80
80 81
81 82
82 83
83 84
84 85
85 86
86 87
87 88
88 89
89 90
90 91
91 92
92 93
93 94
94 95
95 96
96 97
97 98
98 99
99 100
100 101
101 102
102 103
103 104
104 105
105 106
106 107
107 108
108 109
109 110
110 111
111 112
112 113
113 114
114 115
115 116
116 117
117 118
118 119
119 120
120 121
121 122
122 123
123 0
