ply
format ascii 1.0
element vertex 191
property float x
property float y
property float z
element edge 191
property int vertex1
property int vertex2
end_header
2 2 0
798 2 0
798 798 0
2 798 0
396 59 0
335 57 0
292 61 0
256 66 0
228 78 0
185 85 0
150 91 0
138 95 0
125 116 0
128 142 0
138 166 0
175 196 0
189 201 0
216 220 0
257 231 0
291 235 0
339 238 0
379 236 0
382 214 0
393 195 0
402 185 0
344 161 0
295 155 0
260 157 0
243 158 0
225 154 0
249 145 0
301 127 0
296 105 0
297 87 0
314 67 0
322 70 0
312 81 0
304 98 0
309 124 0
328 143 0
354 158 0
379 171 0
410 175 0
411 189 0
394 209 0
391 230 0
400 259 0
422 277 0
452 283 0
455 291 0
441 322 0
430 382 0
424 440 0
449 479 0
470 521 0
491 571 0
504 600 0
554 654 0
532 591 0
526 527 0
529 470 0
534 400 0
536 370 0
531 316 0
512 312 0
484 305 0
465 290 0
457 258 0
487 224 0
493 226 0
467 258 0
468 282 0
495 302 0
531 306 0
527 285 0
515 260 0
543 283 0
559 315 0
574 359 0
574 404 0
570 458 0
559 505 0
553 574 0
552 624 0
589 746 0
632 747 0
634 738 0
607 680 0
579 637 0
592 587 0
610 535 0
627 477 0
626 421 0
626 341 0
614 288 0
609 252 0
587 200 0
552 164 0
503 142 0
466 133 0
448 122 0
441 142 0
439 108 0
431 92 0
429 352 0
369 372 0
416 426 0
412 68 0
438 88 0
461 122 0
529 135 0
497 105 0
466 83 0
435 70 0
189 263 0
183 279 0
180 324 0
169 367 0
167 411 0
169 457 0
174 506 0
186 548 0
173 528 0
167 494 0
165 471 0
152 485 0
148 495 0
133 513 0
128 560 0
143 605 0
171 644 0
182 660 0
168 679 0
154 683 0
133 702 0
124 720 0
126 736 0
152 735 0
183 709 0
216 686 0
196 675 0
193 667 0
233 689 0
281 704 0
325 716 0
368 724 0
428 735 0
484 745 0
577 745 0
570 713 0
513 703 0
465 694 0
448 690 0
424 679 0
376 667 0
304 617 0
244 572 0
201 552 0
195 542 0
236 559 0
245 428 0
252 570 0
295 560 0
272 504 0
256 426 0
278 503 0
309 568 0
357 624 0
400 660 0
442 683 0
489 693 0
538 701 0
568 705 0
559 669 0
521 626 0
499 605 0
475 548 0
451 494 0
426 451 0
380 399 0
328 346 0
263 285 0
225 263 0
212 261 0
204 255 0
619 695 0
644 746 0
712 745 0
712 735 0
673 718 0
649 696 0

0 1
1 2
2 3
3 0
4 5
5 6
6 7
7 8
8 9
9 10
10 11
11 12
12 13
13 14
14 15
15 16
16 17
17 18
18 19
19 20
20 21
21 22
22 23
23 24
24 25
25 26
26 27
27 28
28 29
29 30
30 31
31 32
32 33
33 34
34 35
35 36
36 37
37 38
38 39
39 40
40 41
41 42
42 43
43 44
44 45
45 46
46 47
47 48
48 49
49 50
50 51
51 52
52 53
53 54
54 55
55 56
56 57
57 58
58 59
59 60
60 61
61 62
62 63
63 64
64 65
65 66
66 67
67 68
68 69
69 70
70 71
71 72
72 73
73 74
74 75
75 76
76 77
77 78
78 79
79 80
80 81
81 82
82 83
83 84
84 85
85 86
86 87
87 88
88 89
89 90
90 91
91 92
92 93
93 94
94 95
95 96
96 97
97 98
98 99
99 100
100 101
101 102
102 103
103 4
104 105
105 106
106 104
107 108
108 109
109 110
110 111
111 112
112 113
113 107
114 115
115 116
116 117
117 118
118 119
119 120
120 121
121 122
122 123
123 124
124 125
125 126
126 127
127 128
128 129
129 130
130 131
131 132
132 133
133 134
134 135
135 136
136 137
137 138
138 139
139 140
140 141
141 142
142 143
143 144
144 145
145 146
146 147
147 148
148 149
149 150
150 151
151 152
152 153
153 154
154 155
155 156
156 157
157 158
158 159
159 160
160 161
161 162
162 163
163 164
164 165
165 166
166 167
167 168
168 169
169 170
170 171
171 172
172 173
173 174
174 175
175 176
176 177
177 178
178 179
179 180
180 181
181 182
182 183
183 184
184 114
185 186
186 187
187 188
188 189
189 190
190 185
