ply
format ascii 1.0
element vertex 89
property float x
property float y
property float z
element edge 89
property int vertex1
property int vertex2
end_header
204 36 0
215 24 0
249 14 0
305 30 0
356 54 0
421 122 0
424 137 0
441 114 0
457 103 0
485 98 0
507 112 0
524 137 0
523 159 0
508 173 0
461 191 0
490 206 0
530 217 0
567 242 0
601 287 0
616 324 0
618 358 0
613 391 0
600 425 0
593 441 0
586 436 0
577 360 0
558 319 0
545 299 0
509 272 0
494 263 0
490 289 0
483 318 0
464 354 0
443 398 0
431 436 0
437 453 0
466 482 0
479 501 0
480 545 0
482 596 0
469 648 0
454 693 0
451 718 0
444 742 0
408 751 0
411 729 0
406 688 0
396 649 0
382 613 0
369 561 0
360 519 0
357 480 0
348 509 0
332 539 0
327 577 0
328 610 0
341 647 0
337 688 0
329 733 0
322 764 0
304 790 0
292 795 0
274 758 0
278 723 0
262 647 0
254 587 0
253 520 0
261 475 0
280 436 0
291 421 0
307 415 0
325 398 0
348 354 0
352 315 0
351 264 0
350 216 0
348 182 0
360 142 0
351 110 0
334 95 0
310 75 0
274 52 0
247 43 0
435 247 0
426 256 0
428 269 0
441 269 0
446 258 0
444 252 0

0 1
1 2
2 3
3 4
4 5
5 6
6 7
7 8
8 9
9 10
10 11
11 12
12 13
13 14
14 15
15 16
16 17
17 18
18 19
19 20
20 21
21 22
22 23
23 24
24 25
25 26
26 27
27 28
28 29
29 30
30 31
31 32
32 33
33 34
34 35
35 36
36 37
37 38
38 39
39 40
40 41
41 42
42 43
43 44
44 45
45 46
46 47
47 48
48 49
49 50
50 51
51 52
52 53
53 54
54 55
55 56
56 57
57 58
58 59
59 60
60 61
61 62
62 63
63 64
64 65
65 66
66 67
67 68
68 69
69 70
70 71
71 72
72 73
73 74
74 75
75 76
76 77
77 78
78 79
79 80
80 81
81 82
82 0
83 84
84 85
85 86
86 87
87 88
88 83
