ply
format ascii 1.0
element vertex 42
property float x
property float y
property float z
element edge 42
property int vertex1
property int vertex2
end_header
219 85 0
315 91 0
406 68 0
481 32 0
575 111 0
445 209 0
343 312 0
487 279 0
487 247 0
579 278 0
626 364 0
539 356 0
400 371 0
429 451 0
507 454 0
548 517 0
421 555 0
418 630 0
540 621 0
680 637 0
706 712 0
587 699 0
456 693 0
339 711 0
225 742 0
123 770 0
62 692 0
144 690 0
317 644 0
327 600 0
283 616 0
204 589 0
201 517 0
269 513 0
330 480 0
309 401 0
224 440 0
137 399 0
150 327 0
195 329 0
329 204 0
288 187 0

0 1
1 2
2 3
3 4
4 5
5 6
6 7
7 8
8 9
9 10
10 11
11 12
12 13
13 14
14 15
15 16
16 17
17 18
18 19
19 20
20 21
21 22
22 23
23 24
24 25
25 26
26 27
27 28
28 29
29 30
30 31
31 32
32 33
33 34
34 35
35 36
36 37
37 38
38 39
39 40
40 41
41 0
