ply
format ascii 1.0
element vertex 354
property float x
property float y
property float z
element edge 354
property int vertex1
property int vertex2
end_header
56 87 0
101 94 0
128 78 0
186 77 0
219 79 0
269 66 0
309 93 0
342 90 0
397 75 0
405 103 0
431 103 0
462 90 0
494 148 0
511 165 0
549 149 0
546 110 0
597 94 0
681 89 0
716 113 0
758 84 0
775 152 0
715 205 0
676 141 0
635 142 0
614 184 0
589 199 0
623 228 0
635 179 0
667 182 0
749 252 0
666 251 0
662 297 0
756 281 0
755 350 0
722 373 0
730 427 0
747 531 0
761 684 0
724 626 0
663 649 0
756 696 0
620 698 0
488 685 0
549 654 0
460 665 0
451 609 0
418 653 0
381 661 0
342 646 0
350 607 0
331 572 0
295 603 0
275 669 0
199 576 0
207 510 0
266 511 0
311 505 0
357 535 0
345 513 0
364 487 0
330 499 0
334 457 0
300 480 0
265 483 0
180 502 0
162 524 0
182 560 0
156 607 0
196 622 0
229 643 0
232 678 0
180 688 0
180 673 0
194 661 0
174 655 0
139 662 0
113 654 0
95 645 0
89 623 0
89 591 0
77 562 0
59 544 0
40 525 0
27 492 0
38 463 0
58 446 0
186 458 0
230 443 0
239 414 0
238 364 0
251 328 0
284 303 0
328 326 0
412 322 0
382 412 0
415 358 0
416 382 0
434 409 0
439 477 0
470 488 0
512 468 0
516 435 0
484 424 0
445 404 0
431 359 0
440 336 0
487 380 0
498 356 0
497 320 0
532 296 0
546 336 0
554 386 0
581 348 0
617 363 0
597 413 0
592 471 0
631 473 0
650 410 0
641 349 0
557 323 0
546 281 0
546 260 0
576 263 0
626 293 0
597 250 0
558 224 0
548 251 0
508 274 0
493 241 0
477 297 0
451 323 0
429 315 0
453 259 0
421 297 0
367 300 0
306 277 0
197 357 0
188 307 0
204 264 0
202 206 0
214 155 0
235 189 0
235 157 0
320 226 0
353 232 0
353 217 0
429 170 0
409 156 0
378 185 0
363 170 0
328 197 0
293 168 0
266 140 0
217 124 0
190 136 0
185 176 0
190 235 0
178 315 0
168 396 0
155 412 0
113 410 0
90 378 0
89 345 0
64 345 0
47 323 0
47 287 0
23 252 0
32 211 0
82 211 0
109 241 0
106 178 0
82 152 0
40 128 0
123 117 0
108 138 0
120 174 0
137 206 0
116 227 0
130 237 0
133 276 0
110 280 0
84 258 0
73 270 0
92 297 0
91 331 0
123 347 0
131 374 0
145 349 0
160 219 0
131 160 0
154 132 0
216 215 0
217 248 0
232 284 0
249 264 0
279 253 0
348 275 0
348 246 0
311 253 0
261 241 0
243 249 0
254 228 0
284 229 0
316 242 0
279 217 0
256 202 0
241 226 0
273 331 0
264 352 0
276 382 0
253 413 0
243 453 0
273 458 0
284 438 0
311 437 0
352 447 0
377 481 0
405 484 0
404 449 0
372 440 0
370 420 0
351 431 0
313 420 0
285 422 0
290 380 0
295 357 0
310 376 0
340 376 0
353 395 0
368 362 0
340 347 0
333 368 0
310 335 0
316 394 0
307 406 0
323 405 0
338 417 0
348 403 0
341 391 0
333 399 0
87 469 0
60 484 0
62 512 0
95 534 0
93 580 0
110 615 0
129 615 0
123 584 0
143 569 0
128 555 0
145 538 0
140 516 0
167 500 0
153 490 0
130 510 0
123 547 0
112 538 0
108 521 0
95 520 0
80 510 0
93 501 0
88 487 0
110 490 0
134 481 0
138 468 0
128 459 0
112 466 0
115 478 0
106 500 0
103 513 0
120 520 0
116 507 0
126 505 0
134 494 0
129 492 0
121 500 0
652 463 0
667 471 0
665 490 0
658 481 0
643 497 0
652 517 0
663 518 0
682 481 0
671 451 0
405 502 0
415 558 0
367 578 0
386 589 0
490 571 0
531 622 0
586 600 0
638 621 0
683 607 0
684 553 0
713 525 0
723 459 0
703 429 0
709 390 0
687 359 0
679 439 0
696 481 0
680 542 0
651 578 0
606 587 0
572 575 0
599 552 0
640 552 0
650 529 0
633 517 0
604 512 0
618 492 0
592 484 0
564 485 0
564 498 0
584 518 0
534 533 0
530 505 0
559 466 0
567 430 0
514 392 0
538 426 0
531 477 0
500 501 0
498 539 0
442 538 0
316 119 0
313 155 0
347 140 0
388 133 0
425 135 0
457 164 0
469 208 0
404 221 0
392 267 0
419 241 0
469 231 0
462 290 0
480 235 0
500 219 0
513 247 0
525 201 0
555 198 0
574 176 0
601 148 0
572 134 0
555 180 0
509 189 0
482 184 0
478 149 0
454 131 0
426 116 0
393 122 0
363 111 0

0 1
1 2
2 3
3 4
4 5
5 6
6 7
7 8
8 9
9 10
10 11
11 12
12 13
13 14
14 15
15 16
16 17
17 18
18 19
19 20
20 21
21 22
22 23
23 24
24 25
25 26
26 27
27 28
28 29
29 30
30 31
31 32
32 33
33 34
34 35
35 36
36 37
37 38
38 39
39 40
40 41
41 42
42 43
43 44
44 45
45 46
46 47
47 48
48 49
49 50
50 51
51 52
52 53
53 54
54 55
55 56
56 57
57 58
58 59
59 60
60 61
61 62
62 63
63 64
64 65
65 66
66 67
67 68
68 69
69 70
70 71
71 72
72 73
73 74
74 75
75 76
76 77
77 78
78 79
79 80
80 81
81 82
82 83
83 84
84 85
85 86
86 87
87 88
88 89
89 90
90 91
91 92
92 93
93 94
94 95
95 96
96 97
97 98
98 99
99 100
100 101
101 102
102 103
103 104
104 105
105 106
106 107
107 108
108 109
109 110
110 111
111 112
112 113
113 114
114 115
115 116
116 117
117 118
118 119
119 120
120 121
121 122
122 123
123 124
124 125
125 126
126 127
127 128
128 129
129 130
130 131
131 132
132 133
133 134
134 135
135 136
136 137
137 138
138 139
139 140
140 141
141 142
142 143
143 144
144 145
145 146
146 147
147 148
148 149
149 150
150 151
151 152
152 153
153 154
154 155
155 156
156 157
157 158
158 159
159 160
160 161
161 162
162 163
163 164
164 165
165 166
166 167
167 168
168 169
169 170
170 171
171 172
172 0
173 174
174 175
175 176
176 177
177 178
178 179
179 180
180 181
181 182
182 183
183 184
184 185
185 186
186 187
187 188
188 189
189 190
190 173
191 192
192 193
193 194
194 195
195 196
196 197
197 198
198 199
199 200
200 201
201 202
202 203
203 204
204 205
205 206
206 191
207 208
208 209
209 210
210 211
211 212
212 213
213 214
214 215
215 216
216 217
217 218
218 219
219 220
220 221
221 222
222 223
223 224
224 225
225 226
226 227
227 228
228 229
229 230
230 231
231 232
232 207
233 234
234 235
235 236
236 237
237 238
238 239
239 233
240 241
241 242
242 243
243 244
244 245
245 246
246 247
247 248
248 249
249 250
250 251
251 252
252 253
253 254
254 255
255 256
256 257
257 258
258 259
259 260
260 261
261 262
262 263
263 264
264 265
265 266
266 267
267 240
268 269
269 270
270 271
271 272
272 273
273 274
274 275
275 268
276 277
277 278
278 279
279 280
280 281
281 282
282 283
283 284
284 276
285 286
286 287
287 288
288 289
289 290
290 291
291 292
292 293
293 294
294 295
295 296
296 297
297 298
298 299
299 300
300 301
301 302
302 303
303 304
304 305
305 306
306 307
307 308
308 309
309 310
310 311
311 312
312 313
313 314
314 315
315 316
316 317
317 318
318 319
319 320
320 321
321 322
322 323
323 324
324 325
325 285
326 327
327 328
328 329
329 330
330 331
331 332
332 333
333 334
334 335
335 336
336 337
337 338
338 339
339 340
340 341
341 342
342 343
343 344
344 345
345 346
346 347
347 348
348 349
349 350
350 351
351 352
352 353
353 326
