ply
format ascii 1.0
element vertex 105
property float x
property float y
property float z
element edge 105
property int vertex1
property int vertex2
end_header
266 77 0
325 44 0
394 67 0
429 113 0
401 164 0
453 191 0
502 158 0
503 81 0
481 71 0
520 35 0
588 36 0
622 83 0
617 136 0
654 175 0
604 212 0
658 236 0
652 276 0
564 291 0
510 308 0
495 340 0
585 308 0
649 332 0
676 385 0
624 427 0
572 469 0
620 479 0
696 464 0
747 486 0
760 544 0
729 585 0
678 562 0
621 541 0
566 541 0
607 557 0
660 593 0
660 655 0
612 692 0
602 751 0
527 759 0
446 757 0
412 723 0
403 666 0
378 690 0
372 740 0
308 757 0
245 767 0
190 725 0
187 675 0
159 633 0
211 618 0
255 581 0
180 595 0
97 626 0
52 600 0
22 557 0
46 518 0
68 548 0
266 508 0
227 470 0
195 430 0
188 380 0
217 345 0
175 309 0
275 282 0
229 259 0
185 205 0
237 212 0
297 157 0
290 98 0
438 205 0
377 243 0
445 267 0
495 238 0
342 307 0
254 341 0
250 374 0
302 340 0
362 325 0
420 350 0
456 315 0
421 290 0
319 385 0
276 407 0
292 446 0
493 387 0
522 415 0
541 374 0
425 414 0
369 468 0
323 486 0
352 504 0
418 497 0
486 479 0
402 540 0
345 560 0
401 591 0
432 572 0
489 584 0
470 543 0
322 634 0
269 642 0
280 703 0
548 626 0
495 636 0
505 694 0

0 1
1 2
2 3
3 4
4 5
5 6
6 7
7 8
8 9
9 10
10 11
11 12
12 13
13 14
14 15
15 16
16 17
17 18
18 19
19 20
20 21
21 22
22 23
23 24
24 25
25 26
26 27
27 28
28 29
29 30
30 31
31 32
32 33
33 34
34 35
35 36
36 37
37 38
38 39
39 40
40 41
41 42
42 43
43 44
44 45
45 46
46 47
47 48
48 49
49 50
50 51
51 52
52 53
53 54
54 55
55 56
56 57
57 58
58 59
59 60
60 61
61 62
62 63
63 64
64 65
65 66
66 67
67 68
68 0
69 70
70 71
71 72
72 69
73 74
74 75
75 76
76 77
77 78
78 79
79 80
80 73
81 82
82 83
83 81
84 85
85 86
86 84
87 88
88 89
89 90
90 91
91 92
92 87
93 94
94 95
95 96
96 97
97 98
98 93
99 100
100 101
101 99
102 103
103 104
104 102
