ply
format ascii 1.0
element vertex 23
property float x
property float y
property float z
element edge 23
property int vertex1
property int vertex2
end_header
532 134 0
761 362 0
711 509 0
533 411 0
459 514 0
582 542 0
386 639 0
162 599 0
57 508 0
46 429 0
94 439 0
190 384 0
71 259 0
197 106 0
353 230 0
561 313 0
609 380 0
654 312 0
198 486 0
347 536 0
332 462 0
450 388 0
299 362 0

0 1
1 2
2 3
3 4
4 5
5 6
6 7
7 8
8 9
9 10
10 11
11 12
12 13
13 14
14 0
15 16
16 17
17 15
18 19
19 20
20 21
21 22
22 18
