ply
format ascii 1.0
element vertex 279
property float x
property float y
property float z
element edge 279
property int vertex1
property int vertex2
end_header
91 58 0
128 84 0
158 107 0
191 58 0
231 37 0
269 36 0
311 26 0
361 44 0
371 66 0
360 88 0
381 115 0
369 142 0
380 156 0
401 145 0
393 128 0
419 48 0
450 126 0
470 57 0
490 37 0
570 46 0
619 45 0
667 34 0
698 44 0
730 75 0
732 115 0
719 115 0
672 93 0
629 72 0
603 94 0
678 117 0
709 176 0
720 274 0
730 148 0
751 176 0
751 246 0
741 273 0
760 326 0
750 405 0
732 415 0
730 506 0
738 545 0
699 515 0
700 459 0
721 403 0
711 348 0
681 378 0
682 437 0
680 477 0
691 567 0
721 594 0
730 645 0
730 696 0
680 737 0
632 727 0
590 746 0
591 718 0
551 735 0
511 716 0
558 689 0
569 656 0
589 630 0
627 675 0
669 689 0
699 686 0
671 657 0
680 628 0
710 625 0
692 599 0
650 597 0
612 614 0
621 587 0
650 567 0
652 528 0
640 509 0
658 466 0
659 417 0
672 359 0
690 333 0
690 278 0
671 234 0
669 186 0
649 146 0
609 135 0
582 96 0
541 74 0
528 83 0
488 85 0
529 124 0
561 118 0
609 156 0
641 167 0
660 326 0
639 475 0
591 595 0
532 654 0
479 684 0
407 746 0
320 755 0
307 737 0
380 704 0
380 677 0
331 677 0
279 674 0
281 641 0
301 617 0
318 578 0
339 559 0
349 594 0
341 635 0
352 646 0
381 594 0
388 540 0
420 515 0
420 456 0
479 445 0
511 458 0
529 427 0
560 437 0
580 474 0
569 525 0
569 545 0
561 566 0
528 573 0
511 573 0
509 557 0
520 540 0
522 515 0
509 518 0
492 508 0
501 490 0
491 475 0
478 473 0
460 484 0
461 506 0
460 527 0
450 545 0
442 558 0
430 557 0
418 552 0
408 564 0
412 585 0
394 592 0
390 615 0
398 633 0
419 635 0
438 616 0
451 604 0
466 616 0
507 625 0
519 615 0
539 597 0
561 585 0
580 568 0
596 539 0
600 514 0
589 488 0
599 458 0
591 417 0
598 397 0
589 368 0
572 328 0
550 307 0
521 285 0
481 225 0
479 176 0
519 176 0
542 246 0
569 257 0
588 237 0
600 335 0
622 362 0
628 332 0
628 275 0
611 213 0
589 186 0
549 186 0
542 166 0
510 148 0
452 146 0
419 176 0
387 219 0
391 315 0
420 239 0
470 277 0
491 316 0
509 355 0
470 368 0
458 356 0
461 318 0
430 323 0
401 338 0
388 368 0
350 345 0
322 347 0
298 345 0
269 378 0
280 398 0
309 399 0
349 408 0
370 438 0
371 460 0
349 466 0
319 458 0
281 435 0
252 436 0
238 453 0
220 487 0
181 504 0
160 566 0
133 584 0
158 618 0
179 626 0
202 596 0
231 560 0
229 524 0
240 507 0
271 497 0
292 507 0
311 479 0
340 498 0
311 516 0
302 545 0
278 578 0
239 593 0
229 627 0
239 652 0
268 699 0
289 715 0
270 737 0
250 749 0
210 746 0
181 757 0
140 768 0
130 756 0
109 737 0
86 731 0
88 716 0
151 679 0
79 648 0
40 627 0
60 519 0
91 479 0
137 496 0
161 419 0
141 370 0
108 375 0
79 397 0
61 426 0
40 406 0
47 358 0
38 319 0
46 224 0
74 214 0
92 217 0
129 287 0
202 167 0
239 247 0
151 345 0
172 387 0
221 388 0
238 350 0
263 279 0
333 315 0
321 224 0
290 157 0
300 116 0
310 87 0
332 64 0
282 76 0
230 106 0
240 144 0
199 132 0
162 132 0
148 146 0
149 165 0
139 187 0
80 175 0
71 136 0
48 96 0

0 1
1 2
2 3
3 4
4 5
5 6
6 7
7 8
8 9
9 10
10 11
11 12
12 13
13 14
14 15
15 16
16 17
17 18
18 19
19 20
20 21
21 22
22 23
23 24
24 25
25 26
26 27
27 28
28 29
29 30
30 31
31 32
32 33
33 34
34 35
35 36
36 37
37 38
38 39
39 40
40 41
41 42
42 43
43 44
44 45
45 46
46 47
47 48
48 49
49 50
50 51
51 52
52 53
53 54
54 55
55 56
56 57
57 58
58 59
59 60
60 61
61 62
62 63
63 64
64 65
65 66
66 67
67 68
68 69
69 70
70 71
71 72
72 73
73 74
74 75
75 76
76 77
77 78
78 79
79 80
80 81
81 82
82 83
83 84
84 85
85 86
86 87
87 88
88 89
89 90
90 91
91 92
92 93
93 94
94 95
95 96
96 97
97 98
98 99
99 100
100 101
101 102
102 103
103 104
104 105
105 106
106 107
107 108
108 109
109 110
110 111
111 112
112 113
113 114
114 115
115 116
116 117
117 118
118 119
119 120
120 121
121 122
122 123
123 124
124 125
125 126
126 127
127 128
128 129
129 130
130 131
131 132
132 133
133 134
134 135
135 136
136 137
137 138
138 139
139 140
140 141
141 142
142 143
143 144
144 145
145 146
146 147
147 148
148 149
149 150
150 151
151 152
152 153
153 154
154 155
155 156
156 157
157 158
158 159
159 160
160 161
161 162
162 163
163 164
164 165
165 166
166 167
167 168
168 169
169 170
170 171
171 172
172 173
173 174
174 175
175 176
176 177
177 178
178 179
179 180
180 181
181 182
182 183
183 184
184 185
185 186
186 187
187 188
188 189
189 190
190 191
191 192
192 193
193 194
194 195
195 196
196 197
197 198
198 199
199 200
200 201
201 202
202 203
203 204
204 205
205 206
206 207
207 208
208 209
209 210
210 211
211 212
212 213
213 214
214 215
215 216
216 217
217 218
218 219
219 220
220 221
221 222
222 223
223 224
224 225
225 226
226 227
227 228
228 229
229 230
230 231
231 232
232 233
233 234
234 235
235 236
236 237
237 238
238 239
239 240
240 241
241 242
242 243
243 244
244 245
245 246
246 247
247 248
248 249
249 250
250 251
251 252
252 253
253 254
254 255
255 256
256 257
257 258
258 259
259 260
260 261
261 262
262 263
263 264
264 265
265 266
266 267
267 268
268 269
269 270
270 271
271 272
272 273
273 274
274 275
275 276
276 277
277 278
278 0
