ply
format ascii 1.0
element vertex 30
property float x
property float y
property float z
element edge 30
property int vertex1
property int vertex2
end_header
31 283 0
86 436 0
127 438 0
129 286 0
275 285 0
278 436 0
326 436 0
327 285 0
471 285 0
475 436 0
522 435 0
522 283 0
664 282 0
669 431 0
714 432 0
765 279 0
767 478 0
624 484 0
621 337 0
574 337 0
575 481 0
429 482 0
426 336 0
376 337 0
375 483 0
229 483 0
229 338 0
177 340 0
180 483 0
34 482 0

0 1
1 2
2 3
3 4
4 5
5 6
6 7
7 8
8 9
9 10
10 11
11 12
12 13
13 14
14 15
15 16
16 17
17 18
18 19
19 20
20 21
21 22
22 23
23 24
24 25
25 26
26 27
27 28
28 29
29 0
