ply
format ascii 1.0
element vertex 144
property float x
property float y
property float z
element edge 144
property int vertex1
property int vertex2
end_header
131 35 0
154 23 0
180 21 0
206 27 0
228 42 0
242 58 0
273 61 0
302 71 0
339 76 0
370 86 0
393 93 0
408 104 0
441 117 0
462 140 0
471 156 0
488 159 0
494 162 0
504 154 0
522 135 0
542 128 0
569 126 0
588 138 0
599 161 0
599 180 0
589 195 0
571 208 0
561 215 0
544 215 0
524 221 0
521 234 0
534 262 0
546 294 0
546 323 0
536 347 0
533 405 0
540 429 0
540 491 0
542 515 0
536 547 0
528 563 0
510 582 0
505 579 0
508 573 0
493 571 0
479 614 0
467 663 0
456 706 0
467 732 0
488 741 0
511 749 0
533 754 0
541 768 0
516 778 0
492 778 0
441 772 0
416 770 0
414 757 0
420 734 0
419 671 0
421 634 0
416 616 0
382 646 0
334 674 0
322 693 0
309 740 0
308 764 0
302 782 0
292 780 0
280 779 0
279 763 0
278 754 0
280 735 0
278 712 0
265 686 0
266 676 0
273 670 0
294 662 0
343 614 0
353 594 0
414 552 0
398 533 0
377 513 0
357 490 0
326 462 0
304 452 0
284 442 0
269 414 0
267 379 0
274 348 0
291 309 0
310 255 0
320 242 0
332 221 0
368 178 0
395 149 0
374 139 0
331 128 0
313 116 0
292 112 0
256 104 0
246 131 0
229 147 0
205 158 0
175 158 0
150 148 0
131 134 0
120 119 0
112 94 0
112 79 0
106 73 0
107 63 0
107 58 0
111 53 0
113 47 0
117 43 0
120 38 0
402 344 0
398 366 0
389 386 0
392 395 0
435 441 0
475 484 0
485 496 0
498 507 0
500 522 0
507 514 0
516 510 0
498 459 0
496 428 0
497 416 0
492 378 0
490 351 0
494 322 0
481 314 0
467 320 0
452 321 0
441 331 0
426 335 0
499 563 0
513 560 0
514 538 0
505 538 0
501 551 0
493 559 0

0 1
1 2
2 3
3 4
4 5
5 6
6 7
7 8
8 9
9 10
10 11
11 12
12 13
13 14
14 15
15 16
16 17
17 18
18 19
19 20
20 21
21 22
22 23
23 24
24 25
25 26
26 27
27 28
28 29
29 30
30 31
31 32
32 33
33 34
34 35
35 36
36 37
37 38
38 39
39 40
40 41
41 42
42 43
43 44
44 45
45 46
46 47
47 48
48 49
49 50
50 51
51 52
52 53
53 54
54 55
55 56
56 57
57 58
58 59
59 60
60 61
61 62
62 63
63 64
64 65
65 66
66 67
67 68
68 69
69 70
70 71
71 72
72 73
73 74
74 75
75 76
76 77
77 78
78 79
79 80
80 81
81 82
82 83
83 84
84 85
85 86
86 87
87 88
88 89
89 90
90 91
91 92
92 93
93 94
94 95
95 96
96 97
97 98
98 99
99 100
100 101
101 102
102 103
103 104
104 105
105 106
106 107
107 108
108 109
109 110
110 111
111 112
112 113
113 114
114 115
115 0
116 117
117 118
118 119
119 120
120 121
121 122
122 123
123 124
124 125
125 126
126 127
127 128
128 129
129 130
130 131
131 132
132 133
133 134
134 135
135 136
136 137
137 116
138 139
139 140
140 141
141 142
142 143
143 138
