ply
format ascii 1.0
element vertex 170
property float x
property float y
property float z
element edge 170
property int vertex1
property int vertex2
end_header
245 11 0
267 10 0
284 23 0
311 26 0
335 55 0
348 75 0
344 102 0
360 146 0
350 211 0
332 220 0
274 216 0
264 213 0
213 250 0
195 278 0
145 311 0
140 349 0
150 353 0
167 337 0
263 274 0
296 270 0
325 288 0
324 348 0
300 382 0
329 385 0
333 372 0
384 331 0
386 302 0
378 287 0
377 233 0
394 202 0
394 168 0
379 136 0
366 100 0
366 74 0
390 48 0
406 48 0
422 75 0
433 75 0
487 49 0
541 25 0
596 17 0
625 45 0
625 82 0
639 98 0
636 123 0
617 135 0
577 137 0
468 210 0
420 210 0
414 238 0
423 259 0
424 291 0
440 296 0
484 264 0
552 214 0
612 177 0
647 177 0
655 190 0
655 228 0
642 249 0
570 300 0
600 335 0
606 358 0
592 381 0
511 403 0
431 426 0
410 444 0
393 481 0
384 550 0
386 605 0
394 622 0
432 617 0
455 595 0
456 557 0
421 558 0
406 540 0
428 529 0
457 491 0
518 442 0
580 404 0
632 400 0
682 414 0
724 447 0
756 499 0
753 556 0
728 607 0
692 672 0
645 734 0
605 769 0
550 768 0
521 758 0
486 756 0
448 768 0
408 759 0
372 738 0
322 653 0
315 603 0
313 536 0
300 531 0
292 600 0
301 723 0
300 763 0
291 771 0
256 777 0
234 765 0
220 738 0
219 661 0
217 620 0
208 616 0
176 651 0
142 682 0
110 685 0
57 632 0
49 593 0
55 562 0
64 558 0
79 558 0
119 514 0
144 491 0
158 485 0
158 468 0
116 466 0
76 442 0
58 403 0
61 357 0
68 337 0
112 291 0
193 223 0
234 197 0
217 183 0
205 158 0
201 116 0
202 71 0
214 29 0
523 269 0
444 324 0
462 359 0
506 297 0
535 277 0
388 402 0
366 422 0
351 464 0
363 470 0
395 432 0
419 416 0
613 482 0
531 504 0
543 510 0
553 569 0
574 580 0
596 580 0
604 594 0
625 587 0
640 516 0
437 687 0
407 675 0
400 681 0
400 694 0
415 707 0
416 736 0
441 736 0
602 612 0
554 629 0
542 656 0
537 706 0
556 715 0
566 701 0
583 692 0
594 677 0
595 653 0

0 1
1 2
2 3
3 4
4 5
5 6
6 7
7 8
8 9
9 10
10 11
11 12
12 13
13 14
14 15
15 16
16 17
17 18
18 19
19 20
20 21
21 22
22 23
23 24
24 25
25 26
26 27
27 28
28 29
29 30
30 31
31 32
32 33
33 34
34 35
35 36
36 37
37 38
38 39
39 40
40 41
41 42
42 43
43 44
44 45
45 46
46 47
47 48
48 49
49 50
50 51
51 52
52 53
53 54
54 55
55 56
56 57
57 58
58 59
59 60
60 61
61 62
62 63
63 64
64 65
65 66
66 67
67 68
68 69
69 70
70 71
71 72
72 73
73 74
74 75
75 76
76 77
77 78
78 79
79 80
80 81
81 82
82 83
83 84
84 85
85 86
86 87
87 88
88 89
89 90
90 91
91 92
92 93
93 94
94 95
95 96
96 97
97 98
98 99
99 100
100 101
101 102
102 103
103 104
104 105
105 106
106 107
107 108
108 109
109 110
110 111
111 112
112 113
113 114
114 115
115 116
116 117
117 118
118 119
119 120
120 121
121 122
122 123
123 124
124 125
125 126
126 127
127 128
128 129
129 130
130 131
131 132
132 133
133 0
134 135
135 136
136 137
137 138
138 134
139 140
140 141
141 142
142 143
143 144
144 139
145 146
146 147
147 148
148 149
149 150
150 151
151 152
152 153
153 145
154 155
155 156
156 157
157 158
158 159
159 160
160 154
161 162
162 163
163 164
164 165
165 166
166 167
167 168
168 169
169 161
