ply
format ascii 1.0
element vertex 119
property float x
property float y
property float z
element edge 119
property int vertex1
property int vertex2
end_header
684 131 0
705 111 0
703 134 0
720 112 0
714 147 0
737 171 0
749 212 0
784 267 0
769 297 0
741 302 0
725 271 0
692 249 0
678 248 0
657 237 0
635 298 0
635 319 0
620 345 0
616 410 0
608 448 0
588 474 0
578 513 0
566 547 0
560 584 0
548 616 0
545 657 0
547 694 0
579 718 0
579 730 0
547 731 0
542 725 0
542 715 0
534 706 0
524 606 0
513 633 0
513 687 0
521 705 0
533 715 0
536 725 0
501 727 0
498 706 0
490 699 0
493 626 0
500 576 0
500 485 0
496 478 0
360 474 0
307 456 0
263 434 0
234 481 0
214 548 0
212 619 0
228 664 0
228 675 0
256 701 0
261 712 0
255 717 0
229 715 0
223 711 0
214 685 0
201 677 0
195 626 0
185 578 0
172 559 0
171 531 0
177 513 0
141 545 0
111 594 0
107 635 0
106 678 0
126 700 0
140 722 0
139 728 0
120 732 0
96 721 0
96 699 0
79 690 0
80 676 0
90 641 0
90 546 0
124 499 0
127 460 0
111 411 0
102 368 0
107 335 0
120 308 0
118 301 0
111 301 0
97 330 0
92 460 0
89 514 0
79 562 0
70 592 0
63 601 0
62 581 0
58 609 0
48 605 0
44 582 0
39 596 0
38 562 0
34 577 0
26 563 0
25 542 0
24 390 0
33 351 0
38 329 0
39 318 0
60 295 0
89 280 0
126 276 0
145 273 0
181 264 0
271 264 0
329 280 0
398 282 0
482 265 0
532 214 0
576 167 0
624 141 0
666 133 0

0 1
1 2
2 3
3 4
4 5
5 6
6 7
7 8
8 9
9 10
10 11
11 12
12 13
13 14
14 15
15 16
16 17
17 18
18 19
19 20
20 21
21 22
22 23
23 24
24 25
25 26
26 27
27 28
28 29
29 30
30 31
31 32
32 33
33 34
34 35
35 36
36 37
37 38
38 39
39 40
40 41
41 42
42 43
43 44
44 45
45 46
46 47
47 48
48 49
49 50
50 51
51 52
52 53
53 54
54 55
55 56
56 57
57 58
58 59
59 60
60 61
61 62
62 63
63 64
64 65
65 66
66 67
67 68
68 69
69 70
70 71
71 72
72 73
73 74
74 75
75 76
76 77
77 78
78 79
79 80
80 81
81 82
82 83
83 84
84 85
85 86
86 87
87 88
88 89
89 90
90 91
91 92
92 93
93 94
94 95
95 96
96 97
97 98
98 99
99 100
100 101
101 102
102 103
103 104
104 105
105 106
106 107
107 108
108 109
109 110
110 111
111 112
112 113
113 114
114 115
115 116
116 117
117 118
118 0
