ply
format ascii 1.0
element vertex 125
property float x
property float y
property float z
element edge 125
property int vertex1
property int vertex2
end_header
173 89 0
243 105 0
275 93 0
323 93 0
338 58 0
383 89 0
445 42 0
485 106 0
534 68 0
684 41 0
730 69 0
627 106 0
641 116 0
718 119 0
730 151 0
669 162 0
716 186 0
683 256 0
536 275 0
501 239 0
485 195 0
567 164 0
610 162 0
654 196 0
641 225 0
597 216 0
608 185 0
537 212 0
550 247 0
669 247 0
681 195 0
578 118 0
536 128 0
508 168 0
476 168 0
459 134 0
368 192 0
366 256 0
474 273 0
472 312 0
412 311 0
411 364 0
498 375 0
516 483 0
635 514 0
729 386 0
595 337 0
550 366 0
565 428 0
607 425 0
576 388 0
623 379 0
650 411 0
607 447 0
549 448 0
500 320 0
670 313 0
774 390 0
683 532 0
759 581 0
608 759 0
483 757 0
335 634 0
382 566 0
429 577 0
460 547 0
514 570 0
593 547 0
679 583 0
563 708 0
498 709 0
441 657 0
472 621 0
517 634 0
483 653 0
532 685 0
575 655 0
607 580 0
410 607 0
409 672 0
499 735 0
576 733 0
715 581 0
611 533 0
349 502 0
367 401 0
292 402 0
289 479 0
218 410 0
141 464 0
92 605 0
244 695 0
276 614 0
319 545 0
184 513 0
152 587 0
214 617 0
183 564 0
257 590 0
227 649 0
126 589 0
173 483 0
350 532 0
292 635 0
275 741 0
74 683 0
33 575 0
89 439 0
152 388 0
245 364 0
258 331 0
156 350 0
168 318 0
311 302 0
312 288 0
246 247 0
142 271 0
116 248 0
141 222 0
228 220 0
277 182 0
172 159 0
78 190 0
48 158 0
80 124 0

0 1
1 2
2 3
3 4
4 5
5 6
6 7
7 8
8 9
9 10
10 11
11 12
12 13
13 14
14 15
15 16
16 17
17 18
18 19
19 20
20 21
21 22
22 23
23 24
24 25
25 26
26 27
27 28
28 29
29 30
30 31
31 32
32 33
33 34
34 35
35 36
36 37
37 38
38 39
39 40
40 41
41 42
42 43
43 44
44 45
45 46
46 47
47 48
48 49
49 50
50 51
51 52
52 53
53 54
54 55
55 56
56 57
57 58
58 59
59 60
60 61
61 62
62 63
63 64
64 65
65 66
66 67
67 68
68 69
69 70
70 71
71 72
72 73
73 74
74 75
75 76
76 77
77 78
78 79
79 80
80 81
81 82
82 83
83 84
84 85
85 86
86 87
87 88
88 89
89 90
90 91
91 92
92 93
93 94
94 95
95 96
96 97
97 98
98 99
99 100
100 101
101 102
102 103
103 104
104 105
105 106
106 107
107 108
108 109
109 110
110 111
111 112
112 113
113 114
114 115
115 116
116 117
117 118
118 119
119 120
120 121
121 122
122 123
123 124
124 0
